%TF.GenerationSoftware,KiCad,Pcbnew,8.0.2-1*%
%TF.CreationDate,2024-06-14T18:01:20+02:00*%
%TF.ProjectId,hardware,68617264-7761-4726-952e-6b696361645f,rev?*%
%TF.SameCoordinates,Original*%
%TF.FileFunction,Drillmap*%
%TF.FilePolarity,Positive*%
%FSLAX45Y45*%
G04 Gerber Fmt 4.5, Leading zero omitted, Abs format (unit mm)*
G04 Created by KiCad (PCBNEW 8.0.2-1) date 2024-06-14 18:01:20*
%MOMM*%
%LPD*%
G01*
G04 APERTURE LIST*
%ADD10C,0.100000*%
%ADD11C,0.200000*%
%ADD12C,0.130000*%
%ADD13C,0.150000*%
%ADD14C,0.170000*%
G04 APERTURE END LIST*
D10*
X7900000Y-9800000D02*
X7900000Y-8600000D01*
X17000000Y-9800000D02*
X17000000Y-8600000D01*
X7900000Y-8600000D02*
G75*
G02*
X8141421Y-8396473I241420J-41420D01*
G01*
X8100000Y-10000000D02*
G75*
G02*
X7900000Y-9800000I0J200000D01*
G01*
X17000000Y-9800000D02*
G75*
G02*
X16800000Y-10000000I-200000J0D01*
G01*
X8100000Y-10000000D02*
X9300000Y-10000000D01*
X9500000Y-13704000D02*
X9500000Y-13190000D01*
X15400000Y-10200000D02*
G75*
G02*
X15600000Y-10000000I200000J0D01*
G01*
X9300000Y-10000000D02*
G75*
G02*
X9500000Y-10200000I0J-200000D01*
G01*
X15400000Y-13704000D02*
X9500000Y-13704000D01*
X9500000Y-10200000D02*
X9500000Y-12330000D01*
X15600000Y-10000000D02*
X16800000Y-10000000D01*
X15400000Y-13704000D02*
X15400000Y-10200000D01*
X16800000Y-8400000D02*
G75*
G02*
X17000000Y-8600000I0J-200000D01*
G01*
X16800000Y-8400000D02*
X8141421Y-8396472D01*
X9500000Y-12330000D02*
X9500000Y-13190000D01*
D11*
D10*
X9030000Y-9840000D02*
X9050000Y-9860000D01*
X9050000Y-9840000D02*
X9030000Y-9860000D01*
X9110000Y-9490000D02*
X9130000Y-9510000D01*
X9130000Y-9490000D02*
X9110000Y-9510000D01*
X9150000Y-9902500D02*
X9170000Y-9922500D01*
X9170000Y-9902500D02*
X9150000Y-9922500D01*
X9440000Y-9780000D02*
X9460000Y-9800000D01*
X9460000Y-9780000D02*
X9440000Y-9800000D01*
X9550000Y-9350000D02*
X9570000Y-9370000D01*
X9570000Y-9350000D02*
X9550000Y-9370000D01*
X9570000Y-10270000D02*
X9590000Y-10290000D01*
X9590000Y-10270000D02*
X9570000Y-10290000D01*
X9760000Y-10200000D02*
X9780000Y-10220000D01*
X9780000Y-10200000D02*
X9760000Y-10220000D01*
X9890000Y-12920000D02*
X9910000Y-12940000D01*
X9910000Y-12920000D02*
X9890000Y-12940000D01*
X9890000Y-12980000D02*
X9910000Y-13000000D01*
X9910000Y-12980000D02*
X9890000Y-13000000D01*
X9890000Y-13040000D02*
X9910000Y-13060000D01*
X9910000Y-13040000D02*
X9890000Y-13060000D01*
X9900000Y-9980000D02*
X9920000Y-10000000D01*
X9920000Y-9980000D02*
X9900000Y-10000000D01*
X9910000Y-13100000D02*
X9930000Y-13120000D01*
X9930000Y-13100000D02*
X9910000Y-13120000D01*
X9940000Y-13160000D02*
X9960000Y-13180000D01*
X9960000Y-13160000D02*
X9940000Y-13180000D01*
X9960000Y-11125000D02*
X9980000Y-11145000D01*
X9980000Y-11125000D02*
X9960000Y-11145000D01*
X9960000Y-11255000D02*
X9980000Y-11275000D01*
X9980000Y-11255000D02*
X9960000Y-11275000D01*
X9980000Y-13210000D02*
X10000000Y-13230000D01*
X10000000Y-13210000D02*
X9980000Y-13230000D01*
X9990000Y-12920000D02*
X10010000Y-12940000D01*
X10010000Y-12920000D02*
X9990000Y-12940000D01*
X9990000Y-12980000D02*
X10010000Y-13000000D01*
X10010000Y-12980000D02*
X9990000Y-13000000D01*
X10000000Y-13040000D02*
X10020000Y-13060000D01*
X10020000Y-13040000D02*
X10000000Y-13060000D01*
X10011853Y-10798147D02*
X10031853Y-10818147D01*
X10031853Y-10798147D02*
X10011853Y-10818147D01*
X10020000Y-13100000D02*
X10040000Y-13120000D01*
X10040000Y-13100000D02*
X10020000Y-13120000D01*
X10030000Y-13250000D02*
X10050000Y-13270000D01*
X10050000Y-13250000D02*
X10030000Y-13270000D01*
X10060000Y-13140000D02*
X10080000Y-13160000D01*
X10080000Y-13140000D02*
X10060000Y-13160000D01*
X10071905Y-10798095D02*
X10091905Y-10818095D01*
X10091905Y-10798095D02*
X10071905Y-10818095D01*
X10080000Y-11120000D02*
X10100000Y-11140000D01*
X10100000Y-11120000D02*
X10080000Y-11140000D01*
X10080000Y-13270000D02*
X10100000Y-13290000D01*
X10100000Y-13270000D02*
X10080000Y-13290000D01*
X10120000Y-13180000D02*
X10140000Y-13200000D01*
X10140000Y-13180000D02*
X10120000Y-13200000D01*
X10140000Y-13280000D02*
X10160000Y-13300000D01*
X10160000Y-13280000D02*
X10140000Y-13300000D01*
X10279090Y-10909090D02*
X10299090Y-10929090D01*
X10299090Y-10909090D02*
X10279090Y-10929090D01*
X10280313Y-10964077D02*
X10300313Y-10984077D01*
X10300313Y-10964077D02*
X10280313Y-10984077D01*
X10289423Y-10813234D02*
X10309423Y-10833234D01*
X10309423Y-10813234D02*
X10289423Y-10833234D01*
X10290000Y-11220000D02*
X10310000Y-11240000D01*
X10310000Y-11220000D02*
X10290000Y-11240000D01*
X10299090Y-10759090D02*
X10319090Y-10779090D01*
X10319090Y-10759090D02*
X10299090Y-10779090D01*
X10302400Y-11928000D02*
X10322400Y-11948000D01*
X10322400Y-11928000D02*
X10302400Y-11948000D01*
X10307500Y-10610000D02*
X10327500Y-10630000D01*
X10327500Y-10610000D02*
X10307500Y-10630000D01*
X10310000Y-13320000D02*
X10330000Y-13340000D01*
X10330000Y-13320000D02*
X10310000Y-13340000D01*
X10332508Y-10662126D02*
X10352508Y-10682126D01*
X10352508Y-10662126D02*
X10332508Y-10682126D01*
X10370000Y-13320000D02*
X10390000Y-13340000D01*
X10390000Y-13320000D02*
X10370000Y-13340000D01*
X10380000Y-10960000D02*
X10400000Y-10980000D01*
X10400000Y-10960000D02*
X10380000Y-10980000D01*
X10400000Y-10540000D02*
X10420000Y-10560000D01*
X10420000Y-10540000D02*
X10400000Y-10560000D01*
X10400000Y-13150000D02*
X10420000Y-13170000D01*
X10420000Y-13150000D02*
X10400000Y-13170000D01*
X10410000Y-11077500D02*
X10430000Y-11097500D01*
X10430000Y-11077500D02*
X10410000Y-11097500D01*
X10430000Y-13320000D02*
X10450000Y-13340000D01*
X10450000Y-13320000D02*
X10430000Y-13340000D01*
X10430779Y-12820000D02*
X10450779Y-12840000D01*
X10450779Y-12820000D02*
X10430779Y-12840000D01*
X10460000Y-13150000D02*
X10480000Y-13170000D01*
X10480000Y-13150000D02*
X10460000Y-13170000D01*
X10490000Y-10690000D02*
X10510000Y-10710000D01*
X10510000Y-10690000D02*
X10490000Y-10710000D01*
X10490000Y-11300000D02*
X10510000Y-11320000D01*
X10510000Y-11300000D02*
X10490000Y-11320000D01*
X10490000Y-12320000D02*
X10510000Y-12340000D01*
X10510000Y-12320000D02*
X10490000Y-12340000D01*
X10490000Y-12690000D02*
X10510000Y-12710000D01*
X10510000Y-12690000D02*
X10490000Y-12710000D01*
X10510000Y-10480000D02*
X10530000Y-10500000D01*
X10530000Y-10480000D02*
X10510000Y-10500000D01*
X10528440Y-11780000D02*
X10548440Y-11800000D01*
X10548440Y-11780000D02*
X10528440Y-11800000D01*
X10530000Y-10990000D02*
X10550000Y-11010000D01*
X10550000Y-10990000D02*
X10530000Y-11010000D01*
X10530000Y-13590000D02*
X10550000Y-13610000D01*
X10550000Y-13590000D02*
X10530000Y-13610000D01*
X10570000Y-11820000D02*
X10590000Y-11840000D01*
X10590000Y-11820000D02*
X10570000Y-11840000D01*
X10570000Y-13150000D02*
X10590000Y-13170000D01*
X10590000Y-13150000D02*
X10570000Y-13170000D01*
X10609092Y-11780746D02*
X10629092Y-11800746D01*
X10629092Y-11780746D02*
X10609092Y-11800746D01*
X10660000Y-11870000D02*
X10680000Y-11890000D01*
X10680000Y-11870000D02*
X10660000Y-11890000D01*
X10680000Y-10210000D02*
X10700000Y-10230000D01*
X10700000Y-10210000D02*
X10680000Y-10230000D01*
X10680000Y-11930000D02*
X10700000Y-11950000D01*
X10700000Y-11930000D02*
X10680000Y-11950000D01*
X10750000Y-11410000D02*
X10770000Y-11430000D01*
X10770000Y-11410000D02*
X10750000Y-11430000D01*
X10775819Y-11141225D02*
X10795819Y-11161225D01*
X10795819Y-11141225D02*
X10775819Y-11161225D01*
X10780000Y-11240000D02*
X10800000Y-11260000D01*
X10800000Y-11240000D02*
X10780000Y-11260000D01*
X10780000Y-11296530D02*
X10800000Y-11316530D01*
X10800000Y-11296530D02*
X10780000Y-11316530D01*
X10840000Y-12800000D02*
X10860000Y-12820000D01*
X10860000Y-12800000D02*
X10840000Y-12820000D01*
X10859220Y-13250000D02*
X10879220Y-13270000D01*
X10879220Y-13250000D02*
X10859220Y-13270000D01*
X10861200Y-10048400D02*
X10881200Y-10068400D01*
X10881200Y-10048400D02*
X10861200Y-10068400D01*
X10862965Y-11242889D02*
X10882965Y-11262889D01*
X10882965Y-11242889D02*
X10862965Y-11262889D01*
X10863740Y-10289700D02*
X10883740Y-10309700D01*
X10883740Y-10289700D02*
X10863740Y-10309700D01*
X10863740Y-11005980D02*
X10883740Y-11025980D01*
X10883740Y-11005980D02*
X10863740Y-11025980D01*
X10865720Y-10613373D02*
X10885720Y-10633373D01*
X10885720Y-10613373D02*
X10865720Y-10633373D01*
X10866607Y-11406530D02*
X10886607Y-11426530D01*
X10886607Y-11406530D02*
X10866607Y-11426530D01*
X10880000Y-12740000D02*
X10900000Y-12760000D01*
X10900000Y-12740000D02*
X10880000Y-12760000D01*
X10899220Y-13330000D02*
X10919220Y-13350000D01*
X10919220Y-13330000D02*
X10899220Y-13350000D01*
X10940000Y-11400000D02*
X10960000Y-11420000D01*
X10960000Y-11400000D02*
X10940000Y-11420000D01*
X10941716Y-11678284D02*
X10961716Y-11698284D01*
X10961716Y-11678284D02*
X10941716Y-11698284D01*
X10945020Y-10287160D02*
X10965020Y-10307160D01*
X10965020Y-10287160D02*
X10945020Y-10307160D01*
X10945020Y-11007300D02*
X10965020Y-11027300D01*
X10965020Y-11007300D02*
X10945020Y-11027300D01*
X10950000Y-11330000D02*
X10970000Y-11350000D01*
X10970000Y-11330000D02*
X10950000Y-11350000D01*
X10990000Y-11570000D02*
X11010000Y-11590000D01*
X11010000Y-11570000D02*
X10990000Y-11590000D01*
X10995333Y-11916448D02*
X11015333Y-11936448D01*
X11015333Y-11916448D02*
X10995333Y-11936448D01*
X11022965Y-11402889D02*
X11042965Y-11422889D01*
X11042965Y-11402889D02*
X11022965Y-11422889D01*
X11027570Y-11008520D02*
X11047570Y-11028520D01*
X11047570Y-11008520D02*
X11027570Y-11028520D01*
X11029400Y-11489386D02*
X11049400Y-11509386D01*
X11049400Y-11489386D02*
X11029400Y-11509386D01*
X11040000Y-11880000D02*
X11060000Y-11900000D01*
X11060000Y-11880000D02*
X11040000Y-11900000D01*
X11050000Y-11570000D02*
X11070000Y-11590000D01*
X11070000Y-11570000D02*
X11050000Y-11590000D01*
X11054496Y-13632944D02*
X11074496Y-13652944D01*
X11074496Y-13632944D02*
X11054496Y-13652944D01*
X11090000Y-13350000D02*
X11110000Y-13370000D01*
X11110000Y-13350000D02*
X11090000Y-13370000D01*
X11105040Y-10447180D02*
X11125040Y-10467180D01*
X11125040Y-10447180D02*
X11105040Y-10467180D01*
X11105040Y-10924700D02*
X11125040Y-10944700D01*
X11125040Y-10924700D02*
X11105040Y-10944700D01*
X11109400Y-11489386D02*
X11129400Y-11509386D01*
X11129400Y-11489386D02*
X11109400Y-11509386D01*
X11110000Y-10170000D02*
X11130000Y-10190000D01*
X11130000Y-10170000D02*
X11110000Y-10190000D01*
X11110000Y-11320000D02*
X11130000Y-11340000D01*
X11130000Y-11320000D02*
X11110000Y-11340000D01*
X11110120Y-10683400D02*
X11130120Y-10703400D01*
X11130120Y-10683400D02*
X11110120Y-10703400D01*
X11130000Y-12470000D02*
X11150000Y-12490000D01*
X11150000Y-12470000D02*
X11130000Y-12490000D01*
X11139584Y-10851040D02*
X11159584Y-10871040D01*
X11159584Y-10851040D02*
X11139584Y-10871040D01*
X11169810Y-10552590D02*
X11189810Y-10572590D01*
X11189810Y-10552590D02*
X11169810Y-10572590D01*
X11170000Y-12410000D02*
X11190000Y-12430000D01*
X11190000Y-12410000D02*
X11170000Y-12430000D01*
X11171108Y-11491981D02*
X11191108Y-11511981D01*
X11191108Y-11491981D02*
X11171108Y-11511981D01*
X11181240Y-10691020D02*
X11201240Y-10711020D01*
X11201240Y-10691020D02*
X11181240Y-10711020D01*
X11183780Y-10764680D02*
X11203780Y-10784680D01*
X11203780Y-10764680D02*
X11183780Y-10784680D01*
X11187737Y-11322116D02*
X11207737Y-11342116D01*
X11207737Y-11322116D02*
X11187737Y-11342116D01*
X11210000Y-11450000D02*
X11230000Y-11470000D01*
X11230000Y-11450000D02*
X11210000Y-11470000D01*
X11226960Y-9926480D02*
X11246960Y-9946480D01*
X11246960Y-9926480D02*
X11226960Y-9946480D01*
X11250000Y-12410000D02*
X11270000Y-12430000D01*
X11270000Y-12410000D02*
X11250000Y-12430000D01*
X11265060Y-10927240D02*
X11285060Y-10947240D01*
X11285060Y-10927240D02*
X11265060Y-10947240D01*
X11265060Y-11166000D02*
X11285060Y-11186000D01*
X11285060Y-11166000D02*
X11265060Y-11186000D01*
X11346340Y-10928510D02*
X11366340Y-10948510D01*
X11366340Y-10928510D02*
X11346340Y-10948510D01*
X11346340Y-11007250D02*
X11366340Y-11027250D01*
X11366340Y-11007250D02*
X11346340Y-11027250D01*
X11350000Y-11810000D02*
X11370000Y-11830000D01*
X11370000Y-11810000D02*
X11350000Y-11830000D01*
X11350000Y-12390000D02*
X11370000Y-12410000D01*
X11370000Y-12390000D02*
X11350000Y-12410000D01*
X11423562Y-11247528D02*
X11443562Y-11267528D01*
X11443562Y-11247528D02*
X11423562Y-11267528D01*
X11426350Y-10765950D02*
X11446350Y-10785950D01*
X11446350Y-10765950D02*
X11426350Y-10785950D01*
X11426350Y-10845960D02*
X11446350Y-10865960D01*
X11446350Y-10845960D02*
X11426350Y-10865960D01*
X11426350Y-10927240D02*
X11446350Y-10947240D01*
X11446350Y-10927240D02*
X11426350Y-10947240D01*
X11427620Y-11005980D02*
X11447620Y-11025980D01*
X11447620Y-11005980D02*
X11427620Y-11025980D01*
X11427620Y-11082180D02*
X11447620Y-11102180D01*
X11447620Y-11082180D02*
X11427620Y-11102180D01*
X11450000Y-12410000D02*
X11470000Y-12430000D01*
X11470000Y-12410000D02*
X11450000Y-12430000D01*
X11473340Y-10183020D02*
X11493340Y-10203020D01*
X11493340Y-10183020D02*
X11473340Y-10203020D01*
X11490000Y-12180000D02*
X11510000Y-12200000D01*
X11510000Y-12180000D02*
X11490000Y-12200000D01*
X11491136Y-11806595D02*
X11511136Y-11826595D01*
X11511136Y-11806595D02*
X11491136Y-11826595D01*
X11506360Y-10607200D02*
X11526360Y-10627200D01*
X11526360Y-10607200D02*
X11506360Y-10627200D01*
X11583830Y-10527190D02*
X11603830Y-10547190D01*
X11603830Y-10527190D02*
X11583830Y-10547190D01*
X11666380Y-10525920D02*
X11686380Y-10545920D01*
X11686380Y-10525920D02*
X11666380Y-10545920D01*
X11667650Y-10685940D02*
X11687650Y-10705940D01*
X11687650Y-10685940D02*
X11667650Y-10705940D01*
X11680000Y-10930000D02*
X11700000Y-10950000D01*
X11700000Y-10930000D02*
X11680000Y-10950000D01*
X11710000Y-13320000D02*
X11730000Y-13340000D01*
X11730000Y-13320000D02*
X11710000Y-13340000D01*
X11742965Y-10282889D02*
X11762965Y-10302889D01*
X11762965Y-10282889D02*
X11742965Y-10302889D01*
X11742965Y-10442889D02*
X11762965Y-10462889D01*
X11762965Y-10442889D02*
X11742965Y-10462889D01*
X11745882Y-11164730D02*
X11765882Y-11184730D01*
X11765882Y-11164730D02*
X11745882Y-11184730D01*
X11746400Y-10362116D02*
X11766400Y-10382116D01*
X11766400Y-10362116D02*
X11746400Y-10382116D01*
X11746400Y-10609740D02*
X11766400Y-10629740D01*
X11766400Y-10609740D02*
X11746400Y-10629740D01*
X11750000Y-10200000D02*
X11770000Y-10220000D01*
X11770000Y-10200000D02*
X11750000Y-10220000D01*
X11790000Y-12290000D02*
X11810000Y-12310000D01*
X11810000Y-12290000D02*
X11790000Y-12310000D01*
X11810000Y-9520000D02*
X11830000Y-9540000D01*
X11830000Y-9520000D02*
X11810000Y-9540000D01*
X11820000Y-9140000D02*
X11840000Y-9160000D01*
X11840000Y-9140000D02*
X11820000Y-9160000D01*
X11826400Y-10607100D02*
X11846400Y-10627100D01*
X11846400Y-10607100D02*
X11826400Y-10627100D01*
X11826400Y-10685940D02*
X11846400Y-10705940D01*
X11846400Y-10685940D02*
X11826400Y-10705940D01*
X11826400Y-10845960D02*
X11846400Y-10865960D01*
X11846400Y-10845960D02*
X11826400Y-10865960D01*
X11826400Y-10924700D02*
X11846400Y-10944700D01*
X11846400Y-10924700D02*
X11826400Y-10944700D01*
X11830000Y-12130000D02*
X11850000Y-12150000D01*
X11850000Y-12130000D02*
X11830000Y-12150000D01*
X11840000Y-13450000D02*
X11860000Y-13470000D01*
X11860000Y-13450000D02*
X11840000Y-13470000D01*
X11842500Y-10373128D02*
X11862500Y-10393128D01*
X11862500Y-10373128D02*
X11842500Y-10393128D01*
X11842500Y-10510896D02*
X11862500Y-10530896D01*
X11862500Y-10510896D02*
X11842500Y-10530896D01*
X11899234Y-10526360D02*
X11919234Y-10546360D01*
X11919234Y-10526360D02*
X11899234Y-10546360D01*
X11902600Y-10927240D02*
X11922600Y-10947240D01*
X11922600Y-10927240D02*
X11902600Y-10947240D01*
X11902600Y-11168540D02*
X11922600Y-11188540D01*
X11922600Y-11168540D02*
X11902600Y-11188540D01*
X11905140Y-10366408D02*
X11925140Y-10386408D01*
X11925140Y-10366408D02*
X11905140Y-10386408D01*
X11905140Y-10845960D02*
X11925140Y-10865960D01*
X11925140Y-10845960D02*
X11905140Y-10865960D01*
X11905140Y-11011060D02*
X11925140Y-11031060D01*
X11925140Y-11011060D02*
X11905140Y-11031060D01*
X11905140Y-11087260D02*
X11925140Y-11107260D01*
X11925140Y-11087260D02*
X11905140Y-11107260D01*
X11907680Y-10685940D02*
X11927680Y-10705940D01*
X11927680Y-10685940D02*
X11907680Y-10705940D01*
X11970000Y-9260000D02*
X11990000Y-9280000D01*
X11990000Y-9260000D02*
X11970000Y-9280000D01*
X11981340Y-10447180D02*
X12001340Y-10467180D01*
X12001340Y-10447180D02*
X11981340Y-10467180D01*
X11981340Y-11011060D02*
X12001340Y-11031060D01*
X12001340Y-11011060D02*
X11981340Y-11031060D01*
X11981340Y-11087260D02*
X12001340Y-11107260D01*
X12001340Y-11087260D02*
X11981340Y-11107260D01*
X11981340Y-12042300D02*
X12001340Y-12062300D01*
X12001340Y-12042300D02*
X11981340Y-12062300D01*
X11982610Y-10608470D02*
X12002610Y-10628470D01*
X12002610Y-10608470D02*
X11982610Y-10628470D01*
X11983880Y-10528460D02*
X12003880Y-10548460D01*
X12003880Y-10528460D02*
X11983880Y-10548460D01*
X11983880Y-11168540D02*
X12003880Y-11188540D01*
X12003880Y-11168540D02*
X11983880Y-11188540D01*
X11984896Y-10365900D02*
X12004896Y-10385900D01*
X12004896Y-10365900D02*
X11984896Y-10385900D01*
X11985441Y-10844700D02*
X12005441Y-10864700D01*
X12005441Y-10844700D02*
X11985441Y-10864700D01*
X11986420Y-10289700D02*
X12006420Y-10309700D01*
X12006420Y-10289700D02*
X11986420Y-10309700D01*
X11986420Y-10685940D02*
X12006420Y-10705940D01*
X12006420Y-10685940D02*
X11986420Y-10705940D01*
X11986420Y-10924700D02*
X12006420Y-10944700D01*
X12006420Y-10924700D02*
X11986420Y-10944700D01*
X11990000Y-12790000D02*
X12010000Y-12810000D01*
X12010000Y-12790000D02*
X11990000Y-12810000D01*
X11990000Y-13190000D02*
X12010000Y-13210000D01*
X12010000Y-13190000D02*
X11990000Y-13210000D01*
X12035950Y-11980070D02*
X12055950Y-12000070D01*
X12055950Y-11980070D02*
X12035950Y-12000070D01*
X12090560Y-12042300D02*
X12110560Y-12062300D01*
X12110560Y-12042300D02*
X12090560Y-12062300D01*
X12110000Y-13590000D02*
X12130000Y-13610000D01*
X12130000Y-13590000D02*
X12110000Y-13610000D01*
X12147710Y-11980070D02*
X12167710Y-12000070D01*
X12167710Y-11980070D02*
X12147710Y-12000070D01*
X12150000Y-9037500D02*
X12170000Y-9057500D01*
X12170000Y-9037500D02*
X12150000Y-9057500D01*
X12182000Y-12232800D02*
X12202000Y-12252800D01*
X12202000Y-12232800D02*
X12182000Y-12252800D01*
X12204860Y-10426860D02*
X12224860Y-10446860D01*
X12224860Y-10426860D02*
X12204860Y-10446860D01*
X12230000Y-12980000D02*
X12250000Y-13000000D01*
X12250000Y-12980000D02*
X12230000Y-13000000D01*
X12242960Y-12532520D02*
X12262960Y-12552520D01*
X12262960Y-12532520D02*
X12242960Y-12552520D01*
X12247500Y-13430000D02*
X12267500Y-13450000D01*
X12267500Y-13430000D02*
X12247500Y-13450000D01*
X12256930Y-11244740D02*
X12276930Y-11264740D01*
X12276930Y-11244740D02*
X12256930Y-11264740D01*
X12258200Y-10330340D02*
X12278200Y-10350340D01*
X12278200Y-10330340D02*
X12258200Y-10350340D01*
X12367420Y-10327800D02*
X12387420Y-10347800D01*
X12387420Y-10327800D02*
X12367420Y-10347800D01*
X12375040Y-10481879D02*
X12395040Y-10501879D01*
X12395040Y-10481879D02*
X12375040Y-10501879D01*
X12380120Y-11254256D02*
X12400120Y-11274256D01*
X12400120Y-11254256D02*
X12380120Y-11274256D01*
X12428724Y-10076684D02*
X12448724Y-10096684D01*
X12448724Y-10076684D02*
X12428724Y-10096684D01*
X12433302Y-11229255D02*
X12453302Y-11249255D01*
X12453302Y-11229255D02*
X12433302Y-11249255D01*
X12436000Y-9769000D02*
X12456000Y-9789000D01*
X12456000Y-9769000D02*
X12436000Y-9789000D01*
X12436000Y-13553600D02*
X12456000Y-13573600D01*
X12456000Y-13553600D02*
X12436000Y-13573600D01*
X12451240Y-10586880D02*
X12471240Y-10606880D01*
X12471240Y-10586880D02*
X12451240Y-10606880D01*
X12454386Y-10694806D02*
X12474386Y-10714806D01*
X12474386Y-10694806D02*
X12454386Y-10714806D01*
X12486730Y-11202200D02*
X12506730Y-11222200D01*
X12506730Y-11202200D02*
X12486730Y-11222200D01*
X12504580Y-10089040D02*
X12524580Y-10109040D01*
X12524580Y-10089040D02*
X12504580Y-10109040D01*
X12520000Y-13310000D02*
X12540000Y-13330000D01*
X12540000Y-13310000D02*
X12520000Y-13330000D01*
X12521109Y-8858891D02*
X12541109Y-8878891D01*
X12541109Y-8858891D02*
X12521109Y-8878891D01*
X12526170Y-11162190D02*
X12546170Y-11182190D01*
X12546170Y-11162190D02*
X12526170Y-11182190D01*
X12529980Y-10477660D02*
X12549980Y-10497660D01*
X12549980Y-10477660D02*
X12529980Y-10497660D01*
X12535060Y-11056780D02*
X12555060Y-11076780D01*
X12555060Y-11056780D02*
X12535060Y-11076780D01*
X12537600Y-10200800D02*
X12557600Y-10220800D01*
X12557600Y-10200800D02*
X12537600Y-10220800D01*
X12538870Y-10617360D02*
X12558870Y-10637360D01*
X12558870Y-10617360D02*
X12538870Y-10637360D01*
X12553620Y-10992500D02*
X12573620Y-11012500D01*
X12573620Y-10992500D02*
X12553620Y-11012500D01*
X12563000Y-9769000D02*
X12583000Y-9789000D01*
X12583000Y-9769000D02*
X12563000Y-9789000D01*
X12627140Y-10701820D02*
X12647140Y-10721820D01*
X12647140Y-10701820D02*
X12627140Y-10721820D01*
X12683528Y-10533421D02*
X12703528Y-10553421D01*
X12703528Y-10533421D02*
X12683528Y-10553421D01*
X12686075Y-11120920D02*
X12706075Y-11140920D01*
X12706075Y-11120920D02*
X12686075Y-11140920D01*
X12690000Y-9769000D02*
X12710000Y-9789000D01*
X12710000Y-9769000D02*
X12690000Y-9789000D01*
X12703380Y-12713540D02*
X12723380Y-12733540D01*
X12723380Y-12713540D02*
X12703380Y-12733540D01*
X12745880Y-12433460D02*
X12765880Y-12453460D01*
X12765880Y-12433460D02*
X12745880Y-12453460D01*
X12750000Y-13100000D02*
X12770000Y-13120000D01*
X12770000Y-13100000D02*
X12750000Y-13120000D01*
X12750000Y-13150000D02*
X12770000Y-13170000D01*
X12770000Y-13150000D02*
X12750000Y-13170000D01*
X12750000Y-13200000D02*
X12770000Y-13220000D01*
X12770000Y-13200000D02*
X12750000Y-13220000D01*
X12756040Y-12270900D02*
X12776040Y-12290900D01*
X12776040Y-12270900D02*
X12756040Y-12290900D01*
X12766200Y-11092980D02*
X12786200Y-11112980D01*
X12786200Y-11092980D02*
X12766200Y-11112980D01*
X12771280Y-12537600D02*
X12791280Y-12557600D01*
X12791280Y-12537600D02*
X12771280Y-12557600D01*
X12791600Y-9540400D02*
X12811600Y-9560400D01*
X12811600Y-9540400D02*
X12791600Y-9560400D01*
X12830000Y-8450000D02*
X12850000Y-8470000D01*
X12850000Y-8450000D02*
X12830000Y-8470000D01*
X12860180Y-12537600D02*
X12880180Y-12557600D01*
X12880180Y-12537600D02*
X12860180Y-12557600D01*
X12872880Y-9836345D02*
X12892880Y-9856345D01*
X12892880Y-9836345D02*
X12872880Y-9856345D01*
X12893282Y-12999544D02*
X12913282Y-13019544D01*
X12913282Y-12999544D02*
X12893282Y-13019544D01*
X12939721Y-8437500D02*
X12959721Y-8457500D01*
X12959721Y-8437500D02*
X12939721Y-8457500D01*
X12939721Y-8502500D02*
X12959721Y-8522500D01*
X12959721Y-8502500D02*
X12939721Y-8522500D01*
X12964320Y-12068970D02*
X12984320Y-12088970D01*
X12984320Y-12068970D02*
X12964320Y-12088970D01*
X12964320Y-12151520D02*
X12984320Y-12171520D01*
X12984320Y-12151520D02*
X12964320Y-12171520D01*
X12982100Y-10358280D02*
X13002100Y-10378280D01*
X13002100Y-10358280D02*
X12982100Y-10378280D01*
X12984193Y-10277447D02*
X13004193Y-10297447D01*
X13004193Y-10277447D02*
X12984193Y-10297447D01*
X13027820Y-10470040D02*
X13047820Y-10490040D01*
X13047820Y-10470040D02*
X13027820Y-10490040D01*
X13062880Y-10276177D02*
X13082880Y-10296177D01*
X13082880Y-10276177D02*
X13062880Y-10296177D01*
X13065522Y-10358822D02*
X13085522Y-10378822D01*
X13085522Y-10358822D02*
X13065522Y-10378822D01*
X13069222Y-13156344D02*
X13089222Y-13176344D01*
X13089222Y-13156344D02*
X13069222Y-13176344D01*
X13069730Y-13076080D02*
X13089730Y-13096080D01*
X13089730Y-13076080D02*
X13069730Y-13096080D01*
X13096400Y-9540400D02*
X13116400Y-9560400D01*
X13116400Y-9540400D02*
X13096400Y-9560400D01*
X13126880Y-12273440D02*
X13146880Y-12293440D01*
X13146880Y-12273440D02*
X13126880Y-12293440D01*
X13147200Y-9718200D02*
X13167200Y-9738200D01*
X13167200Y-9718200D02*
X13147200Y-9738200D01*
X13147200Y-12893200D02*
X13167200Y-12913200D01*
X13167200Y-12893200D02*
X13147200Y-12913200D01*
X13162440Y-11801000D02*
X13182440Y-11821000D01*
X13182440Y-11801000D02*
X13162440Y-11821000D01*
X13162440Y-11906410D02*
X13182440Y-11926410D01*
X13182440Y-11906410D02*
X13162440Y-11926410D01*
X13173362Y-13042044D02*
X13193362Y-13062044D01*
X13193362Y-13042044D02*
X13173362Y-13062044D01*
X13175140Y-10506880D02*
X13195140Y-10526880D01*
X13195140Y-10506880D02*
X13175140Y-10526880D01*
X13190380Y-9982360D02*
X13210380Y-10002360D01*
X13210380Y-9982360D02*
X13190380Y-10002360D01*
X13198000Y-13604400D02*
X13218000Y-13624400D01*
X13218000Y-13604400D02*
X13198000Y-13624400D01*
X13215780Y-10463690D02*
X13235780Y-10483690D01*
X13235780Y-10463690D02*
X13215780Y-10483690D01*
X13218320Y-10180480D02*
X13238320Y-10200480D01*
X13238320Y-10180480D02*
X13218320Y-10200480D01*
X13221345Y-10354793D02*
X13241345Y-10374793D01*
X13241345Y-10354793D02*
X13221345Y-10374793D01*
X13225940Y-12390280D02*
X13245940Y-12410280D01*
X13245940Y-12390280D02*
X13225940Y-12410280D01*
X13246260Y-11917840D02*
X13266260Y-11937840D01*
X13266260Y-11917840D02*
X13246260Y-11937840D01*
X13248800Y-11572400D02*
X13268800Y-11592400D01*
X13268800Y-11572400D02*
X13248800Y-11592400D01*
X13261500Y-10122060D02*
X13281500Y-10142060D01*
X13281500Y-10122060D02*
X13261500Y-10142060D01*
X13272991Y-10726348D02*
X13292991Y-10746348D01*
X13292991Y-10726348D02*
X13272991Y-10746348D01*
X13304680Y-9795670D02*
X13324680Y-9815670D01*
X13324680Y-9795670D02*
X13304680Y-9815670D01*
X13307220Y-12319160D02*
X13327220Y-12339160D01*
X13327220Y-12319160D02*
X13307220Y-12339160D01*
X13317380Y-10157620D02*
X13337380Y-10177620D01*
X13337380Y-10157620D02*
X13317380Y-10177620D01*
X13326343Y-10796598D02*
X13346343Y-10816598D01*
X13346343Y-10796598D02*
X13326343Y-10816598D01*
X13330080Y-11917840D02*
X13350080Y-11937840D01*
X13350080Y-11917840D02*
X13330080Y-11937840D01*
X13333382Y-13423044D02*
X13353382Y-13443044D01*
X13353382Y-13423044D02*
X13333382Y-13443044D01*
X13335922Y-13052204D02*
X13355922Y-13072204D01*
X13355922Y-13052204D02*
X13335922Y-13072204D01*
X13336430Y-10011570D02*
X13356430Y-10031570D01*
X13356430Y-10011570D02*
X13336430Y-10031570D01*
X13337965Y-10726609D02*
X13357965Y-10746609D01*
X13357965Y-10726609D02*
X13337965Y-10746609D01*
X13350400Y-9540400D02*
X13370400Y-9560400D01*
X13370400Y-9540400D02*
X13350400Y-9560400D01*
X13369390Y-10139734D02*
X13389390Y-10159734D01*
X13389390Y-10139734D02*
X13369390Y-10159734D01*
X13380000Y-8720000D02*
X13400000Y-8740000D01*
X13400000Y-8720000D02*
X13380000Y-8740000D01*
X13384060Y-10277000D02*
X13404060Y-10297000D01*
X13404060Y-10277000D02*
X13384060Y-10297000D01*
X13398660Y-10810400D02*
X13418660Y-10830400D01*
X13418660Y-10810400D02*
X13398660Y-10830400D01*
X13418980Y-13422790D02*
X13438980Y-13442790D01*
X13438980Y-13422790D02*
X13418980Y-13442790D01*
X13441840Y-10846600D02*
X13461840Y-10866600D01*
X13461840Y-10846600D02*
X13441840Y-10866600D01*
X13464060Y-9876457D02*
X13484060Y-9896457D01*
X13484060Y-9876457D02*
X13464060Y-9896457D01*
X13465658Y-9798969D02*
X13485658Y-9818969D01*
X13485658Y-9798969D02*
X13465658Y-9818969D01*
X13468510Y-10016650D02*
X13488510Y-10036650D01*
X13488510Y-10016650D02*
X13468510Y-10036650D01*
X13489061Y-10528657D02*
X13509061Y-10548657D01*
X13509061Y-10528657D02*
X13489061Y-10548657D01*
X13500768Y-10777888D02*
X13520768Y-10797888D01*
X13520768Y-10777888D02*
X13500768Y-10797888D01*
X13510420Y-10845960D02*
X13530420Y-10865960D01*
X13530420Y-10845960D02*
X13510420Y-10865960D01*
X13516008Y-10470548D02*
X13536008Y-10490548D01*
X13536008Y-10470548D02*
X13516008Y-10490548D01*
X13525419Y-10165240D02*
X13545419Y-10185240D01*
X13545419Y-10165240D02*
X13525419Y-10185240D01*
X13540000Y-13250000D02*
X13560000Y-13270000D01*
X13560000Y-13250000D02*
X13540000Y-13270000D01*
X13543033Y-9876320D02*
X13563033Y-9896320D01*
X13563033Y-9876320D02*
X13543033Y-9896320D01*
X13543586Y-10276849D02*
X13563586Y-10296849D01*
X13563586Y-10276849D02*
X13543586Y-10296849D01*
X13544851Y-9798116D02*
X13564851Y-9818116D01*
X13564851Y-9798116D02*
X13544851Y-9818116D01*
X13584080Y-10000140D02*
X13604080Y-10020140D01*
X13604080Y-10000140D02*
X13584080Y-10020140D01*
X13584080Y-10896760D02*
X13604080Y-10916760D01*
X13604080Y-10896760D02*
X13584080Y-10916760D01*
X13624212Y-10154592D02*
X13644212Y-10174592D01*
X13644212Y-10154592D02*
X13624212Y-10174592D01*
X13624850Y-9794526D02*
X13644850Y-9814526D01*
X13644850Y-9794526D02*
X13624850Y-9814526D01*
X13647072Y-10014364D02*
X13667072Y-10034364D01*
X13667072Y-10014364D02*
X13647072Y-10034364D01*
X13655200Y-9677560D02*
X13675200Y-9697560D01*
X13675200Y-9677560D02*
X13655200Y-9697560D01*
X13655200Y-12537600D02*
X13675200Y-12557600D01*
X13675200Y-12537600D02*
X13655200Y-12557600D01*
X13662820Y-10754520D02*
X13682820Y-10774520D01*
X13682820Y-10754520D02*
X13662820Y-10774520D01*
X13688982Y-13535820D02*
X13708982Y-13555820D01*
X13708982Y-13535820D02*
X13688982Y-13555820D01*
X13688982Y-13626244D02*
X13708982Y-13646244D01*
X13708982Y-13626244D02*
X13688982Y-13646244D01*
X13707270Y-9973470D02*
X13727270Y-9993470D01*
X13727270Y-9973470D02*
X13707270Y-9993470D01*
X13737750Y-13458350D02*
X13757750Y-13478350D01*
X13757750Y-13458350D02*
X13737750Y-13478350D01*
X13740000Y-13250000D02*
X13760000Y-13270000D01*
X13760000Y-13250000D02*
X13740000Y-13270000D01*
X13743084Y-10686347D02*
X13763084Y-10706347D01*
X13763084Y-10686347D02*
X13743084Y-10706347D01*
X13745295Y-10166435D02*
X13765295Y-10186435D01*
X13765295Y-10166435D02*
X13745295Y-10186435D01*
X13755530Y-10083960D02*
X13775530Y-10103960D01*
X13775530Y-10083960D02*
X13755530Y-10103960D01*
X13759340Y-10843420D02*
X13779340Y-10863420D01*
X13779340Y-10843420D02*
X13759340Y-10863420D01*
X13783642Y-12718766D02*
X13803642Y-12738766D01*
X13803642Y-12718766D02*
X13783642Y-12738766D01*
X13820300Y-10157620D02*
X13840300Y-10177620D01*
X13840300Y-10157620D02*
X13820300Y-10177620D01*
X13822840Y-10464960D02*
X13842840Y-10484960D01*
X13842840Y-10464960D02*
X13822840Y-10484960D01*
X13826142Y-12438686D02*
X13846142Y-12458686D01*
X13846142Y-12438686D02*
X13826142Y-12458686D01*
X13827920Y-13458350D02*
X13847920Y-13478350D01*
X13847920Y-13458350D02*
X13827920Y-13478350D01*
X13835540Y-10838340D02*
X13855540Y-10858340D01*
X13855540Y-10838340D02*
X13835540Y-10858340D01*
X13836302Y-12276126D02*
X13856302Y-12296126D01*
X13856302Y-12276126D02*
X13836302Y-12296126D01*
X13853320Y-9984900D02*
X13873320Y-10004900D01*
X13873320Y-9984900D02*
X13853320Y-10004900D01*
X13863480Y-12542680D02*
X13883480Y-12562680D01*
X13883480Y-12542680D02*
X13863480Y-12562680D01*
X13864234Y-9795153D02*
X13884234Y-9815153D01*
X13884234Y-9795153D02*
X13864234Y-9815153D01*
X13908692Y-10475120D02*
X13928692Y-10495120D01*
X13928692Y-10475120D02*
X13908692Y-10495120D01*
X13930790Y-9472200D02*
X13950790Y-9492200D01*
X13950790Y-9472200D02*
X13930790Y-9492200D01*
X13940442Y-12542826D02*
X13960442Y-12562826D01*
X13960442Y-12542826D02*
X13940442Y-12562826D01*
X13944760Y-9713120D02*
X13964760Y-9733120D01*
X13964760Y-9713120D02*
X13944760Y-9733120D01*
X13944916Y-9794457D02*
X13964916Y-9814457D01*
X13964916Y-9794457D02*
X13944916Y-9814457D01*
X13991750Y-11541920D02*
X14011750Y-11561920D01*
X14011750Y-11541920D02*
X13991750Y-11561920D01*
X13991750Y-11615580D02*
X14011750Y-11635580D01*
X14011750Y-11615580D02*
X13991750Y-11635580D01*
X13999624Y-10465976D02*
X14019624Y-10485976D01*
X14019624Y-10465976D02*
X13999624Y-10485976D01*
X14015880Y-9704230D02*
X14035880Y-9724230D01*
X14035880Y-9704230D02*
X14015880Y-9724230D01*
X14044582Y-12077860D02*
X14064582Y-12097860D01*
X14064582Y-12077860D02*
X14044582Y-12097860D01*
X14044582Y-12156746D02*
X14064582Y-12176746D01*
X14064582Y-12156746D02*
X14044582Y-12176746D01*
X14050000Y-11880000D02*
X14070000Y-11900000D01*
X14070000Y-11880000D02*
X14050000Y-11900000D01*
X14060330Y-11459370D02*
X14080330Y-11479370D01*
X14080330Y-11459370D02*
X14060330Y-11479370D01*
X14061600Y-11318400D02*
X14081600Y-11338400D01*
X14081600Y-11318400D02*
X14061600Y-11338400D01*
X14061600Y-11541920D02*
X14081600Y-11561920D01*
X14081600Y-11541920D02*
X14061600Y-11561920D01*
X14061600Y-11615580D02*
X14081600Y-11635580D01*
X14081600Y-11615580D02*
X14061600Y-11635580D01*
X14061600Y-12916060D02*
X14081600Y-12936060D01*
X14081600Y-12916060D02*
X14061600Y-12936060D01*
X14061600Y-13022740D02*
X14081600Y-13042740D01*
X14081600Y-13022740D02*
X14061600Y-13042740D01*
X14082428Y-10472580D02*
X14102428Y-10492580D01*
X14102428Y-10472580D02*
X14082428Y-10492580D01*
X14097160Y-9702960D02*
X14117160Y-9722960D01*
X14117160Y-9702960D02*
X14097160Y-9722960D01*
X14141610Y-12916060D02*
X14161610Y-12936060D01*
X14161610Y-12916060D02*
X14141610Y-12936060D01*
X14141610Y-13022740D02*
X14161610Y-13042740D01*
X14161610Y-13022740D02*
X14141610Y-13042740D01*
X14163200Y-9438800D02*
X14183200Y-9458800D01*
X14183200Y-9438800D02*
X14163200Y-9458800D01*
X14167264Y-10464452D02*
X14187264Y-10484452D01*
X14187264Y-10464452D02*
X14167264Y-10484452D01*
X14207142Y-12278666D02*
X14227142Y-12298666D01*
X14227142Y-12278666D02*
X14207142Y-12298666D01*
X14215270Y-9705500D02*
X14235270Y-9725500D01*
X14235270Y-9705500D02*
X14215270Y-9725500D01*
X14241940Y-11806226D02*
X14261940Y-11826226D01*
X14261940Y-11806226D02*
X14241940Y-11826226D01*
X14241940Y-11882280D02*
X14261940Y-11902280D01*
X14261940Y-11882280D02*
X14241940Y-11902280D01*
X14305440Y-11711846D02*
X14325440Y-11731846D01*
X14325440Y-11711846D02*
X14305440Y-11731846D01*
X14306202Y-12395506D02*
X14326202Y-12415506D01*
X14326202Y-12395506D02*
X14306202Y-12415506D01*
X14321442Y-11912906D02*
X14341442Y-11932906D01*
X14341442Y-11912906D02*
X14321442Y-11932906D01*
X14328300Y-11310526D02*
X14348300Y-11330526D01*
X14348300Y-11310526D02*
X14328300Y-11330526D01*
X14366400Y-9286400D02*
X14386400Y-9306400D01*
X14386400Y-9286400D02*
X14366400Y-9306400D01*
X14366400Y-9438800D02*
X14386400Y-9458800D01*
X14386400Y-9438800D02*
X14366400Y-9458800D01*
X14366400Y-9642000D02*
X14386400Y-9662000D01*
X14386400Y-9642000D02*
X14366400Y-9662000D01*
X14381640Y-11711846D02*
X14401640Y-11731846D01*
X14401640Y-11711846D02*
X14381640Y-11731846D01*
X14387482Y-12324386D02*
X14407482Y-12344386D01*
X14407482Y-12324386D02*
X14387482Y-12344386D01*
X14409580Y-11239406D02*
X14429580Y-11259406D01*
X14429580Y-11239406D02*
X14409580Y-11259406D01*
X14417200Y-10962800D02*
X14437200Y-10982800D01*
X14437200Y-10962800D02*
X14417200Y-10982800D01*
X14419740Y-11912760D02*
X14439740Y-11932760D01*
X14439740Y-11912760D02*
X14419740Y-11932760D01*
X14468000Y-9845200D02*
X14488000Y-9865200D01*
X14488000Y-9845200D02*
X14468000Y-9865200D01*
X14468000Y-12334400D02*
X14488000Y-12354400D01*
X14488000Y-12334400D02*
X14468000Y-12354400D01*
X14473080Y-11750200D02*
X14493080Y-11770200D01*
X14493080Y-11750200D02*
X14473080Y-11770200D01*
X14473080Y-11828686D02*
X14493080Y-11848686D01*
X14493080Y-11828686D02*
X14473080Y-11848686D01*
X14508640Y-11355230D02*
X14528640Y-11375230D01*
X14528640Y-11355230D02*
X14508640Y-11375230D01*
X14569600Y-10556400D02*
X14589600Y-10576400D01*
X14589600Y-10556400D02*
X14569600Y-10576400D01*
X14569600Y-10708800D02*
X14589600Y-10728800D01*
X14589600Y-10708800D02*
X14569600Y-10728800D01*
X14590000Y-13170000D02*
X14610000Y-13190000D01*
X14610000Y-13170000D02*
X14590000Y-13190000D01*
X14670000Y-11750000D02*
X14690000Y-11770000D01*
X14690000Y-11750000D02*
X14670000Y-11770000D01*
X14671200Y-11478166D02*
X14691200Y-11498166D01*
X14691200Y-11478166D02*
X14671200Y-11498166D01*
X14671200Y-11528966D02*
X14691200Y-11548966D01*
X14691200Y-11528966D02*
X14671200Y-11548966D01*
X14710000Y-10070000D02*
X14730000Y-10090000D01*
X14730000Y-10070000D02*
X14710000Y-10090000D01*
X14775340Y-11092086D02*
X14795340Y-11112086D01*
X14795340Y-11092086D02*
X14775340Y-11112086D01*
X14849000Y-12124850D02*
X14869000Y-12144850D01*
X14869000Y-12124850D02*
X14849000Y-12144850D01*
X14854080Y-11092086D02*
X14874080Y-11112086D01*
X14874080Y-11092086D02*
X14854080Y-11112086D01*
X14879480Y-11358786D02*
X14899480Y-11378786D01*
X14899480Y-11358786D02*
X14879480Y-11378786D01*
X14889640Y-11195210D02*
X14909640Y-11215210D01*
X14909640Y-11195210D02*
X14889640Y-11215210D01*
X14932140Y-10916146D02*
X14952140Y-10936146D01*
X14952140Y-10916146D02*
X14932140Y-10936146D01*
X15000000Y-9240000D02*
X15020000Y-9260000D01*
X15020000Y-9240000D02*
X15000000Y-9260000D01*
X15077600Y-11064400D02*
X15097600Y-11084400D01*
X15097600Y-11064400D02*
X15077600Y-11084400D01*
X15077600Y-11166000D02*
X15097600Y-11186000D01*
X15097600Y-11166000D02*
X15077600Y-11186000D01*
X15128400Y-11877200D02*
X15148400Y-11897200D01*
X15148400Y-11877200D02*
X15128400Y-11897200D01*
X15380000Y-9760000D02*
X15400000Y-9780000D01*
X15400000Y-9760000D02*
X15380000Y-9780000D01*
X15410000Y-8920000D02*
X15430000Y-8940000D01*
X15430000Y-8920000D02*
X15410000Y-8940000D01*
X15830000Y-9220000D02*
X15850000Y-9240000D01*
X15850000Y-9220000D02*
X15830000Y-9240000D01*
X15870000Y-9710000D02*
X15890000Y-9730000D01*
X15890000Y-9710000D02*
X15870000Y-9730000D01*
X16110000Y-8780000D02*
X16130000Y-8800000D01*
X16130000Y-8780000D02*
X16110000Y-8800000D01*
X16160000Y-9590000D02*
X16180000Y-9610000D01*
X16180000Y-9590000D02*
X16160000Y-9610000D01*
X16440000Y-8830000D02*
X16460000Y-8850000D01*
X16460000Y-8830000D02*
X16440000Y-8850000D01*
X16460000Y-9550000D02*
X16480000Y-9570000D01*
X16480000Y-9550000D02*
X16460000Y-9570000D01*
X12959880Y-12366790D02*
G75*
G02*
X12939560Y-12366790I-10160J0D01*
G01*
X12939560Y-12366790D02*
G75*
G02*
X12959880Y-12366790I10160J0D01*
G01*
X12959880Y-12466790D02*
G75*
G02*
X12939560Y-12466790I-10160J0D01*
G01*
X12939560Y-12466790D02*
G75*
G02*
X12959880Y-12466790I10160J0D01*
G01*
X13009880Y-12416790D02*
G75*
G02*
X12989560Y-12416790I-10160J0D01*
G01*
X12989560Y-12416790D02*
G75*
G02*
X13009880Y-12416790I10160J0D01*
G01*
X13059880Y-12366790D02*
G75*
G02*
X13039560Y-12366790I-10160J0D01*
G01*
X13039560Y-12366790D02*
G75*
G02*
X13059880Y-12366790I10160J0D01*
G01*
X13059880Y-12466790D02*
G75*
G02*
X13039560Y-12466790I-10160J0D01*
G01*
X13039560Y-12466790D02*
G75*
G02*
X13059880Y-12466790I10160J0D01*
G01*
X13170192Y-13245884D02*
G75*
G02*
X13149872Y-13245884I-10160J0D01*
G01*
X13149872Y-13245884D02*
G75*
G02*
X13170192Y-13245884I10160J0D01*
G01*
X13170192Y-13345884D02*
G75*
G02*
X13149872Y-13345884I-10160J0D01*
G01*
X13149872Y-13345884D02*
G75*
G02*
X13170192Y-13345884I10160J0D01*
G01*
X13220192Y-13295884D02*
G75*
G02*
X13199872Y-13295884I-10160J0D01*
G01*
X13199872Y-13295884D02*
G75*
G02*
X13220192Y-13295884I10160J0D01*
G01*
X13270192Y-13245884D02*
G75*
G02*
X13249872Y-13245884I-10160J0D01*
G01*
X13249872Y-13245884D02*
G75*
G02*
X13270192Y-13245884I10160J0D01*
G01*
X13270192Y-13345884D02*
G75*
G02*
X13249872Y-13345884I-10160J0D01*
G01*
X13249872Y-13345884D02*
G75*
G02*
X13270192Y-13345884I10160J0D01*
G01*
X14040142Y-12372016D02*
G75*
G02*
X14019822Y-12372016I-10160J0D01*
G01*
X14019822Y-12372016D02*
G75*
G02*
X14040142Y-12372016I10160J0D01*
G01*
X14040142Y-12472016D02*
G75*
G02*
X14019822Y-12472016I-10160J0D01*
G01*
X14019822Y-12472016D02*
G75*
G02*
X14040142Y-12472016I10160J0D01*
G01*
X14090142Y-12422016D02*
G75*
G02*
X14069822Y-12422016I-10160J0D01*
G01*
X14069822Y-12422016D02*
G75*
G02*
X14090142Y-12422016I10160J0D01*
G01*
X14140142Y-12372016D02*
G75*
G02*
X14119822Y-12372016I-10160J0D01*
G01*
X14119822Y-12372016D02*
G75*
G02*
X14140142Y-12372016I10160J0D01*
G01*
X14140142Y-12472016D02*
G75*
G02*
X14119822Y-12472016I-10160J0D01*
G01*
X14119822Y-12472016D02*
G75*
G02*
X14140142Y-12472016I10160J0D01*
G01*
X14615960Y-11182896D02*
G75*
G02*
X14595640Y-11182896I-10160J0D01*
G01*
X14595640Y-11182896D02*
G75*
G02*
X14615960Y-11182896I10160J0D01*
G01*
X14615960Y-11282896D02*
G75*
G02*
X14595640Y-11282896I-10160J0D01*
G01*
X14595640Y-11282896D02*
G75*
G02*
X14615960Y-11282896I10160J0D01*
G01*
X14665960Y-11232896D02*
G75*
G02*
X14645640Y-11232896I-10160J0D01*
G01*
X14645640Y-11232896D02*
G75*
G02*
X14665960Y-11232896I10160J0D01*
G01*
X14715960Y-11182896D02*
G75*
G02*
X14695640Y-11182896I-10160J0D01*
G01*
X14695640Y-11182896D02*
G75*
G02*
X14715960Y-11182896I10160J0D01*
G01*
X14715960Y-11282896D02*
G75*
G02*
X14695640Y-11282896I-10160J0D01*
G01*
X14695640Y-11282896D02*
G75*
G02*
X14715960Y-11282896I10160J0D01*
G01*
X16322000Y-8730000D02*
X16322000Y-8790000D01*
X16292000Y-8760000D02*
X16352000Y-8760000D01*
X16267000Y-8790000D02*
X16377000Y-8790000D01*
X16377000Y-8730000D02*
G75*
G02*
X16377000Y-8790000I0J-30000D01*
G01*
X16377000Y-8730000D02*
X16267000Y-8730000D01*
X16267000Y-8730000D02*
G75*
G03*
X16267000Y-8790000I0J-30000D01*
G01*
X16322000Y-9594000D02*
X16322000Y-9654000D01*
X16292000Y-9624000D02*
X16352000Y-9624000D01*
X16267000Y-9654000D02*
X16377000Y-9654000D01*
X16377000Y-9594000D02*
G75*
G02*
X16377000Y-9654000I0J-30000D01*
G01*
X16377000Y-9594000D02*
X16267000Y-9594000D01*
X16267000Y-9594000D02*
G75*
G03*
X16267000Y-9654000I0J-30000D01*
G01*
X16740000Y-8730000D02*
X16740000Y-8790000D01*
X16710000Y-8760000D02*
X16770000Y-8760000D01*
X16700000Y-8790000D02*
X16780000Y-8790000D01*
X16780000Y-8730000D02*
G75*
G02*
X16780000Y-8790000I0J-30000D01*
G01*
X16780000Y-8730000D02*
X16700000Y-8730000D01*
X16700000Y-8730000D02*
G75*
G03*
X16700000Y-8790000I0J-30000D01*
G01*
X16740000Y-9594000D02*
X16740000Y-9654000D01*
X16710000Y-9624000D02*
X16770000Y-9624000D01*
X16700000Y-9654000D02*
X16780000Y-9654000D01*
X16780000Y-9594000D02*
G75*
G02*
X16780000Y-9654000I0J-30000D01*
G01*
X16780000Y-9594000D02*
X16700000Y-9594000D01*
X16700000Y-9594000D02*
G75*
G03*
X16700000Y-9654000I0J-30000D01*
G01*
X15251820Y-9411820D02*
X15251820Y-9348180D01*
X15188180Y-9348180D01*
X15188180Y-9411820D01*
X15251820Y-9411820D01*
X15251820Y-9661820D02*
X15251820Y-9598180D01*
X15188180Y-9598180D01*
X15188180Y-9661820D01*
X15251820Y-9661820D01*
X15251820Y-9861820D02*
X15251820Y-9798180D01*
X15188180Y-9798180D01*
X15188180Y-9861820D01*
X15251820Y-9861820D01*
X15251820Y-10111820D02*
X15251820Y-10048180D01*
X15188180Y-10048180D01*
X15188180Y-10111820D01*
X15251820Y-10111820D01*
X15270320Y-12551820D02*
X15270320Y-12488180D01*
X15206680Y-12488180D01*
X15206680Y-12551820D01*
X15270320Y-12551820D01*
X15270320Y-12801820D02*
X15270320Y-12738180D01*
X15206680Y-12738180D01*
X15206680Y-12801820D01*
X15270320Y-12801820D01*
X15270320Y-13001820D02*
X15270320Y-12938180D01*
X15206680Y-12938180D01*
X15206680Y-13001820D01*
X15270320Y-13001820D01*
X15270320Y-13251820D02*
X15270320Y-13188180D01*
X15206680Y-13188180D01*
X15206680Y-13251820D01*
X15270320Y-13251820D01*
X9542000Y-8770000D02*
X9592000Y-8720000D01*
X9542000Y-8670000D01*
X9492000Y-8720000D01*
X9542000Y-8770000D01*
X9796000Y-8770000D02*
X9846000Y-8720000D01*
X9796000Y-8670000D01*
X9746000Y-8720000D01*
X9796000Y-8770000D01*
X10050000Y-8770000D02*
X10100000Y-8720000D01*
X10050000Y-8670000D01*
X10000000Y-8720000D01*
X10050000Y-8770000D01*
X10304000Y-8770000D02*
X10354000Y-8720000D01*
X10304000Y-8670000D01*
X10254000Y-8720000D01*
X10304000Y-8770000D01*
X10558000Y-8770000D02*
X10608000Y-8720000D01*
X10558000Y-8670000D01*
X10508000Y-8720000D01*
X10558000Y-8770000D01*
X10812000Y-8770000D02*
X10862000Y-8720000D01*
X10812000Y-8670000D01*
X10762000Y-8720000D01*
X10812000Y-8770000D01*
X11066000Y-8770000D02*
X11116000Y-8720000D01*
X11066000Y-8670000D01*
X11016000Y-8720000D01*
X11066000Y-8770000D01*
X11320000Y-8770000D02*
X11370000Y-8720000D01*
X11320000Y-8670000D01*
X11270000Y-8720000D01*
X11320000Y-8770000D01*
X11574000Y-8770000D02*
X11624000Y-8720000D01*
X11574000Y-8670000D01*
X11524000Y-8720000D01*
X11574000Y-8770000D01*
X11828000Y-8770000D02*
X11878000Y-8720000D01*
X11828000Y-8670000D01*
X11778000Y-8720000D01*
X11828000Y-8770000D01*
X13608000Y-8770000D02*
X13658000Y-8720000D01*
X13608000Y-8670000D01*
X13558000Y-8720000D01*
X13608000Y-8770000D01*
X13862000Y-8770000D02*
X13912000Y-8720000D01*
X13862000Y-8670000D01*
X13812000Y-8720000D01*
X13862000Y-8770000D01*
X14116000Y-8770000D02*
X14166000Y-8720000D01*
X14116000Y-8670000D01*
X14066000Y-8720000D01*
X14116000Y-8770000D01*
X14370000Y-8770000D02*
X14420000Y-8720000D01*
X14370000Y-8670000D01*
X14320000Y-8720000D01*
X14370000Y-8770000D01*
X14624000Y-8770000D02*
X14674000Y-8720000D01*
X14624000Y-8670000D01*
X14574000Y-8720000D01*
X14624000Y-8770000D01*
X14878000Y-8770000D02*
X14928000Y-8720000D01*
X14878000Y-8670000D01*
X14828000Y-8720000D01*
X14878000Y-8770000D01*
X15132000Y-8770000D02*
X15182000Y-8720000D01*
X15132000Y-8670000D01*
X15082000Y-8720000D01*
X15132000Y-8770000D01*
X15386000Y-8770000D02*
X15436000Y-8720000D01*
X15386000Y-8670000D01*
X15336000Y-8720000D01*
X15386000Y-8770000D01*
X15610000Y-9162000D02*
X15660000Y-9112000D01*
X15610000Y-9062000D01*
X15560000Y-9112000D01*
X15610000Y-9162000D01*
X15610000Y-9416000D02*
X15660000Y-9366000D01*
X15610000Y-9316000D01*
X15560000Y-9366000D01*
X15610000Y-9416000D01*
X15610000Y-9670000D02*
X15660000Y-9620000D01*
X15610000Y-9570000D01*
X15560000Y-9620000D01*
X15610000Y-9670000D01*
D12*
X14677000Y-9665000D02*
X14807000Y-9795000D01*
X14807000Y-9665000D02*
X14677000Y-9795000D01*
X14807000Y-9730000D02*
G75*
G02*
X14677000Y-9730000I-65000J0D01*
G01*
X14677000Y-9730000D02*
G75*
G02*
X14807000Y-9730000I65000J0D01*
G01*
D10*
X14807000Y-9780000D02*
X14807000Y-9680000D01*
X14677000Y-9680000D02*
G75*
G02*
X14807000Y-9680000I65000J0D01*
G01*
X14677000Y-9680000D02*
X14677000Y-9780000D01*
X14677000Y-9780000D02*
G75*
G03*
X14807000Y-9780000I65000J0D01*
G01*
D12*
X14695500Y-12805000D02*
X14825500Y-12935000D01*
X14825500Y-12805000D02*
X14695500Y-12935000D01*
X14825500Y-12870000D02*
G75*
G02*
X14695500Y-12870000I-65000J0D01*
G01*
X14695500Y-12870000D02*
G75*
G02*
X14825500Y-12870000I65000J0D01*
G01*
D10*
X14825500Y-12920000D02*
X14825500Y-12820000D01*
X14695500Y-12820000D02*
G75*
G02*
X14825500Y-12820000I65000J0D01*
G01*
X14695500Y-12820000D02*
X14695500Y-12920000D01*
X14695500Y-12920000D02*
G75*
G03*
X14825500Y-12920000I65000J0D01*
G01*
D12*
X15095000Y-9008000D02*
X15225000Y-9138000D01*
X15225000Y-9008000D02*
X15095000Y-9138000D01*
X15225000Y-9073000D02*
G75*
G02*
X15095000Y-9073000I-65000J0D01*
G01*
X15095000Y-9073000D02*
G75*
G02*
X15225000Y-9073000I65000J0D01*
G01*
D10*
X15110000Y-9138000D02*
X15210000Y-9138000D01*
X15210000Y-9008000D02*
G75*
G02*
X15210000Y-9138000I0J-65000D01*
G01*
X15210000Y-9008000D02*
X15110000Y-9008000D01*
X15110000Y-9008000D02*
G75*
G03*
X15110000Y-9138000I0J-65000D01*
G01*
D12*
X15095000Y-10322000D02*
X15225000Y-10452000D01*
X15225000Y-10322000D02*
X15095000Y-10452000D01*
X15225000Y-10387000D02*
G75*
G02*
X15095000Y-10387000I-65000J0D01*
G01*
X15095000Y-10387000D02*
G75*
G02*
X15225000Y-10387000I65000J0D01*
G01*
D10*
X15210000Y-10322000D02*
X15110000Y-10322000D01*
X15110000Y-10452000D02*
G75*
G02*
X15110000Y-10322000I0J65000D01*
G01*
X15110000Y-10452000D02*
X15210000Y-10452000D01*
X15210000Y-10452000D02*
G75*
G03*
X15210000Y-10322000I0J65000D01*
G01*
D12*
X15113500Y-12148000D02*
X15243500Y-12278000D01*
X15243500Y-12148000D02*
X15113500Y-12278000D01*
X15243500Y-12213000D02*
G75*
G02*
X15113500Y-12213000I-65000J0D01*
G01*
X15113500Y-12213000D02*
G75*
G02*
X15243500Y-12213000I65000J0D01*
G01*
D10*
X15128500Y-12278000D02*
X15228500Y-12278000D01*
X15228500Y-12148000D02*
G75*
G02*
X15228500Y-12278000I0J-65000D01*
G01*
X15228500Y-12148000D02*
X15128500Y-12148000D01*
X15128500Y-12148000D02*
G75*
G03*
X15128500Y-12278000I0J-65000D01*
G01*
D12*
X15113500Y-13462000D02*
X15243500Y-13592000D01*
X15243500Y-13462000D02*
X15113500Y-13592000D01*
X15243500Y-13527000D02*
G75*
G02*
X15113500Y-13527000I-65000J0D01*
G01*
X15113500Y-13527000D02*
G75*
G02*
X15243500Y-13527000I65000J0D01*
G01*
D10*
X15228500Y-13462000D02*
X15128500Y-13462000D01*
X15128500Y-13592000D02*
G75*
G02*
X15128500Y-13462000I0J65000D01*
G01*
X15128500Y-13592000D02*
X15228500Y-13592000D01*
X15228500Y-13592000D02*
G75*
G03*
X15228500Y-13462000I0J65000D01*
G01*
D13*
X9875000Y-12685000D02*
X10025000Y-12835000D01*
X10025000Y-12685000D02*
X9875000Y-12835000D01*
X9950000Y-12685000D02*
X9950000Y-12835000D01*
X9875000Y-12760000D02*
X10025000Y-12760000D01*
D14*
X9611000Y-12421000D02*
X9781000Y-12591000D01*
X9781000Y-12421000D02*
X9611000Y-12591000D01*
X9756105Y-12566105D02*
X9756105Y-12445895D01*
X9635895Y-12445895D01*
X9635895Y-12566105D01*
X9756105Y-12566105D01*
X9611000Y-12929000D02*
X9781000Y-13099000D01*
X9781000Y-12929000D02*
X9611000Y-13099000D01*
X9756105Y-13074105D02*
X9756105Y-12953895D01*
X9635895Y-12953895D01*
X9635895Y-13074105D01*
X9756105Y-13074105D01*
X10119000Y-12421000D02*
X10289000Y-12591000D01*
X10289000Y-12421000D02*
X10119000Y-12591000D01*
X10264105Y-12566105D02*
X10264105Y-12445895D01*
X10143895Y-12445895D01*
X10143895Y-12566105D01*
X10264105Y-12566105D01*
X10119000Y-12929000D02*
X10289000Y-13099000D01*
X10289000Y-12929000D02*
X10119000Y-13099000D01*
X10264105Y-13074105D02*
X10264105Y-12953895D01*
X10143895Y-12953895D01*
X10143895Y-13074105D01*
X10264105Y-13074105D01*
D11*
X8155777Y-14020484D02*
X8155777Y-13820484D01*
X8155777Y-13820484D02*
X8203396Y-13820484D01*
X8203396Y-13820484D02*
X8231967Y-13830008D01*
X8231967Y-13830008D02*
X8251015Y-13849055D01*
X8251015Y-13849055D02*
X8260539Y-13868103D01*
X8260539Y-13868103D02*
X8270062Y-13906198D01*
X8270062Y-13906198D02*
X8270062Y-13934769D01*
X8270062Y-13934769D02*
X8260539Y-13972865D01*
X8260539Y-13972865D02*
X8251015Y-13991912D01*
X8251015Y-13991912D02*
X8231967Y-14010960D01*
X8231967Y-14010960D02*
X8203396Y-14020484D01*
X8203396Y-14020484D02*
X8155777Y-14020484D01*
X8355777Y-14020484D02*
X8355777Y-13887150D01*
X8355777Y-13925246D02*
X8365301Y-13906198D01*
X8365301Y-13906198D02*
X8374824Y-13896674D01*
X8374824Y-13896674D02*
X8393872Y-13887150D01*
X8393872Y-13887150D02*
X8412920Y-13887150D01*
X8479586Y-14020484D02*
X8479586Y-13887150D01*
X8479586Y-13820484D02*
X8470063Y-13830008D01*
X8470063Y-13830008D02*
X8479586Y-13839531D01*
X8479586Y-13839531D02*
X8489110Y-13830008D01*
X8489110Y-13830008D02*
X8479586Y-13820484D01*
X8479586Y-13820484D02*
X8479586Y-13839531D01*
X8603396Y-14020484D02*
X8584348Y-14010960D01*
X8584348Y-14010960D02*
X8574824Y-13991912D01*
X8574824Y-13991912D02*
X8574824Y-13820484D01*
X8708158Y-14020484D02*
X8689110Y-14010960D01*
X8689110Y-14010960D02*
X8679586Y-13991912D01*
X8679586Y-13991912D02*
X8679586Y-13820484D01*
X8936729Y-14020484D02*
X8936729Y-13820484D01*
X8936729Y-13820484D02*
X9003396Y-13963341D01*
X9003396Y-13963341D02*
X9070063Y-13820484D01*
X9070063Y-13820484D02*
X9070063Y-14020484D01*
X9251015Y-14020484D02*
X9251015Y-13915722D01*
X9251015Y-13915722D02*
X9241491Y-13896674D01*
X9241491Y-13896674D02*
X9222444Y-13887150D01*
X9222444Y-13887150D02*
X9184348Y-13887150D01*
X9184348Y-13887150D02*
X9165301Y-13896674D01*
X9251015Y-14010960D02*
X9231967Y-14020484D01*
X9231967Y-14020484D02*
X9184348Y-14020484D01*
X9184348Y-14020484D02*
X9165301Y-14010960D01*
X9165301Y-14010960D02*
X9155777Y-13991912D01*
X9155777Y-13991912D02*
X9155777Y-13972865D01*
X9155777Y-13972865D02*
X9165301Y-13953817D01*
X9165301Y-13953817D02*
X9184348Y-13944293D01*
X9184348Y-13944293D02*
X9231967Y-13944293D01*
X9231967Y-13944293D02*
X9251015Y-13934769D01*
X9346253Y-13887150D02*
X9346253Y-14087150D01*
X9346253Y-13896674D02*
X9365301Y-13887150D01*
X9365301Y-13887150D02*
X9403396Y-13887150D01*
X9403396Y-13887150D02*
X9422444Y-13896674D01*
X9422444Y-13896674D02*
X9431967Y-13906198D01*
X9431967Y-13906198D02*
X9441491Y-13925246D01*
X9441491Y-13925246D02*
X9441491Y-13982388D01*
X9441491Y-13982388D02*
X9431967Y-14001436D01*
X9431967Y-14001436D02*
X9422444Y-14010960D01*
X9422444Y-14010960D02*
X9403396Y-14020484D01*
X9403396Y-14020484D02*
X9365301Y-14020484D01*
X9365301Y-14020484D02*
X9346253Y-14010960D01*
X9527205Y-14001436D02*
X9536729Y-14010960D01*
X9536729Y-14010960D02*
X9527205Y-14020484D01*
X9527205Y-14020484D02*
X9517682Y-14010960D01*
X9517682Y-14010960D02*
X9527205Y-14001436D01*
X9527205Y-14001436D02*
X9527205Y-14020484D01*
X9527205Y-13896674D02*
X9536729Y-13906198D01*
X9536729Y-13906198D02*
X9527205Y-13915722D01*
X9527205Y-13915722D02*
X9517682Y-13906198D01*
X9517682Y-13906198D02*
X9527205Y-13896674D01*
X9527205Y-13896674D02*
X9527205Y-13915722D01*
D10*
X7875000Y-14339000D02*
X7895000Y-14359000D01*
X7895000Y-14339000D02*
X7875000Y-14359000D01*
D11*
X8193872Y-14240484D02*
X8212920Y-14240484D01*
X8212920Y-14240484D02*
X8231967Y-14250008D01*
X8231967Y-14250008D02*
X8241491Y-14259531D01*
X8241491Y-14259531D02*
X8251015Y-14278579D01*
X8251015Y-14278579D02*
X8260539Y-14316674D01*
X8260539Y-14316674D02*
X8260539Y-14364293D01*
X8260539Y-14364293D02*
X8251015Y-14402388D01*
X8251015Y-14402388D02*
X8241491Y-14421436D01*
X8241491Y-14421436D02*
X8231967Y-14430960D01*
X8231967Y-14430960D02*
X8212920Y-14440484D01*
X8212920Y-14440484D02*
X8193872Y-14440484D01*
X8193872Y-14440484D02*
X8174824Y-14430960D01*
X8174824Y-14430960D02*
X8165301Y-14421436D01*
X8165301Y-14421436D02*
X8155777Y-14402388D01*
X8155777Y-14402388D02*
X8146253Y-14364293D01*
X8146253Y-14364293D02*
X8146253Y-14316674D01*
X8146253Y-14316674D02*
X8155777Y-14278579D01*
X8155777Y-14278579D02*
X8165301Y-14259531D01*
X8165301Y-14259531D02*
X8174824Y-14250008D01*
X8174824Y-14250008D02*
X8193872Y-14240484D01*
X8346253Y-14421436D02*
X8355777Y-14430960D01*
X8355777Y-14430960D02*
X8346253Y-14440484D01*
X8346253Y-14440484D02*
X8336729Y-14430960D01*
X8336729Y-14430960D02*
X8346253Y-14421436D01*
X8346253Y-14421436D02*
X8346253Y-14440484D01*
X8431967Y-14259531D02*
X8441491Y-14250008D01*
X8441491Y-14250008D02*
X8460539Y-14240484D01*
X8460539Y-14240484D02*
X8508158Y-14240484D01*
X8508158Y-14240484D02*
X8527205Y-14250008D01*
X8527205Y-14250008D02*
X8536729Y-14259531D01*
X8536729Y-14259531D02*
X8546253Y-14278579D01*
X8546253Y-14278579D02*
X8546253Y-14297627D01*
X8546253Y-14297627D02*
X8536729Y-14326198D01*
X8536729Y-14326198D02*
X8422444Y-14440484D01*
X8422444Y-14440484D02*
X8546253Y-14440484D01*
X8670063Y-14240484D02*
X8689110Y-14240484D01*
X8689110Y-14240484D02*
X8708158Y-14250008D01*
X8708158Y-14250008D02*
X8717682Y-14259531D01*
X8717682Y-14259531D02*
X8727205Y-14278579D01*
X8727205Y-14278579D02*
X8736729Y-14316674D01*
X8736729Y-14316674D02*
X8736729Y-14364293D01*
X8736729Y-14364293D02*
X8727205Y-14402388D01*
X8727205Y-14402388D02*
X8717682Y-14421436D01*
X8717682Y-14421436D02*
X8708158Y-14430960D01*
X8708158Y-14430960D02*
X8689110Y-14440484D01*
X8689110Y-14440484D02*
X8670063Y-14440484D01*
X8670063Y-14440484D02*
X8651015Y-14430960D01*
X8651015Y-14430960D02*
X8641491Y-14421436D01*
X8641491Y-14421436D02*
X8631967Y-14402388D01*
X8631967Y-14402388D02*
X8622444Y-14364293D01*
X8622444Y-14364293D02*
X8622444Y-14316674D01*
X8622444Y-14316674D02*
X8631967Y-14278579D01*
X8631967Y-14278579D02*
X8641491Y-14259531D01*
X8641491Y-14259531D02*
X8651015Y-14250008D01*
X8651015Y-14250008D02*
X8670063Y-14240484D01*
X8860539Y-14240484D02*
X8879586Y-14240484D01*
X8879586Y-14240484D02*
X8898634Y-14250008D01*
X8898634Y-14250008D02*
X8908158Y-14259531D01*
X8908158Y-14259531D02*
X8917682Y-14278579D01*
X8917682Y-14278579D02*
X8927205Y-14316674D01*
X8927205Y-14316674D02*
X8927205Y-14364293D01*
X8927205Y-14364293D02*
X8917682Y-14402388D01*
X8917682Y-14402388D02*
X8908158Y-14421436D01*
X8908158Y-14421436D02*
X8898634Y-14430960D01*
X8898634Y-14430960D02*
X8879586Y-14440484D01*
X8879586Y-14440484D02*
X8860539Y-14440484D01*
X8860539Y-14440484D02*
X8841491Y-14430960D01*
X8841491Y-14430960D02*
X8831967Y-14421436D01*
X8831967Y-14421436D02*
X8822444Y-14402388D01*
X8822444Y-14402388D02*
X8812920Y-14364293D01*
X8812920Y-14364293D02*
X8812920Y-14316674D01*
X8812920Y-14316674D02*
X8822444Y-14278579D01*
X8822444Y-14278579D02*
X8831967Y-14259531D01*
X8831967Y-14259531D02*
X8841491Y-14250008D01*
X8841491Y-14250008D02*
X8860539Y-14240484D01*
X9012920Y-14440484D02*
X9012920Y-14307150D01*
X9012920Y-14326198D02*
X9022444Y-14316674D01*
X9022444Y-14316674D02*
X9041491Y-14307150D01*
X9041491Y-14307150D02*
X9070063Y-14307150D01*
X9070063Y-14307150D02*
X9089110Y-14316674D01*
X9089110Y-14316674D02*
X9098634Y-14335722D01*
X9098634Y-14335722D02*
X9098634Y-14440484D01*
X9098634Y-14335722D02*
X9108158Y-14316674D01*
X9108158Y-14316674D02*
X9127205Y-14307150D01*
X9127205Y-14307150D02*
X9155777Y-14307150D01*
X9155777Y-14307150D02*
X9174825Y-14316674D01*
X9174825Y-14316674D02*
X9184348Y-14335722D01*
X9184348Y-14335722D02*
X9184348Y-14440484D01*
X9279586Y-14440484D02*
X9279586Y-14307150D01*
X9279586Y-14326198D02*
X9289110Y-14316674D01*
X9289110Y-14316674D02*
X9308158Y-14307150D01*
X9308158Y-14307150D02*
X9336729Y-14307150D01*
X9336729Y-14307150D02*
X9355777Y-14316674D01*
X9355777Y-14316674D02*
X9365301Y-14335722D01*
X9365301Y-14335722D02*
X9365301Y-14440484D01*
X9365301Y-14335722D02*
X9374825Y-14316674D01*
X9374825Y-14316674D02*
X9393872Y-14307150D01*
X9393872Y-14307150D02*
X9422444Y-14307150D01*
X9422444Y-14307150D02*
X9441491Y-14316674D01*
X9441491Y-14316674D02*
X9451015Y-14335722D01*
X9451015Y-14335722D02*
X9451015Y-14440484D01*
X9841491Y-14230960D02*
X9670063Y-14488103D01*
X10098634Y-14240484D02*
X10117682Y-14240484D01*
X10117682Y-14240484D02*
X10136729Y-14250008D01*
X10136729Y-14250008D02*
X10146253Y-14259531D01*
X10146253Y-14259531D02*
X10155777Y-14278579D01*
X10155777Y-14278579D02*
X10165301Y-14316674D01*
X10165301Y-14316674D02*
X10165301Y-14364293D01*
X10165301Y-14364293D02*
X10155777Y-14402388D01*
X10155777Y-14402388D02*
X10146253Y-14421436D01*
X10146253Y-14421436D02*
X10136729Y-14430960D01*
X10136729Y-14430960D02*
X10117682Y-14440484D01*
X10117682Y-14440484D02*
X10098634Y-14440484D01*
X10098634Y-14440484D02*
X10079587Y-14430960D01*
X10079587Y-14430960D02*
X10070063Y-14421436D01*
X10070063Y-14421436D02*
X10060539Y-14402388D01*
X10060539Y-14402388D02*
X10051015Y-14364293D01*
X10051015Y-14364293D02*
X10051015Y-14316674D01*
X10051015Y-14316674D02*
X10060539Y-14278579D01*
X10060539Y-14278579D02*
X10070063Y-14259531D01*
X10070063Y-14259531D02*
X10079587Y-14250008D01*
X10079587Y-14250008D02*
X10098634Y-14240484D01*
X10251015Y-14421436D02*
X10260539Y-14430960D01*
X10260539Y-14430960D02*
X10251015Y-14440484D01*
X10251015Y-14440484D02*
X10241491Y-14430960D01*
X10241491Y-14430960D02*
X10251015Y-14421436D01*
X10251015Y-14421436D02*
X10251015Y-14440484D01*
X10384348Y-14240484D02*
X10403396Y-14240484D01*
X10403396Y-14240484D02*
X10422444Y-14250008D01*
X10422444Y-14250008D02*
X10431968Y-14259531D01*
X10431968Y-14259531D02*
X10441491Y-14278579D01*
X10441491Y-14278579D02*
X10451015Y-14316674D01*
X10451015Y-14316674D02*
X10451015Y-14364293D01*
X10451015Y-14364293D02*
X10441491Y-14402388D01*
X10441491Y-14402388D02*
X10431968Y-14421436D01*
X10431968Y-14421436D02*
X10422444Y-14430960D01*
X10422444Y-14430960D02*
X10403396Y-14440484D01*
X10403396Y-14440484D02*
X10384348Y-14440484D01*
X10384348Y-14440484D02*
X10365301Y-14430960D01*
X10365301Y-14430960D02*
X10355777Y-14421436D01*
X10355777Y-14421436D02*
X10346253Y-14402388D01*
X10346253Y-14402388D02*
X10336729Y-14364293D01*
X10336729Y-14364293D02*
X10336729Y-14316674D01*
X10336729Y-14316674D02*
X10346253Y-14278579D01*
X10346253Y-14278579D02*
X10355777Y-14259531D01*
X10355777Y-14259531D02*
X10365301Y-14250008D01*
X10365301Y-14250008D02*
X10384348Y-14240484D01*
X10574825Y-14240484D02*
X10593872Y-14240484D01*
X10593872Y-14240484D02*
X10612920Y-14250008D01*
X10612920Y-14250008D02*
X10622444Y-14259531D01*
X10622444Y-14259531D02*
X10631968Y-14278579D01*
X10631968Y-14278579D02*
X10641491Y-14316674D01*
X10641491Y-14316674D02*
X10641491Y-14364293D01*
X10641491Y-14364293D02*
X10631968Y-14402388D01*
X10631968Y-14402388D02*
X10622444Y-14421436D01*
X10622444Y-14421436D02*
X10612920Y-14430960D01*
X10612920Y-14430960D02*
X10593872Y-14440484D01*
X10593872Y-14440484D02*
X10574825Y-14440484D01*
X10574825Y-14440484D02*
X10555777Y-14430960D01*
X10555777Y-14430960D02*
X10546253Y-14421436D01*
X10546253Y-14421436D02*
X10536729Y-14402388D01*
X10536729Y-14402388D02*
X10527206Y-14364293D01*
X10527206Y-14364293D02*
X10527206Y-14316674D01*
X10527206Y-14316674D02*
X10536729Y-14278579D01*
X10536729Y-14278579D02*
X10546253Y-14259531D01*
X10546253Y-14259531D02*
X10555777Y-14250008D01*
X10555777Y-14250008D02*
X10574825Y-14240484D01*
X10708158Y-14240484D02*
X10841491Y-14240484D01*
X10841491Y-14240484D02*
X10755777Y-14440484D01*
X10927206Y-14440484D02*
X10965301Y-14440484D01*
X10965301Y-14440484D02*
X10984349Y-14430960D01*
X10984349Y-14430960D02*
X10993872Y-14421436D01*
X10993872Y-14421436D02*
X11012920Y-14392865D01*
X11012920Y-14392865D02*
X11022444Y-14354769D01*
X11022444Y-14354769D02*
X11022444Y-14278579D01*
X11022444Y-14278579D02*
X11012920Y-14259531D01*
X11012920Y-14259531D02*
X11003396Y-14250008D01*
X11003396Y-14250008D02*
X10984349Y-14240484D01*
X10984349Y-14240484D02*
X10946253Y-14240484D01*
X10946253Y-14240484D02*
X10927206Y-14250008D01*
X10927206Y-14250008D02*
X10917682Y-14259531D01*
X10917682Y-14259531D02*
X10908158Y-14278579D01*
X10908158Y-14278579D02*
X10908158Y-14326198D01*
X10908158Y-14326198D02*
X10917682Y-14345246D01*
X10917682Y-14345246D02*
X10927206Y-14354769D01*
X10927206Y-14354769D02*
X10946253Y-14364293D01*
X10946253Y-14364293D02*
X10984349Y-14364293D01*
X10984349Y-14364293D02*
X11003396Y-14354769D01*
X11003396Y-14354769D02*
X11012920Y-14345246D01*
X11012920Y-14345246D02*
X11022444Y-14326198D01*
X11098634Y-14240484D02*
X11098634Y-14278579D01*
X11174825Y-14240484D02*
X11174825Y-14278579D01*
X11470063Y-14516674D02*
X11460539Y-14507150D01*
X11460539Y-14507150D02*
X11441491Y-14478579D01*
X11441491Y-14478579D02*
X11431968Y-14459531D01*
X11431968Y-14459531D02*
X11422444Y-14430960D01*
X11422444Y-14430960D02*
X11412920Y-14383341D01*
X11412920Y-14383341D02*
X11412920Y-14345246D01*
X11412920Y-14345246D02*
X11422444Y-14297627D01*
X11422444Y-14297627D02*
X11431968Y-14269055D01*
X11431968Y-14269055D02*
X11441491Y-14250008D01*
X11441491Y-14250008D02*
X11460539Y-14221436D01*
X11460539Y-14221436D02*
X11470063Y-14211912D01*
X11527206Y-14240484D02*
X11651015Y-14240484D01*
X11651015Y-14240484D02*
X11584348Y-14316674D01*
X11584348Y-14316674D02*
X11612920Y-14316674D01*
X11612920Y-14316674D02*
X11631968Y-14326198D01*
X11631968Y-14326198D02*
X11641491Y-14335722D01*
X11641491Y-14335722D02*
X11651015Y-14354769D01*
X11651015Y-14354769D02*
X11651015Y-14402388D01*
X11651015Y-14402388D02*
X11641491Y-14421436D01*
X11641491Y-14421436D02*
X11631968Y-14430960D01*
X11631968Y-14430960D02*
X11612920Y-14440484D01*
X11612920Y-14440484D02*
X11555777Y-14440484D01*
X11555777Y-14440484D02*
X11536729Y-14430960D01*
X11536729Y-14430960D02*
X11527206Y-14421436D01*
X11822444Y-14240484D02*
X11784348Y-14240484D01*
X11784348Y-14240484D02*
X11765301Y-14250008D01*
X11765301Y-14250008D02*
X11755777Y-14259531D01*
X11755777Y-14259531D02*
X11736729Y-14288103D01*
X11736729Y-14288103D02*
X11727206Y-14326198D01*
X11727206Y-14326198D02*
X11727206Y-14402388D01*
X11727206Y-14402388D02*
X11736729Y-14421436D01*
X11736729Y-14421436D02*
X11746253Y-14430960D01*
X11746253Y-14430960D02*
X11765301Y-14440484D01*
X11765301Y-14440484D02*
X11803396Y-14440484D01*
X11803396Y-14440484D02*
X11822444Y-14430960D01*
X11822444Y-14430960D02*
X11831968Y-14421436D01*
X11831968Y-14421436D02*
X11841491Y-14402388D01*
X11841491Y-14402388D02*
X11841491Y-14354769D01*
X11841491Y-14354769D02*
X11831968Y-14335722D01*
X11831968Y-14335722D02*
X11822444Y-14326198D01*
X11822444Y-14326198D02*
X11803396Y-14316674D01*
X11803396Y-14316674D02*
X11765301Y-14316674D01*
X11765301Y-14316674D02*
X11746253Y-14326198D01*
X11746253Y-14326198D02*
X11736729Y-14335722D01*
X11736729Y-14335722D02*
X11727206Y-14354769D01*
X11936729Y-14440484D02*
X11974825Y-14440484D01*
X11974825Y-14440484D02*
X11993872Y-14430960D01*
X11993872Y-14430960D02*
X12003396Y-14421436D01*
X12003396Y-14421436D02*
X12022444Y-14392865D01*
X12022444Y-14392865D02*
X12031968Y-14354769D01*
X12031968Y-14354769D02*
X12031968Y-14278579D01*
X12031968Y-14278579D02*
X12022444Y-14259531D01*
X12022444Y-14259531D02*
X12012920Y-14250008D01*
X12012920Y-14250008D02*
X11993872Y-14240484D01*
X11993872Y-14240484D02*
X11955777Y-14240484D01*
X11955777Y-14240484D02*
X11936729Y-14250008D01*
X11936729Y-14250008D02*
X11927206Y-14259531D01*
X11927206Y-14259531D02*
X11917682Y-14278579D01*
X11917682Y-14278579D02*
X11917682Y-14326198D01*
X11917682Y-14326198D02*
X11927206Y-14345246D01*
X11927206Y-14345246D02*
X11936729Y-14354769D01*
X11936729Y-14354769D02*
X11955777Y-14364293D01*
X11955777Y-14364293D02*
X11993872Y-14364293D01*
X11993872Y-14364293D02*
X12012920Y-14354769D01*
X12012920Y-14354769D02*
X12022444Y-14345246D01*
X12022444Y-14345246D02*
X12031968Y-14326198D01*
X12270063Y-14440484D02*
X12270063Y-14240484D01*
X12355777Y-14440484D02*
X12355777Y-14335722D01*
X12355777Y-14335722D02*
X12346253Y-14316674D01*
X12346253Y-14316674D02*
X12327206Y-14307150D01*
X12327206Y-14307150D02*
X12298634Y-14307150D01*
X12298634Y-14307150D02*
X12279587Y-14316674D01*
X12279587Y-14316674D02*
X12270063Y-14326198D01*
X12479587Y-14440484D02*
X12460539Y-14430960D01*
X12460539Y-14430960D02*
X12451015Y-14421436D01*
X12451015Y-14421436D02*
X12441491Y-14402388D01*
X12441491Y-14402388D02*
X12441491Y-14345246D01*
X12441491Y-14345246D02*
X12451015Y-14326198D01*
X12451015Y-14326198D02*
X12460539Y-14316674D01*
X12460539Y-14316674D02*
X12479587Y-14307150D01*
X12479587Y-14307150D02*
X12508158Y-14307150D01*
X12508158Y-14307150D02*
X12527206Y-14316674D01*
X12527206Y-14316674D02*
X12536730Y-14326198D01*
X12536730Y-14326198D02*
X12546253Y-14345246D01*
X12546253Y-14345246D02*
X12546253Y-14402388D01*
X12546253Y-14402388D02*
X12536730Y-14421436D01*
X12536730Y-14421436D02*
X12527206Y-14430960D01*
X12527206Y-14430960D02*
X12508158Y-14440484D01*
X12508158Y-14440484D02*
X12479587Y-14440484D01*
X12660539Y-14440484D02*
X12641491Y-14430960D01*
X12641491Y-14430960D02*
X12631968Y-14411912D01*
X12631968Y-14411912D02*
X12631968Y-14240484D01*
X12812920Y-14430960D02*
X12793872Y-14440484D01*
X12793872Y-14440484D02*
X12755777Y-14440484D01*
X12755777Y-14440484D02*
X12736730Y-14430960D01*
X12736730Y-14430960D02*
X12727206Y-14411912D01*
X12727206Y-14411912D02*
X12727206Y-14335722D01*
X12727206Y-14335722D02*
X12736730Y-14316674D01*
X12736730Y-14316674D02*
X12755777Y-14307150D01*
X12755777Y-14307150D02*
X12793872Y-14307150D01*
X12793872Y-14307150D02*
X12812920Y-14316674D01*
X12812920Y-14316674D02*
X12822444Y-14335722D01*
X12822444Y-14335722D02*
X12822444Y-14354769D01*
X12822444Y-14354769D02*
X12727206Y-14373817D01*
X12898634Y-14430960D02*
X12917682Y-14440484D01*
X12917682Y-14440484D02*
X12955777Y-14440484D01*
X12955777Y-14440484D02*
X12974825Y-14430960D01*
X12974825Y-14430960D02*
X12984349Y-14411912D01*
X12984349Y-14411912D02*
X12984349Y-14402388D01*
X12984349Y-14402388D02*
X12974825Y-14383341D01*
X12974825Y-14383341D02*
X12955777Y-14373817D01*
X12955777Y-14373817D02*
X12927206Y-14373817D01*
X12927206Y-14373817D02*
X12908158Y-14364293D01*
X12908158Y-14364293D02*
X12898634Y-14345246D01*
X12898634Y-14345246D02*
X12898634Y-14335722D01*
X12898634Y-14335722D02*
X12908158Y-14316674D01*
X12908158Y-14316674D02*
X12927206Y-14307150D01*
X12927206Y-14307150D02*
X12955777Y-14307150D01*
X12955777Y-14307150D02*
X12974825Y-14316674D01*
X13051015Y-14516674D02*
X13060539Y-14507150D01*
X13060539Y-14507150D02*
X13079587Y-14478579D01*
X13079587Y-14478579D02*
X13089111Y-14459531D01*
X13089111Y-14459531D02*
X13098634Y-14430960D01*
X13098634Y-14430960D02*
X13108158Y-14383341D01*
X13108158Y-14383341D02*
X13108158Y-14345246D01*
X13108158Y-14345246D02*
X13098634Y-14297627D01*
X13098634Y-14297627D02*
X13089111Y-14269055D01*
X13089111Y-14269055D02*
X13079587Y-14250008D01*
X13079587Y-14250008D02*
X13060539Y-14221436D01*
X13060539Y-14221436D02*
X13051015Y-14211912D01*
D10*
X7895000Y-14613000D02*
G75*
G02*
X7874680Y-14613000I-10160J0D01*
G01*
X7874680Y-14613000D02*
G75*
G02*
X7895000Y-14613000I10160J0D01*
G01*
D11*
X8193872Y-14504484D02*
X8212920Y-14504484D01*
X8212920Y-14504484D02*
X8231967Y-14514008D01*
X8231967Y-14514008D02*
X8241491Y-14523531D01*
X8241491Y-14523531D02*
X8251015Y-14542579D01*
X8251015Y-14542579D02*
X8260539Y-14580674D01*
X8260539Y-14580674D02*
X8260539Y-14628293D01*
X8260539Y-14628293D02*
X8251015Y-14666388D01*
X8251015Y-14666388D02*
X8241491Y-14685436D01*
X8241491Y-14685436D02*
X8231967Y-14694960D01*
X8231967Y-14694960D02*
X8212920Y-14704484D01*
X8212920Y-14704484D02*
X8193872Y-14704484D01*
X8193872Y-14704484D02*
X8174824Y-14694960D01*
X8174824Y-14694960D02*
X8165301Y-14685436D01*
X8165301Y-14685436D02*
X8155777Y-14666388D01*
X8155777Y-14666388D02*
X8146253Y-14628293D01*
X8146253Y-14628293D02*
X8146253Y-14580674D01*
X8146253Y-14580674D02*
X8155777Y-14542579D01*
X8155777Y-14542579D02*
X8165301Y-14523531D01*
X8165301Y-14523531D02*
X8174824Y-14514008D01*
X8174824Y-14514008D02*
X8193872Y-14504484D01*
X8346253Y-14685436D02*
X8355777Y-14694960D01*
X8355777Y-14694960D02*
X8346253Y-14704484D01*
X8346253Y-14704484D02*
X8336729Y-14694960D01*
X8336729Y-14694960D02*
X8346253Y-14685436D01*
X8346253Y-14685436D02*
X8346253Y-14704484D01*
X8431967Y-14523531D02*
X8441491Y-14514008D01*
X8441491Y-14514008D02*
X8460539Y-14504484D01*
X8460539Y-14504484D02*
X8508158Y-14504484D01*
X8508158Y-14504484D02*
X8527205Y-14514008D01*
X8527205Y-14514008D02*
X8536729Y-14523531D01*
X8536729Y-14523531D02*
X8546253Y-14542579D01*
X8546253Y-14542579D02*
X8546253Y-14561627D01*
X8546253Y-14561627D02*
X8536729Y-14590198D01*
X8536729Y-14590198D02*
X8422444Y-14704484D01*
X8422444Y-14704484D02*
X8546253Y-14704484D01*
X8670063Y-14504484D02*
X8689110Y-14504484D01*
X8689110Y-14504484D02*
X8708158Y-14514008D01*
X8708158Y-14514008D02*
X8717682Y-14523531D01*
X8717682Y-14523531D02*
X8727205Y-14542579D01*
X8727205Y-14542579D02*
X8736729Y-14580674D01*
X8736729Y-14580674D02*
X8736729Y-14628293D01*
X8736729Y-14628293D02*
X8727205Y-14666388D01*
X8727205Y-14666388D02*
X8717682Y-14685436D01*
X8717682Y-14685436D02*
X8708158Y-14694960D01*
X8708158Y-14694960D02*
X8689110Y-14704484D01*
X8689110Y-14704484D02*
X8670063Y-14704484D01*
X8670063Y-14704484D02*
X8651015Y-14694960D01*
X8651015Y-14694960D02*
X8641491Y-14685436D01*
X8641491Y-14685436D02*
X8631967Y-14666388D01*
X8631967Y-14666388D02*
X8622444Y-14628293D01*
X8622444Y-14628293D02*
X8622444Y-14580674D01*
X8622444Y-14580674D02*
X8631967Y-14542579D01*
X8631967Y-14542579D02*
X8641491Y-14523531D01*
X8641491Y-14523531D02*
X8651015Y-14514008D01*
X8651015Y-14514008D02*
X8670063Y-14504484D01*
X8803396Y-14504484D02*
X8927205Y-14504484D01*
X8927205Y-14504484D02*
X8860539Y-14580674D01*
X8860539Y-14580674D02*
X8889110Y-14580674D01*
X8889110Y-14580674D02*
X8908158Y-14590198D01*
X8908158Y-14590198D02*
X8917682Y-14599722D01*
X8917682Y-14599722D02*
X8927205Y-14618769D01*
X8927205Y-14618769D02*
X8927205Y-14666388D01*
X8927205Y-14666388D02*
X8917682Y-14685436D01*
X8917682Y-14685436D02*
X8908158Y-14694960D01*
X8908158Y-14694960D02*
X8889110Y-14704484D01*
X8889110Y-14704484D02*
X8831967Y-14704484D01*
X8831967Y-14704484D02*
X8812920Y-14694960D01*
X8812920Y-14694960D02*
X8803396Y-14685436D01*
X9012920Y-14704484D02*
X9012920Y-14571150D01*
X9012920Y-14590198D02*
X9022444Y-14580674D01*
X9022444Y-14580674D02*
X9041491Y-14571150D01*
X9041491Y-14571150D02*
X9070063Y-14571150D01*
X9070063Y-14571150D02*
X9089110Y-14580674D01*
X9089110Y-14580674D02*
X9098634Y-14599722D01*
X9098634Y-14599722D02*
X9098634Y-14704484D01*
X9098634Y-14599722D02*
X9108158Y-14580674D01*
X9108158Y-14580674D02*
X9127205Y-14571150D01*
X9127205Y-14571150D02*
X9155777Y-14571150D01*
X9155777Y-14571150D02*
X9174825Y-14580674D01*
X9174825Y-14580674D02*
X9184348Y-14599722D01*
X9184348Y-14599722D02*
X9184348Y-14704484D01*
X9279586Y-14704484D02*
X9279586Y-14571150D01*
X9279586Y-14590198D02*
X9289110Y-14580674D01*
X9289110Y-14580674D02*
X9308158Y-14571150D01*
X9308158Y-14571150D02*
X9336729Y-14571150D01*
X9336729Y-14571150D02*
X9355777Y-14580674D01*
X9355777Y-14580674D02*
X9365301Y-14599722D01*
X9365301Y-14599722D02*
X9365301Y-14704484D01*
X9365301Y-14599722D02*
X9374825Y-14580674D01*
X9374825Y-14580674D02*
X9393872Y-14571150D01*
X9393872Y-14571150D02*
X9422444Y-14571150D01*
X9422444Y-14571150D02*
X9441491Y-14580674D01*
X9441491Y-14580674D02*
X9451015Y-14599722D01*
X9451015Y-14599722D02*
X9451015Y-14704484D01*
X9841491Y-14494960D02*
X9670063Y-14752103D01*
X10098634Y-14504484D02*
X10117682Y-14504484D01*
X10117682Y-14504484D02*
X10136729Y-14514008D01*
X10136729Y-14514008D02*
X10146253Y-14523531D01*
X10146253Y-14523531D02*
X10155777Y-14542579D01*
X10155777Y-14542579D02*
X10165301Y-14580674D01*
X10165301Y-14580674D02*
X10165301Y-14628293D01*
X10165301Y-14628293D02*
X10155777Y-14666388D01*
X10155777Y-14666388D02*
X10146253Y-14685436D01*
X10146253Y-14685436D02*
X10136729Y-14694960D01*
X10136729Y-14694960D02*
X10117682Y-14704484D01*
X10117682Y-14704484D02*
X10098634Y-14704484D01*
X10098634Y-14704484D02*
X10079587Y-14694960D01*
X10079587Y-14694960D02*
X10070063Y-14685436D01*
X10070063Y-14685436D02*
X10060539Y-14666388D01*
X10060539Y-14666388D02*
X10051015Y-14628293D01*
X10051015Y-14628293D02*
X10051015Y-14580674D01*
X10051015Y-14580674D02*
X10060539Y-14542579D01*
X10060539Y-14542579D02*
X10070063Y-14523531D01*
X10070063Y-14523531D02*
X10079587Y-14514008D01*
X10079587Y-14514008D02*
X10098634Y-14504484D01*
X10251015Y-14685436D02*
X10260539Y-14694960D01*
X10260539Y-14694960D02*
X10251015Y-14704484D01*
X10251015Y-14704484D02*
X10241491Y-14694960D01*
X10241491Y-14694960D02*
X10251015Y-14685436D01*
X10251015Y-14685436D02*
X10251015Y-14704484D01*
X10384348Y-14504484D02*
X10403396Y-14504484D01*
X10403396Y-14504484D02*
X10422444Y-14514008D01*
X10422444Y-14514008D02*
X10431968Y-14523531D01*
X10431968Y-14523531D02*
X10441491Y-14542579D01*
X10441491Y-14542579D02*
X10451015Y-14580674D01*
X10451015Y-14580674D02*
X10451015Y-14628293D01*
X10451015Y-14628293D02*
X10441491Y-14666388D01*
X10441491Y-14666388D02*
X10431968Y-14685436D01*
X10431968Y-14685436D02*
X10422444Y-14694960D01*
X10422444Y-14694960D02*
X10403396Y-14704484D01*
X10403396Y-14704484D02*
X10384348Y-14704484D01*
X10384348Y-14704484D02*
X10365301Y-14694960D01*
X10365301Y-14694960D02*
X10355777Y-14685436D01*
X10355777Y-14685436D02*
X10346253Y-14666388D01*
X10346253Y-14666388D02*
X10336729Y-14628293D01*
X10336729Y-14628293D02*
X10336729Y-14580674D01*
X10336729Y-14580674D02*
X10346253Y-14542579D01*
X10346253Y-14542579D02*
X10355777Y-14523531D01*
X10355777Y-14523531D02*
X10365301Y-14514008D01*
X10365301Y-14514008D02*
X10384348Y-14504484D01*
X10574825Y-14504484D02*
X10593872Y-14504484D01*
X10593872Y-14504484D02*
X10612920Y-14514008D01*
X10612920Y-14514008D02*
X10622444Y-14523531D01*
X10622444Y-14523531D02*
X10631968Y-14542579D01*
X10631968Y-14542579D02*
X10641491Y-14580674D01*
X10641491Y-14580674D02*
X10641491Y-14628293D01*
X10641491Y-14628293D02*
X10631968Y-14666388D01*
X10631968Y-14666388D02*
X10622444Y-14685436D01*
X10622444Y-14685436D02*
X10612920Y-14694960D01*
X10612920Y-14694960D02*
X10593872Y-14704484D01*
X10593872Y-14704484D02*
X10574825Y-14704484D01*
X10574825Y-14704484D02*
X10555777Y-14694960D01*
X10555777Y-14694960D02*
X10546253Y-14685436D01*
X10546253Y-14685436D02*
X10536729Y-14666388D01*
X10536729Y-14666388D02*
X10527206Y-14628293D01*
X10527206Y-14628293D02*
X10527206Y-14580674D01*
X10527206Y-14580674D02*
X10536729Y-14542579D01*
X10536729Y-14542579D02*
X10546253Y-14523531D01*
X10546253Y-14523531D02*
X10555777Y-14514008D01*
X10555777Y-14514008D02*
X10574825Y-14504484D01*
X10755777Y-14590198D02*
X10736729Y-14580674D01*
X10736729Y-14580674D02*
X10727206Y-14571150D01*
X10727206Y-14571150D02*
X10717682Y-14552103D01*
X10717682Y-14552103D02*
X10717682Y-14542579D01*
X10717682Y-14542579D02*
X10727206Y-14523531D01*
X10727206Y-14523531D02*
X10736729Y-14514008D01*
X10736729Y-14514008D02*
X10755777Y-14504484D01*
X10755777Y-14504484D02*
X10793872Y-14504484D01*
X10793872Y-14504484D02*
X10812920Y-14514008D01*
X10812920Y-14514008D02*
X10822444Y-14523531D01*
X10822444Y-14523531D02*
X10831968Y-14542579D01*
X10831968Y-14542579D02*
X10831968Y-14552103D01*
X10831968Y-14552103D02*
X10822444Y-14571150D01*
X10822444Y-14571150D02*
X10812920Y-14580674D01*
X10812920Y-14580674D02*
X10793872Y-14590198D01*
X10793872Y-14590198D02*
X10755777Y-14590198D01*
X10755777Y-14590198D02*
X10736729Y-14599722D01*
X10736729Y-14599722D02*
X10727206Y-14609246D01*
X10727206Y-14609246D02*
X10717682Y-14628293D01*
X10717682Y-14628293D02*
X10717682Y-14666388D01*
X10717682Y-14666388D02*
X10727206Y-14685436D01*
X10727206Y-14685436D02*
X10736729Y-14694960D01*
X10736729Y-14694960D02*
X10755777Y-14704484D01*
X10755777Y-14704484D02*
X10793872Y-14704484D01*
X10793872Y-14704484D02*
X10812920Y-14694960D01*
X10812920Y-14694960D02*
X10822444Y-14685436D01*
X10822444Y-14685436D02*
X10831968Y-14666388D01*
X10831968Y-14666388D02*
X10831968Y-14628293D01*
X10831968Y-14628293D02*
X10822444Y-14609246D01*
X10822444Y-14609246D02*
X10812920Y-14599722D01*
X10812920Y-14599722D02*
X10793872Y-14590198D01*
X10955777Y-14504484D02*
X10974825Y-14504484D01*
X10974825Y-14504484D02*
X10993872Y-14514008D01*
X10993872Y-14514008D02*
X11003396Y-14523531D01*
X11003396Y-14523531D02*
X11012920Y-14542579D01*
X11012920Y-14542579D02*
X11022444Y-14580674D01*
X11022444Y-14580674D02*
X11022444Y-14628293D01*
X11022444Y-14628293D02*
X11012920Y-14666388D01*
X11012920Y-14666388D02*
X11003396Y-14685436D01*
X11003396Y-14685436D02*
X10993872Y-14694960D01*
X10993872Y-14694960D02*
X10974825Y-14704484D01*
X10974825Y-14704484D02*
X10955777Y-14704484D01*
X10955777Y-14704484D02*
X10936729Y-14694960D01*
X10936729Y-14694960D02*
X10927206Y-14685436D01*
X10927206Y-14685436D02*
X10917682Y-14666388D01*
X10917682Y-14666388D02*
X10908158Y-14628293D01*
X10908158Y-14628293D02*
X10908158Y-14580674D01*
X10908158Y-14580674D02*
X10917682Y-14542579D01*
X10917682Y-14542579D02*
X10927206Y-14523531D01*
X10927206Y-14523531D02*
X10936729Y-14514008D01*
X10936729Y-14514008D02*
X10955777Y-14504484D01*
X11098634Y-14504484D02*
X11098634Y-14542579D01*
X11174825Y-14504484D02*
X11174825Y-14542579D01*
X11470063Y-14780674D02*
X11460539Y-14771150D01*
X11460539Y-14771150D02*
X11441491Y-14742579D01*
X11441491Y-14742579D02*
X11431968Y-14723531D01*
X11431968Y-14723531D02*
X11422444Y-14694960D01*
X11422444Y-14694960D02*
X11412920Y-14647341D01*
X11412920Y-14647341D02*
X11412920Y-14609246D01*
X11412920Y-14609246D02*
X11422444Y-14561627D01*
X11422444Y-14561627D02*
X11431968Y-14533055D01*
X11431968Y-14533055D02*
X11441491Y-14514008D01*
X11441491Y-14514008D02*
X11460539Y-14485436D01*
X11460539Y-14485436D02*
X11470063Y-14475912D01*
X11536729Y-14523531D02*
X11546253Y-14514008D01*
X11546253Y-14514008D02*
X11565301Y-14504484D01*
X11565301Y-14504484D02*
X11612920Y-14504484D01*
X11612920Y-14504484D02*
X11631968Y-14514008D01*
X11631968Y-14514008D02*
X11641491Y-14523531D01*
X11641491Y-14523531D02*
X11651015Y-14542579D01*
X11651015Y-14542579D02*
X11651015Y-14561627D01*
X11651015Y-14561627D02*
X11641491Y-14590198D01*
X11641491Y-14590198D02*
X11527206Y-14704484D01*
X11527206Y-14704484D02*
X11651015Y-14704484D01*
X11774825Y-14504484D02*
X11793872Y-14504484D01*
X11793872Y-14504484D02*
X11812920Y-14514008D01*
X11812920Y-14514008D02*
X11822444Y-14523531D01*
X11822444Y-14523531D02*
X11831968Y-14542579D01*
X11831968Y-14542579D02*
X11841491Y-14580674D01*
X11841491Y-14580674D02*
X11841491Y-14628293D01*
X11841491Y-14628293D02*
X11831968Y-14666388D01*
X11831968Y-14666388D02*
X11822444Y-14685436D01*
X11822444Y-14685436D02*
X11812920Y-14694960D01*
X11812920Y-14694960D02*
X11793872Y-14704484D01*
X11793872Y-14704484D02*
X11774825Y-14704484D01*
X11774825Y-14704484D02*
X11755777Y-14694960D01*
X11755777Y-14694960D02*
X11746253Y-14685436D01*
X11746253Y-14685436D02*
X11736729Y-14666388D01*
X11736729Y-14666388D02*
X11727206Y-14628293D01*
X11727206Y-14628293D02*
X11727206Y-14580674D01*
X11727206Y-14580674D02*
X11736729Y-14542579D01*
X11736729Y-14542579D02*
X11746253Y-14523531D01*
X11746253Y-14523531D02*
X11755777Y-14514008D01*
X11755777Y-14514008D02*
X11774825Y-14504484D01*
X12079587Y-14704484D02*
X12079587Y-14504484D01*
X12165301Y-14704484D02*
X12165301Y-14599722D01*
X12165301Y-14599722D02*
X12155777Y-14580674D01*
X12155777Y-14580674D02*
X12136730Y-14571150D01*
X12136730Y-14571150D02*
X12108158Y-14571150D01*
X12108158Y-14571150D02*
X12089110Y-14580674D01*
X12089110Y-14580674D02*
X12079587Y-14590198D01*
X12289110Y-14704484D02*
X12270063Y-14694960D01*
X12270063Y-14694960D02*
X12260539Y-14685436D01*
X12260539Y-14685436D02*
X12251015Y-14666388D01*
X12251015Y-14666388D02*
X12251015Y-14609246D01*
X12251015Y-14609246D02*
X12260539Y-14590198D01*
X12260539Y-14590198D02*
X12270063Y-14580674D01*
X12270063Y-14580674D02*
X12289110Y-14571150D01*
X12289110Y-14571150D02*
X12317682Y-14571150D01*
X12317682Y-14571150D02*
X12336730Y-14580674D01*
X12336730Y-14580674D02*
X12346253Y-14590198D01*
X12346253Y-14590198D02*
X12355777Y-14609246D01*
X12355777Y-14609246D02*
X12355777Y-14666388D01*
X12355777Y-14666388D02*
X12346253Y-14685436D01*
X12346253Y-14685436D02*
X12336730Y-14694960D01*
X12336730Y-14694960D02*
X12317682Y-14704484D01*
X12317682Y-14704484D02*
X12289110Y-14704484D01*
X12470063Y-14704484D02*
X12451015Y-14694960D01*
X12451015Y-14694960D02*
X12441491Y-14675912D01*
X12441491Y-14675912D02*
X12441491Y-14504484D01*
X12622444Y-14694960D02*
X12603396Y-14704484D01*
X12603396Y-14704484D02*
X12565301Y-14704484D01*
X12565301Y-14704484D02*
X12546253Y-14694960D01*
X12546253Y-14694960D02*
X12536730Y-14675912D01*
X12536730Y-14675912D02*
X12536730Y-14599722D01*
X12536730Y-14599722D02*
X12546253Y-14580674D01*
X12546253Y-14580674D02*
X12565301Y-14571150D01*
X12565301Y-14571150D02*
X12603396Y-14571150D01*
X12603396Y-14571150D02*
X12622444Y-14580674D01*
X12622444Y-14580674D02*
X12631968Y-14599722D01*
X12631968Y-14599722D02*
X12631968Y-14618769D01*
X12631968Y-14618769D02*
X12536730Y-14637817D01*
X12708158Y-14694960D02*
X12727206Y-14704484D01*
X12727206Y-14704484D02*
X12765301Y-14704484D01*
X12765301Y-14704484D02*
X12784349Y-14694960D01*
X12784349Y-14694960D02*
X12793872Y-14675912D01*
X12793872Y-14675912D02*
X12793872Y-14666388D01*
X12793872Y-14666388D02*
X12784349Y-14647341D01*
X12784349Y-14647341D02*
X12765301Y-14637817D01*
X12765301Y-14637817D02*
X12736730Y-14637817D01*
X12736730Y-14637817D02*
X12717682Y-14628293D01*
X12717682Y-14628293D02*
X12708158Y-14609246D01*
X12708158Y-14609246D02*
X12708158Y-14599722D01*
X12708158Y-14599722D02*
X12717682Y-14580674D01*
X12717682Y-14580674D02*
X12736730Y-14571150D01*
X12736730Y-14571150D02*
X12765301Y-14571150D01*
X12765301Y-14571150D02*
X12784349Y-14580674D01*
X12860539Y-14780674D02*
X12870063Y-14771150D01*
X12870063Y-14771150D02*
X12889111Y-14742579D01*
X12889111Y-14742579D02*
X12898634Y-14723531D01*
X12898634Y-14723531D02*
X12908158Y-14694960D01*
X12908158Y-14694960D02*
X12917682Y-14647341D01*
X12917682Y-14647341D02*
X12917682Y-14609246D01*
X12917682Y-14609246D02*
X12908158Y-14561627D01*
X12908158Y-14561627D02*
X12898634Y-14533055D01*
X12898634Y-14533055D02*
X12889111Y-14514008D01*
X12889111Y-14514008D02*
X12870063Y-14485436D01*
X12870063Y-14485436D02*
X12860539Y-14475912D01*
D10*
X7865000Y-14847000D02*
X7865000Y-14907000D01*
X7835000Y-14877000D02*
X7895000Y-14877000D01*
D11*
X8193872Y-14768484D02*
X8212920Y-14768484D01*
X8212920Y-14768484D02*
X8231967Y-14778008D01*
X8231967Y-14778008D02*
X8241491Y-14787531D01*
X8241491Y-14787531D02*
X8251015Y-14806579D01*
X8251015Y-14806579D02*
X8260539Y-14844674D01*
X8260539Y-14844674D02*
X8260539Y-14892293D01*
X8260539Y-14892293D02*
X8251015Y-14930388D01*
X8251015Y-14930388D02*
X8241491Y-14949436D01*
X8241491Y-14949436D02*
X8231967Y-14958960D01*
X8231967Y-14958960D02*
X8212920Y-14968484D01*
X8212920Y-14968484D02*
X8193872Y-14968484D01*
X8193872Y-14968484D02*
X8174824Y-14958960D01*
X8174824Y-14958960D02*
X8165301Y-14949436D01*
X8165301Y-14949436D02*
X8155777Y-14930388D01*
X8155777Y-14930388D02*
X8146253Y-14892293D01*
X8146253Y-14892293D02*
X8146253Y-14844674D01*
X8146253Y-14844674D02*
X8155777Y-14806579D01*
X8155777Y-14806579D02*
X8165301Y-14787531D01*
X8165301Y-14787531D02*
X8174824Y-14778008D01*
X8174824Y-14778008D02*
X8193872Y-14768484D01*
X8346253Y-14949436D02*
X8355777Y-14958960D01*
X8355777Y-14958960D02*
X8346253Y-14968484D01*
X8346253Y-14968484D02*
X8336729Y-14958960D01*
X8336729Y-14958960D02*
X8346253Y-14949436D01*
X8346253Y-14949436D02*
X8346253Y-14968484D01*
X8527205Y-14768484D02*
X8489110Y-14768484D01*
X8489110Y-14768484D02*
X8470063Y-14778008D01*
X8470063Y-14778008D02*
X8460539Y-14787531D01*
X8460539Y-14787531D02*
X8441491Y-14816103D01*
X8441491Y-14816103D02*
X8431967Y-14854198D01*
X8431967Y-14854198D02*
X8431967Y-14930388D01*
X8431967Y-14930388D02*
X8441491Y-14949436D01*
X8441491Y-14949436D02*
X8451015Y-14958960D01*
X8451015Y-14958960D02*
X8470063Y-14968484D01*
X8470063Y-14968484D02*
X8508158Y-14968484D01*
X8508158Y-14968484D02*
X8527205Y-14958960D01*
X8527205Y-14958960D02*
X8536729Y-14949436D01*
X8536729Y-14949436D02*
X8546253Y-14930388D01*
X8546253Y-14930388D02*
X8546253Y-14882769D01*
X8546253Y-14882769D02*
X8536729Y-14863722D01*
X8536729Y-14863722D02*
X8527205Y-14854198D01*
X8527205Y-14854198D02*
X8508158Y-14844674D01*
X8508158Y-14844674D02*
X8470063Y-14844674D01*
X8470063Y-14844674D02*
X8451015Y-14854198D01*
X8451015Y-14854198D02*
X8441491Y-14863722D01*
X8441491Y-14863722D02*
X8431967Y-14882769D01*
X8670063Y-14768484D02*
X8689110Y-14768484D01*
X8689110Y-14768484D02*
X8708158Y-14778008D01*
X8708158Y-14778008D02*
X8717682Y-14787531D01*
X8717682Y-14787531D02*
X8727205Y-14806579D01*
X8727205Y-14806579D02*
X8736729Y-14844674D01*
X8736729Y-14844674D02*
X8736729Y-14892293D01*
X8736729Y-14892293D02*
X8727205Y-14930388D01*
X8727205Y-14930388D02*
X8717682Y-14949436D01*
X8717682Y-14949436D02*
X8708158Y-14958960D01*
X8708158Y-14958960D02*
X8689110Y-14968484D01*
X8689110Y-14968484D02*
X8670063Y-14968484D01*
X8670063Y-14968484D02*
X8651015Y-14958960D01*
X8651015Y-14958960D02*
X8641491Y-14949436D01*
X8641491Y-14949436D02*
X8631967Y-14930388D01*
X8631967Y-14930388D02*
X8622444Y-14892293D01*
X8622444Y-14892293D02*
X8622444Y-14844674D01*
X8622444Y-14844674D02*
X8631967Y-14806579D01*
X8631967Y-14806579D02*
X8641491Y-14787531D01*
X8641491Y-14787531D02*
X8651015Y-14778008D01*
X8651015Y-14778008D02*
X8670063Y-14768484D01*
X8860539Y-14768484D02*
X8879586Y-14768484D01*
X8879586Y-14768484D02*
X8898634Y-14778008D01*
X8898634Y-14778008D02*
X8908158Y-14787531D01*
X8908158Y-14787531D02*
X8917682Y-14806579D01*
X8917682Y-14806579D02*
X8927205Y-14844674D01*
X8927205Y-14844674D02*
X8927205Y-14892293D01*
X8927205Y-14892293D02*
X8917682Y-14930388D01*
X8917682Y-14930388D02*
X8908158Y-14949436D01*
X8908158Y-14949436D02*
X8898634Y-14958960D01*
X8898634Y-14958960D02*
X8879586Y-14968484D01*
X8879586Y-14968484D02*
X8860539Y-14968484D01*
X8860539Y-14968484D02*
X8841491Y-14958960D01*
X8841491Y-14958960D02*
X8831967Y-14949436D01*
X8831967Y-14949436D02*
X8822444Y-14930388D01*
X8822444Y-14930388D02*
X8812920Y-14892293D01*
X8812920Y-14892293D02*
X8812920Y-14844674D01*
X8812920Y-14844674D02*
X8822444Y-14806579D01*
X8822444Y-14806579D02*
X8831967Y-14787531D01*
X8831967Y-14787531D02*
X8841491Y-14778008D01*
X8841491Y-14778008D02*
X8860539Y-14768484D01*
X9012920Y-14968484D02*
X9012920Y-14835150D01*
X9012920Y-14854198D02*
X9022444Y-14844674D01*
X9022444Y-14844674D02*
X9041491Y-14835150D01*
X9041491Y-14835150D02*
X9070063Y-14835150D01*
X9070063Y-14835150D02*
X9089110Y-14844674D01*
X9089110Y-14844674D02*
X9098634Y-14863722D01*
X9098634Y-14863722D02*
X9098634Y-14968484D01*
X9098634Y-14863722D02*
X9108158Y-14844674D01*
X9108158Y-14844674D02*
X9127205Y-14835150D01*
X9127205Y-14835150D02*
X9155777Y-14835150D01*
X9155777Y-14835150D02*
X9174825Y-14844674D01*
X9174825Y-14844674D02*
X9184348Y-14863722D01*
X9184348Y-14863722D02*
X9184348Y-14968484D01*
X9279586Y-14968484D02*
X9279586Y-14835150D01*
X9279586Y-14854198D02*
X9289110Y-14844674D01*
X9289110Y-14844674D02*
X9308158Y-14835150D01*
X9308158Y-14835150D02*
X9336729Y-14835150D01*
X9336729Y-14835150D02*
X9355777Y-14844674D01*
X9355777Y-14844674D02*
X9365301Y-14863722D01*
X9365301Y-14863722D02*
X9365301Y-14968484D01*
X9365301Y-14863722D02*
X9374825Y-14844674D01*
X9374825Y-14844674D02*
X9393872Y-14835150D01*
X9393872Y-14835150D02*
X9422444Y-14835150D01*
X9422444Y-14835150D02*
X9441491Y-14844674D01*
X9441491Y-14844674D02*
X9451015Y-14863722D01*
X9451015Y-14863722D02*
X9451015Y-14968484D01*
X9841491Y-14758960D02*
X9670063Y-15016103D01*
X10098634Y-14768484D02*
X10117682Y-14768484D01*
X10117682Y-14768484D02*
X10136729Y-14778008D01*
X10136729Y-14778008D02*
X10146253Y-14787531D01*
X10146253Y-14787531D02*
X10155777Y-14806579D01*
X10155777Y-14806579D02*
X10165301Y-14844674D01*
X10165301Y-14844674D02*
X10165301Y-14892293D01*
X10165301Y-14892293D02*
X10155777Y-14930388D01*
X10155777Y-14930388D02*
X10146253Y-14949436D01*
X10146253Y-14949436D02*
X10136729Y-14958960D01*
X10136729Y-14958960D02*
X10117682Y-14968484D01*
X10117682Y-14968484D02*
X10098634Y-14968484D01*
X10098634Y-14968484D02*
X10079587Y-14958960D01*
X10079587Y-14958960D02*
X10070063Y-14949436D01*
X10070063Y-14949436D02*
X10060539Y-14930388D01*
X10060539Y-14930388D02*
X10051015Y-14892293D01*
X10051015Y-14892293D02*
X10051015Y-14844674D01*
X10051015Y-14844674D02*
X10060539Y-14806579D01*
X10060539Y-14806579D02*
X10070063Y-14787531D01*
X10070063Y-14787531D02*
X10079587Y-14778008D01*
X10079587Y-14778008D02*
X10098634Y-14768484D01*
X10251015Y-14949436D02*
X10260539Y-14958960D01*
X10260539Y-14958960D02*
X10251015Y-14968484D01*
X10251015Y-14968484D02*
X10241491Y-14958960D01*
X10241491Y-14958960D02*
X10251015Y-14949436D01*
X10251015Y-14949436D02*
X10251015Y-14968484D01*
X10384348Y-14768484D02*
X10403396Y-14768484D01*
X10403396Y-14768484D02*
X10422444Y-14778008D01*
X10422444Y-14778008D02*
X10431968Y-14787531D01*
X10431968Y-14787531D02*
X10441491Y-14806579D01*
X10441491Y-14806579D02*
X10451015Y-14844674D01*
X10451015Y-14844674D02*
X10451015Y-14892293D01*
X10451015Y-14892293D02*
X10441491Y-14930388D01*
X10441491Y-14930388D02*
X10431968Y-14949436D01*
X10431968Y-14949436D02*
X10422444Y-14958960D01*
X10422444Y-14958960D02*
X10403396Y-14968484D01*
X10403396Y-14968484D02*
X10384348Y-14968484D01*
X10384348Y-14968484D02*
X10365301Y-14958960D01*
X10365301Y-14958960D02*
X10355777Y-14949436D01*
X10355777Y-14949436D02*
X10346253Y-14930388D01*
X10346253Y-14930388D02*
X10336729Y-14892293D01*
X10336729Y-14892293D02*
X10336729Y-14844674D01*
X10336729Y-14844674D02*
X10346253Y-14806579D01*
X10346253Y-14806579D02*
X10355777Y-14787531D01*
X10355777Y-14787531D02*
X10365301Y-14778008D01*
X10365301Y-14778008D02*
X10384348Y-14768484D01*
X10527206Y-14787531D02*
X10536729Y-14778008D01*
X10536729Y-14778008D02*
X10555777Y-14768484D01*
X10555777Y-14768484D02*
X10603396Y-14768484D01*
X10603396Y-14768484D02*
X10622444Y-14778008D01*
X10622444Y-14778008D02*
X10631968Y-14787531D01*
X10631968Y-14787531D02*
X10641491Y-14806579D01*
X10641491Y-14806579D02*
X10641491Y-14825627D01*
X10641491Y-14825627D02*
X10631968Y-14854198D01*
X10631968Y-14854198D02*
X10517682Y-14968484D01*
X10517682Y-14968484D02*
X10641491Y-14968484D01*
X10708158Y-14768484D02*
X10831968Y-14768484D01*
X10831968Y-14768484D02*
X10765301Y-14844674D01*
X10765301Y-14844674D02*
X10793872Y-14844674D01*
X10793872Y-14844674D02*
X10812920Y-14854198D01*
X10812920Y-14854198D02*
X10822444Y-14863722D01*
X10822444Y-14863722D02*
X10831968Y-14882769D01*
X10831968Y-14882769D02*
X10831968Y-14930388D01*
X10831968Y-14930388D02*
X10822444Y-14949436D01*
X10822444Y-14949436D02*
X10812920Y-14958960D01*
X10812920Y-14958960D02*
X10793872Y-14968484D01*
X10793872Y-14968484D02*
X10736729Y-14968484D01*
X10736729Y-14968484D02*
X10717682Y-14958960D01*
X10717682Y-14958960D02*
X10708158Y-14949436D01*
X11003396Y-14768484D02*
X10965301Y-14768484D01*
X10965301Y-14768484D02*
X10946253Y-14778008D01*
X10946253Y-14778008D02*
X10936729Y-14787531D01*
X10936729Y-14787531D02*
X10917682Y-14816103D01*
X10917682Y-14816103D02*
X10908158Y-14854198D01*
X10908158Y-14854198D02*
X10908158Y-14930388D01*
X10908158Y-14930388D02*
X10917682Y-14949436D01*
X10917682Y-14949436D02*
X10927206Y-14958960D01*
X10927206Y-14958960D02*
X10946253Y-14968484D01*
X10946253Y-14968484D02*
X10984349Y-14968484D01*
X10984349Y-14968484D02*
X11003396Y-14958960D01*
X11003396Y-14958960D02*
X11012920Y-14949436D01*
X11012920Y-14949436D02*
X11022444Y-14930388D01*
X11022444Y-14930388D02*
X11022444Y-14882769D01*
X11022444Y-14882769D02*
X11012920Y-14863722D01*
X11012920Y-14863722D02*
X11003396Y-14854198D01*
X11003396Y-14854198D02*
X10984349Y-14844674D01*
X10984349Y-14844674D02*
X10946253Y-14844674D01*
X10946253Y-14844674D02*
X10927206Y-14854198D01*
X10927206Y-14854198D02*
X10917682Y-14863722D01*
X10917682Y-14863722D02*
X10908158Y-14882769D01*
X11098634Y-14768484D02*
X11098634Y-14806579D01*
X11174825Y-14768484D02*
X11174825Y-14806579D01*
X11470063Y-15044674D02*
X11460539Y-15035150D01*
X11460539Y-15035150D02*
X11441491Y-15006579D01*
X11441491Y-15006579D02*
X11431968Y-14987531D01*
X11431968Y-14987531D02*
X11422444Y-14958960D01*
X11422444Y-14958960D02*
X11412920Y-14911341D01*
X11412920Y-14911341D02*
X11412920Y-14873246D01*
X11412920Y-14873246D02*
X11422444Y-14825627D01*
X11422444Y-14825627D02*
X11431968Y-14797055D01*
X11431968Y-14797055D02*
X11441491Y-14778008D01*
X11441491Y-14778008D02*
X11460539Y-14749436D01*
X11460539Y-14749436D02*
X11470063Y-14739912D01*
X11584348Y-14768484D02*
X11603396Y-14768484D01*
X11603396Y-14768484D02*
X11622444Y-14778008D01*
X11622444Y-14778008D02*
X11631968Y-14787531D01*
X11631968Y-14787531D02*
X11641491Y-14806579D01*
X11641491Y-14806579D02*
X11651015Y-14844674D01*
X11651015Y-14844674D02*
X11651015Y-14892293D01*
X11651015Y-14892293D02*
X11641491Y-14930388D01*
X11641491Y-14930388D02*
X11631968Y-14949436D01*
X11631968Y-14949436D02*
X11622444Y-14958960D01*
X11622444Y-14958960D02*
X11603396Y-14968484D01*
X11603396Y-14968484D02*
X11584348Y-14968484D01*
X11584348Y-14968484D02*
X11565301Y-14958960D01*
X11565301Y-14958960D02*
X11555777Y-14949436D01*
X11555777Y-14949436D02*
X11546253Y-14930388D01*
X11546253Y-14930388D02*
X11536729Y-14892293D01*
X11536729Y-14892293D02*
X11536729Y-14844674D01*
X11536729Y-14844674D02*
X11546253Y-14806579D01*
X11546253Y-14806579D02*
X11555777Y-14787531D01*
X11555777Y-14787531D02*
X11565301Y-14778008D01*
X11565301Y-14778008D02*
X11584348Y-14768484D01*
X11889110Y-14968484D02*
X11889110Y-14768484D01*
X11974825Y-14968484D02*
X11974825Y-14863722D01*
X11974825Y-14863722D02*
X11965301Y-14844674D01*
X11965301Y-14844674D02*
X11946253Y-14835150D01*
X11946253Y-14835150D02*
X11917682Y-14835150D01*
X11917682Y-14835150D02*
X11898634Y-14844674D01*
X11898634Y-14844674D02*
X11889110Y-14854198D01*
X12098634Y-14968484D02*
X12079587Y-14958960D01*
X12079587Y-14958960D02*
X12070063Y-14949436D01*
X12070063Y-14949436D02*
X12060539Y-14930388D01*
X12060539Y-14930388D02*
X12060539Y-14873246D01*
X12060539Y-14873246D02*
X12070063Y-14854198D01*
X12070063Y-14854198D02*
X12079587Y-14844674D01*
X12079587Y-14844674D02*
X12098634Y-14835150D01*
X12098634Y-14835150D02*
X12127206Y-14835150D01*
X12127206Y-14835150D02*
X12146253Y-14844674D01*
X12146253Y-14844674D02*
X12155777Y-14854198D01*
X12155777Y-14854198D02*
X12165301Y-14873246D01*
X12165301Y-14873246D02*
X12165301Y-14930388D01*
X12165301Y-14930388D02*
X12155777Y-14949436D01*
X12155777Y-14949436D02*
X12146253Y-14958960D01*
X12146253Y-14958960D02*
X12127206Y-14968484D01*
X12127206Y-14968484D02*
X12098634Y-14968484D01*
X12279587Y-14968484D02*
X12260539Y-14958960D01*
X12260539Y-14958960D02*
X12251015Y-14939912D01*
X12251015Y-14939912D02*
X12251015Y-14768484D01*
X12431968Y-14958960D02*
X12412920Y-14968484D01*
X12412920Y-14968484D02*
X12374825Y-14968484D01*
X12374825Y-14968484D02*
X12355777Y-14958960D01*
X12355777Y-14958960D02*
X12346253Y-14939912D01*
X12346253Y-14939912D02*
X12346253Y-14863722D01*
X12346253Y-14863722D02*
X12355777Y-14844674D01*
X12355777Y-14844674D02*
X12374825Y-14835150D01*
X12374825Y-14835150D02*
X12412920Y-14835150D01*
X12412920Y-14835150D02*
X12431968Y-14844674D01*
X12431968Y-14844674D02*
X12441491Y-14863722D01*
X12441491Y-14863722D02*
X12441491Y-14882769D01*
X12441491Y-14882769D02*
X12346253Y-14901817D01*
X12517682Y-14958960D02*
X12536730Y-14968484D01*
X12536730Y-14968484D02*
X12574825Y-14968484D01*
X12574825Y-14968484D02*
X12593872Y-14958960D01*
X12593872Y-14958960D02*
X12603396Y-14939912D01*
X12603396Y-14939912D02*
X12603396Y-14930388D01*
X12603396Y-14930388D02*
X12593872Y-14911341D01*
X12593872Y-14911341D02*
X12574825Y-14901817D01*
X12574825Y-14901817D02*
X12546253Y-14901817D01*
X12546253Y-14901817D02*
X12527206Y-14892293D01*
X12527206Y-14892293D02*
X12517682Y-14873246D01*
X12517682Y-14873246D02*
X12517682Y-14863722D01*
X12517682Y-14863722D02*
X12527206Y-14844674D01*
X12527206Y-14844674D02*
X12546253Y-14835150D01*
X12546253Y-14835150D02*
X12574825Y-14835150D01*
X12574825Y-14835150D02*
X12593872Y-14844674D01*
X12841492Y-14892293D02*
X12993873Y-14892293D01*
X12917682Y-14968484D02*
X12917682Y-14816103D01*
X13327206Y-14835150D02*
X13327206Y-14968484D01*
X13279587Y-14758960D02*
X13231968Y-14901817D01*
X13231968Y-14901817D02*
X13355777Y-14901817D01*
X13574825Y-14958960D02*
X13593873Y-14968484D01*
X13593873Y-14968484D02*
X13631968Y-14968484D01*
X13631968Y-14968484D02*
X13651015Y-14958960D01*
X13651015Y-14958960D02*
X13660539Y-14939912D01*
X13660539Y-14939912D02*
X13660539Y-14930388D01*
X13660539Y-14930388D02*
X13651015Y-14911341D01*
X13651015Y-14911341D02*
X13631968Y-14901817D01*
X13631968Y-14901817D02*
X13603396Y-14901817D01*
X13603396Y-14901817D02*
X13584349Y-14892293D01*
X13584349Y-14892293D02*
X13574825Y-14873246D01*
X13574825Y-14873246D02*
X13574825Y-14863722D01*
X13574825Y-14863722D02*
X13584349Y-14844674D01*
X13584349Y-14844674D02*
X13603396Y-14835150D01*
X13603396Y-14835150D02*
X13631968Y-14835150D01*
X13631968Y-14835150D02*
X13651015Y-14844674D01*
X13774825Y-14968484D02*
X13755777Y-14958960D01*
X13755777Y-14958960D02*
X13746254Y-14939912D01*
X13746254Y-14939912D02*
X13746254Y-14768484D01*
X13879587Y-14968484D02*
X13860539Y-14958960D01*
X13860539Y-14958960D02*
X13851015Y-14949436D01*
X13851015Y-14949436D02*
X13841492Y-14930388D01*
X13841492Y-14930388D02*
X13841492Y-14873246D01*
X13841492Y-14873246D02*
X13851015Y-14854198D01*
X13851015Y-14854198D02*
X13860539Y-14844674D01*
X13860539Y-14844674D02*
X13879587Y-14835150D01*
X13879587Y-14835150D02*
X13908158Y-14835150D01*
X13908158Y-14835150D02*
X13927206Y-14844674D01*
X13927206Y-14844674D02*
X13936730Y-14854198D01*
X13936730Y-14854198D02*
X13946254Y-14873246D01*
X13946254Y-14873246D02*
X13946254Y-14930388D01*
X13946254Y-14930388D02*
X13936730Y-14949436D01*
X13936730Y-14949436D02*
X13927206Y-14958960D01*
X13927206Y-14958960D02*
X13908158Y-14968484D01*
X13908158Y-14968484D02*
X13879587Y-14968484D01*
X14003396Y-14835150D02*
X14079587Y-14835150D01*
X14031968Y-14768484D02*
X14031968Y-14939912D01*
X14031968Y-14939912D02*
X14041492Y-14958960D01*
X14041492Y-14958960D02*
X14060539Y-14968484D01*
X14060539Y-14968484D02*
X14079587Y-14968484D01*
X14136730Y-14958960D02*
X14155777Y-14968484D01*
X14155777Y-14968484D02*
X14193873Y-14968484D01*
X14193873Y-14968484D02*
X14212920Y-14958960D01*
X14212920Y-14958960D02*
X14222444Y-14939912D01*
X14222444Y-14939912D02*
X14222444Y-14930388D01*
X14222444Y-14930388D02*
X14212920Y-14911341D01*
X14212920Y-14911341D02*
X14193873Y-14901817D01*
X14193873Y-14901817D02*
X14165301Y-14901817D01*
X14165301Y-14901817D02*
X14146254Y-14892293D01*
X14146254Y-14892293D02*
X14136730Y-14873246D01*
X14136730Y-14873246D02*
X14136730Y-14863722D01*
X14136730Y-14863722D02*
X14146254Y-14844674D01*
X14146254Y-14844674D02*
X14165301Y-14835150D01*
X14165301Y-14835150D02*
X14193873Y-14835150D01*
X14193873Y-14835150D02*
X14212920Y-14844674D01*
X14289111Y-15044674D02*
X14298635Y-15035150D01*
X14298635Y-15035150D02*
X14317682Y-15006579D01*
X14317682Y-15006579D02*
X14327206Y-14987531D01*
X14327206Y-14987531D02*
X14336730Y-14958960D01*
X14336730Y-14958960D02*
X14346254Y-14911341D01*
X14346254Y-14911341D02*
X14346254Y-14873246D01*
X14346254Y-14873246D02*
X14336730Y-14825627D01*
X14336730Y-14825627D02*
X14327206Y-14797055D01*
X14327206Y-14797055D02*
X14317682Y-14778008D01*
X14317682Y-14778008D02*
X14298635Y-14749436D01*
X14298635Y-14749436D02*
X14289111Y-14739912D01*
D10*
X7881820Y-15172820D02*
X7881820Y-15109180D01*
X7818180Y-15109180D01*
X7818180Y-15172820D01*
X7881820Y-15172820D01*
D11*
X8193872Y-15032484D02*
X8212920Y-15032484D01*
X8212920Y-15032484D02*
X8231967Y-15042008D01*
X8231967Y-15042008D02*
X8241491Y-15051531D01*
X8241491Y-15051531D02*
X8251015Y-15070579D01*
X8251015Y-15070579D02*
X8260539Y-15108674D01*
X8260539Y-15108674D02*
X8260539Y-15156293D01*
X8260539Y-15156293D02*
X8251015Y-15194388D01*
X8251015Y-15194388D02*
X8241491Y-15213436D01*
X8241491Y-15213436D02*
X8231967Y-15222960D01*
X8231967Y-15222960D02*
X8212920Y-15232484D01*
X8212920Y-15232484D02*
X8193872Y-15232484D01*
X8193872Y-15232484D02*
X8174824Y-15222960D01*
X8174824Y-15222960D02*
X8165301Y-15213436D01*
X8165301Y-15213436D02*
X8155777Y-15194388D01*
X8155777Y-15194388D02*
X8146253Y-15156293D01*
X8146253Y-15156293D02*
X8146253Y-15108674D01*
X8146253Y-15108674D02*
X8155777Y-15070579D01*
X8155777Y-15070579D02*
X8165301Y-15051531D01*
X8165301Y-15051531D02*
X8174824Y-15042008D01*
X8174824Y-15042008D02*
X8193872Y-15032484D01*
X8346253Y-15213436D02*
X8355777Y-15222960D01*
X8355777Y-15222960D02*
X8346253Y-15232484D01*
X8346253Y-15232484D02*
X8336729Y-15222960D01*
X8336729Y-15222960D02*
X8346253Y-15213436D01*
X8346253Y-15213436D02*
X8346253Y-15232484D01*
X8451015Y-15232484D02*
X8489110Y-15232484D01*
X8489110Y-15232484D02*
X8508158Y-15222960D01*
X8508158Y-15222960D02*
X8517682Y-15213436D01*
X8517682Y-15213436D02*
X8536729Y-15184865D01*
X8536729Y-15184865D02*
X8546253Y-15146769D01*
X8546253Y-15146769D02*
X8546253Y-15070579D01*
X8546253Y-15070579D02*
X8536729Y-15051531D01*
X8536729Y-15051531D02*
X8527205Y-15042008D01*
X8527205Y-15042008D02*
X8508158Y-15032484D01*
X8508158Y-15032484D02*
X8470063Y-15032484D01*
X8470063Y-15032484D02*
X8451015Y-15042008D01*
X8451015Y-15042008D02*
X8441491Y-15051531D01*
X8441491Y-15051531D02*
X8431967Y-15070579D01*
X8431967Y-15070579D02*
X8431967Y-15118198D01*
X8431967Y-15118198D02*
X8441491Y-15137246D01*
X8441491Y-15137246D02*
X8451015Y-15146769D01*
X8451015Y-15146769D02*
X8470063Y-15156293D01*
X8470063Y-15156293D02*
X8508158Y-15156293D01*
X8508158Y-15156293D02*
X8527205Y-15146769D01*
X8527205Y-15146769D02*
X8536729Y-15137246D01*
X8536729Y-15137246D02*
X8546253Y-15118198D01*
X8670063Y-15032484D02*
X8689110Y-15032484D01*
X8689110Y-15032484D02*
X8708158Y-15042008D01*
X8708158Y-15042008D02*
X8717682Y-15051531D01*
X8717682Y-15051531D02*
X8727205Y-15070579D01*
X8727205Y-15070579D02*
X8736729Y-15108674D01*
X8736729Y-15108674D02*
X8736729Y-15156293D01*
X8736729Y-15156293D02*
X8727205Y-15194388D01*
X8727205Y-15194388D02*
X8717682Y-15213436D01*
X8717682Y-15213436D02*
X8708158Y-15222960D01*
X8708158Y-15222960D02*
X8689110Y-15232484D01*
X8689110Y-15232484D02*
X8670063Y-15232484D01*
X8670063Y-15232484D02*
X8651015Y-15222960D01*
X8651015Y-15222960D02*
X8641491Y-15213436D01*
X8641491Y-15213436D02*
X8631967Y-15194388D01*
X8631967Y-15194388D02*
X8622444Y-15156293D01*
X8622444Y-15156293D02*
X8622444Y-15108674D01*
X8622444Y-15108674D02*
X8631967Y-15070579D01*
X8631967Y-15070579D02*
X8641491Y-15051531D01*
X8641491Y-15051531D02*
X8651015Y-15042008D01*
X8651015Y-15042008D02*
X8670063Y-15032484D01*
X8860539Y-15032484D02*
X8879586Y-15032484D01*
X8879586Y-15032484D02*
X8898634Y-15042008D01*
X8898634Y-15042008D02*
X8908158Y-15051531D01*
X8908158Y-15051531D02*
X8917682Y-15070579D01*
X8917682Y-15070579D02*
X8927205Y-15108674D01*
X8927205Y-15108674D02*
X8927205Y-15156293D01*
X8927205Y-15156293D02*
X8917682Y-15194388D01*
X8917682Y-15194388D02*
X8908158Y-15213436D01*
X8908158Y-15213436D02*
X8898634Y-15222960D01*
X8898634Y-15222960D02*
X8879586Y-15232484D01*
X8879586Y-15232484D02*
X8860539Y-15232484D01*
X8860539Y-15232484D02*
X8841491Y-15222960D01*
X8841491Y-15222960D02*
X8831967Y-15213436D01*
X8831967Y-15213436D02*
X8822444Y-15194388D01*
X8822444Y-15194388D02*
X8812920Y-15156293D01*
X8812920Y-15156293D02*
X8812920Y-15108674D01*
X8812920Y-15108674D02*
X8822444Y-15070579D01*
X8822444Y-15070579D02*
X8831967Y-15051531D01*
X8831967Y-15051531D02*
X8841491Y-15042008D01*
X8841491Y-15042008D02*
X8860539Y-15032484D01*
X9012920Y-15232484D02*
X9012920Y-15099150D01*
X9012920Y-15118198D02*
X9022444Y-15108674D01*
X9022444Y-15108674D02*
X9041491Y-15099150D01*
X9041491Y-15099150D02*
X9070063Y-15099150D01*
X9070063Y-15099150D02*
X9089110Y-15108674D01*
X9089110Y-15108674D02*
X9098634Y-15127722D01*
X9098634Y-15127722D02*
X9098634Y-15232484D01*
X9098634Y-15127722D02*
X9108158Y-15108674D01*
X9108158Y-15108674D02*
X9127205Y-15099150D01*
X9127205Y-15099150D02*
X9155777Y-15099150D01*
X9155777Y-15099150D02*
X9174825Y-15108674D01*
X9174825Y-15108674D02*
X9184348Y-15127722D01*
X9184348Y-15127722D02*
X9184348Y-15232484D01*
X9279586Y-15232484D02*
X9279586Y-15099150D01*
X9279586Y-15118198D02*
X9289110Y-15108674D01*
X9289110Y-15108674D02*
X9308158Y-15099150D01*
X9308158Y-15099150D02*
X9336729Y-15099150D01*
X9336729Y-15099150D02*
X9355777Y-15108674D01*
X9355777Y-15108674D02*
X9365301Y-15127722D01*
X9365301Y-15127722D02*
X9365301Y-15232484D01*
X9365301Y-15127722D02*
X9374825Y-15108674D01*
X9374825Y-15108674D02*
X9393872Y-15099150D01*
X9393872Y-15099150D02*
X9422444Y-15099150D01*
X9422444Y-15099150D02*
X9441491Y-15108674D01*
X9441491Y-15108674D02*
X9451015Y-15127722D01*
X9451015Y-15127722D02*
X9451015Y-15232484D01*
X9841491Y-15022960D02*
X9670063Y-15280103D01*
X10098634Y-15032484D02*
X10117682Y-15032484D01*
X10117682Y-15032484D02*
X10136729Y-15042008D01*
X10136729Y-15042008D02*
X10146253Y-15051531D01*
X10146253Y-15051531D02*
X10155777Y-15070579D01*
X10155777Y-15070579D02*
X10165301Y-15108674D01*
X10165301Y-15108674D02*
X10165301Y-15156293D01*
X10165301Y-15156293D02*
X10155777Y-15194388D01*
X10155777Y-15194388D02*
X10146253Y-15213436D01*
X10146253Y-15213436D02*
X10136729Y-15222960D01*
X10136729Y-15222960D02*
X10117682Y-15232484D01*
X10117682Y-15232484D02*
X10098634Y-15232484D01*
X10098634Y-15232484D02*
X10079587Y-15222960D01*
X10079587Y-15222960D02*
X10070063Y-15213436D01*
X10070063Y-15213436D02*
X10060539Y-15194388D01*
X10060539Y-15194388D02*
X10051015Y-15156293D01*
X10051015Y-15156293D02*
X10051015Y-15108674D01*
X10051015Y-15108674D02*
X10060539Y-15070579D01*
X10060539Y-15070579D02*
X10070063Y-15051531D01*
X10070063Y-15051531D02*
X10079587Y-15042008D01*
X10079587Y-15042008D02*
X10098634Y-15032484D01*
X10251015Y-15213436D02*
X10260539Y-15222960D01*
X10260539Y-15222960D02*
X10251015Y-15232484D01*
X10251015Y-15232484D02*
X10241491Y-15222960D01*
X10241491Y-15222960D02*
X10251015Y-15213436D01*
X10251015Y-15213436D02*
X10251015Y-15232484D01*
X10384348Y-15032484D02*
X10403396Y-15032484D01*
X10403396Y-15032484D02*
X10422444Y-15042008D01*
X10422444Y-15042008D02*
X10431968Y-15051531D01*
X10431968Y-15051531D02*
X10441491Y-15070579D01*
X10441491Y-15070579D02*
X10451015Y-15108674D01*
X10451015Y-15108674D02*
X10451015Y-15156293D01*
X10451015Y-15156293D02*
X10441491Y-15194388D01*
X10441491Y-15194388D02*
X10431968Y-15213436D01*
X10431968Y-15213436D02*
X10422444Y-15222960D01*
X10422444Y-15222960D02*
X10403396Y-15232484D01*
X10403396Y-15232484D02*
X10384348Y-15232484D01*
X10384348Y-15232484D02*
X10365301Y-15222960D01*
X10365301Y-15222960D02*
X10355777Y-15213436D01*
X10355777Y-15213436D02*
X10346253Y-15194388D01*
X10346253Y-15194388D02*
X10336729Y-15156293D01*
X10336729Y-15156293D02*
X10336729Y-15108674D01*
X10336729Y-15108674D02*
X10346253Y-15070579D01*
X10346253Y-15070579D02*
X10355777Y-15051531D01*
X10355777Y-15051531D02*
X10365301Y-15042008D01*
X10365301Y-15042008D02*
X10384348Y-15032484D01*
X10517682Y-15032484D02*
X10641491Y-15032484D01*
X10641491Y-15032484D02*
X10574825Y-15108674D01*
X10574825Y-15108674D02*
X10603396Y-15108674D01*
X10603396Y-15108674D02*
X10622444Y-15118198D01*
X10622444Y-15118198D02*
X10631968Y-15127722D01*
X10631968Y-15127722D02*
X10641491Y-15146769D01*
X10641491Y-15146769D02*
X10641491Y-15194388D01*
X10641491Y-15194388D02*
X10631968Y-15213436D01*
X10631968Y-15213436D02*
X10622444Y-15222960D01*
X10622444Y-15222960D02*
X10603396Y-15232484D01*
X10603396Y-15232484D02*
X10546253Y-15232484D01*
X10546253Y-15232484D02*
X10527206Y-15222960D01*
X10527206Y-15222960D02*
X10517682Y-15213436D01*
X10822444Y-15032484D02*
X10727206Y-15032484D01*
X10727206Y-15032484D02*
X10717682Y-15127722D01*
X10717682Y-15127722D02*
X10727206Y-15118198D01*
X10727206Y-15118198D02*
X10746253Y-15108674D01*
X10746253Y-15108674D02*
X10793872Y-15108674D01*
X10793872Y-15108674D02*
X10812920Y-15118198D01*
X10812920Y-15118198D02*
X10822444Y-15127722D01*
X10822444Y-15127722D02*
X10831968Y-15146769D01*
X10831968Y-15146769D02*
X10831968Y-15194388D01*
X10831968Y-15194388D02*
X10822444Y-15213436D01*
X10822444Y-15213436D02*
X10812920Y-15222960D01*
X10812920Y-15222960D02*
X10793872Y-15232484D01*
X10793872Y-15232484D02*
X10746253Y-15232484D01*
X10746253Y-15232484D02*
X10727206Y-15222960D01*
X10727206Y-15222960D02*
X10717682Y-15213436D01*
X11003396Y-15099150D02*
X11003396Y-15232484D01*
X10955777Y-15022960D02*
X10908158Y-15165817D01*
X10908158Y-15165817D02*
X11031968Y-15165817D01*
X11098634Y-15032484D02*
X11098634Y-15070579D01*
X11174825Y-15032484D02*
X11174825Y-15070579D01*
X11470063Y-15308674D02*
X11460539Y-15299150D01*
X11460539Y-15299150D02*
X11441491Y-15270579D01*
X11441491Y-15270579D02*
X11431968Y-15251531D01*
X11431968Y-15251531D02*
X11422444Y-15222960D01*
X11422444Y-15222960D02*
X11412920Y-15175341D01*
X11412920Y-15175341D02*
X11412920Y-15137246D01*
X11412920Y-15137246D02*
X11422444Y-15089627D01*
X11422444Y-15089627D02*
X11431968Y-15061055D01*
X11431968Y-15061055D02*
X11441491Y-15042008D01*
X11441491Y-15042008D02*
X11460539Y-15013436D01*
X11460539Y-15013436D02*
X11470063Y-15003912D01*
X11574825Y-15118198D02*
X11555777Y-15108674D01*
X11555777Y-15108674D02*
X11546253Y-15099150D01*
X11546253Y-15099150D02*
X11536729Y-15080103D01*
X11536729Y-15080103D02*
X11536729Y-15070579D01*
X11536729Y-15070579D02*
X11546253Y-15051531D01*
X11546253Y-15051531D02*
X11555777Y-15042008D01*
X11555777Y-15042008D02*
X11574825Y-15032484D01*
X11574825Y-15032484D02*
X11612920Y-15032484D01*
X11612920Y-15032484D02*
X11631968Y-15042008D01*
X11631968Y-15042008D02*
X11641491Y-15051531D01*
X11641491Y-15051531D02*
X11651015Y-15070579D01*
X11651015Y-15070579D02*
X11651015Y-15080103D01*
X11651015Y-15080103D02*
X11641491Y-15099150D01*
X11641491Y-15099150D02*
X11631968Y-15108674D01*
X11631968Y-15108674D02*
X11612920Y-15118198D01*
X11612920Y-15118198D02*
X11574825Y-15118198D01*
X11574825Y-15118198D02*
X11555777Y-15127722D01*
X11555777Y-15127722D02*
X11546253Y-15137246D01*
X11546253Y-15137246D02*
X11536729Y-15156293D01*
X11536729Y-15156293D02*
X11536729Y-15194388D01*
X11536729Y-15194388D02*
X11546253Y-15213436D01*
X11546253Y-15213436D02*
X11555777Y-15222960D01*
X11555777Y-15222960D02*
X11574825Y-15232484D01*
X11574825Y-15232484D02*
X11612920Y-15232484D01*
X11612920Y-15232484D02*
X11631968Y-15222960D01*
X11631968Y-15222960D02*
X11641491Y-15213436D01*
X11641491Y-15213436D02*
X11651015Y-15194388D01*
X11651015Y-15194388D02*
X11651015Y-15156293D01*
X11651015Y-15156293D02*
X11641491Y-15137246D01*
X11641491Y-15137246D02*
X11631968Y-15127722D01*
X11631968Y-15127722D02*
X11612920Y-15118198D01*
X11889110Y-15232484D02*
X11889110Y-15032484D01*
X11974825Y-15232484D02*
X11974825Y-15127722D01*
X11974825Y-15127722D02*
X11965301Y-15108674D01*
X11965301Y-15108674D02*
X11946253Y-15099150D01*
X11946253Y-15099150D02*
X11917682Y-15099150D01*
X11917682Y-15099150D02*
X11898634Y-15108674D01*
X11898634Y-15108674D02*
X11889110Y-15118198D01*
X12098634Y-15232484D02*
X12079587Y-15222960D01*
X12079587Y-15222960D02*
X12070063Y-15213436D01*
X12070063Y-15213436D02*
X12060539Y-15194388D01*
X12060539Y-15194388D02*
X12060539Y-15137246D01*
X12060539Y-15137246D02*
X12070063Y-15118198D01*
X12070063Y-15118198D02*
X12079587Y-15108674D01*
X12079587Y-15108674D02*
X12098634Y-15099150D01*
X12098634Y-15099150D02*
X12127206Y-15099150D01*
X12127206Y-15099150D02*
X12146253Y-15108674D01*
X12146253Y-15108674D02*
X12155777Y-15118198D01*
X12155777Y-15118198D02*
X12165301Y-15137246D01*
X12165301Y-15137246D02*
X12165301Y-15194388D01*
X12165301Y-15194388D02*
X12155777Y-15213436D01*
X12155777Y-15213436D02*
X12146253Y-15222960D01*
X12146253Y-15222960D02*
X12127206Y-15232484D01*
X12127206Y-15232484D02*
X12098634Y-15232484D01*
X12279587Y-15232484D02*
X12260539Y-15222960D01*
X12260539Y-15222960D02*
X12251015Y-15203912D01*
X12251015Y-15203912D02*
X12251015Y-15032484D01*
X12431968Y-15222960D02*
X12412920Y-15232484D01*
X12412920Y-15232484D02*
X12374825Y-15232484D01*
X12374825Y-15232484D02*
X12355777Y-15222960D01*
X12355777Y-15222960D02*
X12346253Y-15203912D01*
X12346253Y-15203912D02*
X12346253Y-15127722D01*
X12346253Y-15127722D02*
X12355777Y-15108674D01*
X12355777Y-15108674D02*
X12374825Y-15099150D01*
X12374825Y-15099150D02*
X12412920Y-15099150D01*
X12412920Y-15099150D02*
X12431968Y-15108674D01*
X12431968Y-15108674D02*
X12441491Y-15127722D01*
X12441491Y-15127722D02*
X12441491Y-15146769D01*
X12441491Y-15146769D02*
X12346253Y-15165817D01*
X12517682Y-15222960D02*
X12536730Y-15232484D01*
X12536730Y-15232484D02*
X12574825Y-15232484D01*
X12574825Y-15232484D02*
X12593872Y-15222960D01*
X12593872Y-15222960D02*
X12603396Y-15203912D01*
X12603396Y-15203912D02*
X12603396Y-15194388D01*
X12603396Y-15194388D02*
X12593872Y-15175341D01*
X12593872Y-15175341D02*
X12574825Y-15165817D01*
X12574825Y-15165817D02*
X12546253Y-15165817D01*
X12546253Y-15165817D02*
X12527206Y-15156293D01*
X12527206Y-15156293D02*
X12517682Y-15137246D01*
X12517682Y-15137246D02*
X12517682Y-15127722D01*
X12517682Y-15127722D02*
X12527206Y-15108674D01*
X12527206Y-15108674D02*
X12546253Y-15099150D01*
X12546253Y-15099150D02*
X12574825Y-15099150D01*
X12574825Y-15099150D02*
X12593872Y-15108674D01*
X12670063Y-15308674D02*
X12679587Y-15299150D01*
X12679587Y-15299150D02*
X12698634Y-15270579D01*
X12698634Y-15270579D02*
X12708158Y-15251531D01*
X12708158Y-15251531D02*
X12717682Y-15222960D01*
X12717682Y-15222960D02*
X12727206Y-15175341D01*
X12727206Y-15175341D02*
X12727206Y-15137246D01*
X12727206Y-15137246D02*
X12717682Y-15089627D01*
X12717682Y-15089627D02*
X12708158Y-15061055D01*
X12708158Y-15061055D02*
X12698634Y-15042008D01*
X12698634Y-15042008D02*
X12679587Y-15013436D01*
X12679587Y-15013436D02*
X12670063Y-15003912D01*
D10*
X7845000Y-15455000D02*
X7895000Y-15405000D01*
X7845000Y-15355000D01*
X7795000Y-15405000D01*
X7845000Y-15455000D01*
D11*
X8260539Y-15496484D02*
X8146253Y-15496484D01*
X8203396Y-15496484D02*
X8203396Y-15296484D01*
X8203396Y-15296484D02*
X8184348Y-15325055D01*
X8184348Y-15325055D02*
X8165301Y-15344103D01*
X8165301Y-15344103D02*
X8146253Y-15353627D01*
X8346253Y-15477436D02*
X8355777Y-15486960D01*
X8355777Y-15486960D02*
X8346253Y-15496484D01*
X8346253Y-15496484D02*
X8336729Y-15486960D01*
X8336729Y-15486960D02*
X8346253Y-15477436D01*
X8346253Y-15477436D02*
X8346253Y-15496484D01*
X8479586Y-15296484D02*
X8498634Y-15296484D01*
X8498634Y-15296484D02*
X8517682Y-15306008D01*
X8517682Y-15306008D02*
X8527205Y-15315531D01*
X8527205Y-15315531D02*
X8536729Y-15334579D01*
X8536729Y-15334579D02*
X8546253Y-15372674D01*
X8546253Y-15372674D02*
X8546253Y-15420293D01*
X8546253Y-15420293D02*
X8536729Y-15458388D01*
X8536729Y-15458388D02*
X8527205Y-15477436D01*
X8527205Y-15477436D02*
X8517682Y-15486960D01*
X8517682Y-15486960D02*
X8498634Y-15496484D01*
X8498634Y-15496484D02*
X8479586Y-15496484D01*
X8479586Y-15496484D02*
X8460539Y-15486960D01*
X8460539Y-15486960D02*
X8451015Y-15477436D01*
X8451015Y-15477436D02*
X8441491Y-15458388D01*
X8441491Y-15458388D02*
X8431967Y-15420293D01*
X8431967Y-15420293D02*
X8431967Y-15372674D01*
X8431967Y-15372674D02*
X8441491Y-15334579D01*
X8441491Y-15334579D02*
X8451015Y-15315531D01*
X8451015Y-15315531D02*
X8460539Y-15306008D01*
X8460539Y-15306008D02*
X8479586Y-15296484D01*
X8670063Y-15296484D02*
X8689110Y-15296484D01*
X8689110Y-15296484D02*
X8708158Y-15306008D01*
X8708158Y-15306008D02*
X8717682Y-15315531D01*
X8717682Y-15315531D02*
X8727205Y-15334579D01*
X8727205Y-15334579D02*
X8736729Y-15372674D01*
X8736729Y-15372674D02*
X8736729Y-15420293D01*
X8736729Y-15420293D02*
X8727205Y-15458388D01*
X8727205Y-15458388D02*
X8717682Y-15477436D01*
X8717682Y-15477436D02*
X8708158Y-15486960D01*
X8708158Y-15486960D02*
X8689110Y-15496484D01*
X8689110Y-15496484D02*
X8670063Y-15496484D01*
X8670063Y-15496484D02*
X8651015Y-15486960D01*
X8651015Y-15486960D02*
X8641491Y-15477436D01*
X8641491Y-15477436D02*
X8631967Y-15458388D01*
X8631967Y-15458388D02*
X8622444Y-15420293D01*
X8622444Y-15420293D02*
X8622444Y-15372674D01*
X8622444Y-15372674D02*
X8631967Y-15334579D01*
X8631967Y-15334579D02*
X8641491Y-15315531D01*
X8641491Y-15315531D02*
X8651015Y-15306008D01*
X8651015Y-15306008D02*
X8670063Y-15296484D01*
X8860539Y-15296484D02*
X8879586Y-15296484D01*
X8879586Y-15296484D02*
X8898634Y-15306008D01*
X8898634Y-15306008D02*
X8908158Y-15315531D01*
X8908158Y-15315531D02*
X8917682Y-15334579D01*
X8917682Y-15334579D02*
X8927205Y-15372674D01*
X8927205Y-15372674D02*
X8927205Y-15420293D01*
X8927205Y-15420293D02*
X8917682Y-15458388D01*
X8917682Y-15458388D02*
X8908158Y-15477436D01*
X8908158Y-15477436D02*
X8898634Y-15486960D01*
X8898634Y-15486960D02*
X8879586Y-15496484D01*
X8879586Y-15496484D02*
X8860539Y-15496484D01*
X8860539Y-15496484D02*
X8841491Y-15486960D01*
X8841491Y-15486960D02*
X8831967Y-15477436D01*
X8831967Y-15477436D02*
X8822444Y-15458388D01*
X8822444Y-15458388D02*
X8812920Y-15420293D01*
X8812920Y-15420293D02*
X8812920Y-15372674D01*
X8812920Y-15372674D02*
X8822444Y-15334579D01*
X8822444Y-15334579D02*
X8831967Y-15315531D01*
X8831967Y-15315531D02*
X8841491Y-15306008D01*
X8841491Y-15306008D02*
X8860539Y-15296484D01*
X9012920Y-15496484D02*
X9012920Y-15363150D01*
X9012920Y-15382198D02*
X9022444Y-15372674D01*
X9022444Y-15372674D02*
X9041491Y-15363150D01*
X9041491Y-15363150D02*
X9070063Y-15363150D01*
X9070063Y-15363150D02*
X9089110Y-15372674D01*
X9089110Y-15372674D02*
X9098634Y-15391722D01*
X9098634Y-15391722D02*
X9098634Y-15496484D01*
X9098634Y-15391722D02*
X9108158Y-15372674D01*
X9108158Y-15372674D02*
X9127205Y-15363150D01*
X9127205Y-15363150D02*
X9155777Y-15363150D01*
X9155777Y-15363150D02*
X9174825Y-15372674D01*
X9174825Y-15372674D02*
X9184348Y-15391722D01*
X9184348Y-15391722D02*
X9184348Y-15496484D01*
X9279586Y-15496484D02*
X9279586Y-15363150D01*
X9279586Y-15382198D02*
X9289110Y-15372674D01*
X9289110Y-15372674D02*
X9308158Y-15363150D01*
X9308158Y-15363150D02*
X9336729Y-15363150D01*
X9336729Y-15363150D02*
X9355777Y-15372674D01*
X9355777Y-15372674D02*
X9365301Y-15391722D01*
X9365301Y-15391722D02*
X9365301Y-15496484D01*
X9365301Y-15391722D02*
X9374825Y-15372674D01*
X9374825Y-15372674D02*
X9393872Y-15363150D01*
X9393872Y-15363150D02*
X9422444Y-15363150D01*
X9422444Y-15363150D02*
X9441491Y-15372674D01*
X9441491Y-15372674D02*
X9451015Y-15391722D01*
X9451015Y-15391722D02*
X9451015Y-15496484D01*
X9841491Y-15286960D02*
X9670063Y-15544103D01*
X10098634Y-15296484D02*
X10117682Y-15296484D01*
X10117682Y-15296484D02*
X10136729Y-15306008D01*
X10136729Y-15306008D02*
X10146253Y-15315531D01*
X10146253Y-15315531D02*
X10155777Y-15334579D01*
X10155777Y-15334579D02*
X10165301Y-15372674D01*
X10165301Y-15372674D02*
X10165301Y-15420293D01*
X10165301Y-15420293D02*
X10155777Y-15458388D01*
X10155777Y-15458388D02*
X10146253Y-15477436D01*
X10146253Y-15477436D02*
X10136729Y-15486960D01*
X10136729Y-15486960D02*
X10117682Y-15496484D01*
X10117682Y-15496484D02*
X10098634Y-15496484D01*
X10098634Y-15496484D02*
X10079587Y-15486960D01*
X10079587Y-15486960D02*
X10070063Y-15477436D01*
X10070063Y-15477436D02*
X10060539Y-15458388D01*
X10060539Y-15458388D02*
X10051015Y-15420293D01*
X10051015Y-15420293D02*
X10051015Y-15372674D01*
X10051015Y-15372674D02*
X10060539Y-15334579D01*
X10060539Y-15334579D02*
X10070063Y-15315531D01*
X10070063Y-15315531D02*
X10079587Y-15306008D01*
X10079587Y-15306008D02*
X10098634Y-15296484D01*
X10251015Y-15477436D02*
X10260539Y-15486960D01*
X10260539Y-15486960D02*
X10251015Y-15496484D01*
X10251015Y-15496484D02*
X10241491Y-15486960D01*
X10241491Y-15486960D02*
X10251015Y-15477436D01*
X10251015Y-15477436D02*
X10251015Y-15496484D01*
X10384348Y-15296484D02*
X10403396Y-15296484D01*
X10403396Y-15296484D02*
X10422444Y-15306008D01*
X10422444Y-15306008D02*
X10431968Y-15315531D01*
X10431968Y-15315531D02*
X10441491Y-15334579D01*
X10441491Y-15334579D02*
X10451015Y-15372674D01*
X10451015Y-15372674D02*
X10451015Y-15420293D01*
X10451015Y-15420293D02*
X10441491Y-15458388D01*
X10441491Y-15458388D02*
X10431968Y-15477436D01*
X10431968Y-15477436D02*
X10422444Y-15486960D01*
X10422444Y-15486960D02*
X10403396Y-15496484D01*
X10403396Y-15496484D02*
X10384348Y-15496484D01*
X10384348Y-15496484D02*
X10365301Y-15486960D01*
X10365301Y-15486960D02*
X10355777Y-15477436D01*
X10355777Y-15477436D02*
X10346253Y-15458388D01*
X10346253Y-15458388D02*
X10336729Y-15420293D01*
X10336729Y-15420293D02*
X10336729Y-15372674D01*
X10336729Y-15372674D02*
X10346253Y-15334579D01*
X10346253Y-15334579D02*
X10355777Y-15315531D01*
X10355777Y-15315531D02*
X10365301Y-15306008D01*
X10365301Y-15306008D02*
X10384348Y-15296484D01*
X10517682Y-15296484D02*
X10641491Y-15296484D01*
X10641491Y-15296484D02*
X10574825Y-15372674D01*
X10574825Y-15372674D02*
X10603396Y-15372674D01*
X10603396Y-15372674D02*
X10622444Y-15382198D01*
X10622444Y-15382198D02*
X10631968Y-15391722D01*
X10631968Y-15391722D02*
X10641491Y-15410769D01*
X10641491Y-15410769D02*
X10641491Y-15458388D01*
X10641491Y-15458388D02*
X10631968Y-15477436D01*
X10631968Y-15477436D02*
X10622444Y-15486960D01*
X10622444Y-15486960D02*
X10603396Y-15496484D01*
X10603396Y-15496484D02*
X10546253Y-15496484D01*
X10546253Y-15496484D02*
X10527206Y-15486960D01*
X10527206Y-15486960D02*
X10517682Y-15477436D01*
X10736729Y-15496484D02*
X10774825Y-15496484D01*
X10774825Y-15496484D02*
X10793872Y-15486960D01*
X10793872Y-15486960D02*
X10803396Y-15477436D01*
X10803396Y-15477436D02*
X10822444Y-15448865D01*
X10822444Y-15448865D02*
X10831968Y-15410769D01*
X10831968Y-15410769D02*
X10831968Y-15334579D01*
X10831968Y-15334579D02*
X10822444Y-15315531D01*
X10822444Y-15315531D02*
X10812920Y-15306008D01*
X10812920Y-15306008D02*
X10793872Y-15296484D01*
X10793872Y-15296484D02*
X10755777Y-15296484D01*
X10755777Y-15296484D02*
X10736729Y-15306008D01*
X10736729Y-15306008D02*
X10727206Y-15315531D01*
X10727206Y-15315531D02*
X10717682Y-15334579D01*
X10717682Y-15334579D02*
X10717682Y-15382198D01*
X10717682Y-15382198D02*
X10727206Y-15401246D01*
X10727206Y-15401246D02*
X10736729Y-15410769D01*
X10736729Y-15410769D02*
X10755777Y-15420293D01*
X10755777Y-15420293D02*
X10793872Y-15420293D01*
X10793872Y-15420293D02*
X10812920Y-15410769D01*
X10812920Y-15410769D02*
X10822444Y-15401246D01*
X10822444Y-15401246D02*
X10831968Y-15382198D01*
X11003396Y-15363150D02*
X11003396Y-15496484D01*
X10955777Y-15286960D02*
X10908158Y-15429817D01*
X10908158Y-15429817D02*
X11031968Y-15429817D01*
X11098634Y-15296484D02*
X11098634Y-15334579D01*
X11174825Y-15296484D02*
X11174825Y-15334579D01*
X11470063Y-15572674D02*
X11460539Y-15563150D01*
X11460539Y-15563150D02*
X11441491Y-15534579D01*
X11441491Y-15534579D02*
X11431968Y-15515531D01*
X11431968Y-15515531D02*
X11422444Y-15486960D01*
X11422444Y-15486960D02*
X11412920Y-15439341D01*
X11412920Y-15439341D02*
X11412920Y-15401246D01*
X11412920Y-15401246D02*
X11422444Y-15353627D01*
X11422444Y-15353627D02*
X11431968Y-15325055D01*
X11431968Y-15325055D02*
X11441491Y-15306008D01*
X11441491Y-15306008D02*
X11460539Y-15277436D01*
X11460539Y-15277436D02*
X11470063Y-15267912D01*
X11536729Y-15315531D02*
X11546253Y-15306008D01*
X11546253Y-15306008D02*
X11565301Y-15296484D01*
X11565301Y-15296484D02*
X11612920Y-15296484D01*
X11612920Y-15296484D02*
X11631968Y-15306008D01*
X11631968Y-15306008D02*
X11641491Y-15315531D01*
X11641491Y-15315531D02*
X11651015Y-15334579D01*
X11651015Y-15334579D02*
X11651015Y-15353627D01*
X11651015Y-15353627D02*
X11641491Y-15382198D01*
X11641491Y-15382198D02*
X11527206Y-15496484D01*
X11527206Y-15496484D02*
X11651015Y-15496484D01*
X11841491Y-15496484D02*
X11727206Y-15496484D01*
X11784348Y-15496484D02*
X11784348Y-15296484D01*
X11784348Y-15296484D02*
X11765301Y-15325055D01*
X11765301Y-15325055D02*
X11746253Y-15344103D01*
X11746253Y-15344103D02*
X11727206Y-15353627D01*
X12079587Y-15496484D02*
X12079587Y-15296484D01*
X12165301Y-15496484D02*
X12165301Y-15391722D01*
X12165301Y-15391722D02*
X12155777Y-15372674D01*
X12155777Y-15372674D02*
X12136730Y-15363150D01*
X12136730Y-15363150D02*
X12108158Y-15363150D01*
X12108158Y-15363150D02*
X12089110Y-15372674D01*
X12089110Y-15372674D02*
X12079587Y-15382198D01*
X12289110Y-15496484D02*
X12270063Y-15486960D01*
X12270063Y-15486960D02*
X12260539Y-15477436D01*
X12260539Y-15477436D02*
X12251015Y-15458388D01*
X12251015Y-15458388D02*
X12251015Y-15401246D01*
X12251015Y-15401246D02*
X12260539Y-15382198D01*
X12260539Y-15382198D02*
X12270063Y-15372674D01*
X12270063Y-15372674D02*
X12289110Y-15363150D01*
X12289110Y-15363150D02*
X12317682Y-15363150D01*
X12317682Y-15363150D02*
X12336730Y-15372674D01*
X12336730Y-15372674D02*
X12346253Y-15382198D01*
X12346253Y-15382198D02*
X12355777Y-15401246D01*
X12355777Y-15401246D02*
X12355777Y-15458388D01*
X12355777Y-15458388D02*
X12346253Y-15477436D01*
X12346253Y-15477436D02*
X12336730Y-15486960D01*
X12336730Y-15486960D02*
X12317682Y-15496484D01*
X12317682Y-15496484D02*
X12289110Y-15496484D01*
X12470063Y-15496484D02*
X12451015Y-15486960D01*
X12451015Y-15486960D02*
X12441491Y-15467912D01*
X12441491Y-15467912D02*
X12441491Y-15296484D01*
X12622444Y-15486960D02*
X12603396Y-15496484D01*
X12603396Y-15496484D02*
X12565301Y-15496484D01*
X12565301Y-15496484D02*
X12546253Y-15486960D01*
X12546253Y-15486960D02*
X12536730Y-15467912D01*
X12536730Y-15467912D02*
X12536730Y-15391722D01*
X12536730Y-15391722D02*
X12546253Y-15372674D01*
X12546253Y-15372674D02*
X12565301Y-15363150D01*
X12565301Y-15363150D02*
X12603396Y-15363150D01*
X12603396Y-15363150D02*
X12622444Y-15372674D01*
X12622444Y-15372674D02*
X12631968Y-15391722D01*
X12631968Y-15391722D02*
X12631968Y-15410769D01*
X12631968Y-15410769D02*
X12536730Y-15429817D01*
X12708158Y-15486960D02*
X12727206Y-15496484D01*
X12727206Y-15496484D02*
X12765301Y-15496484D01*
X12765301Y-15496484D02*
X12784349Y-15486960D01*
X12784349Y-15486960D02*
X12793872Y-15467912D01*
X12793872Y-15467912D02*
X12793872Y-15458388D01*
X12793872Y-15458388D02*
X12784349Y-15439341D01*
X12784349Y-15439341D02*
X12765301Y-15429817D01*
X12765301Y-15429817D02*
X12736730Y-15429817D01*
X12736730Y-15429817D02*
X12717682Y-15420293D01*
X12717682Y-15420293D02*
X12708158Y-15401246D01*
X12708158Y-15401246D02*
X12708158Y-15391722D01*
X12708158Y-15391722D02*
X12717682Y-15372674D01*
X12717682Y-15372674D02*
X12736730Y-15363150D01*
X12736730Y-15363150D02*
X12765301Y-15363150D01*
X12765301Y-15363150D02*
X12784349Y-15372674D01*
X12860539Y-15572674D02*
X12870063Y-15563150D01*
X12870063Y-15563150D02*
X12889111Y-15534579D01*
X12889111Y-15534579D02*
X12898634Y-15515531D01*
X12898634Y-15515531D02*
X12908158Y-15486960D01*
X12908158Y-15486960D02*
X12917682Y-15439341D01*
X12917682Y-15439341D02*
X12917682Y-15401246D01*
X12917682Y-15401246D02*
X12908158Y-15353627D01*
X12908158Y-15353627D02*
X12898634Y-15325055D01*
X12898634Y-15325055D02*
X12889111Y-15306008D01*
X12889111Y-15306008D02*
X12870063Y-15277436D01*
X12870063Y-15277436D02*
X12860539Y-15267912D01*
D12*
X7765000Y-15604000D02*
X7895000Y-15734000D01*
X7895000Y-15604000D02*
X7765000Y-15734000D01*
X7895000Y-15669000D02*
G75*
G02*
X7765000Y-15669000I-65000J0D01*
G01*
X7765000Y-15669000D02*
G75*
G02*
X7895000Y-15669000I65000J0D01*
G01*
D11*
X8260539Y-15760484D02*
X8146253Y-15760484D01*
X8203396Y-15760484D02*
X8203396Y-15560484D01*
X8203396Y-15560484D02*
X8184348Y-15589055D01*
X8184348Y-15589055D02*
X8165301Y-15608103D01*
X8165301Y-15608103D02*
X8146253Y-15617627D01*
X8346253Y-15741436D02*
X8355777Y-15750960D01*
X8355777Y-15750960D02*
X8346253Y-15760484D01*
X8346253Y-15760484D02*
X8336729Y-15750960D01*
X8336729Y-15750960D02*
X8346253Y-15741436D01*
X8346253Y-15741436D02*
X8346253Y-15760484D01*
X8422444Y-15560484D02*
X8546253Y-15560484D01*
X8546253Y-15560484D02*
X8479586Y-15636674D01*
X8479586Y-15636674D02*
X8508158Y-15636674D01*
X8508158Y-15636674D02*
X8527205Y-15646198D01*
X8527205Y-15646198D02*
X8536729Y-15655722D01*
X8536729Y-15655722D02*
X8546253Y-15674769D01*
X8546253Y-15674769D02*
X8546253Y-15722388D01*
X8546253Y-15722388D02*
X8536729Y-15741436D01*
X8536729Y-15741436D02*
X8527205Y-15750960D01*
X8527205Y-15750960D02*
X8508158Y-15760484D01*
X8508158Y-15760484D02*
X8451015Y-15760484D01*
X8451015Y-15760484D02*
X8431967Y-15750960D01*
X8431967Y-15750960D02*
X8422444Y-15741436D01*
X8670063Y-15560484D02*
X8689110Y-15560484D01*
X8689110Y-15560484D02*
X8708158Y-15570008D01*
X8708158Y-15570008D02*
X8717682Y-15579531D01*
X8717682Y-15579531D02*
X8727205Y-15598579D01*
X8727205Y-15598579D02*
X8736729Y-15636674D01*
X8736729Y-15636674D02*
X8736729Y-15684293D01*
X8736729Y-15684293D02*
X8727205Y-15722388D01*
X8727205Y-15722388D02*
X8717682Y-15741436D01*
X8717682Y-15741436D02*
X8708158Y-15750960D01*
X8708158Y-15750960D02*
X8689110Y-15760484D01*
X8689110Y-15760484D02*
X8670063Y-15760484D01*
X8670063Y-15760484D02*
X8651015Y-15750960D01*
X8651015Y-15750960D02*
X8641491Y-15741436D01*
X8641491Y-15741436D02*
X8631967Y-15722388D01*
X8631967Y-15722388D02*
X8622444Y-15684293D01*
X8622444Y-15684293D02*
X8622444Y-15636674D01*
X8622444Y-15636674D02*
X8631967Y-15598579D01*
X8631967Y-15598579D02*
X8641491Y-15579531D01*
X8641491Y-15579531D02*
X8651015Y-15570008D01*
X8651015Y-15570008D02*
X8670063Y-15560484D01*
X8860539Y-15560484D02*
X8879586Y-15560484D01*
X8879586Y-15560484D02*
X8898634Y-15570008D01*
X8898634Y-15570008D02*
X8908158Y-15579531D01*
X8908158Y-15579531D02*
X8917682Y-15598579D01*
X8917682Y-15598579D02*
X8927205Y-15636674D01*
X8927205Y-15636674D02*
X8927205Y-15684293D01*
X8927205Y-15684293D02*
X8917682Y-15722388D01*
X8917682Y-15722388D02*
X8908158Y-15741436D01*
X8908158Y-15741436D02*
X8898634Y-15750960D01*
X8898634Y-15750960D02*
X8879586Y-15760484D01*
X8879586Y-15760484D02*
X8860539Y-15760484D01*
X8860539Y-15760484D02*
X8841491Y-15750960D01*
X8841491Y-15750960D02*
X8831967Y-15741436D01*
X8831967Y-15741436D02*
X8822444Y-15722388D01*
X8822444Y-15722388D02*
X8812920Y-15684293D01*
X8812920Y-15684293D02*
X8812920Y-15636674D01*
X8812920Y-15636674D02*
X8822444Y-15598579D01*
X8822444Y-15598579D02*
X8831967Y-15579531D01*
X8831967Y-15579531D02*
X8841491Y-15570008D01*
X8841491Y-15570008D02*
X8860539Y-15560484D01*
X9012920Y-15760484D02*
X9012920Y-15627150D01*
X9012920Y-15646198D02*
X9022444Y-15636674D01*
X9022444Y-15636674D02*
X9041491Y-15627150D01*
X9041491Y-15627150D02*
X9070063Y-15627150D01*
X9070063Y-15627150D02*
X9089110Y-15636674D01*
X9089110Y-15636674D02*
X9098634Y-15655722D01*
X9098634Y-15655722D02*
X9098634Y-15760484D01*
X9098634Y-15655722D02*
X9108158Y-15636674D01*
X9108158Y-15636674D02*
X9127205Y-15627150D01*
X9127205Y-15627150D02*
X9155777Y-15627150D01*
X9155777Y-15627150D02*
X9174825Y-15636674D01*
X9174825Y-15636674D02*
X9184348Y-15655722D01*
X9184348Y-15655722D02*
X9184348Y-15760484D01*
X9279586Y-15760484D02*
X9279586Y-15627150D01*
X9279586Y-15646198D02*
X9289110Y-15636674D01*
X9289110Y-15636674D02*
X9308158Y-15627150D01*
X9308158Y-15627150D02*
X9336729Y-15627150D01*
X9336729Y-15627150D02*
X9355777Y-15636674D01*
X9355777Y-15636674D02*
X9365301Y-15655722D01*
X9365301Y-15655722D02*
X9365301Y-15760484D01*
X9365301Y-15655722D02*
X9374825Y-15636674D01*
X9374825Y-15636674D02*
X9393872Y-15627150D01*
X9393872Y-15627150D02*
X9422444Y-15627150D01*
X9422444Y-15627150D02*
X9441491Y-15636674D01*
X9441491Y-15636674D02*
X9451015Y-15655722D01*
X9451015Y-15655722D02*
X9451015Y-15760484D01*
X9841491Y-15550960D02*
X9670063Y-15808103D01*
X10098634Y-15560484D02*
X10117682Y-15560484D01*
X10117682Y-15560484D02*
X10136729Y-15570008D01*
X10136729Y-15570008D02*
X10146253Y-15579531D01*
X10146253Y-15579531D02*
X10155777Y-15598579D01*
X10155777Y-15598579D02*
X10165301Y-15636674D01*
X10165301Y-15636674D02*
X10165301Y-15684293D01*
X10165301Y-15684293D02*
X10155777Y-15722388D01*
X10155777Y-15722388D02*
X10146253Y-15741436D01*
X10146253Y-15741436D02*
X10136729Y-15750960D01*
X10136729Y-15750960D02*
X10117682Y-15760484D01*
X10117682Y-15760484D02*
X10098634Y-15760484D01*
X10098634Y-15760484D02*
X10079587Y-15750960D01*
X10079587Y-15750960D02*
X10070063Y-15741436D01*
X10070063Y-15741436D02*
X10060539Y-15722388D01*
X10060539Y-15722388D02*
X10051015Y-15684293D01*
X10051015Y-15684293D02*
X10051015Y-15636674D01*
X10051015Y-15636674D02*
X10060539Y-15598579D01*
X10060539Y-15598579D02*
X10070063Y-15579531D01*
X10070063Y-15579531D02*
X10079587Y-15570008D01*
X10079587Y-15570008D02*
X10098634Y-15560484D01*
X10251015Y-15741436D02*
X10260539Y-15750960D01*
X10260539Y-15750960D02*
X10251015Y-15760484D01*
X10251015Y-15760484D02*
X10241491Y-15750960D01*
X10241491Y-15750960D02*
X10251015Y-15741436D01*
X10251015Y-15741436D02*
X10251015Y-15760484D01*
X10384348Y-15560484D02*
X10403396Y-15560484D01*
X10403396Y-15560484D02*
X10422444Y-15570008D01*
X10422444Y-15570008D02*
X10431968Y-15579531D01*
X10431968Y-15579531D02*
X10441491Y-15598579D01*
X10441491Y-15598579D02*
X10451015Y-15636674D01*
X10451015Y-15636674D02*
X10451015Y-15684293D01*
X10451015Y-15684293D02*
X10441491Y-15722388D01*
X10441491Y-15722388D02*
X10431968Y-15741436D01*
X10431968Y-15741436D02*
X10422444Y-15750960D01*
X10422444Y-15750960D02*
X10403396Y-15760484D01*
X10403396Y-15760484D02*
X10384348Y-15760484D01*
X10384348Y-15760484D02*
X10365301Y-15750960D01*
X10365301Y-15750960D02*
X10355777Y-15741436D01*
X10355777Y-15741436D02*
X10346253Y-15722388D01*
X10346253Y-15722388D02*
X10336729Y-15684293D01*
X10336729Y-15684293D02*
X10336729Y-15636674D01*
X10336729Y-15636674D02*
X10346253Y-15598579D01*
X10346253Y-15598579D02*
X10355777Y-15579531D01*
X10355777Y-15579531D02*
X10365301Y-15570008D01*
X10365301Y-15570008D02*
X10384348Y-15560484D01*
X10631968Y-15560484D02*
X10536729Y-15560484D01*
X10536729Y-15560484D02*
X10527206Y-15655722D01*
X10527206Y-15655722D02*
X10536729Y-15646198D01*
X10536729Y-15646198D02*
X10555777Y-15636674D01*
X10555777Y-15636674D02*
X10603396Y-15636674D01*
X10603396Y-15636674D02*
X10622444Y-15646198D01*
X10622444Y-15646198D02*
X10631968Y-15655722D01*
X10631968Y-15655722D02*
X10641491Y-15674769D01*
X10641491Y-15674769D02*
X10641491Y-15722388D01*
X10641491Y-15722388D02*
X10631968Y-15741436D01*
X10631968Y-15741436D02*
X10622444Y-15750960D01*
X10622444Y-15750960D02*
X10603396Y-15760484D01*
X10603396Y-15760484D02*
X10555777Y-15760484D01*
X10555777Y-15760484D02*
X10536729Y-15750960D01*
X10536729Y-15750960D02*
X10527206Y-15741436D01*
X10831968Y-15760484D02*
X10717682Y-15760484D01*
X10774825Y-15760484D02*
X10774825Y-15560484D01*
X10774825Y-15560484D02*
X10755777Y-15589055D01*
X10755777Y-15589055D02*
X10736729Y-15608103D01*
X10736729Y-15608103D02*
X10717682Y-15617627D01*
X10908158Y-15579531D02*
X10917682Y-15570008D01*
X10917682Y-15570008D02*
X10936729Y-15560484D01*
X10936729Y-15560484D02*
X10984349Y-15560484D01*
X10984349Y-15560484D02*
X11003396Y-15570008D01*
X11003396Y-15570008D02*
X11012920Y-15579531D01*
X11012920Y-15579531D02*
X11022444Y-15598579D01*
X11022444Y-15598579D02*
X11022444Y-15617627D01*
X11022444Y-15617627D02*
X11012920Y-15646198D01*
X11012920Y-15646198D02*
X10898634Y-15760484D01*
X10898634Y-15760484D02*
X11022444Y-15760484D01*
X11098634Y-15560484D02*
X11098634Y-15598579D01*
X11174825Y-15560484D02*
X11174825Y-15598579D01*
X11470063Y-15836674D02*
X11460539Y-15827150D01*
X11460539Y-15827150D02*
X11441491Y-15798579D01*
X11441491Y-15798579D02*
X11431968Y-15779531D01*
X11431968Y-15779531D02*
X11422444Y-15750960D01*
X11422444Y-15750960D02*
X11412920Y-15703341D01*
X11412920Y-15703341D02*
X11412920Y-15665246D01*
X11412920Y-15665246D02*
X11422444Y-15617627D01*
X11422444Y-15617627D02*
X11431968Y-15589055D01*
X11431968Y-15589055D02*
X11441491Y-15570008D01*
X11441491Y-15570008D02*
X11460539Y-15541436D01*
X11460539Y-15541436D02*
X11470063Y-15531912D01*
X11584348Y-15560484D02*
X11603396Y-15560484D01*
X11603396Y-15560484D02*
X11622444Y-15570008D01*
X11622444Y-15570008D02*
X11631968Y-15579531D01*
X11631968Y-15579531D02*
X11641491Y-15598579D01*
X11641491Y-15598579D02*
X11651015Y-15636674D01*
X11651015Y-15636674D02*
X11651015Y-15684293D01*
X11651015Y-15684293D02*
X11641491Y-15722388D01*
X11641491Y-15722388D02*
X11631968Y-15741436D01*
X11631968Y-15741436D02*
X11622444Y-15750960D01*
X11622444Y-15750960D02*
X11603396Y-15760484D01*
X11603396Y-15760484D02*
X11584348Y-15760484D01*
X11584348Y-15760484D02*
X11565301Y-15750960D01*
X11565301Y-15750960D02*
X11555777Y-15741436D01*
X11555777Y-15741436D02*
X11546253Y-15722388D01*
X11546253Y-15722388D02*
X11536729Y-15684293D01*
X11536729Y-15684293D02*
X11536729Y-15636674D01*
X11536729Y-15636674D02*
X11546253Y-15598579D01*
X11546253Y-15598579D02*
X11555777Y-15579531D01*
X11555777Y-15579531D02*
X11565301Y-15570008D01*
X11565301Y-15570008D02*
X11584348Y-15560484D01*
X11889110Y-15760484D02*
X11889110Y-15560484D01*
X11974825Y-15760484D02*
X11974825Y-15655722D01*
X11974825Y-15655722D02*
X11965301Y-15636674D01*
X11965301Y-15636674D02*
X11946253Y-15627150D01*
X11946253Y-15627150D02*
X11917682Y-15627150D01*
X11917682Y-15627150D02*
X11898634Y-15636674D01*
X11898634Y-15636674D02*
X11889110Y-15646198D01*
X12098634Y-15760484D02*
X12079587Y-15750960D01*
X12079587Y-15750960D02*
X12070063Y-15741436D01*
X12070063Y-15741436D02*
X12060539Y-15722388D01*
X12060539Y-15722388D02*
X12060539Y-15665246D01*
X12060539Y-15665246D02*
X12070063Y-15646198D01*
X12070063Y-15646198D02*
X12079587Y-15636674D01*
X12079587Y-15636674D02*
X12098634Y-15627150D01*
X12098634Y-15627150D02*
X12127206Y-15627150D01*
X12127206Y-15627150D02*
X12146253Y-15636674D01*
X12146253Y-15636674D02*
X12155777Y-15646198D01*
X12155777Y-15646198D02*
X12165301Y-15665246D01*
X12165301Y-15665246D02*
X12165301Y-15722388D01*
X12165301Y-15722388D02*
X12155777Y-15741436D01*
X12155777Y-15741436D02*
X12146253Y-15750960D01*
X12146253Y-15750960D02*
X12127206Y-15760484D01*
X12127206Y-15760484D02*
X12098634Y-15760484D01*
X12279587Y-15760484D02*
X12260539Y-15750960D01*
X12260539Y-15750960D02*
X12251015Y-15731912D01*
X12251015Y-15731912D02*
X12251015Y-15560484D01*
X12431968Y-15750960D02*
X12412920Y-15760484D01*
X12412920Y-15760484D02*
X12374825Y-15760484D01*
X12374825Y-15760484D02*
X12355777Y-15750960D01*
X12355777Y-15750960D02*
X12346253Y-15731912D01*
X12346253Y-15731912D02*
X12346253Y-15655722D01*
X12346253Y-15655722D02*
X12355777Y-15636674D01*
X12355777Y-15636674D02*
X12374825Y-15627150D01*
X12374825Y-15627150D02*
X12412920Y-15627150D01*
X12412920Y-15627150D02*
X12431968Y-15636674D01*
X12431968Y-15636674D02*
X12441491Y-15655722D01*
X12441491Y-15655722D02*
X12441491Y-15674769D01*
X12441491Y-15674769D02*
X12346253Y-15693817D01*
X12517682Y-15750960D02*
X12536730Y-15760484D01*
X12536730Y-15760484D02*
X12574825Y-15760484D01*
X12574825Y-15760484D02*
X12593872Y-15750960D01*
X12593872Y-15750960D02*
X12603396Y-15731912D01*
X12603396Y-15731912D02*
X12603396Y-15722388D01*
X12603396Y-15722388D02*
X12593872Y-15703341D01*
X12593872Y-15703341D02*
X12574825Y-15693817D01*
X12574825Y-15693817D02*
X12546253Y-15693817D01*
X12546253Y-15693817D02*
X12527206Y-15684293D01*
X12527206Y-15684293D02*
X12517682Y-15665246D01*
X12517682Y-15665246D02*
X12517682Y-15655722D01*
X12517682Y-15655722D02*
X12527206Y-15636674D01*
X12527206Y-15636674D02*
X12546253Y-15627150D01*
X12546253Y-15627150D02*
X12574825Y-15627150D01*
X12574825Y-15627150D02*
X12593872Y-15636674D01*
X12841492Y-15684293D02*
X12993873Y-15684293D01*
X12917682Y-15760484D02*
X12917682Y-15608103D01*
X13327206Y-15560484D02*
X13289111Y-15560484D01*
X13289111Y-15560484D02*
X13270063Y-15570008D01*
X13270063Y-15570008D02*
X13260539Y-15579531D01*
X13260539Y-15579531D02*
X13241492Y-15608103D01*
X13241492Y-15608103D02*
X13231968Y-15646198D01*
X13231968Y-15646198D02*
X13231968Y-15722388D01*
X13231968Y-15722388D02*
X13241492Y-15741436D01*
X13241492Y-15741436D02*
X13251015Y-15750960D01*
X13251015Y-15750960D02*
X13270063Y-15760484D01*
X13270063Y-15760484D02*
X13308158Y-15760484D01*
X13308158Y-15760484D02*
X13327206Y-15750960D01*
X13327206Y-15750960D02*
X13336730Y-15741436D01*
X13336730Y-15741436D02*
X13346253Y-15722388D01*
X13346253Y-15722388D02*
X13346253Y-15674769D01*
X13346253Y-15674769D02*
X13336730Y-15655722D01*
X13336730Y-15655722D02*
X13327206Y-15646198D01*
X13327206Y-15646198D02*
X13308158Y-15636674D01*
X13308158Y-15636674D02*
X13270063Y-15636674D01*
X13270063Y-15636674D02*
X13251015Y-15646198D01*
X13251015Y-15646198D02*
X13241492Y-15655722D01*
X13241492Y-15655722D02*
X13231968Y-15674769D01*
X13574825Y-15750960D02*
X13593873Y-15760484D01*
X13593873Y-15760484D02*
X13631968Y-15760484D01*
X13631968Y-15760484D02*
X13651015Y-15750960D01*
X13651015Y-15750960D02*
X13660539Y-15731912D01*
X13660539Y-15731912D02*
X13660539Y-15722388D01*
X13660539Y-15722388D02*
X13651015Y-15703341D01*
X13651015Y-15703341D02*
X13631968Y-15693817D01*
X13631968Y-15693817D02*
X13603396Y-15693817D01*
X13603396Y-15693817D02*
X13584349Y-15684293D01*
X13584349Y-15684293D02*
X13574825Y-15665246D01*
X13574825Y-15665246D02*
X13574825Y-15655722D01*
X13574825Y-15655722D02*
X13584349Y-15636674D01*
X13584349Y-15636674D02*
X13603396Y-15627150D01*
X13603396Y-15627150D02*
X13631968Y-15627150D01*
X13631968Y-15627150D02*
X13651015Y-15636674D01*
X13774825Y-15760484D02*
X13755777Y-15750960D01*
X13755777Y-15750960D02*
X13746254Y-15731912D01*
X13746254Y-15731912D02*
X13746254Y-15560484D01*
X13879587Y-15760484D02*
X13860539Y-15750960D01*
X13860539Y-15750960D02*
X13851015Y-15741436D01*
X13851015Y-15741436D02*
X13841492Y-15722388D01*
X13841492Y-15722388D02*
X13841492Y-15665246D01*
X13841492Y-15665246D02*
X13851015Y-15646198D01*
X13851015Y-15646198D02*
X13860539Y-15636674D01*
X13860539Y-15636674D02*
X13879587Y-15627150D01*
X13879587Y-15627150D02*
X13908158Y-15627150D01*
X13908158Y-15627150D02*
X13927206Y-15636674D01*
X13927206Y-15636674D02*
X13936730Y-15646198D01*
X13936730Y-15646198D02*
X13946254Y-15665246D01*
X13946254Y-15665246D02*
X13946254Y-15722388D01*
X13946254Y-15722388D02*
X13936730Y-15741436D01*
X13936730Y-15741436D02*
X13927206Y-15750960D01*
X13927206Y-15750960D02*
X13908158Y-15760484D01*
X13908158Y-15760484D02*
X13879587Y-15760484D01*
X14003396Y-15627150D02*
X14079587Y-15627150D01*
X14031968Y-15560484D02*
X14031968Y-15731912D01*
X14031968Y-15731912D02*
X14041492Y-15750960D01*
X14041492Y-15750960D02*
X14060539Y-15760484D01*
X14060539Y-15760484D02*
X14079587Y-15760484D01*
X14136730Y-15750960D02*
X14155777Y-15760484D01*
X14155777Y-15760484D02*
X14193873Y-15760484D01*
X14193873Y-15760484D02*
X14212920Y-15750960D01*
X14212920Y-15750960D02*
X14222444Y-15731912D01*
X14222444Y-15731912D02*
X14222444Y-15722388D01*
X14222444Y-15722388D02*
X14212920Y-15703341D01*
X14212920Y-15703341D02*
X14193873Y-15693817D01*
X14193873Y-15693817D02*
X14165301Y-15693817D01*
X14165301Y-15693817D02*
X14146254Y-15684293D01*
X14146254Y-15684293D02*
X14136730Y-15665246D01*
X14136730Y-15665246D02*
X14136730Y-15655722D01*
X14136730Y-15655722D02*
X14146254Y-15636674D01*
X14146254Y-15636674D02*
X14165301Y-15627150D01*
X14165301Y-15627150D02*
X14193873Y-15627150D01*
X14193873Y-15627150D02*
X14212920Y-15636674D01*
X14289111Y-15836674D02*
X14298635Y-15827150D01*
X14298635Y-15827150D02*
X14317682Y-15798579D01*
X14317682Y-15798579D02*
X14327206Y-15779531D01*
X14327206Y-15779531D02*
X14336730Y-15750960D01*
X14336730Y-15750960D02*
X14346254Y-15703341D01*
X14346254Y-15703341D02*
X14346254Y-15665246D01*
X14346254Y-15665246D02*
X14336730Y-15617627D01*
X14336730Y-15617627D02*
X14327206Y-15589055D01*
X14327206Y-15589055D02*
X14317682Y-15570008D01*
X14317682Y-15570008D02*
X14298635Y-15541436D01*
X14298635Y-15541436D02*
X14289111Y-15531912D01*
D13*
X7745000Y-15858000D02*
X7895000Y-16008000D01*
X7895000Y-15858000D02*
X7745000Y-16008000D01*
X7820000Y-15858000D02*
X7820000Y-16008000D01*
X7745000Y-15933000D02*
X7895000Y-15933000D01*
D11*
X8260539Y-16024484D02*
X8146253Y-16024484D01*
X8203396Y-16024484D02*
X8203396Y-15824484D01*
X8203396Y-15824484D02*
X8184348Y-15853055D01*
X8184348Y-15853055D02*
X8165301Y-15872103D01*
X8165301Y-15872103D02*
X8146253Y-15881627D01*
X8346253Y-16005436D02*
X8355777Y-16014960D01*
X8355777Y-16014960D02*
X8346253Y-16024484D01*
X8346253Y-16024484D02*
X8336729Y-16014960D01*
X8336729Y-16014960D02*
X8346253Y-16005436D01*
X8346253Y-16005436D02*
X8346253Y-16024484D01*
X8536729Y-15824484D02*
X8441491Y-15824484D01*
X8441491Y-15824484D02*
X8431967Y-15919722D01*
X8431967Y-15919722D02*
X8441491Y-15910198D01*
X8441491Y-15910198D02*
X8460539Y-15900674D01*
X8460539Y-15900674D02*
X8508158Y-15900674D01*
X8508158Y-15900674D02*
X8527205Y-15910198D01*
X8527205Y-15910198D02*
X8536729Y-15919722D01*
X8536729Y-15919722D02*
X8546253Y-15938769D01*
X8546253Y-15938769D02*
X8546253Y-15986388D01*
X8546253Y-15986388D02*
X8536729Y-16005436D01*
X8536729Y-16005436D02*
X8527205Y-16014960D01*
X8527205Y-16014960D02*
X8508158Y-16024484D01*
X8508158Y-16024484D02*
X8460539Y-16024484D01*
X8460539Y-16024484D02*
X8441491Y-16014960D01*
X8441491Y-16014960D02*
X8431967Y-16005436D01*
X8670063Y-15824484D02*
X8689110Y-15824484D01*
X8689110Y-15824484D02*
X8708158Y-15834008D01*
X8708158Y-15834008D02*
X8717682Y-15843531D01*
X8717682Y-15843531D02*
X8727205Y-15862579D01*
X8727205Y-15862579D02*
X8736729Y-15900674D01*
X8736729Y-15900674D02*
X8736729Y-15948293D01*
X8736729Y-15948293D02*
X8727205Y-15986388D01*
X8727205Y-15986388D02*
X8717682Y-16005436D01*
X8717682Y-16005436D02*
X8708158Y-16014960D01*
X8708158Y-16014960D02*
X8689110Y-16024484D01*
X8689110Y-16024484D02*
X8670063Y-16024484D01*
X8670063Y-16024484D02*
X8651015Y-16014960D01*
X8651015Y-16014960D02*
X8641491Y-16005436D01*
X8641491Y-16005436D02*
X8631967Y-15986388D01*
X8631967Y-15986388D02*
X8622444Y-15948293D01*
X8622444Y-15948293D02*
X8622444Y-15900674D01*
X8622444Y-15900674D02*
X8631967Y-15862579D01*
X8631967Y-15862579D02*
X8641491Y-15843531D01*
X8641491Y-15843531D02*
X8651015Y-15834008D01*
X8651015Y-15834008D02*
X8670063Y-15824484D01*
X8860539Y-15824484D02*
X8879586Y-15824484D01*
X8879586Y-15824484D02*
X8898634Y-15834008D01*
X8898634Y-15834008D02*
X8908158Y-15843531D01*
X8908158Y-15843531D02*
X8917682Y-15862579D01*
X8917682Y-15862579D02*
X8927205Y-15900674D01*
X8927205Y-15900674D02*
X8927205Y-15948293D01*
X8927205Y-15948293D02*
X8917682Y-15986388D01*
X8917682Y-15986388D02*
X8908158Y-16005436D01*
X8908158Y-16005436D02*
X8898634Y-16014960D01*
X8898634Y-16014960D02*
X8879586Y-16024484D01*
X8879586Y-16024484D02*
X8860539Y-16024484D01*
X8860539Y-16024484D02*
X8841491Y-16014960D01*
X8841491Y-16014960D02*
X8831967Y-16005436D01*
X8831967Y-16005436D02*
X8822444Y-15986388D01*
X8822444Y-15986388D02*
X8812920Y-15948293D01*
X8812920Y-15948293D02*
X8812920Y-15900674D01*
X8812920Y-15900674D02*
X8822444Y-15862579D01*
X8822444Y-15862579D02*
X8831967Y-15843531D01*
X8831967Y-15843531D02*
X8841491Y-15834008D01*
X8841491Y-15834008D02*
X8860539Y-15824484D01*
X9012920Y-16024484D02*
X9012920Y-15891150D01*
X9012920Y-15910198D02*
X9022444Y-15900674D01*
X9022444Y-15900674D02*
X9041491Y-15891150D01*
X9041491Y-15891150D02*
X9070063Y-15891150D01*
X9070063Y-15891150D02*
X9089110Y-15900674D01*
X9089110Y-15900674D02*
X9098634Y-15919722D01*
X9098634Y-15919722D02*
X9098634Y-16024484D01*
X9098634Y-15919722D02*
X9108158Y-15900674D01*
X9108158Y-15900674D02*
X9127205Y-15891150D01*
X9127205Y-15891150D02*
X9155777Y-15891150D01*
X9155777Y-15891150D02*
X9174825Y-15900674D01*
X9174825Y-15900674D02*
X9184348Y-15919722D01*
X9184348Y-15919722D02*
X9184348Y-16024484D01*
X9279586Y-16024484D02*
X9279586Y-15891150D01*
X9279586Y-15910198D02*
X9289110Y-15900674D01*
X9289110Y-15900674D02*
X9308158Y-15891150D01*
X9308158Y-15891150D02*
X9336729Y-15891150D01*
X9336729Y-15891150D02*
X9355777Y-15900674D01*
X9355777Y-15900674D02*
X9365301Y-15919722D01*
X9365301Y-15919722D02*
X9365301Y-16024484D01*
X9365301Y-15919722D02*
X9374825Y-15900674D01*
X9374825Y-15900674D02*
X9393872Y-15891150D01*
X9393872Y-15891150D02*
X9422444Y-15891150D01*
X9422444Y-15891150D02*
X9441491Y-15900674D01*
X9441491Y-15900674D02*
X9451015Y-15919722D01*
X9451015Y-15919722D02*
X9451015Y-16024484D01*
X9841491Y-15814960D02*
X9670063Y-16072103D01*
X10098634Y-15824484D02*
X10117682Y-15824484D01*
X10117682Y-15824484D02*
X10136729Y-15834008D01*
X10136729Y-15834008D02*
X10146253Y-15843531D01*
X10146253Y-15843531D02*
X10155777Y-15862579D01*
X10155777Y-15862579D02*
X10165301Y-15900674D01*
X10165301Y-15900674D02*
X10165301Y-15948293D01*
X10165301Y-15948293D02*
X10155777Y-15986388D01*
X10155777Y-15986388D02*
X10146253Y-16005436D01*
X10146253Y-16005436D02*
X10136729Y-16014960D01*
X10136729Y-16014960D02*
X10117682Y-16024484D01*
X10117682Y-16024484D02*
X10098634Y-16024484D01*
X10098634Y-16024484D02*
X10079587Y-16014960D01*
X10079587Y-16014960D02*
X10070063Y-16005436D01*
X10070063Y-16005436D02*
X10060539Y-15986388D01*
X10060539Y-15986388D02*
X10051015Y-15948293D01*
X10051015Y-15948293D02*
X10051015Y-15900674D01*
X10051015Y-15900674D02*
X10060539Y-15862579D01*
X10060539Y-15862579D02*
X10070063Y-15843531D01*
X10070063Y-15843531D02*
X10079587Y-15834008D01*
X10079587Y-15834008D02*
X10098634Y-15824484D01*
X10251015Y-16005436D02*
X10260539Y-16014960D01*
X10260539Y-16014960D02*
X10251015Y-16024484D01*
X10251015Y-16024484D02*
X10241491Y-16014960D01*
X10241491Y-16014960D02*
X10251015Y-16005436D01*
X10251015Y-16005436D02*
X10251015Y-16024484D01*
X10384348Y-15824484D02*
X10403396Y-15824484D01*
X10403396Y-15824484D02*
X10422444Y-15834008D01*
X10422444Y-15834008D02*
X10431968Y-15843531D01*
X10431968Y-15843531D02*
X10441491Y-15862579D01*
X10441491Y-15862579D02*
X10451015Y-15900674D01*
X10451015Y-15900674D02*
X10451015Y-15948293D01*
X10451015Y-15948293D02*
X10441491Y-15986388D01*
X10441491Y-15986388D02*
X10431968Y-16005436D01*
X10431968Y-16005436D02*
X10422444Y-16014960D01*
X10422444Y-16014960D02*
X10403396Y-16024484D01*
X10403396Y-16024484D02*
X10384348Y-16024484D01*
X10384348Y-16024484D02*
X10365301Y-16014960D01*
X10365301Y-16014960D02*
X10355777Y-16005436D01*
X10355777Y-16005436D02*
X10346253Y-15986388D01*
X10346253Y-15986388D02*
X10336729Y-15948293D01*
X10336729Y-15948293D02*
X10336729Y-15900674D01*
X10336729Y-15900674D02*
X10346253Y-15862579D01*
X10346253Y-15862579D02*
X10355777Y-15843531D01*
X10355777Y-15843531D02*
X10365301Y-15834008D01*
X10365301Y-15834008D02*
X10384348Y-15824484D01*
X10631968Y-15824484D02*
X10536729Y-15824484D01*
X10536729Y-15824484D02*
X10527206Y-15919722D01*
X10527206Y-15919722D02*
X10536729Y-15910198D01*
X10536729Y-15910198D02*
X10555777Y-15900674D01*
X10555777Y-15900674D02*
X10603396Y-15900674D01*
X10603396Y-15900674D02*
X10622444Y-15910198D01*
X10622444Y-15910198D02*
X10631968Y-15919722D01*
X10631968Y-15919722D02*
X10641491Y-15938769D01*
X10641491Y-15938769D02*
X10641491Y-15986388D01*
X10641491Y-15986388D02*
X10631968Y-16005436D01*
X10631968Y-16005436D02*
X10622444Y-16014960D01*
X10622444Y-16014960D02*
X10603396Y-16024484D01*
X10603396Y-16024484D02*
X10555777Y-16024484D01*
X10555777Y-16024484D02*
X10536729Y-16014960D01*
X10536729Y-16014960D02*
X10527206Y-16005436D01*
X10736729Y-16024484D02*
X10774825Y-16024484D01*
X10774825Y-16024484D02*
X10793872Y-16014960D01*
X10793872Y-16014960D02*
X10803396Y-16005436D01*
X10803396Y-16005436D02*
X10822444Y-15976865D01*
X10822444Y-15976865D02*
X10831968Y-15938769D01*
X10831968Y-15938769D02*
X10831968Y-15862579D01*
X10831968Y-15862579D02*
X10822444Y-15843531D01*
X10822444Y-15843531D02*
X10812920Y-15834008D01*
X10812920Y-15834008D02*
X10793872Y-15824484D01*
X10793872Y-15824484D02*
X10755777Y-15824484D01*
X10755777Y-15824484D02*
X10736729Y-15834008D01*
X10736729Y-15834008D02*
X10727206Y-15843531D01*
X10727206Y-15843531D02*
X10717682Y-15862579D01*
X10717682Y-15862579D02*
X10717682Y-15910198D01*
X10717682Y-15910198D02*
X10727206Y-15929246D01*
X10727206Y-15929246D02*
X10736729Y-15938769D01*
X10736729Y-15938769D02*
X10755777Y-15948293D01*
X10755777Y-15948293D02*
X10793872Y-15948293D01*
X10793872Y-15948293D02*
X10812920Y-15938769D01*
X10812920Y-15938769D02*
X10822444Y-15929246D01*
X10822444Y-15929246D02*
X10831968Y-15910198D01*
X11022444Y-16024484D02*
X10908158Y-16024484D01*
X10965301Y-16024484D02*
X10965301Y-15824484D01*
X10965301Y-15824484D02*
X10946253Y-15853055D01*
X10946253Y-15853055D02*
X10927206Y-15872103D01*
X10927206Y-15872103D02*
X10908158Y-15881627D01*
X11098634Y-15824484D02*
X11098634Y-15862579D01*
X11174825Y-15824484D02*
X11174825Y-15862579D01*
X11470063Y-16100674D02*
X11460539Y-16091150D01*
X11460539Y-16091150D02*
X11441491Y-16062579D01*
X11441491Y-16062579D02*
X11431968Y-16043531D01*
X11431968Y-16043531D02*
X11422444Y-16014960D01*
X11422444Y-16014960D02*
X11412920Y-15967341D01*
X11412920Y-15967341D02*
X11412920Y-15929246D01*
X11412920Y-15929246D02*
X11422444Y-15881627D01*
X11422444Y-15881627D02*
X11431968Y-15853055D01*
X11431968Y-15853055D02*
X11441491Y-15834008D01*
X11441491Y-15834008D02*
X11460539Y-15805436D01*
X11460539Y-15805436D02*
X11470063Y-15795912D01*
X11651015Y-16024484D02*
X11536729Y-16024484D01*
X11593872Y-16024484D02*
X11593872Y-15824484D01*
X11593872Y-15824484D02*
X11574825Y-15853055D01*
X11574825Y-15853055D02*
X11555777Y-15872103D01*
X11555777Y-15872103D02*
X11536729Y-15881627D01*
X11889110Y-16024484D02*
X11889110Y-15824484D01*
X11974825Y-16024484D02*
X11974825Y-15919722D01*
X11974825Y-15919722D02*
X11965301Y-15900674D01*
X11965301Y-15900674D02*
X11946253Y-15891150D01*
X11946253Y-15891150D02*
X11917682Y-15891150D01*
X11917682Y-15891150D02*
X11898634Y-15900674D01*
X11898634Y-15900674D02*
X11889110Y-15910198D01*
X12098634Y-16024484D02*
X12079587Y-16014960D01*
X12079587Y-16014960D02*
X12070063Y-16005436D01*
X12070063Y-16005436D02*
X12060539Y-15986388D01*
X12060539Y-15986388D02*
X12060539Y-15929246D01*
X12060539Y-15929246D02*
X12070063Y-15910198D01*
X12070063Y-15910198D02*
X12079587Y-15900674D01*
X12079587Y-15900674D02*
X12098634Y-15891150D01*
X12098634Y-15891150D02*
X12127206Y-15891150D01*
X12127206Y-15891150D02*
X12146253Y-15900674D01*
X12146253Y-15900674D02*
X12155777Y-15910198D01*
X12155777Y-15910198D02*
X12165301Y-15929246D01*
X12165301Y-15929246D02*
X12165301Y-15986388D01*
X12165301Y-15986388D02*
X12155777Y-16005436D01*
X12155777Y-16005436D02*
X12146253Y-16014960D01*
X12146253Y-16014960D02*
X12127206Y-16024484D01*
X12127206Y-16024484D02*
X12098634Y-16024484D01*
X12279587Y-16024484D02*
X12260539Y-16014960D01*
X12260539Y-16014960D02*
X12251015Y-15995912D01*
X12251015Y-15995912D02*
X12251015Y-15824484D01*
X12431968Y-16014960D02*
X12412920Y-16024484D01*
X12412920Y-16024484D02*
X12374825Y-16024484D01*
X12374825Y-16024484D02*
X12355777Y-16014960D01*
X12355777Y-16014960D02*
X12346253Y-15995912D01*
X12346253Y-15995912D02*
X12346253Y-15919722D01*
X12346253Y-15919722D02*
X12355777Y-15900674D01*
X12355777Y-15900674D02*
X12374825Y-15891150D01*
X12374825Y-15891150D02*
X12412920Y-15891150D01*
X12412920Y-15891150D02*
X12431968Y-15900674D01*
X12431968Y-15900674D02*
X12441491Y-15919722D01*
X12441491Y-15919722D02*
X12441491Y-15938769D01*
X12441491Y-15938769D02*
X12346253Y-15957817D01*
X12508158Y-16100674D02*
X12517682Y-16091150D01*
X12517682Y-16091150D02*
X12536730Y-16062579D01*
X12536730Y-16062579D02*
X12546253Y-16043531D01*
X12546253Y-16043531D02*
X12555777Y-16014960D01*
X12555777Y-16014960D02*
X12565301Y-15967341D01*
X12565301Y-15967341D02*
X12565301Y-15929246D01*
X12565301Y-15929246D02*
X12555777Y-15881627D01*
X12555777Y-15881627D02*
X12546253Y-15853055D01*
X12546253Y-15853055D02*
X12536730Y-15834008D01*
X12536730Y-15834008D02*
X12517682Y-15805436D01*
X12517682Y-15805436D02*
X12508158Y-15795912D01*
D14*
X7725000Y-16118000D02*
X7895000Y-16288000D01*
X7895000Y-16118000D02*
X7725000Y-16288000D01*
X7870105Y-16263105D02*
X7870105Y-16142895D01*
X7749895Y-16142895D01*
X7749895Y-16263105D01*
X7870105Y-16263105D01*
D11*
X8260539Y-16294484D02*
X8146253Y-16294484D01*
X8203396Y-16294484D02*
X8203396Y-16094484D01*
X8203396Y-16094484D02*
X8184348Y-16123055D01*
X8184348Y-16123055D02*
X8165301Y-16142103D01*
X8165301Y-16142103D02*
X8146253Y-16151627D01*
X8346253Y-16275436D02*
X8355777Y-16284960D01*
X8355777Y-16284960D02*
X8346253Y-16294484D01*
X8346253Y-16294484D02*
X8336729Y-16284960D01*
X8336729Y-16284960D02*
X8346253Y-16275436D01*
X8346253Y-16275436D02*
X8346253Y-16294484D01*
X8422444Y-16094484D02*
X8555777Y-16094484D01*
X8555777Y-16094484D02*
X8470063Y-16294484D01*
X8670063Y-16094484D02*
X8689110Y-16094484D01*
X8689110Y-16094484D02*
X8708158Y-16104008D01*
X8708158Y-16104008D02*
X8717682Y-16113531D01*
X8717682Y-16113531D02*
X8727205Y-16132579D01*
X8727205Y-16132579D02*
X8736729Y-16170674D01*
X8736729Y-16170674D02*
X8736729Y-16218293D01*
X8736729Y-16218293D02*
X8727205Y-16256388D01*
X8727205Y-16256388D02*
X8717682Y-16275436D01*
X8717682Y-16275436D02*
X8708158Y-16284960D01*
X8708158Y-16284960D02*
X8689110Y-16294484D01*
X8689110Y-16294484D02*
X8670063Y-16294484D01*
X8670063Y-16294484D02*
X8651015Y-16284960D01*
X8651015Y-16284960D02*
X8641491Y-16275436D01*
X8641491Y-16275436D02*
X8631967Y-16256388D01*
X8631967Y-16256388D02*
X8622444Y-16218293D01*
X8622444Y-16218293D02*
X8622444Y-16170674D01*
X8622444Y-16170674D02*
X8631967Y-16132579D01*
X8631967Y-16132579D02*
X8641491Y-16113531D01*
X8641491Y-16113531D02*
X8651015Y-16104008D01*
X8651015Y-16104008D02*
X8670063Y-16094484D01*
X8860539Y-16094484D02*
X8879586Y-16094484D01*
X8879586Y-16094484D02*
X8898634Y-16104008D01*
X8898634Y-16104008D02*
X8908158Y-16113531D01*
X8908158Y-16113531D02*
X8917682Y-16132579D01*
X8917682Y-16132579D02*
X8927205Y-16170674D01*
X8927205Y-16170674D02*
X8927205Y-16218293D01*
X8927205Y-16218293D02*
X8917682Y-16256388D01*
X8917682Y-16256388D02*
X8908158Y-16275436D01*
X8908158Y-16275436D02*
X8898634Y-16284960D01*
X8898634Y-16284960D02*
X8879586Y-16294484D01*
X8879586Y-16294484D02*
X8860539Y-16294484D01*
X8860539Y-16294484D02*
X8841491Y-16284960D01*
X8841491Y-16284960D02*
X8831967Y-16275436D01*
X8831967Y-16275436D02*
X8822444Y-16256388D01*
X8822444Y-16256388D02*
X8812920Y-16218293D01*
X8812920Y-16218293D02*
X8812920Y-16170674D01*
X8812920Y-16170674D02*
X8822444Y-16132579D01*
X8822444Y-16132579D02*
X8831967Y-16113531D01*
X8831967Y-16113531D02*
X8841491Y-16104008D01*
X8841491Y-16104008D02*
X8860539Y-16094484D01*
X9012920Y-16294484D02*
X9012920Y-16161150D01*
X9012920Y-16180198D02*
X9022444Y-16170674D01*
X9022444Y-16170674D02*
X9041491Y-16161150D01*
X9041491Y-16161150D02*
X9070063Y-16161150D01*
X9070063Y-16161150D02*
X9089110Y-16170674D01*
X9089110Y-16170674D02*
X9098634Y-16189722D01*
X9098634Y-16189722D02*
X9098634Y-16294484D01*
X9098634Y-16189722D02*
X9108158Y-16170674D01*
X9108158Y-16170674D02*
X9127205Y-16161150D01*
X9127205Y-16161150D02*
X9155777Y-16161150D01*
X9155777Y-16161150D02*
X9174825Y-16170674D01*
X9174825Y-16170674D02*
X9184348Y-16189722D01*
X9184348Y-16189722D02*
X9184348Y-16294484D01*
X9279586Y-16294484D02*
X9279586Y-16161150D01*
X9279586Y-16180198D02*
X9289110Y-16170674D01*
X9289110Y-16170674D02*
X9308158Y-16161150D01*
X9308158Y-16161150D02*
X9336729Y-16161150D01*
X9336729Y-16161150D02*
X9355777Y-16170674D01*
X9355777Y-16170674D02*
X9365301Y-16189722D01*
X9365301Y-16189722D02*
X9365301Y-16294484D01*
X9365301Y-16189722D02*
X9374825Y-16170674D01*
X9374825Y-16170674D02*
X9393872Y-16161150D01*
X9393872Y-16161150D02*
X9422444Y-16161150D01*
X9422444Y-16161150D02*
X9441491Y-16170674D01*
X9441491Y-16170674D02*
X9451015Y-16189722D01*
X9451015Y-16189722D02*
X9451015Y-16294484D01*
X9841491Y-16084960D02*
X9670063Y-16342103D01*
X10098634Y-16094484D02*
X10117682Y-16094484D01*
X10117682Y-16094484D02*
X10136729Y-16104008D01*
X10136729Y-16104008D02*
X10146253Y-16113531D01*
X10146253Y-16113531D02*
X10155777Y-16132579D01*
X10155777Y-16132579D02*
X10165301Y-16170674D01*
X10165301Y-16170674D02*
X10165301Y-16218293D01*
X10165301Y-16218293D02*
X10155777Y-16256388D01*
X10155777Y-16256388D02*
X10146253Y-16275436D01*
X10146253Y-16275436D02*
X10136729Y-16284960D01*
X10136729Y-16284960D02*
X10117682Y-16294484D01*
X10117682Y-16294484D02*
X10098634Y-16294484D01*
X10098634Y-16294484D02*
X10079587Y-16284960D01*
X10079587Y-16284960D02*
X10070063Y-16275436D01*
X10070063Y-16275436D02*
X10060539Y-16256388D01*
X10060539Y-16256388D02*
X10051015Y-16218293D01*
X10051015Y-16218293D02*
X10051015Y-16170674D01*
X10051015Y-16170674D02*
X10060539Y-16132579D01*
X10060539Y-16132579D02*
X10070063Y-16113531D01*
X10070063Y-16113531D02*
X10079587Y-16104008D01*
X10079587Y-16104008D02*
X10098634Y-16094484D01*
X10251015Y-16275436D02*
X10260539Y-16284960D01*
X10260539Y-16284960D02*
X10251015Y-16294484D01*
X10251015Y-16294484D02*
X10241491Y-16284960D01*
X10241491Y-16284960D02*
X10251015Y-16275436D01*
X10251015Y-16275436D02*
X10251015Y-16294484D01*
X10384348Y-16094484D02*
X10403396Y-16094484D01*
X10403396Y-16094484D02*
X10422444Y-16104008D01*
X10422444Y-16104008D02*
X10431968Y-16113531D01*
X10431968Y-16113531D02*
X10441491Y-16132579D01*
X10441491Y-16132579D02*
X10451015Y-16170674D01*
X10451015Y-16170674D02*
X10451015Y-16218293D01*
X10451015Y-16218293D02*
X10441491Y-16256388D01*
X10441491Y-16256388D02*
X10431968Y-16275436D01*
X10431968Y-16275436D02*
X10422444Y-16284960D01*
X10422444Y-16284960D02*
X10403396Y-16294484D01*
X10403396Y-16294484D02*
X10384348Y-16294484D01*
X10384348Y-16294484D02*
X10365301Y-16284960D01*
X10365301Y-16284960D02*
X10355777Y-16275436D01*
X10355777Y-16275436D02*
X10346253Y-16256388D01*
X10346253Y-16256388D02*
X10336729Y-16218293D01*
X10336729Y-16218293D02*
X10336729Y-16170674D01*
X10336729Y-16170674D02*
X10346253Y-16132579D01*
X10346253Y-16132579D02*
X10355777Y-16113531D01*
X10355777Y-16113531D02*
X10365301Y-16104008D01*
X10365301Y-16104008D02*
X10384348Y-16094484D01*
X10622444Y-16094484D02*
X10584348Y-16094484D01*
X10584348Y-16094484D02*
X10565301Y-16104008D01*
X10565301Y-16104008D02*
X10555777Y-16113531D01*
X10555777Y-16113531D02*
X10536729Y-16142103D01*
X10536729Y-16142103D02*
X10527206Y-16180198D01*
X10527206Y-16180198D02*
X10527206Y-16256388D01*
X10527206Y-16256388D02*
X10536729Y-16275436D01*
X10536729Y-16275436D02*
X10546253Y-16284960D01*
X10546253Y-16284960D02*
X10565301Y-16294484D01*
X10565301Y-16294484D02*
X10603396Y-16294484D01*
X10603396Y-16294484D02*
X10622444Y-16284960D01*
X10622444Y-16284960D02*
X10631968Y-16275436D01*
X10631968Y-16275436D02*
X10641491Y-16256388D01*
X10641491Y-16256388D02*
X10641491Y-16208769D01*
X10641491Y-16208769D02*
X10631968Y-16189722D01*
X10631968Y-16189722D02*
X10622444Y-16180198D01*
X10622444Y-16180198D02*
X10603396Y-16170674D01*
X10603396Y-16170674D02*
X10565301Y-16170674D01*
X10565301Y-16170674D02*
X10546253Y-16180198D01*
X10546253Y-16180198D02*
X10536729Y-16189722D01*
X10536729Y-16189722D02*
X10527206Y-16208769D01*
X10812920Y-16094484D02*
X10774825Y-16094484D01*
X10774825Y-16094484D02*
X10755777Y-16104008D01*
X10755777Y-16104008D02*
X10746253Y-16113531D01*
X10746253Y-16113531D02*
X10727206Y-16142103D01*
X10727206Y-16142103D02*
X10717682Y-16180198D01*
X10717682Y-16180198D02*
X10717682Y-16256388D01*
X10717682Y-16256388D02*
X10727206Y-16275436D01*
X10727206Y-16275436D02*
X10736729Y-16284960D01*
X10736729Y-16284960D02*
X10755777Y-16294484D01*
X10755777Y-16294484D02*
X10793872Y-16294484D01*
X10793872Y-16294484D02*
X10812920Y-16284960D01*
X10812920Y-16284960D02*
X10822444Y-16275436D01*
X10822444Y-16275436D02*
X10831968Y-16256388D01*
X10831968Y-16256388D02*
X10831968Y-16208769D01*
X10831968Y-16208769D02*
X10822444Y-16189722D01*
X10822444Y-16189722D02*
X10812920Y-16180198D01*
X10812920Y-16180198D02*
X10793872Y-16170674D01*
X10793872Y-16170674D02*
X10755777Y-16170674D01*
X10755777Y-16170674D02*
X10736729Y-16180198D01*
X10736729Y-16180198D02*
X10727206Y-16189722D01*
X10727206Y-16189722D02*
X10717682Y-16208769D01*
X10927206Y-16294484D02*
X10965301Y-16294484D01*
X10965301Y-16294484D02*
X10984349Y-16284960D01*
X10984349Y-16284960D02*
X10993872Y-16275436D01*
X10993872Y-16275436D02*
X11012920Y-16246865D01*
X11012920Y-16246865D02*
X11022444Y-16208769D01*
X11022444Y-16208769D02*
X11022444Y-16132579D01*
X11022444Y-16132579D02*
X11012920Y-16113531D01*
X11012920Y-16113531D02*
X11003396Y-16104008D01*
X11003396Y-16104008D02*
X10984349Y-16094484D01*
X10984349Y-16094484D02*
X10946253Y-16094484D01*
X10946253Y-16094484D02*
X10927206Y-16104008D01*
X10927206Y-16104008D02*
X10917682Y-16113531D01*
X10917682Y-16113531D02*
X10908158Y-16132579D01*
X10908158Y-16132579D02*
X10908158Y-16180198D01*
X10908158Y-16180198D02*
X10917682Y-16199246D01*
X10917682Y-16199246D02*
X10927206Y-16208769D01*
X10927206Y-16208769D02*
X10946253Y-16218293D01*
X10946253Y-16218293D02*
X10984349Y-16218293D01*
X10984349Y-16218293D02*
X11003396Y-16208769D01*
X11003396Y-16208769D02*
X11012920Y-16199246D01*
X11012920Y-16199246D02*
X11022444Y-16180198D01*
X11098634Y-16094484D02*
X11098634Y-16132579D01*
X11174825Y-16094484D02*
X11174825Y-16132579D01*
X11470063Y-16370674D02*
X11460539Y-16361150D01*
X11460539Y-16361150D02*
X11441491Y-16332579D01*
X11441491Y-16332579D02*
X11431968Y-16313531D01*
X11431968Y-16313531D02*
X11422444Y-16284960D01*
X11422444Y-16284960D02*
X11412920Y-16237341D01*
X11412920Y-16237341D02*
X11412920Y-16199246D01*
X11412920Y-16199246D02*
X11422444Y-16151627D01*
X11422444Y-16151627D02*
X11431968Y-16123055D01*
X11431968Y-16123055D02*
X11441491Y-16104008D01*
X11441491Y-16104008D02*
X11460539Y-16075436D01*
X11460539Y-16075436D02*
X11470063Y-16065912D01*
X11631968Y-16161150D02*
X11631968Y-16294484D01*
X11584348Y-16084960D02*
X11536729Y-16227817D01*
X11536729Y-16227817D02*
X11660539Y-16227817D01*
X11889110Y-16294484D02*
X11889110Y-16094484D01*
X11974825Y-16294484D02*
X11974825Y-16189722D01*
X11974825Y-16189722D02*
X11965301Y-16170674D01*
X11965301Y-16170674D02*
X11946253Y-16161150D01*
X11946253Y-16161150D02*
X11917682Y-16161150D01*
X11917682Y-16161150D02*
X11898634Y-16170674D01*
X11898634Y-16170674D02*
X11889110Y-16180198D01*
X12098634Y-16294484D02*
X12079587Y-16284960D01*
X12079587Y-16284960D02*
X12070063Y-16275436D01*
X12070063Y-16275436D02*
X12060539Y-16256388D01*
X12060539Y-16256388D02*
X12060539Y-16199246D01*
X12060539Y-16199246D02*
X12070063Y-16180198D01*
X12070063Y-16180198D02*
X12079587Y-16170674D01*
X12079587Y-16170674D02*
X12098634Y-16161150D01*
X12098634Y-16161150D02*
X12127206Y-16161150D01*
X12127206Y-16161150D02*
X12146253Y-16170674D01*
X12146253Y-16170674D02*
X12155777Y-16180198D01*
X12155777Y-16180198D02*
X12165301Y-16199246D01*
X12165301Y-16199246D02*
X12165301Y-16256388D01*
X12165301Y-16256388D02*
X12155777Y-16275436D01*
X12155777Y-16275436D02*
X12146253Y-16284960D01*
X12146253Y-16284960D02*
X12127206Y-16294484D01*
X12127206Y-16294484D02*
X12098634Y-16294484D01*
X12279587Y-16294484D02*
X12260539Y-16284960D01*
X12260539Y-16284960D02*
X12251015Y-16265912D01*
X12251015Y-16265912D02*
X12251015Y-16094484D01*
X12431968Y-16284960D02*
X12412920Y-16294484D01*
X12412920Y-16294484D02*
X12374825Y-16294484D01*
X12374825Y-16294484D02*
X12355777Y-16284960D01*
X12355777Y-16284960D02*
X12346253Y-16265912D01*
X12346253Y-16265912D02*
X12346253Y-16189722D01*
X12346253Y-16189722D02*
X12355777Y-16170674D01*
X12355777Y-16170674D02*
X12374825Y-16161150D01*
X12374825Y-16161150D02*
X12412920Y-16161150D01*
X12412920Y-16161150D02*
X12431968Y-16170674D01*
X12431968Y-16170674D02*
X12441491Y-16189722D01*
X12441491Y-16189722D02*
X12441491Y-16208769D01*
X12441491Y-16208769D02*
X12346253Y-16227817D01*
X12517682Y-16284960D02*
X12536730Y-16294484D01*
X12536730Y-16294484D02*
X12574825Y-16294484D01*
X12574825Y-16294484D02*
X12593872Y-16284960D01*
X12593872Y-16284960D02*
X12603396Y-16265912D01*
X12603396Y-16265912D02*
X12603396Y-16256388D01*
X12603396Y-16256388D02*
X12593872Y-16237341D01*
X12593872Y-16237341D02*
X12574825Y-16227817D01*
X12574825Y-16227817D02*
X12546253Y-16227817D01*
X12546253Y-16227817D02*
X12527206Y-16218293D01*
X12527206Y-16218293D02*
X12517682Y-16199246D01*
X12517682Y-16199246D02*
X12517682Y-16189722D01*
X12517682Y-16189722D02*
X12527206Y-16170674D01*
X12527206Y-16170674D02*
X12546253Y-16161150D01*
X12546253Y-16161150D02*
X12574825Y-16161150D01*
X12574825Y-16161150D02*
X12593872Y-16170674D01*
X12670063Y-16370674D02*
X12679587Y-16361150D01*
X12679587Y-16361150D02*
X12698634Y-16332579D01*
X12698634Y-16332579D02*
X12708158Y-16313531D01*
X12708158Y-16313531D02*
X12717682Y-16284960D01*
X12717682Y-16284960D02*
X12727206Y-16237341D01*
X12727206Y-16237341D02*
X12727206Y-16199246D01*
X12727206Y-16199246D02*
X12717682Y-16151627D01*
X12717682Y-16151627D02*
X12708158Y-16123055D01*
X12708158Y-16123055D02*
X12698634Y-16104008D01*
X12698634Y-16104008D02*
X12679587Y-16075436D01*
X12679587Y-16075436D02*
X12670063Y-16065912D01*
M02*
