M48
; DRILL file {KiCad 8.0.2-1} date 2024-06-14T18:01:20+0200
; FORMAT={-:-/ absolute / inch / decimal}
; #@! TF.CreationDate,2024-06-14T18:01:20+02:00
; #@! TF.GenerationSoftware,Kicad,Pcbnew,8.0.2-1
; #@! TF.FileFunction,Plated,1,4,PTH
FMAT,2
INCH
; #@! TA.AperFunction,Plated,PTH,ViaDrill
T1C0.0079
; #@! TA.AperFunction,Plated,PTH,ComponentDrill
T2C0.0080
; #@! TA.AperFunction,Plated,PTH,ComponentDrill
T3C0.0236
; #@! TA.AperFunction,Plated,PTH,ComponentDrill
T4C0.0354
; #@! TA.AperFunction,Plated,PTH,ComponentDrill
T5C0.0394
; #@! TA.AperFunction,Plated,PTH,ComponentDrill
T6C0.0512
; #@! TA.AperFunction,Plated,PTH,ComponentDrill
T7C0.0591
; #@! TA.AperFunction,Plated,PTH,ComponentDrill
T8C0.0669
%
G90
G05
T1
X3.5591Y-3.878
X3.5906Y-3.7402
X3.6063Y-3.9026
X3.7205Y-3.8543
X3.7638Y-3.685
X3.7717Y-4.0472
X3.8465Y-4.0197
X3.8976Y-5.0906
X3.8976Y-5.1142
X3.8976Y-5.1378
X3.9016Y-3.9331
X3.9055Y-5.1614
X3.9173Y-5.185
X3.9252Y-4.3839
X3.9252Y-4.435
X3.9331Y-5.2047
X3.937Y-5.0906
X3.937Y-5.1142
X3.9409Y-5.1378
X3.9456Y-4.2552
X3.9488Y-5.1614
X3.9528Y-5.2205
X3.9646Y-5.1772
X3.9693Y-4.2552
X3.9724Y-4.3819
X3.9724Y-5.2283
X3.9882Y-5.1929
X3.9961Y-5.2323
X4.0508Y-4.2989
X4.0513Y-4.3205
X4.0549Y-4.2611
X4.0551Y-4.4213
X4.0587Y-4.2398
X4.06Y-4.7
X4.062Y-4.1811
X4.063Y-5.248
X4.0719Y-4.2016
X4.0866Y-5.248
X4.0906Y-4.3189
X4.0984Y-4.1535
X4.0984Y-5.1811
X4.1024Y-4.3652
X4.1102Y-5.248
X4.1105Y-5.0512
X4.122Y-5.1811
X4.1339Y-4.2126
X4.1339Y-4.4528
X4.1339Y-4.8543
X4.1339Y-5.0
X4.1417Y-4.1299
X4.149Y-4.6417
X4.1496Y-4.3307
X4.1496Y-5.3543
X4.1654Y-4.6575
X4.1654Y-5.1811
X4.1807Y-4.642
X4.2008Y-4.6772
X4.2087Y-4.0236
X4.2087Y-4.7008
X4.2362Y-4.4961
X4.2464Y-4.3902
X4.248Y-4.4291
X4.248Y-4.4514
X4.2717Y-5.0433
X4.2792Y-5.2205
X4.28Y-3.96
X4.2807Y-4.4303
X4.281Y-4.055
X4.281Y-4.337
X4.2818Y-4.1824
X4.2821Y-4.4947
X4.2874Y-5.0197
X4.295Y-5.252
X4.311Y-4.4921
X4.3117Y-4.6017
X4.313Y-4.054
X4.313Y-4.3375
X4.315Y-4.4646
X4.3307Y-4.5591
X4.3328Y-4.6955
X4.3437Y-4.4933
X4.3455Y-4.338
X4.3462Y-4.5273
X4.3504Y-4.6811
X4.3543Y-4.5591
X4.3561Y-5.3712
X4.3701Y-5.2598
X4.376Y-4.117
X4.376Y-4.305
X4.3777Y-4.5273
X4.378Y-4.0079
X4.378Y-4.4606
X4.378Y-4.21
X4.3858Y-4.9134
X4.3896Y-4.276
X4.4015Y-4.1585
X4.4016Y-4.8898
X4.402Y-4.5283
X4.406Y-4.213
X4.407Y-4.242
X4.4086Y-4.4615
X4.4173Y-4.5118
X4.424Y-3.912
X4.4331Y-4.8898
X4.439Y-4.306
X4.439Y-4.4
X4.471Y-4.3065
X4.471Y-4.3375
X4.4724Y-4.6535
X4.4724Y-4.8819
X4.5014Y-4.4321
X4.5025Y-4.2425
X4.5025Y-4.274
X4.5025Y-4.306
X4.503Y-4.337
X4.503Y-4.367
X4.5118Y-4.8898
X4.521Y-4.013
X4.5276Y-4.7992
X4.528Y-4.6522
X4.534Y-4.18
X4.5645Y-4.1485
X4.597Y-4.148
X4.5975Y-4.211
X4.6024Y-4.3071
X4.6142Y-5.248
X4.6272Y-4.0523
X4.6272Y-4.1153
X4.6283Y-4.3995
X4.6285Y-4.0835
X4.6285Y-4.181
X4.6299Y-4.0197
X4.6457Y-4.8425
X4.6535Y-3.752
X4.6575Y-3.6024
X4.66Y-4.18
X4.66Y-4.211
X4.66Y-4.274
X4.66Y-4.305
X4.6614Y-4.7795
X4.6654Y-5.2992
X4.6663Y-4.0878
X4.6663Y-4.1421
X4.6887Y-4.1482
X4.69Y-4.306
X4.69Y-4.401
X4.691Y-4.0852
X4.691Y-4.274
X4.691Y-4.339
X4.691Y-4.369
X4.692Y-4.211
X4.7165Y-3.6496
X4.721Y-4.117
X4.721Y-4.339
X4.721Y-4.369
X4.721Y-4.745
X4.7215Y-4.1805
X4.722Y-4.149
X4.722Y-4.401
X4.7224Y-4.085
X4.7226Y-4.2735
X4.723Y-4.055
X4.723Y-4.211
X4.723Y-4.305
X4.7244Y-5.0394
X4.7244Y-5.1969
X4.7425Y-4.7205
X4.764Y-4.745
X4.7717Y-5.3543
X4.7865Y-4.7205
X4.7874Y-3.562
X4.8Y-4.82
X4.809Y-4.109
X4.8189Y-5.1142
X4.824Y-4.938
X4.8258Y-5.2913
X4.8295Y-4.431
X4.83Y-4.071
X4.873Y-4.07
X4.876Y-4.1307
X4.878Y-4.4347
X4.8971Y-3.9711
X4.8989Y-4.4249
X4.9Y-3.85
X4.9Y-5.34
X4.906Y-4.172
X4.9072Y-4.2145
X4.92Y-4.4143
X4.927Y-3.976
X4.9331Y-5.2441
X4.9335Y-3.4917
X4.9355Y-4.3985
X4.937Y-4.129
X4.939Y-4.357
X4.94Y-4.02
X4.9405Y-4.184
X4.9463Y-4.3317
X4.95Y-3.85
X4.9753Y-4.2173
X4.9975Y-4.151
X4.9985Y-4.3823
X5.0Y-3.85
X5.0053Y-5.0093
X5.022Y-4.899
X5.0236Y-5.1614
X5.0236Y-5.1811
X5.0236Y-5.2008
X5.026Y-4.835
X5.03Y-4.3713
X5.032Y-4.94
X5.04Y-3.76
X5.0551Y-3.3307
X5.067Y-4.94
X5.072Y-3.8765
X5.08Y-5.1219
X5.0983Y-3.3258
X5.0983Y-3.3514
X5.108Y-4.7555
X5.108Y-4.788
X5.115Y-4.082
X5.1158Y-4.0502
X5.133Y-4.126
X5.1468Y-4.0497
X5.1478Y-4.0822
X5.1493Y-5.1836
X5.1495Y-5.152
X5.16Y-3.76
X5.172Y-4.836
X5.18Y-3.83
X5.18Y-5.08
X5.186Y-4.65
X5.186Y-4.6915
X5.1903Y-5.1386
X5.191Y-4.1405
X5.197Y-3.934
X5.2Y-5.36
X5.207Y-4.1235
X5.208Y-4.012
X5.2092Y-4.0806
X5.211Y-4.882
X5.219Y-4.696
X5.22Y-4.56
X5.225Y-3.989
X5.2295Y-4.2269
X5.242Y-3.8605
X5.243Y-4.854
X5.247Y-4.003
X5.2505Y-4.2546
X5.252Y-4.696
X5.2533Y-5.2886
X5.2543Y-5.1426
X5.2545Y-3.9455
X5.2551Y-4.227
X5.26Y-3.76
X5.2675Y-3.996
X5.2717Y-3.437
X5.2733Y-4.05
X5.279Y-4.26
X5.287Y-5.2885
X5.296Y-4.2743
X5.3047Y-3.8923
X5.3054Y-3.8618
X5.3065Y-3.9475
X5.3146Y-4.1491
X5.3192Y-4.2472
X5.323Y-4.274
X5.3252Y-4.1262
X5.3289Y-4.006
X5.3346Y-5.2205
X5.3358Y-3.8923
X5.3361Y-4.0499
X5.3366Y-3.8615
X5.352Y-3.941
X5.352Y-4.294
X5.3678Y-4.0018
X5.3681Y-3.86
X5.3768Y-3.9466
X5.38Y-3.814
X5.38Y-4.94
X5.383Y-4.238
X5.3933Y-5.333
X5.3933Y-5.3686
X5.4005Y-3.9305
X5.4125Y-5.3025
X5.4134Y-5.2205
X5.4146Y-4.2112
X5.4155Y-4.0065
X5.4195Y-3.974
X5.421Y-4.273
X5.4306Y-5.0113
X5.445Y-4.003
X5.446Y-4.124
X5.4473Y-4.9011
X5.448Y-5.3025
X5.451Y-4.271
X5.4513Y-4.8371
X5.458Y-3.935
X5.462Y-4.942
X5.4623Y-3.8603
X5.4798Y-4.128
X5.4885Y-3.7331
X5.4923Y-4.9421
X5.494Y-3.828
X5.4941Y-3.86
X5.5125Y-4.548
X5.5125Y-4.577
X5.5156Y-4.1244
X5.522Y-3.8245
X5.5333Y-4.759
X5.5333Y-4.7901
X5.5354Y-4.6811
X5.5395Y-4.5155
X5.54Y-4.46
X5.54Y-4.548
X5.54Y-4.577
X5.54Y-5.089
X5.54Y-5.131
X5.5482Y-4.127
X5.554Y-3.824
X5.5715Y-5.089
X5.5715Y-5.131
X5.58Y-3.72
X5.5816Y-4.1238
X5.5973Y-4.8381
X5.6005Y-3.825
X5.611Y-4.6521
X5.611Y-4.682
X5.636Y-4.6149
X5.6363Y-4.8841
X5.6423Y-4.6941
X5.645Y-4.4569
X5.66Y-3.66
X5.66Y-3.72
X5.66Y-3.8
X5.666Y-4.6149
X5.6683Y-4.8561
X5.677Y-4.4289
X5.68Y-4.32
X5.681Y-4.694
X5.7Y-3.88
X5.7Y-4.86
X5.702Y-4.63
X5.702Y-4.6609
X5.716Y-4.4745
X5.74Y-4.16
X5.74Y-4.22
X5.748Y-5.189
X5.7795Y-4.6299
X5.78Y-4.5229
X5.78Y-4.5429
X5.7953Y-3.9685
X5.821Y-4.3709
X5.85Y-4.7775
X5.852Y-4.3709
X5.862Y-4.4759
X5.866Y-4.4115
X5.8827Y-4.3016
X5.9094Y-3.6417
X5.94Y-4.36
X5.94Y-4.4
X5.96Y-4.68
X6.0591Y-3.8465
X6.0709Y-3.5157
X6.2362Y-3.6339
X6.252Y-3.8268
X6.3465Y-3.4606
X6.3661Y-3.7795
X6.4764Y-3.4803
X6.4843Y-3.7638
T2
X5.0983Y-4.8688
X5.0983Y-4.9082
X5.118Y-4.8885
X5.1377Y-4.8688
X5.1377Y-4.9082
X5.1811Y-5.2149
X5.1811Y-5.2543
X5.2008Y-5.2346
X5.2205Y-5.2149
X5.2205Y-5.2543
X5.5236Y-4.8709
X5.5236Y-4.9102
X5.5433Y-4.8906
X5.563Y-4.8709
X5.563Y-4.9102
X5.7503Y-4.4027
X5.7503Y-4.4421
X5.77Y-4.4224
X5.7897Y-4.4027
X5.7897Y-4.4421
T4
X5.9921Y-3.6929
X5.9921Y-3.7913
X5.9921Y-3.8701
X5.9921Y-3.9685
X5.9994Y-4.9291
X5.9994Y-5.0276
X5.9994Y-5.1063
X5.9994Y-5.2047
T5
X3.7567Y-3.4331
X3.8567Y-3.4331
X3.9567Y-3.4331
X4.0567Y-3.4331
X4.1567Y-3.4331
X4.2567Y-3.4331
X4.3567Y-3.4331
X4.4567Y-3.4331
X4.5567Y-3.4331
X4.6567Y-3.4331
X5.3575Y-3.4331
X5.4575Y-3.4331
X5.5575Y-3.4331
X5.6575Y-3.4331
X5.7575Y-3.4331
X5.8575Y-3.4331
X5.9575Y-3.4331
X6.0575Y-3.4331
X6.1457Y-3.5874
X6.1457Y-3.6874
X6.1457Y-3.7874
T7
X3.9173Y-5.0236
T8
X3.8173Y-4.9236
X3.8173Y-5.1236
X4.0173Y-4.9236
X4.0173Y-5.1236
T3
G00X6.4043Y-3.4488
M15
G01X6.4476Y-3.4488
M16
G05
G00X6.4043Y-3.789
M15
G01X6.4476Y-3.789
M16
G05
G00X6.5748Y-3.4488
M15
G01X6.6063Y-3.4488
M16
G05
G00X6.5748Y-3.789
M15
G01X6.6063Y-3.789
M16
G05
T6
G00X5.8039Y-3.8504
M15
G01X5.8039Y-3.811
M16
G05
G00X5.8112Y-5.0866
M15
G01X5.8112Y-5.0472
M16
G05
G00X5.9488Y-3.572
M15
G01X5.9882Y-3.572
M16
G05
G00X5.9882Y-4.0894
M15
G01X5.9488Y-4.0894
M16
G05
G00X5.9561Y-4.8083
M15
G01X5.9955Y-4.8083
M16
G05
G00X5.9955Y-5.3256
M15
G01X5.9561Y-5.3256
M16
G05
M30
