%TF.GenerationSoftware,KiCad,Pcbnew,8.0.6*%
%TF.CreationDate,2024-12-25T08:51:45-08:00*%
%TF.ProjectId,hardware,68617264-7761-4726-952e-6b696361645f,rev?*%
%TF.SameCoordinates,Original*%
%TF.FileFunction,Legend,Top*%
%TF.FilePolarity,Positive*%
%FSLAX46Y46*%
G04 Gerber Fmt 4.6, Leading zero omitted, Abs format (unit mm)*
G04 Created by KiCad (PCBNEW 8.0.6) date 2024-12-25 08:51:45*
%MOMM*%
%LPD*%
G01*
G04 APERTURE LIST*
%ADD10C,0.120000*%
%ADD11C,0.300000*%
%ADD12C,0.150000*%
%ADD13C,0.203200*%
%ADD14C,0.250000*%
G04 APERTURE END LIST*
D10*
X140970000Y-128270000D02*
X140335000Y-127825500D01*
X102870000Y-107950000D02*
X102870000Y-109347000D01*
X140335000Y-127825500D02*
X140335000Y-128079500D01*
X103251000Y-107950000D02*
X102870000Y-107950000D01*
X127055880Y-134391400D02*
X128021080Y-132562600D01*
X140335000Y-127825500D02*
X140589000Y-127762000D01*
D11*
X137295489Y-92399801D02*
X137795489Y-92399801D01*
X137795489Y-91614087D02*
X137795489Y-93114087D01*
X137795489Y-93114087D02*
X137081203Y-93114087D01*
X136295489Y-91614087D02*
X136438346Y-91685516D01*
X136438346Y-91685516D02*
X136509775Y-91828373D01*
X136509775Y-91828373D02*
X136509775Y-93114087D01*
X135724061Y-91614087D02*
X135724061Y-92614087D01*
X135724061Y-93114087D02*
X135795489Y-93042658D01*
X135795489Y-93042658D02*
X135724061Y-92971230D01*
X135724061Y-92971230D02*
X135652632Y-93042658D01*
X135652632Y-93042658D02*
X135724061Y-93114087D01*
X135724061Y-93114087D02*
X135724061Y-92971230D01*
X135009775Y-92614087D02*
X135009775Y-91114087D01*
X135009775Y-92542658D02*
X134866918Y-92614087D01*
X134866918Y-92614087D02*
X134581203Y-92614087D01*
X134581203Y-92614087D02*
X134438346Y-92542658D01*
X134438346Y-92542658D02*
X134366918Y-92471230D01*
X134366918Y-92471230D02*
X134295489Y-92328373D01*
X134295489Y-92328373D02*
X134295489Y-91899801D01*
X134295489Y-91899801D02*
X134366918Y-91756944D01*
X134366918Y-91756944D02*
X134438346Y-91685516D01*
X134438346Y-91685516D02*
X134581203Y-91614087D01*
X134581203Y-91614087D02*
X134866918Y-91614087D01*
X134866918Y-91614087D02*
X135009775Y-91685516D01*
X133652632Y-92614087D02*
X133652632Y-91114087D01*
X133652632Y-92542658D02*
X133509775Y-92614087D01*
X133509775Y-92614087D02*
X133224060Y-92614087D01*
X133224060Y-92614087D02*
X133081203Y-92542658D01*
X133081203Y-92542658D02*
X133009775Y-92471230D01*
X133009775Y-92471230D02*
X132938346Y-92328373D01*
X132938346Y-92328373D02*
X132938346Y-91899801D01*
X132938346Y-91899801D02*
X133009775Y-91756944D01*
X133009775Y-91756944D02*
X133081203Y-91685516D01*
X133081203Y-91685516D02*
X133224060Y-91614087D01*
X133224060Y-91614087D02*
X133509775Y-91614087D01*
X133509775Y-91614087D02*
X133652632Y-91685516D01*
X131724060Y-91685516D02*
X131866917Y-91614087D01*
X131866917Y-91614087D02*
X132152632Y-91614087D01*
X132152632Y-91614087D02*
X132295489Y-91685516D01*
X132295489Y-91685516D02*
X132366917Y-91828373D01*
X132366917Y-91828373D02*
X132366917Y-92399801D01*
X132366917Y-92399801D02*
X132295489Y-92542658D01*
X132295489Y-92542658D02*
X132152632Y-92614087D01*
X132152632Y-92614087D02*
X131866917Y-92614087D01*
X131866917Y-92614087D02*
X131724060Y-92542658D01*
X131724060Y-92542658D02*
X131652632Y-92399801D01*
X131652632Y-92399801D02*
X131652632Y-92256944D01*
X131652632Y-92256944D02*
X132366917Y-92114087D01*
X131009775Y-91614087D02*
X131009775Y-92614087D01*
X131009775Y-92328373D02*
X130938346Y-92471230D01*
X130938346Y-92471230D02*
X130866918Y-92542658D01*
X130866918Y-92542658D02*
X130724060Y-92614087D01*
X130724060Y-92614087D02*
X130581203Y-92614087D01*
X128438347Y-92399801D02*
X128224061Y-92328373D01*
X128224061Y-92328373D02*
X128152632Y-92256944D01*
X128152632Y-92256944D02*
X128081204Y-92114087D01*
X128081204Y-92114087D02*
X128081204Y-91899801D01*
X128081204Y-91899801D02*
X128152632Y-91756944D01*
X128152632Y-91756944D02*
X128224061Y-91685516D01*
X128224061Y-91685516D02*
X128366918Y-91614087D01*
X128366918Y-91614087D02*
X128938347Y-91614087D01*
X128938347Y-91614087D02*
X128938347Y-93114087D01*
X128938347Y-93114087D02*
X128438347Y-93114087D01*
X128438347Y-93114087D02*
X128295490Y-93042658D01*
X128295490Y-93042658D02*
X128224061Y-92971230D01*
X128224061Y-92971230D02*
X128152632Y-92828373D01*
X128152632Y-92828373D02*
X128152632Y-92685516D01*
X128152632Y-92685516D02*
X128224061Y-92542658D01*
X128224061Y-92542658D02*
X128295490Y-92471230D01*
X128295490Y-92471230D02*
X128438347Y-92399801D01*
X128438347Y-92399801D02*
X128938347Y-92399801D01*
X127224061Y-91614087D02*
X127366918Y-91685516D01*
X127366918Y-91685516D02*
X127438347Y-91828373D01*
X127438347Y-91828373D02*
X127438347Y-93114087D01*
X126009776Y-91614087D02*
X126009776Y-92399801D01*
X126009776Y-92399801D02*
X126081204Y-92542658D01*
X126081204Y-92542658D02*
X126224061Y-92614087D01*
X126224061Y-92614087D02*
X126509776Y-92614087D01*
X126509776Y-92614087D02*
X126652633Y-92542658D01*
X126009776Y-91685516D02*
X126152633Y-91614087D01*
X126152633Y-91614087D02*
X126509776Y-91614087D01*
X126509776Y-91614087D02*
X126652633Y-91685516D01*
X126652633Y-91685516D02*
X126724061Y-91828373D01*
X126724061Y-91828373D02*
X126724061Y-91971230D01*
X126724061Y-91971230D02*
X126652633Y-92114087D01*
X126652633Y-92114087D02*
X126509776Y-92185516D01*
X126509776Y-92185516D02*
X126152633Y-92185516D01*
X126152633Y-92185516D02*
X126009776Y-92256944D01*
X124652633Y-91685516D02*
X124795490Y-91614087D01*
X124795490Y-91614087D02*
X125081204Y-91614087D01*
X125081204Y-91614087D02*
X125224061Y-91685516D01*
X125224061Y-91685516D02*
X125295490Y-91756944D01*
X125295490Y-91756944D02*
X125366918Y-91899801D01*
X125366918Y-91899801D02*
X125366918Y-92328373D01*
X125366918Y-92328373D02*
X125295490Y-92471230D01*
X125295490Y-92471230D02*
X125224061Y-92542658D01*
X125224061Y-92542658D02*
X125081204Y-92614087D01*
X125081204Y-92614087D02*
X124795490Y-92614087D01*
X124795490Y-92614087D02*
X124652633Y-92542658D01*
X124009776Y-91614087D02*
X124009776Y-93114087D01*
X123866919Y-92185516D02*
X123438347Y-91614087D01*
X123438347Y-92614087D02*
X124009776Y-92042658D01*
X122795490Y-91614087D02*
X122795490Y-93114087D01*
X122152633Y-91614087D02*
X122152633Y-92399801D01*
X122152633Y-92399801D02*
X122224061Y-92542658D01*
X122224061Y-92542658D02*
X122366918Y-92614087D01*
X122366918Y-92614087D02*
X122581204Y-92614087D01*
X122581204Y-92614087D02*
X122724061Y-92542658D01*
X122724061Y-92542658D02*
X122795490Y-92471230D01*
X120795490Y-91614087D02*
X120795490Y-92399801D01*
X120795490Y-92399801D02*
X120866918Y-92542658D01*
X120866918Y-92542658D02*
X121009775Y-92614087D01*
X121009775Y-92614087D02*
X121295490Y-92614087D01*
X121295490Y-92614087D02*
X121438347Y-92542658D01*
X120795490Y-91685516D02*
X120938347Y-91614087D01*
X120938347Y-91614087D02*
X121295490Y-91614087D01*
X121295490Y-91614087D02*
X121438347Y-91685516D01*
X121438347Y-91685516D02*
X121509775Y-91828373D01*
X121509775Y-91828373D02*
X121509775Y-91971230D01*
X121509775Y-91971230D02*
X121438347Y-92114087D01*
X121438347Y-92114087D02*
X121295490Y-92185516D01*
X121295490Y-92185516D02*
X120938347Y-92185516D01*
X120938347Y-92185516D02*
X120795490Y-92256944D01*
X120295489Y-92614087D02*
X119724061Y-92614087D01*
X120081204Y-93114087D02*
X120081204Y-91828373D01*
X120081204Y-91828373D02*
X120009775Y-91685516D01*
X120009775Y-91685516D02*
X119866918Y-91614087D01*
X119866918Y-91614087D02*
X119724061Y-91614087D01*
X117224061Y-91614087D02*
X117724061Y-92328373D01*
X118081204Y-91614087D02*
X118081204Y-93114087D01*
X118081204Y-93114087D02*
X117509775Y-93114087D01*
X117509775Y-93114087D02*
X117366918Y-93042658D01*
X117366918Y-93042658D02*
X117295489Y-92971230D01*
X117295489Y-92971230D02*
X117224061Y-92828373D01*
X117224061Y-92828373D02*
X117224061Y-92614087D01*
X117224061Y-92614087D02*
X117295489Y-92471230D01*
X117295489Y-92471230D02*
X117366918Y-92399801D01*
X117366918Y-92399801D02*
X117509775Y-92328373D01*
X117509775Y-92328373D02*
X118081204Y-92328373D01*
X116652632Y-92971230D02*
X116581204Y-93042658D01*
X116581204Y-93042658D02*
X116438347Y-93114087D01*
X116438347Y-93114087D02*
X116081204Y-93114087D01*
X116081204Y-93114087D02*
X115938347Y-93042658D01*
X115938347Y-93042658D02*
X115866918Y-92971230D01*
X115866918Y-92971230D02*
X115795489Y-92828373D01*
X115795489Y-92828373D02*
X115795489Y-92685516D01*
X115795489Y-92685516D02*
X115866918Y-92471230D01*
X115866918Y-92471230D02*
X116724061Y-91614087D01*
X116724061Y-91614087D02*
X115795489Y-91614087D01*
X136938346Y-89199171D02*
X137438346Y-89913457D01*
X137795489Y-89199171D02*
X137795489Y-90699171D01*
X137795489Y-90699171D02*
X137224060Y-90699171D01*
X137224060Y-90699171D02*
X137081203Y-90627742D01*
X137081203Y-90627742D02*
X137009774Y-90556314D01*
X137009774Y-90556314D02*
X136938346Y-90413457D01*
X136938346Y-90413457D02*
X136938346Y-90199171D01*
X136938346Y-90199171D02*
X137009774Y-90056314D01*
X137009774Y-90056314D02*
X137081203Y-89984885D01*
X137081203Y-89984885D02*
X137224060Y-89913457D01*
X137224060Y-89913457D02*
X137795489Y-89913457D01*
X136081203Y-89199171D02*
X136224060Y-89270600D01*
X136224060Y-89270600D02*
X136295489Y-89342028D01*
X136295489Y-89342028D02*
X136366917Y-89484885D01*
X136366917Y-89484885D02*
X136366917Y-89913457D01*
X136366917Y-89913457D02*
X136295489Y-90056314D01*
X136295489Y-90056314D02*
X136224060Y-90127742D01*
X136224060Y-90127742D02*
X136081203Y-90199171D01*
X136081203Y-90199171D02*
X135866917Y-90199171D01*
X135866917Y-90199171D02*
X135724060Y-90127742D01*
X135724060Y-90127742D02*
X135652632Y-90056314D01*
X135652632Y-90056314D02*
X135581203Y-89913457D01*
X135581203Y-89913457D02*
X135581203Y-89484885D01*
X135581203Y-89484885D02*
X135652632Y-89342028D01*
X135652632Y-89342028D02*
X135724060Y-89270600D01*
X135724060Y-89270600D02*
X135866917Y-89199171D01*
X135866917Y-89199171D02*
X136081203Y-89199171D01*
X134724060Y-89199171D02*
X134866917Y-89270600D01*
X134866917Y-89270600D02*
X134938346Y-89342028D01*
X134938346Y-89342028D02*
X135009774Y-89484885D01*
X135009774Y-89484885D02*
X135009774Y-89913457D01*
X135009774Y-89913457D02*
X134938346Y-90056314D01*
X134938346Y-90056314D02*
X134866917Y-90127742D01*
X134866917Y-90127742D02*
X134724060Y-90199171D01*
X134724060Y-90199171D02*
X134509774Y-90199171D01*
X134509774Y-90199171D02*
X134366917Y-90127742D01*
X134366917Y-90127742D02*
X134295489Y-90056314D01*
X134295489Y-90056314D02*
X134224060Y-89913457D01*
X134224060Y-89913457D02*
X134224060Y-89484885D01*
X134224060Y-89484885D02*
X134295489Y-89342028D01*
X134295489Y-89342028D02*
X134366917Y-89270600D01*
X134366917Y-89270600D02*
X134509774Y-89199171D01*
X134509774Y-89199171D02*
X134724060Y-89199171D01*
X133795488Y-90199171D02*
X133224060Y-90199171D01*
X133581203Y-90699171D02*
X133581203Y-89413457D01*
X133581203Y-89413457D02*
X133509774Y-89270600D01*
X133509774Y-89270600D02*
X133366917Y-89199171D01*
X133366917Y-89199171D02*
X133224060Y-89199171D01*
X132724060Y-89199171D02*
X132724060Y-90699171D01*
X132581203Y-89770600D02*
X132152631Y-89199171D01*
X132152631Y-90199171D02*
X132724060Y-89627742D01*
X131509774Y-89199171D02*
X131509774Y-90199171D01*
X131509774Y-90699171D02*
X131581202Y-90627742D01*
X131581202Y-90627742D02*
X131509774Y-90556314D01*
X131509774Y-90556314D02*
X131438345Y-90627742D01*
X131438345Y-90627742D02*
X131509774Y-90699171D01*
X131509774Y-90699171D02*
X131509774Y-90556314D01*
X131009773Y-90199171D02*
X130438345Y-90199171D01*
X130795488Y-90699171D02*
X130795488Y-89413457D01*
X130795488Y-89413457D02*
X130724059Y-89270600D01*
X130724059Y-89270600D02*
X130581202Y-89199171D01*
X130581202Y-89199171D02*
X130438345Y-89199171D01*
X129724059Y-89199171D02*
X129866916Y-89270600D01*
X129866916Y-89270600D02*
X129938345Y-89413457D01*
X129938345Y-89413457D02*
X129938345Y-90699171D01*
X128509774Y-89199171D02*
X128509774Y-89984885D01*
X128509774Y-89984885D02*
X128581202Y-90127742D01*
X128581202Y-90127742D02*
X128724059Y-90199171D01*
X128724059Y-90199171D02*
X129009774Y-90199171D01*
X129009774Y-90199171D02*
X129152631Y-90127742D01*
X128509774Y-89270600D02*
X128652631Y-89199171D01*
X128652631Y-89199171D02*
X129009774Y-89199171D01*
X129009774Y-89199171D02*
X129152631Y-89270600D01*
X129152631Y-89270600D02*
X129224059Y-89413457D01*
X129224059Y-89413457D02*
X129224059Y-89556314D01*
X129224059Y-89556314D02*
X129152631Y-89699171D01*
X129152631Y-89699171D02*
X129009774Y-89770600D01*
X129009774Y-89770600D02*
X128652631Y-89770600D01*
X128652631Y-89770600D02*
X128509774Y-89842028D01*
X127795488Y-89199171D02*
X127795488Y-90699171D01*
X127795488Y-90127742D02*
X127652631Y-90199171D01*
X127652631Y-90199171D02*
X127366916Y-90199171D01*
X127366916Y-90199171D02*
X127224059Y-90127742D01*
X127224059Y-90127742D02*
X127152631Y-90056314D01*
X127152631Y-90056314D02*
X127081202Y-89913457D01*
X127081202Y-89913457D02*
X127081202Y-89484885D01*
X127081202Y-89484885D02*
X127152631Y-89342028D01*
X127152631Y-89342028D02*
X127224059Y-89270600D01*
X127224059Y-89270600D02*
X127366916Y-89199171D01*
X127366916Y-89199171D02*
X127652631Y-89199171D01*
X127652631Y-89199171D02*
X127795488Y-89270600D01*
X126509773Y-89270600D02*
X126366916Y-89199171D01*
X126366916Y-89199171D02*
X126081202Y-89199171D01*
X126081202Y-89199171D02*
X125938345Y-89270600D01*
X125938345Y-89270600D02*
X125866916Y-89413457D01*
X125866916Y-89413457D02*
X125866916Y-89484885D01*
X125866916Y-89484885D02*
X125938345Y-89627742D01*
X125938345Y-89627742D02*
X126081202Y-89699171D01*
X126081202Y-89699171D02*
X126295488Y-89699171D01*
X126295488Y-89699171D02*
X126438345Y-89770600D01*
X126438345Y-89770600D02*
X126509773Y-89913457D01*
X126509773Y-89913457D02*
X126509773Y-89984885D01*
X126509773Y-89984885D02*
X126438345Y-90127742D01*
X126438345Y-90127742D02*
X126295488Y-90199171D01*
X126295488Y-90199171D02*
X126081202Y-90199171D01*
X126081202Y-90199171D02*
X125938345Y-90127742D01*
X125224059Y-89342028D02*
X125152630Y-89270600D01*
X125152630Y-89270600D02*
X125224059Y-89199171D01*
X125224059Y-89199171D02*
X125295487Y-89270600D01*
X125295487Y-89270600D02*
X125224059Y-89342028D01*
X125224059Y-89342028D02*
X125224059Y-89199171D01*
X123866916Y-89270600D02*
X124009773Y-89199171D01*
X124009773Y-89199171D02*
X124295487Y-89199171D01*
X124295487Y-89199171D02*
X124438344Y-89270600D01*
X124438344Y-89270600D02*
X124509773Y-89342028D01*
X124509773Y-89342028D02*
X124581201Y-89484885D01*
X124581201Y-89484885D02*
X124581201Y-89913457D01*
X124581201Y-89913457D02*
X124509773Y-90056314D01*
X124509773Y-90056314D02*
X124438344Y-90127742D01*
X124438344Y-90127742D02*
X124295487Y-90199171D01*
X124295487Y-90199171D02*
X124009773Y-90199171D01*
X124009773Y-90199171D02*
X123866916Y-90127742D01*
X123009773Y-89199171D02*
X123152630Y-89270600D01*
X123152630Y-89270600D02*
X123224059Y-89342028D01*
X123224059Y-89342028D02*
X123295487Y-89484885D01*
X123295487Y-89484885D02*
X123295487Y-89913457D01*
X123295487Y-89913457D02*
X123224059Y-90056314D01*
X123224059Y-90056314D02*
X123152630Y-90127742D01*
X123152630Y-90127742D02*
X123009773Y-90199171D01*
X123009773Y-90199171D02*
X122795487Y-90199171D01*
X122795487Y-90199171D02*
X122652630Y-90127742D01*
X122652630Y-90127742D02*
X122581202Y-90056314D01*
X122581202Y-90056314D02*
X122509773Y-89913457D01*
X122509773Y-89913457D02*
X122509773Y-89484885D01*
X122509773Y-89484885D02*
X122581202Y-89342028D01*
X122581202Y-89342028D02*
X122652630Y-89270600D01*
X122652630Y-89270600D02*
X122795487Y-89199171D01*
X122795487Y-89199171D02*
X123009773Y-89199171D01*
X121866916Y-89199171D02*
X121866916Y-90199171D01*
X121866916Y-90056314D02*
X121795487Y-90127742D01*
X121795487Y-90127742D02*
X121652630Y-90199171D01*
X121652630Y-90199171D02*
X121438344Y-90199171D01*
X121438344Y-90199171D02*
X121295487Y-90127742D01*
X121295487Y-90127742D02*
X121224059Y-89984885D01*
X121224059Y-89984885D02*
X121224059Y-89199171D01*
X121224059Y-89984885D02*
X121152630Y-90127742D01*
X121152630Y-90127742D02*
X121009773Y-90199171D01*
X121009773Y-90199171D02*
X120795487Y-90199171D01*
X120795487Y-90199171D02*
X120652630Y-90127742D01*
X120652630Y-90127742D02*
X120581201Y-89984885D01*
X120581201Y-89984885D02*
X120581201Y-89199171D01*
D12*
X130766666Y-128189095D02*
X130385714Y-128189095D01*
X130385714Y-128189095D02*
X130385714Y-127389095D01*
X131376190Y-127655761D02*
X131376190Y-128189095D01*
X131185714Y-127351000D02*
X130995237Y-127922428D01*
X130995237Y-127922428D02*
X131490476Y-127922428D01*
X136462295Y-119033333D02*
X136462295Y-119414285D01*
X136462295Y-119414285D02*
X135662295Y-119414285D01*
X135662295Y-118842857D02*
X135662295Y-118347619D01*
X135662295Y-118347619D02*
X135967057Y-118614285D01*
X135967057Y-118614285D02*
X135967057Y-118500000D01*
X135967057Y-118500000D02*
X136005152Y-118423809D01*
X136005152Y-118423809D02*
X136043247Y-118385714D01*
X136043247Y-118385714D02*
X136119438Y-118347619D01*
X136119438Y-118347619D02*
X136309914Y-118347619D01*
X136309914Y-118347619D02*
X136386104Y-118385714D01*
X136386104Y-118385714D02*
X136424200Y-118423809D01*
X136424200Y-118423809D02*
X136462295Y-118500000D01*
X136462295Y-118500000D02*
X136462295Y-118728571D01*
X136462295Y-118728571D02*
X136424200Y-118804762D01*
X136424200Y-118804762D02*
X136386104Y-118842857D01*
X122462295Y-122393933D02*
X122462295Y-122774885D01*
X122462295Y-122774885D02*
X121662295Y-122774885D01*
X121738485Y-122165362D02*
X121700390Y-122127266D01*
X121700390Y-122127266D02*
X121662295Y-122051076D01*
X121662295Y-122051076D02*
X121662295Y-121860600D01*
X121662295Y-121860600D02*
X121700390Y-121784409D01*
X121700390Y-121784409D02*
X121738485Y-121746314D01*
X121738485Y-121746314D02*
X121814676Y-121708219D01*
X121814676Y-121708219D02*
X121890866Y-121708219D01*
X121890866Y-121708219D02*
X122005152Y-121746314D01*
X122005152Y-121746314D02*
X122462295Y-122203457D01*
X122462295Y-122203457D02*
X122462295Y-121708219D01*
X152337704Y-111066666D02*
X152337704Y-110685714D01*
X152337704Y-110685714D02*
X153137704Y-110685714D01*
X152337704Y-111752380D02*
X152337704Y-111295237D01*
X152337704Y-111523809D02*
X153137704Y-111523809D01*
X153137704Y-111523809D02*
X153023419Y-111447618D01*
X153023419Y-111447618D02*
X152947228Y-111371428D01*
X152947228Y-111371428D02*
X152909133Y-111295237D01*
X148805976Y-110877795D02*
X148805976Y-111525414D01*
X148805976Y-111525414D02*
X148844071Y-111601604D01*
X148844071Y-111601604D02*
X148882166Y-111639700D01*
X148882166Y-111639700D02*
X148958357Y-111677795D01*
X148958357Y-111677795D02*
X149110738Y-111677795D01*
X149110738Y-111677795D02*
X149186928Y-111639700D01*
X149186928Y-111639700D02*
X149225023Y-111601604D01*
X149225023Y-111601604D02*
X149263119Y-111525414D01*
X149263119Y-111525414D02*
X149263119Y-110877795D01*
X149567880Y-110877795D02*
X150063118Y-110877795D01*
X150063118Y-110877795D02*
X149796452Y-111182557D01*
X149796452Y-111182557D02*
X149910737Y-111182557D01*
X149910737Y-111182557D02*
X149986928Y-111220652D01*
X149986928Y-111220652D02*
X150025023Y-111258747D01*
X150025023Y-111258747D02*
X150063118Y-111334938D01*
X150063118Y-111334938D02*
X150063118Y-111525414D01*
X150063118Y-111525414D02*
X150025023Y-111601604D01*
X150025023Y-111601604D02*
X149986928Y-111639700D01*
X149986928Y-111639700D02*
X149910737Y-111677795D01*
X149910737Y-111677795D02*
X149682166Y-111677795D01*
X149682166Y-111677795D02*
X149605975Y-111639700D01*
X149605975Y-111639700D02*
X149567880Y-111601604D01*
X130200476Y-129927795D02*
X130200476Y-130575414D01*
X130200476Y-130575414D02*
X130238571Y-130651604D01*
X130238571Y-130651604D02*
X130276666Y-130689700D01*
X130276666Y-130689700D02*
X130352857Y-130727795D01*
X130352857Y-130727795D02*
X130505238Y-130727795D01*
X130505238Y-130727795D02*
X130581428Y-130689700D01*
X130581428Y-130689700D02*
X130619523Y-130651604D01*
X130619523Y-130651604D02*
X130657619Y-130575414D01*
X130657619Y-130575414D02*
X130657619Y-129927795D01*
X131381428Y-129927795D02*
X131229047Y-129927795D01*
X131229047Y-129927795D02*
X131152856Y-129965890D01*
X131152856Y-129965890D02*
X131114761Y-130003985D01*
X131114761Y-130003985D02*
X131038571Y-130118271D01*
X131038571Y-130118271D02*
X131000475Y-130270652D01*
X131000475Y-130270652D02*
X131000475Y-130575414D01*
X131000475Y-130575414D02*
X131038571Y-130651604D01*
X131038571Y-130651604D02*
X131076666Y-130689700D01*
X131076666Y-130689700D02*
X131152856Y-130727795D01*
X131152856Y-130727795D02*
X131305237Y-130727795D01*
X131305237Y-130727795D02*
X131381428Y-130689700D01*
X131381428Y-130689700D02*
X131419523Y-130651604D01*
X131419523Y-130651604D02*
X131457618Y-130575414D01*
X131457618Y-130575414D02*
X131457618Y-130384938D01*
X131457618Y-130384938D02*
X131419523Y-130308747D01*
X131419523Y-130308747D02*
X131381428Y-130270652D01*
X131381428Y-130270652D02*
X131305237Y-130232557D01*
X131305237Y-130232557D02*
X131152856Y-130232557D01*
X131152856Y-130232557D02*
X131076666Y-130270652D01*
X131076666Y-130270652D02*
X131038571Y-130308747D01*
X131038571Y-130308747D02*
X131000475Y-130384938D01*
X137375976Y-125165295D02*
X137375976Y-125812914D01*
X137375976Y-125812914D02*
X137414071Y-125889104D01*
X137414071Y-125889104D02*
X137452166Y-125927200D01*
X137452166Y-125927200D02*
X137528357Y-125965295D01*
X137528357Y-125965295D02*
X137680738Y-125965295D01*
X137680738Y-125965295D02*
X137756928Y-125927200D01*
X137756928Y-125927200D02*
X137795023Y-125889104D01*
X137795023Y-125889104D02*
X137833119Y-125812914D01*
X137833119Y-125812914D02*
X137833119Y-125165295D01*
X138595023Y-125165295D02*
X138214071Y-125165295D01*
X138214071Y-125165295D02*
X138175975Y-125546247D01*
X138175975Y-125546247D02*
X138214071Y-125508152D01*
X138214071Y-125508152D02*
X138290261Y-125470057D01*
X138290261Y-125470057D02*
X138480737Y-125470057D01*
X138480737Y-125470057D02*
X138556928Y-125508152D01*
X138556928Y-125508152D02*
X138595023Y-125546247D01*
X138595023Y-125546247D02*
X138633118Y-125622438D01*
X138633118Y-125622438D02*
X138633118Y-125812914D01*
X138633118Y-125812914D02*
X138595023Y-125889104D01*
X138595023Y-125889104D02*
X138556928Y-125927200D01*
X138556928Y-125927200D02*
X138480737Y-125965295D01*
X138480737Y-125965295D02*
X138290261Y-125965295D01*
X138290261Y-125965295D02*
X138214071Y-125927200D01*
X138214071Y-125927200D02*
X138175975Y-125889104D01*
X119948992Y-116678295D02*
X119948992Y-117325914D01*
X119948992Y-117325914D02*
X119987087Y-117402104D01*
X119987087Y-117402104D02*
X120025182Y-117440200D01*
X120025182Y-117440200D02*
X120101373Y-117478295D01*
X120101373Y-117478295D02*
X120253754Y-117478295D01*
X120253754Y-117478295D02*
X120329944Y-117440200D01*
X120329944Y-117440200D02*
X120368039Y-117402104D01*
X120368039Y-117402104D02*
X120406135Y-117325914D01*
X120406135Y-117325914D02*
X120406135Y-116678295D01*
X120748991Y-116754485D02*
X120787087Y-116716390D01*
X120787087Y-116716390D02*
X120863277Y-116678295D01*
X120863277Y-116678295D02*
X121053753Y-116678295D01*
X121053753Y-116678295D02*
X121129944Y-116716390D01*
X121129944Y-116716390D02*
X121168039Y-116754485D01*
X121168039Y-116754485D02*
X121206134Y-116830676D01*
X121206134Y-116830676D02*
X121206134Y-116906866D01*
X121206134Y-116906866D02*
X121168039Y-117021152D01*
X121168039Y-117021152D02*
X120710896Y-117478295D01*
X120710896Y-117478295D02*
X121206134Y-117478295D01*
X140011167Y-92372195D02*
X139744500Y-91991242D01*
X139554024Y-92372195D02*
X139554024Y-91572195D01*
X139554024Y-91572195D02*
X139858786Y-91572195D01*
X139858786Y-91572195D02*
X139934976Y-91610290D01*
X139934976Y-91610290D02*
X139973071Y-91648385D01*
X139973071Y-91648385D02*
X140011167Y-91724576D01*
X140011167Y-91724576D02*
X140011167Y-91838861D01*
X140011167Y-91838861D02*
X139973071Y-91915052D01*
X139973071Y-91915052D02*
X139934976Y-91953147D01*
X139934976Y-91953147D02*
X139858786Y-91991242D01*
X139858786Y-91991242D02*
X139554024Y-91991242D01*
X140773071Y-92372195D02*
X140315928Y-92372195D01*
X140544500Y-92372195D02*
X140544500Y-91572195D01*
X140544500Y-91572195D02*
X140468309Y-91686480D01*
X140468309Y-91686480D02*
X140392119Y-91762671D01*
X140392119Y-91762671D02*
X140315928Y-91800766D01*
X141955767Y-92368295D02*
X141689100Y-91987342D01*
X141498624Y-92368295D02*
X141498624Y-91568295D01*
X141498624Y-91568295D02*
X141803386Y-91568295D01*
X141803386Y-91568295D02*
X141879576Y-91606390D01*
X141879576Y-91606390D02*
X141917671Y-91644485D01*
X141917671Y-91644485D02*
X141955767Y-91720676D01*
X141955767Y-91720676D02*
X141955767Y-91834961D01*
X141955767Y-91834961D02*
X141917671Y-91911152D01*
X141917671Y-91911152D02*
X141879576Y-91949247D01*
X141879576Y-91949247D02*
X141803386Y-91987342D01*
X141803386Y-91987342D02*
X141498624Y-91987342D01*
X142260528Y-91644485D02*
X142298624Y-91606390D01*
X142298624Y-91606390D02*
X142374814Y-91568295D01*
X142374814Y-91568295D02*
X142565290Y-91568295D01*
X142565290Y-91568295D02*
X142641481Y-91606390D01*
X142641481Y-91606390D02*
X142679576Y-91644485D01*
X142679576Y-91644485D02*
X142717671Y-91720676D01*
X142717671Y-91720676D02*
X142717671Y-91796866D01*
X142717671Y-91796866D02*
X142679576Y-91911152D01*
X142679576Y-91911152D02*
X142222433Y-92368295D01*
X142222433Y-92368295D02*
X142717671Y-92368295D01*
X112769667Y-99600104D02*
X112731571Y-99638200D01*
X112731571Y-99638200D02*
X112617286Y-99676295D01*
X112617286Y-99676295D02*
X112541095Y-99676295D01*
X112541095Y-99676295D02*
X112426809Y-99638200D01*
X112426809Y-99638200D02*
X112350619Y-99562009D01*
X112350619Y-99562009D02*
X112312524Y-99485819D01*
X112312524Y-99485819D02*
X112274428Y-99333438D01*
X112274428Y-99333438D02*
X112274428Y-99219152D01*
X112274428Y-99219152D02*
X112312524Y-99066771D01*
X112312524Y-99066771D02*
X112350619Y-98990580D01*
X112350619Y-98990580D02*
X112426809Y-98914390D01*
X112426809Y-98914390D02*
X112541095Y-98876295D01*
X112541095Y-98876295D02*
X112617286Y-98876295D01*
X112617286Y-98876295D02*
X112731571Y-98914390D01*
X112731571Y-98914390D02*
X112769667Y-98952485D01*
X113455381Y-99142961D02*
X113455381Y-99676295D01*
X113264905Y-98838200D02*
X113074428Y-99409628D01*
X113074428Y-99409628D02*
X113569667Y-99409628D01*
X114674667Y-98584104D02*
X114636571Y-98622200D01*
X114636571Y-98622200D02*
X114522286Y-98660295D01*
X114522286Y-98660295D02*
X114446095Y-98660295D01*
X114446095Y-98660295D02*
X114331809Y-98622200D01*
X114331809Y-98622200D02*
X114255619Y-98546009D01*
X114255619Y-98546009D02*
X114217524Y-98469819D01*
X114217524Y-98469819D02*
X114179428Y-98317438D01*
X114179428Y-98317438D02*
X114179428Y-98203152D01*
X114179428Y-98203152D02*
X114217524Y-98050771D01*
X114217524Y-98050771D02*
X114255619Y-97974580D01*
X114255619Y-97974580D02*
X114331809Y-97898390D01*
X114331809Y-97898390D02*
X114446095Y-97860295D01*
X114446095Y-97860295D02*
X114522286Y-97860295D01*
X114522286Y-97860295D02*
X114636571Y-97898390D01*
X114636571Y-97898390D02*
X114674667Y-97936485D01*
X115398476Y-97860295D02*
X115017524Y-97860295D01*
X115017524Y-97860295D02*
X114979428Y-98241247D01*
X114979428Y-98241247D02*
X115017524Y-98203152D01*
X115017524Y-98203152D02*
X115093714Y-98165057D01*
X115093714Y-98165057D02*
X115284190Y-98165057D01*
X115284190Y-98165057D02*
X115360381Y-98203152D01*
X115360381Y-98203152D02*
X115398476Y-98241247D01*
X115398476Y-98241247D02*
X115436571Y-98317438D01*
X115436571Y-98317438D02*
X115436571Y-98507914D01*
X115436571Y-98507914D02*
X115398476Y-98584104D01*
X115398476Y-98584104D02*
X115360381Y-98622200D01*
X115360381Y-98622200D02*
X115284190Y-98660295D01*
X115284190Y-98660295D02*
X115093714Y-98660295D01*
X115093714Y-98660295D02*
X115017524Y-98622200D01*
X115017524Y-98622200D02*
X114979428Y-98584104D01*
X112769667Y-98596795D02*
X112503000Y-98215842D01*
X112312524Y-98596795D02*
X112312524Y-97796795D01*
X112312524Y-97796795D02*
X112617286Y-97796795D01*
X112617286Y-97796795D02*
X112693476Y-97834890D01*
X112693476Y-97834890D02*
X112731571Y-97872985D01*
X112731571Y-97872985D02*
X112769667Y-97949176D01*
X112769667Y-97949176D02*
X112769667Y-98063461D01*
X112769667Y-98063461D02*
X112731571Y-98139652D01*
X112731571Y-98139652D02*
X112693476Y-98177747D01*
X112693476Y-98177747D02*
X112617286Y-98215842D01*
X112617286Y-98215842D02*
X112312524Y-98215842D01*
X113455381Y-98063461D02*
X113455381Y-98596795D01*
X113264905Y-97758700D02*
X113074428Y-98330128D01*
X113074428Y-98330128D02*
X113569667Y-98330128D01*
X114611167Y-97580795D02*
X114344500Y-97199842D01*
X114154024Y-97580795D02*
X114154024Y-96780795D01*
X114154024Y-96780795D02*
X114458786Y-96780795D01*
X114458786Y-96780795D02*
X114534976Y-96818890D01*
X114534976Y-96818890D02*
X114573071Y-96856985D01*
X114573071Y-96856985D02*
X114611167Y-96933176D01*
X114611167Y-96933176D02*
X114611167Y-97047461D01*
X114611167Y-97047461D02*
X114573071Y-97123652D01*
X114573071Y-97123652D02*
X114534976Y-97161747D01*
X114534976Y-97161747D02*
X114458786Y-97199842D01*
X114458786Y-97199842D02*
X114154024Y-97199842D01*
X115334976Y-96780795D02*
X114954024Y-96780795D01*
X114954024Y-96780795D02*
X114915928Y-97161747D01*
X114915928Y-97161747D02*
X114954024Y-97123652D01*
X114954024Y-97123652D02*
X115030214Y-97085557D01*
X115030214Y-97085557D02*
X115220690Y-97085557D01*
X115220690Y-97085557D02*
X115296881Y-97123652D01*
X115296881Y-97123652D02*
X115334976Y-97161747D01*
X115334976Y-97161747D02*
X115373071Y-97237938D01*
X115373071Y-97237938D02*
X115373071Y-97428414D01*
X115373071Y-97428414D02*
X115334976Y-97504604D01*
X115334976Y-97504604D02*
X115296881Y-97542700D01*
X115296881Y-97542700D02*
X115220690Y-97580795D01*
X115220690Y-97580795D02*
X115030214Y-97580795D01*
X115030214Y-97580795D02*
X114954024Y-97542700D01*
X114954024Y-97542700D02*
X114915928Y-97504604D01*
X132874104Y-118370285D02*
X132912200Y-118408381D01*
X132912200Y-118408381D02*
X132950295Y-118522666D01*
X132950295Y-118522666D02*
X132950295Y-118598857D01*
X132950295Y-118598857D02*
X132912200Y-118713143D01*
X132912200Y-118713143D02*
X132836009Y-118789333D01*
X132836009Y-118789333D02*
X132759819Y-118827428D01*
X132759819Y-118827428D02*
X132607438Y-118865524D01*
X132607438Y-118865524D02*
X132493152Y-118865524D01*
X132493152Y-118865524D02*
X132340771Y-118827428D01*
X132340771Y-118827428D02*
X132264580Y-118789333D01*
X132264580Y-118789333D02*
X132188390Y-118713143D01*
X132188390Y-118713143D02*
X132150295Y-118598857D01*
X132150295Y-118598857D02*
X132150295Y-118522666D01*
X132150295Y-118522666D02*
X132188390Y-118408381D01*
X132188390Y-118408381D02*
X132226485Y-118370285D01*
X132950295Y-117608381D02*
X132950295Y-118065524D01*
X132950295Y-117836952D02*
X132150295Y-117836952D01*
X132150295Y-117836952D02*
X132264580Y-117913143D01*
X132264580Y-117913143D02*
X132340771Y-117989333D01*
X132340771Y-117989333D02*
X132378866Y-118065524D01*
X132950295Y-116846476D02*
X132950295Y-117303619D01*
X132950295Y-117075047D02*
X132150295Y-117075047D01*
X132150295Y-117075047D02*
X132264580Y-117151238D01*
X132264580Y-117151238D02*
X132340771Y-117227428D01*
X132340771Y-117227428D02*
X132378866Y-117303619D01*
X134740714Y-125571604D02*
X134702618Y-125609700D01*
X134702618Y-125609700D02*
X134588333Y-125647795D01*
X134588333Y-125647795D02*
X134512142Y-125647795D01*
X134512142Y-125647795D02*
X134397856Y-125609700D01*
X134397856Y-125609700D02*
X134321666Y-125533509D01*
X134321666Y-125533509D02*
X134283571Y-125457319D01*
X134283571Y-125457319D02*
X134245475Y-125304938D01*
X134245475Y-125304938D02*
X134245475Y-125190652D01*
X134245475Y-125190652D02*
X134283571Y-125038271D01*
X134283571Y-125038271D02*
X134321666Y-124962080D01*
X134321666Y-124962080D02*
X134397856Y-124885890D01*
X134397856Y-124885890D02*
X134512142Y-124847795D01*
X134512142Y-124847795D02*
X134588333Y-124847795D01*
X134588333Y-124847795D02*
X134702618Y-124885890D01*
X134702618Y-124885890D02*
X134740714Y-124923985D01*
X135502618Y-125647795D02*
X135045475Y-125647795D01*
X135274047Y-125647795D02*
X135274047Y-124847795D01*
X135274047Y-124847795D02*
X135197856Y-124962080D01*
X135197856Y-124962080D02*
X135121666Y-125038271D01*
X135121666Y-125038271D02*
X135045475Y-125076366D01*
X135769285Y-124847795D02*
X136264523Y-124847795D01*
X136264523Y-124847795D02*
X135997857Y-125152557D01*
X135997857Y-125152557D02*
X136112142Y-125152557D01*
X136112142Y-125152557D02*
X136188333Y-125190652D01*
X136188333Y-125190652D02*
X136226428Y-125228747D01*
X136226428Y-125228747D02*
X136264523Y-125304938D01*
X136264523Y-125304938D02*
X136264523Y-125495414D01*
X136264523Y-125495414D02*
X136226428Y-125571604D01*
X136226428Y-125571604D02*
X136188333Y-125609700D01*
X136188333Y-125609700D02*
X136112142Y-125647795D01*
X136112142Y-125647795D02*
X135883571Y-125647795D01*
X135883571Y-125647795D02*
X135807380Y-125609700D01*
X135807380Y-125609700D02*
X135769285Y-125571604D01*
X129660714Y-117761104D02*
X129622618Y-117799200D01*
X129622618Y-117799200D02*
X129508333Y-117837295D01*
X129508333Y-117837295D02*
X129432142Y-117837295D01*
X129432142Y-117837295D02*
X129317856Y-117799200D01*
X129317856Y-117799200D02*
X129241666Y-117723009D01*
X129241666Y-117723009D02*
X129203571Y-117646819D01*
X129203571Y-117646819D02*
X129165475Y-117494438D01*
X129165475Y-117494438D02*
X129165475Y-117380152D01*
X129165475Y-117380152D02*
X129203571Y-117227771D01*
X129203571Y-117227771D02*
X129241666Y-117151580D01*
X129241666Y-117151580D02*
X129317856Y-117075390D01*
X129317856Y-117075390D02*
X129432142Y-117037295D01*
X129432142Y-117037295D02*
X129508333Y-117037295D01*
X129508333Y-117037295D02*
X129622618Y-117075390D01*
X129622618Y-117075390D02*
X129660714Y-117113485D01*
X130422618Y-117837295D02*
X129965475Y-117837295D01*
X130194047Y-117837295D02*
X130194047Y-117037295D01*
X130194047Y-117037295D02*
X130117856Y-117151580D01*
X130117856Y-117151580D02*
X130041666Y-117227771D01*
X130041666Y-117227771D02*
X129965475Y-117265866D01*
X131108333Y-117303961D02*
X131108333Y-117837295D01*
X130917857Y-116999200D02*
X130727380Y-117570628D01*
X130727380Y-117570628D02*
X131222619Y-117570628D01*
X129660714Y-116681604D02*
X129622618Y-116719700D01*
X129622618Y-116719700D02*
X129508333Y-116757795D01*
X129508333Y-116757795D02*
X129432142Y-116757795D01*
X129432142Y-116757795D02*
X129317856Y-116719700D01*
X129317856Y-116719700D02*
X129241666Y-116643509D01*
X129241666Y-116643509D02*
X129203571Y-116567319D01*
X129203571Y-116567319D02*
X129165475Y-116414938D01*
X129165475Y-116414938D02*
X129165475Y-116300652D01*
X129165475Y-116300652D02*
X129203571Y-116148271D01*
X129203571Y-116148271D02*
X129241666Y-116072080D01*
X129241666Y-116072080D02*
X129317856Y-115995890D01*
X129317856Y-115995890D02*
X129432142Y-115957795D01*
X129432142Y-115957795D02*
X129508333Y-115957795D01*
X129508333Y-115957795D02*
X129622618Y-115995890D01*
X129622618Y-115995890D02*
X129660714Y-116033985D01*
X130422618Y-116757795D02*
X129965475Y-116757795D01*
X130194047Y-116757795D02*
X130194047Y-115957795D01*
X130194047Y-115957795D02*
X130117856Y-116072080D01*
X130117856Y-116072080D02*
X130041666Y-116148271D01*
X130041666Y-116148271D02*
X129965475Y-116186366D01*
X131146428Y-115957795D02*
X130765476Y-115957795D01*
X130765476Y-115957795D02*
X130727380Y-116338747D01*
X130727380Y-116338747D02*
X130765476Y-116300652D01*
X130765476Y-116300652D02*
X130841666Y-116262557D01*
X130841666Y-116262557D02*
X131032142Y-116262557D01*
X131032142Y-116262557D02*
X131108333Y-116300652D01*
X131108333Y-116300652D02*
X131146428Y-116338747D01*
X131146428Y-116338747D02*
X131184523Y-116414938D01*
X131184523Y-116414938D02*
X131184523Y-116605414D01*
X131184523Y-116605414D02*
X131146428Y-116681604D01*
X131146428Y-116681604D02*
X131108333Y-116719700D01*
X131108333Y-116719700D02*
X131032142Y-116757795D01*
X131032142Y-116757795D02*
X130841666Y-116757795D01*
X130841666Y-116757795D02*
X130765476Y-116719700D01*
X130765476Y-116719700D02*
X130727380Y-116681604D01*
X145701104Y-122434285D02*
X145739200Y-122472381D01*
X145739200Y-122472381D02*
X145777295Y-122586666D01*
X145777295Y-122586666D02*
X145777295Y-122662857D01*
X145777295Y-122662857D02*
X145739200Y-122777143D01*
X145739200Y-122777143D02*
X145663009Y-122853333D01*
X145663009Y-122853333D02*
X145586819Y-122891428D01*
X145586819Y-122891428D02*
X145434438Y-122929524D01*
X145434438Y-122929524D02*
X145320152Y-122929524D01*
X145320152Y-122929524D02*
X145167771Y-122891428D01*
X145167771Y-122891428D02*
X145091580Y-122853333D01*
X145091580Y-122853333D02*
X145015390Y-122777143D01*
X145015390Y-122777143D02*
X144977295Y-122662857D01*
X144977295Y-122662857D02*
X144977295Y-122586666D01*
X144977295Y-122586666D02*
X145015390Y-122472381D01*
X145015390Y-122472381D02*
X145053485Y-122434285D01*
X145777295Y-121672381D02*
X145777295Y-122129524D01*
X145777295Y-121900952D02*
X144977295Y-121900952D01*
X144977295Y-121900952D02*
X145091580Y-121977143D01*
X145091580Y-121977143D02*
X145167771Y-122053333D01*
X145167771Y-122053333D02*
X145205866Y-122129524D01*
X144977295Y-120986666D02*
X144977295Y-121139047D01*
X144977295Y-121139047D02*
X145015390Y-121215238D01*
X145015390Y-121215238D02*
X145053485Y-121253333D01*
X145053485Y-121253333D02*
X145167771Y-121329523D01*
X145167771Y-121329523D02*
X145320152Y-121367619D01*
X145320152Y-121367619D02*
X145624914Y-121367619D01*
X145624914Y-121367619D02*
X145701104Y-121329523D01*
X145701104Y-121329523D02*
X145739200Y-121291428D01*
X145739200Y-121291428D02*
X145777295Y-121215238D01*
X145777295Y-121215238D02*
X145777295Y-121062857D01*
X145777295Y-121062857D02*
X145739200Y-120986666D01*
X145739200Y-120986666D02*
X145701104Y-120948571D01*
X145701104Y-120948571D02*
X145624914Y-120910476D01*
X145624914Y-120910476D02*
X145434438Y-120910476D01*
X145434438Y-120910476D02*
X145358247Y-120948571D01*
X145358247Y-120948571D02*
X145320152Y-120986666D01*
X145320152Y-120986666D02*
X145282057Y-121062857D01*
X145282057Y-121062857D02*
X145282057Y-121215238D01*
X145282057Y-121215238D02*
X145320152Y-121291428D01*
X145320152Y-121291428D02*
X145358247Y-121329523D01*
X145358247Y-121329523D02*
X145434438Y-121367619D01*
X137852214Y-136493604D02*
X137814118Y-136531700D01*
X137814118Y-136531700D02*
X137699833Y-136569795D01*
X137699833Y-136569795D02*
X137623642Y-136569795D01*
X137623642Y-136569795D02*
X137509356Y-136531700D01*
X137509356Y-136531700D02*
X137433166Y-136455509D01*
X137433166Y-136455509D02*
X137395071Y-136379319D01*
X137395071Y-136379319D02*
X137356975Y-136226938D01*
X137356975Y-136226938D02*
X137356975Y-136112652D01*
X137356975Y-136112652D02*
X137395071Y-135960271D01*
X137395071Y-135960271D02*
X137433166Y-135884080D01*
X137433166Y-135884080D02*
X137509356Y-135807890D01*
X137509356Y-135807890D02*
X137623642Y-135769795D01*
X137623642Y-135769795D02*
X137699833Y-135769795D01*
X137699833Y-135769795D02*
X137814118Y-135807890D01*
X137814118Y-135807890D02*
X137852214Y-135845985D01*
X138614118Y-136569795D02*
X138156975Y-136569795D01*
X138385547Y-136569795D02*
X138385547Y-135769795D01*
X138385547Y-135769795D02*
X138309356Y-135884080D01*
X138309356Y-135884080D02*
X138233166Y-135960271D01*
X138233166Y-135960271D02*
X138156975Y-135998366D01*
X138880785Y-135769795D02*
X139414119Y-135769795D01*
X139414119Y-135769795D02*
X139071261Y-136569795D01*
X142932214Y-127540104D02*
X142894118Y-127578200D01*
X142894118Y-127578200D02*
X142779833Y-127616295D01*
X142779833Y-127616295D02*
X142703642Y-127616295D01*
X142703642Y-127616295D02*
X142589356Y-127578200D01*
X142589356Y-127578200D02*
X142513166Y-127502009D01*
X142513166Y-127502009D02*
X142475071Y-127425819D01*
X142475071Y-127425819D02*
X142436975Y-127273438D01*
X142436975Y-127273438D02*
X142436975Y-127159152D01*
X142436975Y-127159152D02*
X142475071Y-127006771D01*
X142475071Y-127006771D02*
X142513166Y-126930580D01*
X142513166Y-126930580D02*
X142589356Y-126854390D01*
X142589356Y-126854390D02*
X142703642Y-126816295D01*
X142703642Y-126816295D02*
X142779833Y-126816295D01*
X142779833Y-126816295D02*
X142894118Y-126854390D01*
X142894118Y-126854390D02*
X142932214Y-126892485D01*
X143694118Y-127616295D02*
X143236975Y-127616295D01*
X143465547Y-127616295D02*
X143465547Y-126816295D01*
X143465547Y-126816295D02*
X143389356Y-126930580D01*
X143389356Y-126930580D02*
X143313166Y-127006771D01*
X143313166Y-127006771D02*
X143236975Y-127044866D01*
X144151261Y-127159152D02*
X144075071Y-127121057D01*
X144075071Y-127121057D02*
X144036976Y-127082961D01*
X144036976Y-127082961D02*
X143998880Y-127006771D01*
X143998880Y-127006771D02*
X143998880Y-126968676D01*
X143998880Y-126968676D02*
X144036976Y-126892485D01*
X144036976Y-126892485D02*
X144075071Y-126854390D01*
X144075071Y-126854390D02*
X144151261Y-126816295D01*
X144151261Y-126816295D02*
X144303642Y-126816295D01*
X144303642Y-126816295D02*
X144379833Y-126854390D01*
X144379833Y-126854390D02*
X144417928Y-126892485D01*
X144417928Y-126892485D02*
X144456023Y-126968676D01*
X144456023Y-126968676D02*
X144456023Y-127006771D01*
X144456023Y-127006771D02*
X144417928Y-127082961D01*
X144417928Y-127082961D02*
X144379833Y-127121057D01*
X144379833Y-127121057D02*
X144303642Y-127159152D01*
X144303642Y-127159152D02*
X144151261Y-127159152D01*
X144151261Y-127159152D02*
X144075071Y-127197247D01*
X144075071Y-127197247D02*
X144036976Y-127235342D01*
X144036976Y-127235342D02*
X143998880Y-127311533D01*
X143998880Y-127311533D02*
X143998880Y-127463914D01*
X143998880Y-127463914D02*
X144036976Y-127540104D01*
X144036976Y-127540104D02*
X144075071Y-127578200D01*
X144075071Y-127578200D02*
X144151261Y-127616295D01*
X144151261Y-127616295D02*
X144303642Y-127616295D01*
X144303642Y-127616295D02*
X144379833Y-127578200D01*
X144379833Y-127578200D02*
X144417928Y-127540104D01*
X144417928Y-127540104D02*
X144456023Y-127463914D01*
X144456023Y-127463914D02*
X144456023Y-127311533D01*
X144456023Y-127311533D02*
X144417928Y-127235342D01*
X144417928Y-127235342D02*
X144379833Y-127197247D01*
X144379833Y-127197247D02*
X144303642Y-127159152D01*
X144748604Y-125926785D02*
X144786700Y-125964881D01*
X144786700Y-125964881D02*
X144824795Y-126079166D01*
X144824795Y-126079166D02*
X144824795Y-126155357D01*
X144824795Y-126155357D02*
X144786700Y-126269643D01*
X144786700Y-126269643D02*
X144710509Y-126345833D01*
X144710509Y-126345833D02*
X144634319Y-126383928D01*
X144634319Y-126383928D02*
X144481938Y-126422024D01*
X144481938Y-126422024D02*
X144367652Y-126422024D01*
X144367652Y-126422024D02*
X144215271Y-126383928D01*
X144215271Y-126383928D02*
X144139080Y-126345833D01*
X144139080Y-126345833D02*
X144062890Y-126269643D01*
X144062890Y-126269643D02*
X144024795Y-126155357D01*
X144024795Y-126155357D02*
X144024795Y-126079166D01*
X144024795Y-126079166D02*
X144062890Y-125964881D01*
X144062890Y-125964881D02*
X144100985Y-125926785D01*
X144824795Y-125164881D02*
X144824795Y-125622024D01*
X144824795Y-125393452D02*
X144024795Y-125393452D01*
X144024795Y-125393452D02*
X144139080Y-125469643D01*
X144139080Y-125469643D02*
X144215271Y-125545833D01*
X144215271Y-125545833D02*
X144253366Y-125622024D01*
X144824795Y-124783928D02*
X144824795Y-124631547D01*
X144824795Y-124631547D02*
X144786700Y-124555357D01*
X144786700Y-124555357D02*
X144748604Y-124517261D01*
X144748604Y-124517261D02*
X144634319Y-124441071D01*
X144634319Y-124441071D02*
X144481938Y-124402976D01*
X144481938Y-124402976D02*
X144177176Y-124402976D01*
X144177176Y-124402976D02*
X144100985Y-124441071D01*
X144100985Y-124441071D02*
X144062890Y-124479166D01*
X144062890Y-124479166D02*
X144024795Y-124555357D01*
X144024795Y-124555357D02*
X144024795Y-124707738D01*
X144024795Y-124707738D02*
X144062890Y-124783928D01*
X144062890Y-124783928D02*
X144100985Y-124822023D01*
X144100985Y-124822023D02*
X144177176Y-124860119D01*
X144177176Y-124860119D02*
X144367652Y-124860119D01*
X144367652Y-124860119D02*
X144443842Y-124822023D01*
X144443842Y-124822023D02*
X144481938Y-124783928D01*
X144481938Y-124783928D02*
X144520033Y-124707738D01*
X144520033Y-124707738D02*
X144520033Y-124555357D01*
X144520033Y-124555357D02*
X144481938Y-124479166D01*
X144481938Y-124479166D02*
X144443842Y-124441071D01*
X144443842Y-124441071D02*
X144367652Y-124402976D01*
X128744064Y-134504365D02*
X128782160Y-134542461D01*
X128782160Y-134542461D02*
X128820255Y-134656746D01*
X128820255Y-134656746D02*
X128820255Y-134732937D01*
X128820255Y-134732937D02*
X128782160Y-134847223D01*
X128782160Y-134847223D02*
X128705969Y-134923413D01*
X128705969Y-134923413D02*
X128629779Y-134961508D01*
X128629779Y-134961508D02*
X128477398Y-134999604D01*
X128477398Y-134999604D02*
X128363112Y-134999604D01*
X128363112Y-134999604D02*
X128210731Y-134961508D01*
X128210731Y-134961508D02*
X128134540Y-134923413D01*
X128134540Y-134923413D02*
X128058350Y-134847223D01*
X128058350Y-134847223D02*
X128020255Y-134732937D01*
X128020255Y-134732937D02*
X128020255Y-134656746D01*
X128020255Y-134656746D02*
X128058350Y-134542461D01*
X128058350Y-134542461D02*
X128096445Y-134504365D01*
X128096445Y-134199604D02*
X128058350Y-134161508D01*
X128058350Y-134161508D02*
X128020255Y-134085318D01*
X128020255Y-134085318D02*
X128020255Y-133894842D01*
X128020255Y-133894842D02*
X128058350Y-133818651D01*
X128058350Y-133818651D02*
X128096445Y-133780556D01*
X128096445Y-133780556D02*
X128172636Y-133742461D01*
X128172636Y-133742461D02*
X128248826Y-133742461D01*
X128248826Y-133742461D02*
X128363112Y-133780556D01*
X128363112Y-133780556D02*
X128820255Y-134237699D01*
X128820255Y-134237699D02*
X128820255Y-133742461D01*
X128020255Y-133247222D02*
X128020255Y-133171032D01*
X128020255Y-133171032D02*
X128058350Y-133094841D01*
X128058350Y-133094841D02*
X128096445Y-133056746D01*
X128096445Y-133056746D02*
X128172636Y-133018651D01*
X128172636Y-133018651D02*
X128325017Y-132980556D01*
X128325017Y-132980556D02*
X128515493Y-132980556D01*
X128515493Y-132980556D02*
X128667874Y-133018651D01*
X128667874Y-133018651D02*
X128744064Y-133056746D01*
X128744064Y-133056746D02*
X128782160Y-133094841D01*
X128782160Y-133094841D02*
X128820255Y-133171032D01*
X128820255Y-133171032D02*
X128820255Y-133247222D01*
X128820255Y-133247222D02*
X128782160Y-133323413D01*
X128782160Y-133323413D02*
X128744064Y-133361508D01*
X128744064Y-133361508D02*
X128667874Y-133399603D01*
X128667874Y-133399603D02*
X128515493Y-133437699D01*
X128515493Y-133437699D02*
X128325017Y-133437699D01*
X128325017Y-133437699D02*
X128172636Y-133399603D01*
X128172636Y-133399603D02*
X128096445Y-133361508D01*
X128096445Y-133361508D02*
X128058350Y-133323413D01*
X128058350Y-133323413D02*
X128020255Y-133247222D01*
X128200214Y-136176104D02*
X128162118Y-136214200D01*
X128162118Y-136214200D02*
X128047833Y-136252295D01*
X128047833Y-136252295D02*
X127971642Y-136252295D01*
X127971642Y-136252295D02*
X127857356Y-136214200D01*
X127857356Y-136214200D02*
X127781166Y-136138009D01*
X127781166Y-136138009D02*
X127743071Y-136061819D01*
X127743071Y-136061819D02*
X127704975Y-135909438D01*
X127704975Y-135909438D02*
X127704975Y-135795152D01*
X127704975Y-135795152D02*
X127743071Y-135642771D01*
X127743071Y-135642771D02*
X127781166Y-135566580D01*
X127781166Y-135566580D02*
X127857356Y-135490390D01*
X127857356Y-135490390D02*
X127971642Y-135452295D01*
X127971642Y-135452295D02*
X128047833Y-135452295D01*
X128047833Y-135452295D02*
X128162118Y-135490390D01*
X128162118Y-135490390D02*
X128200214Y-135528485D01*
X128504975Y-135528485D02*
X128543071Y-135490390D01*
X128543071Y-135490390D02*
X128619261Y-135452295D01*
X128619261Y-135452295D02*
X128809737Y-135452295D01*
X128809737Y-135452295D02*
X128885928Y-135490390D01*
X128885928Y-135490390D02*
X128924023Y-135528485D01*
X128924023Y-135528485D02*
X128962118Y-135604676D01*
X128962118Y-135604676D02*
X128962118Y-135680866D01*
X128962118Y-135680866D02*
X128924023Y-135795152D01*
X128924023Y-135795152D02*
X128466880Y-136252295D01*
X128466880Y-136252295D02*
X128962118Y-136252295D01*
X129724023Y-136252295D02*
X129266880Y-136252295D01*
X129495452Y-136252295D02*
X129495452Y-135452295D01*
X129495452Y-135452295D02*
X129419261Y-135566580D01*
X129419261Y-135566580D02*
X129343071Y-135642771D01*
X129343071Y-135642771D02*
X129266880Y-135680866D01*
X140582714Y-116491104D02*
X140544618Y-116529200D01*
X140544618Y-116529200D02*
X140430333Y-116567295D01*
X140430333Y-116567295D02*
X140354142Y-116567295D01*
X140354142Y-116567295D02*
X140239856Y-116529200D01*
X140239856Y-116529200D02*
X140163666Y-116453009D01*
X140163666Y-116453009D02*
X140125571Y-116376819D01*
X140125571Y-116376819D02*
X140087475Y-116224438D01*
X140087475Y-116224438D02*
X140087475Y-116110152D01*
X140087475Y-116110152D02*
X140125571Y-115957771D01*
X140125571Y-115957771D02*
X140163666Y-115881580D01*
X140163666Y-115881580D02*
X140239856Y-115805390D01*
X140239856Y-115805390D02*
X140354142Y-115767295D01*
X140354142Y-115767295D02*
X140430333Y-115767295D01*
X140430333Y-115767295D02*
X140544618Y-115805390D01*
X140544618Y-115805390D02*
X140582714Y-115843485D01*
X140887475Y-115843485D02*
X140925571Y-115805390D01*
X140925571Y-115805390D02*
X141001761Y-115767295D01*
X141001761Y-115767295D02*
X141192237Y-115767295D01*
X141192237Y-115767295D02*
X141268428Y-115805390D01*
X141268428Y-115805390D02*
X141306523Y-115843485D01*
X141306523Y-115843485D02*
X141344618Y-115919676D01*
X141344618Y-115919676D02*
X141344618Y-115995866D01*
X141344618Y-115995866D02*
X141306523Y-116110152D01*
X141306523Y-116110152D02*
X140849380Y-116567295D01*
X140849380Y-116567295D02*
X141344618Y-116567295D01*
X141649380Y-115843485D02*
X141687476Y-115805390D01*
X141687476Y-115805390D02*
X141763666Y-115767295D01*
X141763666Y-115767295D02*
X141954142Y-115767295D01*
X141954142Y-115767295D02*
X142030333Y-115805390D01*
X142030333Y-115805390D02*
X142068428Y-115843485D01*
X142068428Y-115843485D02*
X142106523Y-115919676D01*
X142106523Y-115919676D02*
X142106523Y-115995866D01*
X142106523Y-115995866D02*
X142068428Y-116110152D01*
X142068428Y-116110152D02*
X141611285Y-116567295D01*
X141611285Y-116567295D02*
X142106523Y-116567295D01*
X139478104Y-133114285D02*
X139516200Y-133152381D01*
X139516200Y-133152381D02*
X139554295Y-133266666D01*
X139554295Y-133266666D02*
X139554295Y-133342857D01*
X139554295Y-133342857D02*
X139516200Y-133457143D01*
X139516200Y-133457143D02*
X139440009Y-133533333D01*
X139440009Y-133533333D02*
X139363819Y-133571428D01*
X139363819Y-133571428D02*
X139211438Y-133609524D01*
X139211438Y-133609524D02*
X139097152Y-133609524D01*
X139097152Y-133609524D02*
X138944771Y-133571428D01*
X138944771Y-133571428D02*
X138868580Y-133533333D01*
X138868580Y-133533333D02*
X138792390Y-133457143D01*
X138792390Y-133457143D02*
X138754295Y-133342857D01*
X138754295Y-133342857D02*
X138754295Y-133266666D01*
X138754295Y-133266666D02*
X138792390Y-133152381D01*
X138792390Y-133152381D02*
X138830485Y-133114285D01*
X138830485Y-132809524D02*
X138792390Y-132771428D01*
X138792390Y-132771428D02*
X138754295Y-132695238D01*
X138754295Y-132695238D02*
X138754295Y-132504762D01*
X138754295Y-132504762D02*
X138792390Y-132428571D01*
X138792390Y-132428571D02*
X138830485Y-132390476D01*
X138830485Y-132390476D02*
X138906676Y-132352381D01*
X138906676Y-132352381D02*
X138982866Y-132352381D01*
X138982866Y-132352381D02*
X139097152Y-132390476D01*
X139097152Y-132390476D02*
X139554295Y-132847619D01*
X139554295Y-132847619D02*
X139554295Y-132352381D01*
X138754295Y-132085714D02*
X138754295Y-131590476D01*
X138754295Y-131590476D02*
X139059057Y-131857142D01*
X139059057Y-131857142D02*
X139059057Y-131742857D01*
X139059057Y-131742857D02*
X139097152Y-131666666D01*
X139097152Y-131666666D02*
X139135247Y-131628571D01*
X139135247Y-131628571D02*
X139211438Y-131590476D01*
X139211438Y-131590476D02*
X139401914Y-131590476D01*
X139401914Y-131590476D02*
X139478104Y-131628571D01*
X139478104Y-131628571D02*
X139516200Y-131666666D01*
X139516200Y-131666666D02*
X139554295Y-131742857D01*
X139554295Y-131742857D02*
X139554295Y-131971428D01*
X139554295Y-131971428D02*
X139516200Y-132047619D01*
X139516200Y-132047619D02*
X139478104Y-132085714D01*
X140582714Y-117570604D02*
X140544618Y-117608700D01*
X140544618Y-117608700D02*
X140430333Y-117646795D01*
X140430333Y-117646795D02*
X140354142Y-117646795D01*
X140354142Y-117646795D02*
X140239856Y-117608700D01*
X140239856Y-117608700D02*
X140163666Y-117532509D01*
X140163666Y-117532509D02*
X140125571Y-117456319D01*
X140125571Y-117456319D02*
X140087475Y-117303938D01*
X140087475Y-117303938D02*
X140087475Y-117189652D01*
X140087475Y-117189652D02*
X140125571Y-117037271D01*
X140125571Y-117037271D02*
X140163666Y-116961080D01*
X140163666Y-116961080D02*
X140239856Y-116884890D01*
X140239856Y-116884890D02*
X140354142Y-116846795D01*
X140354142Y-116846795D02*
X140430333Y-116846795D01*
X140430333Y-116846795D02*
X140544618Y-116884890D01*
X140544618Y-116884890D02*
X140582714Y-116922985D01*
X140887475Y-116922985D02*
X140925571Y-116884890D01*
X140925571Y-116884890D02*
X141001761Y-116846795D01*
X141001761Y-116846795D02*
X141192237Y-116846795D01*
X141192237Y-116846795D02*
X141268428Y-116884890D01*
X141268428Y-116884890D02*
X141306523Y-116922985D01*
X141306523Y-116922985D02*
X141344618Y-116999176D01*
X141344618Y-116999176D02*
X141344618Y-117075366D01*
X141344618Y-117075366D02*
X141306523Y-117189652D01*
X141306523Y-117189652D02*
X140849380Y-117646795D01*
X140849380Y-117646795D02*
X141344618Y-117646795D01*
X142030333Y-117113461D02*
X142030333Y-117646795D01*
X141839857Y-116808700D02*
X141649380Y-117380128D01*
X141649380Y-117380128D02*
X142144619Y-117380128D01*
X140586104Y-133114285D02*
X140624200Y-133152381D01*
X140624200Y-133152381D02*
X140662295Y-133266666D01*
X140662295Y-133266666D02*
X140662295Y-133342857D01*
X140662295Y-133342857D02*
X140624200Y-133457143D01*
X140624200Y-133457143D02*
X140548009Y-133533333D01*
X140548009Y-133533333D02*
X140471819Y-133571428D01*
X140471819Y-133571428D02*
X140319438Y-133609524D01*
X140319438Y-133609524D02*
X140205152Y-133609524D01*
X140205152Y-133609524D02*
X140052771Y-133571428D01*
X140052771Y-133571428D02*
X139976580Y-133533333D01*
X139976580Y-133533333D02*
X139900390Y-133457143D01*
X139900390Y-133457143D02*
X139862295Y-133342857D01*
X139862295Y-133342857D02*
X139862295Y-133266666D01*
X139862295Y-133266666D02*
X139900390Y-133152381D01*
X139900390Y-133152381D02*
X139938485Y-133114285D01*
X139938485Y-132809524D02*
X139900390Y-132771428D01*
X139900390Y-132771428D02*
X139862295Y-132695238D01*
X139862295Y-132695238D02*
X139862295Y-132504762D01*
X139862295Y-132504762D02*
X139900390Y-132428571D01*
X139900390Y-132428571D02*
X139938485Y-132390476D01*
X139938485Y-132390476D02*
X140014676Y-132352381D01*
X140014676Y-132352381D02*
X140090866Y-132352381D01*
X140090866Y-132352381D02*
X140205152Y-132390476D01*
X140205152Y-132390476D02*
X140662295Y-132847619D01*
X140662295Y-132847619D02*
X140662295Y-132352381D01*
X139862295Y-131628571D02*
X139862295Y-132009523D01*
X139862295Y-132009523D02*
X140243247Y-132047619D01*
X140243247Y-132047619D02*
X140205152Y-132009523D01*
X140205152Y-132009523D02*
X140167057Y-131933333D01*
X140167057Y-131933333D02*
X140167057Y-131742857D01*
X140167057Y-131742857D02*
X140205152Y-131666666D01*
X140205152Y-131666666D02*
X140243247Y-131628571D01*
X140243247Y-131628571D02*
X140319438Y-131590476D01*
X140319438Y-131590476D02*
X140509914Y-131590476D01*
X140509914Y-131590476D02*
X140586104Y-131628571D01*
X140586104Y-131628571D02*
X140624200Y-131666666D01*
X140624200Y-131666666D02*
X140662295Y-131742857D01*
X140662295Y-131742857D02*
X140662295Y-131933333D01*
X140662295Y-131933333D02*
X140624200Y-132009523D01*
X140624200Y-132009523D02*
X140586104Y-132047619D01*
X137585795Y-127895285D02*
X137204842Y-128161952D01*
X137585795Y-128352428D02*
X136785795Y-128352428D01*
X136785795Y-128352428D02*
X136785795Y-128047666D01*
X136785795Y-128047666D02*
X136823890Y-127971476D01*
X136823890Y-127971476D02*
X136861985Y-127933381D01*
X136861985Y-127933381D02*
X136938176Y-127895285D01*
X136938176Y-127895285D02*
X137052461Y-127895285D01*
X137052461Y-127895285D02*
X137128652Y-127933381D01*
X137128652Y-127933381D02*
X137166747Y-127971476D01*
X137166747Y-127971476D02*
X137204842Y-128047666D01*
X137204842Y-128047666D02*
X137204842Y-128352428D01*
X137585795Y-127133381D02*
X137585795Y-127590524D01*
X137585795Y-127361952D02*
X136785795Y-127361952D01*
X136785795Y-127361952D02*
X136900080Y-127438143D01*
X136900080Y-127438143D02*
X136976271Y-127514333D01*
X136976271Y-127514333D02*
X137014366Y-127590524D01*
X137585795Y-126371476D02*
X137585795Y-126828619D01*
X137585795Y-126600047D02*
X136785795Y-126600047D01*
X136785795Y-126600047D02*
X136900080Y-126676238D01*
X136900080Y-126676238D02*
X136976271Y-126752428D01*
X136976271Y-126752428D02*
X137014366Y-126828619D01*
X141725714Y-128695795D02*
X141459047Y-128314842D01*
X141268571Y-128695795D02*
X141268571Y-127895795D01*
X141268571Y-127895795D02*
X141573333Y-127895795D01*
X141573333Y-127895795D02*
X141649523Y-127933890D01*
X141649523Y-127933890D02*
X141687618Y-127971985D01*
X141687618Y-127971985D02*
X141725714Y-128048176D01*
X141725714Y-128048176D02*
X141725714Y-128162461D01*
X141725714Y-128162461D02*
X141687618Y-128238652D01*
X141687618Y-128238652D02*
X141649523Y-128276747D01*
X141649523Y-128276747D02*
X141573333Y-128314842D01*
X141573333Y-128314842D02*
X141268571Y-128314842D01*
X142487618Y-128695795D02*
X142030475Y-128695795D01*
X142259047Y-128695795D02*
X142259047Y-127895795D01*
X142259047Y-127895795D02*
X142182856Y-128010080D01*
X142182856Y-128010080D02*
X142106666Y-128086271D01*
X142106666Y-128086271D02*
X142030475Y-128124366D01*
X142792380Y-127971985D02*
X142830476Y-127933890D01*
X142830476Y-127933890D02*
X142906666Y-127895795D01*
X142906666Y-127895795D02*
X143097142Y-127895795D01*
X143097142Y-127895795D02*
X143173333Y-127933890D01*
X143173333Y-127933890D02*
X143211428Y-127971985D01*
X143211428Y-127971985D02*
X143249523Y-128048176D01*
X143249523Y-128048176D02*
X143249523Y-128124366D01*
X143249523Y-128124366D02*
X143211428Y-128238652D01*
X143211428Y-128238652D02*
X142754285Y-128695795D01*
X142754285Y-128695795D02*
X143249523Y-128695795D01*
X125830394Y-135464895D02*
X125563727Y-135083942D01*
X125373251Y-135464895D02*
X125373251Y-134664895D01*
X125373251Y-134664895D02*
X125678013Y-134664895D01*
X125678013Y-134664895D02*
X125754203Y-134702990D01*
X125754203Y-134702990D02*
X125792298Y-134741085D01*
X125792298Y-134741085D02*
X125830394Y-134817276D01*
X125830394Y-134817276D02*
X125830394Y-134931561D01*
X125830394Y-134931561D02*
X125792298Y-135007752D01*
X125792298Y-135007752D02*
X125754203Y-135045847D01*
X125754203Y-135045847D02*
X125678013Y-135083942D01*
X125678013Y-135083942D02*
X125373251Y-135083942D01*
X126592298Y-135464895D02*
X126135155Y-135464895D01*
X126363727Y-135464895D02*
X126363727Y-134664895D01*
X126363727Y-134664895D02*
X126287536Y-134779180D01*
X126287536Y-134779180D02*
X126211346Y-134855371D01*
X126211346Y-134855371D02*
X126135155Y-134893466D01*
X126858965Y-134664895D02*
X127354203Y-134664895D01*
X127354203Y-134664895D02*
X127087537Y-134969657D01*
X127087537Y-134969657D02*
X127201822Y-134969657D01*
X127201822Y-134969657D02*
X127278013Y-135007752D01*
X127278013Y-135007752D02*
X127316108Y-135045847D01*
X127316108Y-135045847D02*
X127354203Y-135122038D01*
X127354203Y-135122038D02*
X127354203Y-135312514D01*
X127354203Y-135312514D02*
X127316108Y-135388704D01*
X127316108Y-135388704D02*
X127278013Y-135426800D01*
X127278013Y-135426800D02*
X127201822Y-135464895D01*
X127201822Y-135464895D02*
X126973251Y-135464895D01*
X126973251Y-135464895D02*
X126897060Y-135426800D01*
X126897060Y-135426800D02*
X126858965Y-135388704D01*
X122407623Y-118362295D02*
X122864766Y-118362295D01*
X122636194Y-119162295D02*
X122636194Y-118362295D01*
X123131433Y-119162295D02*
X123131433Y-118362295D01*
X123131433Y-118362295D02*
X123436195Y-118362295D01*
X123436195Y-118362295D02*
X123512385Y-118400390D01*
X123512385Y-118400390D02*
X123550480Y-118438485D01*
X123550480Y-118438485D02*
X123588576Y-118514676D01*
X123588576Y-118514676D02*
X123588576Y-118628961D01*
X123588576Y-118628961D02*
X123550480Y-118705152D01*
X123550480Y-118705152D02*
X123512385Y-118743247D01*
X123512385Y-118743247D02*
X123436195Y-118781342D01*
X123436195Y-118781342D02*
X123131433Y-118781342D01*
X124350480Y-119162295D02*
X123893337Y-119162295D01*
X124121909Y-119162295D02*
X124121909Y-118362295D01*
X124121909Y-118362295D02*
X124045718Y-118476580D01*
X124045718Y-118476580D02*
X123969528Y-118552771D01*
X123969528Y-118552771D02*
X123893337Y-118590866D01*
X124617147Y-118362295D02*
X125112385Y-118362295D01*
X125112385Y-118362295D02*
X124845719Y-118667057D01*
X124845719Y-118667057D02*
X124960004Y-118667057D01*
X124960004Y-118667057D02*
X125036195Y-118705152D01*
X125036195Y-118705152D02*
X125074290Y-118743247D01*
X125074290Y-118743247D02*
X125112385Y-118819438D01*
X125112385Y-118819438D02*
X125112385Y-119009914D01*
X125112385Y-119009914D02*
X125074290Y-119086104D01*
X125074290Y-119086104D02*
X125036195Y-119124200D01*
X125036195Y-119124200D02*
X124960004Y-119162295D01*
X124960004Y-119162295D02*
X124731433Y-119162295D01*
X124731433Y-119162295D02*
X124655242Y-119124200D01*
X124655242Y-119124200D02*
X124617147Y-119086104D01*
X135056823Y-115239995D02*
X135513966Y-115239995D01*
X135285394Y-116039995D02*
X135285394Y-115239995D01*
X135780633Y-116039995D02*
X135780633Y-115239995D01*
X135780633Y-115239995D02*
X136085395Y-115239995D01*
X136085395Y-115239995D02*
X136161585Y-115278090D01*
X136161585Y-115278090D02*
X136199680Y-115316185D01*
X136199680Y-115316185D02*
X136237776Y-115392376D01*
X136237776Y-115392376D02*
X136237776Y-115506661D01*
X136237776Y-115506661D02*
X136199680Y-115582852D01*
X136199680Y-115582852D02*
X136161585Y-115620947D01*
X136161585Y-115620947D02*
X136085395Y-115659042D01*
X136085395Y-115659042D02*
X135780633Y-115659042D01*
X136999680Y-116039995D02*
X136542537Y-116039995D01*
X136771109Y-116039995D02*
X136771109Y-115239995D01*
X136771109Y-115239995D02*
X136694918Y-115354280D01*
X136694918Y-115354280D02*
X136618728Y-115430471D01*
X136618728Y-115430471D02*
X136542537Y-115468566D01*
X137723490Y-115239995D02*
X137342538Y-115239995D01*
X137342538Y-115239995D02*
X137304442Y-115620947D01*
X137304442Y-115620947D02*
X137342538Y-115582852D01*
X137342538Y-115582852D02*
X137418728Y-115544757D01*
X137418728Y-115544757D02*
X137609204Y-115544757D01*
X137609204Y-115544757D02*
X137685395Y-115582852D01*
X137685395Y-115582852D02*
X137723490Y-115620947D01*
X137723490Y-115620947D02*
X137761585Y-115697138D01*
X137761585Y-115697138D02*
X137761585Y-115887614D01*
X137761585Y-115887614D02*
X137723490Y-115963804D01*
X137723490Y-115963804D02*
X137685395Y-116001900D01*
X137685395Y-116001900D02*
X137609204Y-116039995D01*
X137609204Y-116039995D02*
X137418728Y-116039995D01*
X137418728Y-116039995D02*
X137342538Y-116001900D01*
X137342538Y-116001900D02*
X137304442Y-115963804D01*
X142062295Y-131690476D02*
X142062295Y-131233333D01*
X142862295Y-131461905D02*
X142062295Y-131461905D01*
X142862295Y-130966666D02*
X142062295Y-130966666D01*
X142062295Y-130966666D02*
X142062295Y-130661904D01*
X142062295Y-130661904D02*
X142100390Y-130585714D01*
X142100390Y-130585714D02*
X142138485Y-130547619D01*
X142138485Y-130547619D02*
X142214676Y-130509523D01*
X142214676Y-130509523D02*
X142328961Y-130509523D01*
X142328961Y-130509523D02*
X142405152Y-130547619D01*
X142405152Y-130547619D02*
X142443247Y-130585714D01*
X142443247Y-130585714D02*
X142481342Y-130661904D01*
X142481342Y-130661904D02*
X142481342Y-130966666D01*
X142862295Y-129747619D02*
X142862295Y-130204762D01*
X142862295Y-129976190D02*
X142062295Y-129976190D01*
X142062295Y-129976190D02*
X142176580Y-130052381D01*
X142176580Y-130052381D02*
X142252771Y-130128571D01*
X142252771Y-130128571D02*
X142290866Y-130204762D01*
X142062295Y-129061904D02*
X142062295Y-129214285D01*
X142062295Y-129214285D02*
X142100390Y-129290476D01*
X142100390Y-129290476D02*
X142138485Y-129328571D01*
X142138485Y-129328571D02*
X142252771Y-129404761D01*
X142252771Y-129404761D02*
X142405152Y-129442857D01*
X142405152Y-129442857D02*
X142709914Y-129442857D01*
X142709914Y-129442857D02*
X142786104Y-129404761D01*
X142786104Y-129404761D02*
X142824200Y-129366666D01*
X142824200Y-129366666D02*
X142862295Y-129290476D01*
X142862295Y-129290476D02*
X142862295Y-129138095D01*
X142862295Y-129138095D02*
X142824200Y-129061904D01*
X142824200Y-129061904D02*
X142786104Y-129023809D01*
X142786104Y-129023809D02*
X142709914Y-128985714D01*
X142709914Y-128985714D02*
X142519438Y-128985714D01*
X142519438Y-128985714D02*
X142443247Y-129023809D01*
X142443247Y-129023809D02*
X142405152Y-129061904D01*
X142405152Y-129061904D02*
X142367057Y-129138095D01*
X142367057Y-129138095D02*
X142367057Y-129290476D01*
X142367057Y-129290476D02*
X142405152Y-129366666D01*
X142405152Y-129366666D02*
X142443247Y-129404761D01*
X142443247Y-129404761D02*
X142519438Y-129442857D01*
X123254834Y-134933904D02*
X123216738Y-134972000D01*
X123216738Y-134972000D02*
X123102453Y-135010095D01*
X123102453Y-135010095D02*
X123026262Y-135010095D01*
X123026262Y-135010095D02*
X122911976Y-134972000D01*
X122911976Y-134972000D02*
X122835786Y-134895809D01*
X122835786Y-134895809D02*
X122797691Y-134819619D01*
X122797691Y-134819619D02*
X122759595Y-134667238D01*
X122759595Y-134667238D02*
X122759595Y-134552952D01*
X122759595Y-134552952D02*
X122797691Y-134400571D01*
X122797691Y-134400571D02*
X122835786Y-134324380D01*
X122835786Y-134324380D02*
X122911976Y-134248190D01*
X122911976Y-134248190D02*
X123026262Y-134210095D01*
X123026262Y-134210095D02*
X123102453Y-134210095D01*
X123102453Y-134210095D02*
X123216738Y-134248190D01*
X123216738Y-134248190D02*
X123254834Y-134286285D01*
X123559595Y-134286285D02*
X123597691Y-134248190D01*
X123597691Y-134248190D02*
X123673881Y-134210095D01*
X123673881Y-134210095D02*
X123864357Y-134210095D01*
X123864357Y-134210095D02*
X123940548Y-134248190D01*
X123940548Y-134248190D02*
X123978643Y-134286285D01*
X123978643Y-134286285D02*
X124016738Y-134362476D01*
X124016738Y-134362476D02*
X124016738Y-134438666D01*
X124016738Y-134438666D02*
X123978643Y-134552952D01*
X123978643Y-134552952D02*
X123521500Y-135010095D01*
X123521500Y-135010095D02*
X124016738Y-135010095D01*
X124702453Y-134210095D02*
X124550072Y-134210095D01*
X124550072Y-134210095D02*
X124473881Y-134248190D01*
X124473881Y-134248190D02*
X124435786Y-134286285D01*
X124435786Y-134286285D02*
X124359596Y-134400571D01*
X124359596Y-134400571D02*
X124321500Y-134552952D01*
X124321500Y-134552952D02*
X124321500Y-134857714D01*
X124321500Y-134857714D02*
X124359596Y-134933904D01*
X124359596Y-134933904D02*
X124397691Y-134972000D01*
X124397691Y-134972000D02*
X124473881Y-135010095D01*
X124473881Y-135010095D02*
X124626262Y-135010095D01*
X124626262Y-135010095D02*
X124702453Y-134972000D01*
X124702453Y-134972000D02*
X124740548Y-134933904D01*
X124740548Y-134933904D02*
X124778643Y-134857714D01*
X124778643Y-134857714D02*
X124778643Y-134667238D01*
X124778643Y-134667238D02*
X124740548Y-134591047D01*
X124740548Y-134591047D02*
X124702453Y-134552952D01*
X124702453Y-134552952D02*
X124626262Y-134514857D01*
X124626262Y-134514857D02*
X124473881Y-134514857D01*
X124473881Y-134514857D02*
X124397691Y-134552952D01*
X124397691Y-134552952D02*
X124359596Y-134591047D01*
X124359596Y-134591047D02*
X124321500Y-134667238D01*
X127814424Y-132055805D02*
X127852520Y-132093901D01*
X127852520Y-132093901D02*
X127890615Y-132208186D01*
X127890615Y-132208186D02*
X127890615Y-132284377D01*
X127890615Y-132284377D02*
X127852520Y-132398663D01*
X127852520Y-132398663D02*
X127776329Y-132474853D01*
X127776329Y-132474853D02*
X127700139Y-132512948D01*
X127700139Y-132512948D02*
X127547758Y-132551044D01*
X127547758Y-132551044D02*
X127433472Y-132551044D01*
X127433472Y-132551044D02*
X127281091Y-132512948D01*
X127281091Y-132512948D02*
X127204900Y-132474853D01*
X127204900Y-132474853D02*
X127128710Y-132398663D01*
X127128710Y-132398663D02*
X127090615Y-132284377D01*
X127090615Y-132284377D02*
X127090615Y-132208186D01*
X127090615Y-132208186D02*
X127128710Y-132093901D01*
X127128710Y-132093901D02*
X127166805Y-132055805D01*
X127166805Y-131751044D02*
X127128710Y-131712948D01*
X127128710Y-131712948D02*
X127090615Y-131636758D01*
X127090615Y-131636758D02*
X127090615Y-131446282D01*
X127090615Y-131446282D02*
X127128710Y-131370091D01*
X127128710Y-131370091D02*
X127166805Y-131331996D01*
X127166805Y-131331996D02*
X127242996Y-131293901D01*
X127242996Y-131293901D02*
X127319186Y-131293901D01*
X127319186Y-131293901D02*
X127433472Y-131331996D01*
X127433472Y-131331996D02*
X127890615Y-131789139D01*
X127890615Y-131789139D02*
X127890615Y-131293901D01*
X127090615Y-131027234D02*
X127090615Y-130493900D01*
X127090615Y-130493900D02*
X127890615Y-130836758D01*
X121286104Y-130414285D02*
X121324200Y-130452381D01*
X121324200Y-130452381D02*
X121362295Y-130566666D01*
X121362295Y-130566666D02*
X121362295Y-130642857D01*
X121362295Y-130642857D02*
X121324200Y-130757143D01*
X121324200Y-130757143D02*
X121248009Y-130833333D01*
X121248009Y-130833333D02*
X121171819Y-130871428D01*
X121171819Y-130871428D02*
X121019438Y-130909524D01*
X121019438Y-130909524D02*
X120905152Y-130909524D01*
X120905152Y-130909524D02*
X120752771Y-130871428D01*
X120752771Y-130871428D02*
X120676580Y-130833333D01*
X120676580Y-130833333D02*
X120600390Y-130757143D01*
X120600390Y-130757143D02*
X120562295Y-130642857D01*
X120562295Y-130642857D02*
X120562295Y-130566666D01*
X120562295Y-130566666D02*
X120600390Y-130452381D01*
X120600390Y-130452381D02*
X120638485Y-130414285D01*
X120638485Y-130109524D02*
X120600390Y-130071428D01*
X120600390Y-130071428D02*
X120562295Y-129995238D01*
X120562295Y-129995238D02*
X120562295Y-129804762D01*
X120562295Y-129804762D02*
X120600390Y-129728571D01*
X120600390Y-129728571D02*
X120638485Y-129690476D01*
X120638485Y-129690476D02*
X120714676Y-129652381D01*
X120714676Y-129652381D02*
X120790866Y-129652381D01*
X120790866Y-129652381D02*
X120905152Y-129690476D01*
X120905152Y-129690476D02*
X121362295Y-130147619D01*
X121362295Y-130147619D02*
X121362295Y-129652381D01*
X120905152Y-129195238D02*
X120867057Y-129271428D01*
X120867057Y-129271428D02*
X120828961Y-129309523D01*
X120828961Y-129309523D02*
X120752771Y-129347619D01*
X120752771Y-129347619D02*
X120714676Y-129347619D01*
X120714676Y-129347619D02*
X120638485Y-129309523D01*
X120638485Y-129309523D02*
X120600390Y-129271428D01*
X120600390Y-129271428D02*
X120562295Y-129195238D01*
X120562295Y-129195238D02*
X120562295Y-129042857D01*
X120562295Y-129042857D02*
X120600390Y-128966666D01*
X120600390Y-128966666D02*
X120638485Y-128928571D01*
X120638485Y-128928571D02*
X120714676Y-128890476D01*
X120714676Y-128890476D02*
X120752771Y-128890476D01*
X120752771Y-128890476D02*
X120828961Y-128928571D01*
X120828961Y-128928571D02*
X120867057Y-128966666D01*
X120867057Y-128966666D02*
X120905152Y-129042857D01*
X120905152Y-129042857D02*
X120905152Y-129195238D01*
X120905152Y-129195238D02*
X120943247Y-129271428D01*
X120943247Y-129271428D02*
X120981342Y-129309523D01*
X120981342Y-129309523D02*
X121057533Y-129347619D01*
X121057533Y-129347619D02*
X121209914Y-129347619D01*
X121209914Y-129347619D02*
X121286104Y-129309523D01*
X121286104Y-129309523D02*
X121324200Y-129271428D01*
X121324200Y-129271428D02*
X121362295Y-129195238D01*
X121362295Y-129195238D02*
X121362295Y-129042857D01*
X121362295Y-129042857D02*
X121324200Y-128966666D01*
X121324200Y-128966666D02*
X121286104Y-128928571D01*
X121286104Y-128928571D02*
X121209914Y-128890476D01*
X121209914Y-128890476D02*
X121057533Y-128890476D01*
X121057533Y-128890476D02*
X120981342Y-128928571D01*
X120981342Y-128928571D02*
X120943247Y-128966666D01*
X120943247Y-128966666D02*
X120905152Y-129042857D01*
X105657714Y-117253104D02*
X105619618Y-117291200D01*
X105619618Y-117291200D02*
X105505333Y-117329295D01*
X105505333Y-117329295D02*
X105429142Y-117329295D01*
X105429142Y-117329295D02*
X105314856Y-117291200D01*
X105314856Y-117291200D02*
X105238666Y-117215009D01*
X105238666Y-117215009D02*
X105200571Y-117138819D01*
X105200571Y-117138819D02*
X105162475Y-116986438D01*
X105162475Y-116986438D02*
X105162475Y-116872152D01*
X105162475Y-116872152D02*
X105200571Y-116719771D01*
X105200571Y-116719771D02*
X105238666Y-116643580D01*
X105238666Y-116643580D02*
X105314856Y-116567390D01*
X105314856Y-116567390D02*
X105429142Y-116529295D01*
X105429142Y-116529295D02*
X105505333Y-116529295D01*
X105505333Y-116529295D02*
X105619618Y-116567390D01*
X105619618Y-116567390D02*
X105657714Y-116605485D01*
X105962475Y-116605485D02*
X106000571Y-116567390D01*
X106000571Y-116567390D02*
X106076761Y-116529295D01*
X106076761Y-116529295D02*
X106267237Y-116529295D01*
X106267237Y-116529295D02*
X106343428Y-116567390D01*
X106343428Y-116567390D02*
X106381523Y-116605485D01*
X106381523Y-116605485D02*
X106419618Y-116681676D01*
X106419618Y-116681676D02*
X106419618Y-116757866D01*
X106419618Y-116757866D02*
X106381523Y-116872152D01*
X106381523Y-116872152D02*
X105924380Y-117329295D01*
X105924380Y-117329295D02*
X106419618Y-117329295D01*
X106800571Y-117329295D02*
X106952952Y-117329295D01*
X106952952Y-117329295D02*
X107029142Y-117291200D01*
X107029142Y-117291200D02*
X107067238Y-117253104D01*
X107067238Y-117253104D02*
X107143428Y-117138819D01*
X107143428Y-117138819D02*
X107181523Y-116986438D01*
X107181523Y-116986438D02*
X107181523Y-116681676D01*
X107181523Y-116681676D02*
X107143428Y-116605485D01*
X107143428Y-116605485D02*
X107105333Y-116567390D01*
X107105333Y-116567390D02*
X107029142Y-116529295D01*
X107029142Y-116529295D02*
X106876761Y-116529295D01*
X106876761Y-116529295D02*
X106800571Y-116567390D01*
X106800571Y-116567390D02*
X106762476Y-116605485D01*
X106762476Y-116605485D02*
X106724380Y-116681676D01*
X106724380Y-116681676D02*
X106724380Y-116872152D01*
X106724380Y-116872152D02*
X106762476Y-116948342D01*
X106762476Y-116948342D02*
X106800571Y-116986438D01*
X106800571Y-116986438D02*
X106876761Y-117024533D01*
X106876761Y-117024533D02*
X107029142Y-117024533D01*
X107029142Y-117024533D02*
X107105333Y-116986438D01*
X107105333Y-116986438D02*
X107143428Y-116948342D01*
X107143428Y-116948342D02*
X107181523Y-116872152D01*
X105784714Y-118269104D02*
X105746618Y-118307200D01*
X105746618Y-118307200D02*
X105632333Y-118345295D01*
X105632333Y-118345295D02*
X105556142Y-118345295D01*
X105556142Y-118345295D02*
X105441856Y-118307200D01*
X105441856Y-118307200D02*
X105365666Y-118231009D01*
X105365666Y-118231009D02*
X105327571Y-118154819D01*
X105327571Y-118154819D02*
X105289475Y-118002438D01*
X105289475Y-118002438D02*
X105289475Y-117888152D01*
X105289475Y-117888152D02*
X105327571Y-117735771D01*
X105327571Y-117735771D02*
X105365666Y-117659580D01*
X105365666Y-117659580D02*
X105441856Y-117583390D01*
X105441856Y-117583390D02*
X105556142Y-117545295D01*
X105556142Y-117545295D02*
X105632333Y-117545295D01*
X105632333Y-117545295D02*
X105746618Y-117583390D01*
X105746618Y-117583390D02*
X105784714Y-117621485D01*
X106051380Y-117545295D02*
X106546618Y-117545295D01*
X106546618Y-117545295D02*
X106279952Y-117850057D01*
X106279952Y-117850057D02*
X106394237Y-117850057D01*
X106394237Y-117850057D02*
X106470428Y-117888152D01*
X106470428Y-117888152D02*
X106508523Y-117926247D01*
X106508523Y-117926247D02*
X106546618Y-118002438D01*
X106546618Y-118002438D02*
X106546618Y-118192914D01*
X106546618Y-118192914D02*
X106508523Y-118269104D01*
X106508523Y-118269104D02*
X106470428Y-118307200D01*
X106470428Y-118307200D02*
X106394237Y-118345295D01*
X106394237Y-118345295D02*
X106165666Y-118345295D01*
X106165666Y-118345295D02*
X106089475Y-118307200D01*
X106089475Y-118307200D02*
X106051380Y-118269104D01*
X107041857Y-117545295D02*
X107118047Y-117545295D01*
X107118047Y-117545295D02*
X107194238Y-117583390D01*
X107194238Y-117583390D02*
X107232333Y-117621485D01*
X107232333Y-117621485D02*
X107270428Y-117697676D01*
X107270428Y-117697676D02*
X107308523Y-117850057D01*
X107308523Y-117850057D02*
X107308523Y-118040533D01*
X107308523Y-118040533D02*
X107270428Y-118192914D01*
X107270428Y-118192914D02*
X107232333Y-118269104D01*
X107232333Y-118269104D02*
X107194238Y-118307200D01*
X107194238Y-118307200D02*
X107118047Y-118345295D01*
X107118047Y-118345295D02*
X107041857Y-118345295D01*
X107041857Y-118345295D02*
X106965666Y-118307200D01*
X106965666Y-118307200D02*
X106927571Y-118269104D01*
X106927571Y-118269104D02*
X106889476Y-118192914D01*
X106889476Y-118192914D02*
X106851380Y-118040533D01*
X106851380Y-118040533D02*
X106851380Y-117850057D01*
X106851380Y-117850057D02*
X106889476Y-117697676D01*
X106889476Y-117697676D02*
X106927571Y-117621485D01*
X106927571Y-117621485D02*
X106965666Y-117583390D01*
X106965666Y-117583390D02*
X107041857Y-117545295D01*
X117652848Y-95930942D02*
X117652848Y-96311895D01*
X117386181Y-95511895D02*
X117652848Y-95930942D01*
X117652848Y-95930942D02*
X117919514Y-95511895D01*
X118605228Y-96311895D02*
X118148085Y-96311895D01*
X118376657Y-96311895D02*
X118376657Y-95511895D01*
X118376657Y-95511895D02*
X118300466Y-95626180D01*
X118300466Y-95626180D02*
X118224276Y-95702371D01*
X118224276Y-95702371D02*
X118148085Y-95740466D01*
X103435214Y-102203304D02*
X103397118Y-102241400D01*
X103397118Y-102241400D02*
X103282833Y-102279495D01*
X103282833Y-102279495D02*
X103206642Y-102279495D01*
X103206642Y-102279495D02*
X103092356Y-102241400D01*
X103092356Y-102241400D02*
X103016166Y-102165209D01*
X103016166Y-102165209D02*
X102978071Y-102089019D01*
X102978071Y-102089019D02*
X102939975Y-101936638D01*
X102939975Y-101936638D02*
X102939975Y-101822352D01*
X102939975Y-101822352D02*
X102978071Y-101669971D01*
X102978071Y-101669971D02*
X103016166Y-101593780D01*
X103016166Y-101593780D02*
X103092356Y-101517590D01*
X103092356Y-101517590D02*
X103206642Y-101479495D01*
X103206642Y-101479495D02*
X103282833Y-101479495D01*
X103282833Y-101479495D02*
X103397118Y-101517590D01*
X103397118Y-101517590D02*
X103435214Y-101555685D01*
X103816166Y-102279495D02*
X103968547Y-102279495D01*
X103968547Y-102279495D02*
X104044737Y-102241400D01*
X104044737Y-102241400D02*
X104082833Y-102203304D01*
X104082833Y-102203304D02*
X104159023Y-102089019D01*
X104159023Y-102089019D02*
X104197118Y-101936638D01*
X104197118Y-101936638D02*
X104197118Y-101631876D01*
X104197118Y-101631876D02*
X104159023Y-101555685D01*
X104159023Y-101555685D02*
X104120928Y-101517590D01*
X104120928Y-101517590D02*
X104044737Y-101479495D01*
X104044737Y-101479495D02*
X103892356Y-101479495D01*
X103892356Y-101479495D02*
X103816166Y-101517590D01*
X103816166Y-101517590D02*
X103778071Y-101555685D01*
X103778071Y-101555685D02*
X103739975Y-101631876D01*
X103739975Y-101631876D02*
X103739975Y-101822352D01*
X103739975Y-101822352D02*
X103778071Y-101898542D01*
X103778071Y-101898542D02*
X103816166Y-101936638D01*
X103816166Y-101936638D02*
X103892356Y-101974733D01*
X103892356Y-101974733D02*
X104044737Y-101974733D01*
X104044737Y-101974733D02*
X104120928Y-101936638D01*
X104120928Y-101936638D02*
X104159023Y-101898542D01*
X104159023Y-101898542D02*
X104197118Y-101822352D01*
X104920928Y-101479495D02*
X104539976Y-101479495D01*
X104539976Y-101479495D02*
X104501880Y-101860447D01*
X104501880Y-101860447D02*
X104539976Y-101822352D01*
X104539976Y-101822352D02*
X104616166Y-101784257D01*
X104616166Y-101784257D02*
X104806642Y-101784257D01*
X104806642Y-101784257D02*
X104882833Y-101822352D01*
X104882833Y-101822352D02*
X104920928Y-101860447D01*
X104920928Y-101860447D02*
X104959023Y-101936638D01*
X104959023Y-101936638D02*
X104959023Y-102127114D01*
X104959023Y-102127114D02*
X104920928Y-102203304D01*
X104920928Y-102203304D02*
X104882833Y-102241400D01*
X104882833Y-102241400D02*
X104806642Y-102279495D01*
X104806642Y-102279495D02*
X104616166Y-102279495D01*
X104616166Y-102279495D02*
X104539976Y-102241400D01*
X104539976Y-102241400D02*
X104501880Y-102203304D01*
X103435214Y-101187604D02*
X103397118Y-101225700D01*
X103397118Y-101225700D02*
X103282833Y-101263795D01*
X103282833Y-101263795D02*
X103206642Y-101263795D01*
X103206642Y-101263795D02*
X103092356Y-101225700D01*
X103092356Y-101225700D02*
X103016166Y-101149509D01*
X103016166Y-101149509D02*
X102978071Y-101073319D01*
X102978071Y-101073319D02*
X102939975Y-100920938D01*
X102939975Y-100920938D02*
X102939975Y-100806652D01*
X102939975Y-100806652D02*
X102978071Y-100654271D01*
X102978071Y-100654271D02*
X103016166Y-100578080D01*
X103016166Y-100578080D02*
X103092356Y-100501890D01*
X103092356Y-100501890D02*
X103206642Y-100463795D01*
X103206642Y-100463795D02*
X103282833Y-100463795D01*
X103282833Y-100463795D02*
X103397118Y-100501890D01*
X103397118Y-100501890D02*
X103435214Y-100539985D01*
X103816166Y-101263795D02*
X103968547Y-101263795D01*
X103968547Y-101263795D02*
X104044737Y-101225700D01*
X104044737Y-101225700D02*
X104082833Y-101187604D01*
X104082833Y-101187604D02*
X104159023Y-101073319D01*
X104159023Y-101073319D02*
X104197118Y-100920938D01*
X104197118Y-100920938D02*
X104197118Y-100616176D01*
X104197118Y-100616176D02*
X104159023Y-100539985D01*
X104159023Y-100539985D02*
X104120928Y-100501890D01*
X104120928Y-100501890D02*
X104044737Y-100463795D01*
X104044737Y-100463795D02*
X103892356Y-100463795D01*
X103892356Y-100463795D02*
X103816166Y-100501890D01*
X103816166Y-100501890D02*
X103778071Y-100539985D01*
X103778071Y-100539985D02*
X103739975Y-100616176D01*
X103739975Y-100616176D02*
X103739975Y-100806652D01*
X103739975Y-100806652D02*
X103778071Y-100882842D01*
X103778071Y-100882842D02*
X103816166Y-100920938D01*
X103816166Y-100920938D02*
X103892356Y-100959033D01*
X103892356Y-100959033D02*
X104044737Y-100959033D01*
X104044737Y-100959033D02*
X104120928Y-100920938D01*
X104120928Y-100920938D02*
X104159023Y-100882842D01*
X104159023Y-100882842D02*
X104197118Y-100806652D01*
X104882833Y-100463795D02*
X104730452Y-100463795D01*
X104730452Y-100463795D02*
X104654261Y-100501890D01*
X104654261Y-100501890D02*
X104616166Y-100539985D01*
X104616166Y-100539985D02*
X104539976Y-100654271D01*
X104539976Y-100654271D02*
X104501880Y-100806652D01*
X104501880Y-100806652D02*
X104501880Y-101111414D01*
X104501880Y-101111414D02*
X104539976Y-101187604D01*
X104539976Y-101187604D02*
X104578071Y-101225700D01*
X104578071Y-101225700D02*
X104654261Y-101263795D01*
X104654261Y-101263795D02*
X104806642Y-101263795D01*
X104806642Y-101263795D02*
X104882833Y-101225700D01*
X104882833Y-101225700D02*
X104920928Y-101187604D01*
X104920928Y-101187604D02*
X104959023Y-101111414D01*
X104959023Y-101111414D02*
X104959023Y-100920938D01*
X104959023Y-100920938D02*
X104920928Y-100844747D01*
X104920928Y-100844747D02*
X104882833Y-100806652D01*
X104882833Y-100806652D02*
X104806642Y-100768557D01*
X104806642Y-100768557D02*
X104654261Y-100768557D01*
X104654261Y-100768557D02*
X104578071Y-100806652D01*
X104578071Y-100806652D02*
X104539976Y-100844747D01*
X104539976Y-100844747D02*
X104501880Y-100920938D01*
X120651394Y-96657024D02*
X120613298Y-96695120D01*
X120613298Y-96695120D02*
X120499013Y-96733215D01*
X120499013Y-96733215D02*
X120422822Y-96733215D01*
X120422822Y-96733215D02*
X120308536Y-96695120D01*
X120308536Y-96695120D02*
X120232346Y-96618929D01*
X120232346Y-96618929D02*
X120194251Y-96542739D01*
X120194251Y-96542739D02*
X120156155Y-96390358D01*
X120156155Y-96390358D02*
X120156155Y-96276072D01*
X120156155Y-96276072D02*
X120194251Y-96123691D01*
X120194251Y-96123691D02*
X120232346Y-96047500D01*
X120232346Y-96047500D02*
X120308536Y-95971310D01*
X120308536Y-95971310D02*
X120422822Y-95933215D01*
X120422822Y-95933215D02*
X120499013Y-95933215D01*
X120499013Y-95933215D02*
X120613298Y-95971310D01*
X120613298Y-95971310D02*
X120651394Y-96009405D01*
X121032346Y-96733215D02*
X121184727Y-96733215D01*
X121184727Y-96733215D02*
X121260917Y-96695120D01*
X121260917Y-96695120D02*
X121299013Y-96657024D01*
X121299013Y-96657024D02*
X121375203Y-96542739D01*
X121375203Y-96542739D02*
X121413298Y-96390358D01*
X121413298Y-96390358D02*
X121413298Y-96085596D01*
X121413298Y-96085596D02*
X121375203Y-96009405D01*
X121375203Y-96009405D02*
X121337108Y-95971310D01*
X121337108Y-95971310D02*
X121260917Y-95933215D01*
X121260917Y-95933215D02*
X121108536Y-95933215D01*
X121108536Y-95933215D02*
X121032346Y-95971310D01*
X121032346Y-95971310D02*
X120994251Y-96009405D01*
X120994251Y-96009405D02*
X120956155Y-96085596D01*
X120956155Y-96085596D02*
X120956155Y-96276072D01*
X120956155Y-96276072D02*
X120994251Y-96352262D01*
X120994251Y-96352262D02*
X121032346Y-96390358D01*
X121032346Y-96390358D02*
X121108536Y-96428453D01*
X121108536Y-96428453D02*
X121260917Y-96428453D01*
X121260917Y-96428453D02*
X121337108Y-96390358D01*
X121337108Y-96390358D02*
X121375203Y-96352262D01*
X121375203Y-96352262D02*
X121413298Y-96276072D01*
X121679965Y-95933215D02*
X122213299Y-95933215D01*
X122213299Y-95933215D02*
X121870441Y-96733215D01*
X114324194Y-96425104D02*
X114286098Y-96463200D01*
X114286098Y-96463200D02*
X114171813Y-96501295D01*
X114171813Y-96501295D02*
X114095622Y-96501295D01*
X114095622Y-96501295D02*
X113981336Y-96463200D01*
X113981336Y-96463200D02*
X113905146Y-96387009D01*
X113905146Y-96387009D02*
X113867051Y-96310819D01*
X113867051Y-96310819D02*
X113828955Y-96158438D01*
X113828955Y-96158438D02*
X113828955Y-96044152D01*
X113828955Y-96044152D02*
X113867051Y-95891771D01*
X113867051Y-95891771D02*
X113905146Y-95815580D01*
X113905146Y-95815580D02*
X113981336Y-95739390D01*
X113981336Y-95739390D02*
X114095622Y-95701295D01*
X114095622Y-95701295D02*
X114171813Y-95701295D01*
X114171813Y-95701295D02*
X114286098Y-95739390D01*
X114286098Y-95739390D02*
X114324194Y-95777485D01*
X114705146Y-96501295D02*
X114857527Y-96501295D01*
X114857527Y-96501295D02*
X114933717Y-96463200D01*
X114933717Y-96463200D02*
X114971813Y-96425104D01*
X114971813Y-96425104D02*
X115048003Y-96310819D01*
X115048003Y-96310819D02*
X115086098Y-96158438D01*
X115086098Y-96158438D02*
X115086098Y-95853676D01*
X115086098Y-95853676D02*
X115048003Y-95777485D01*
X115048003Y-95777485D02*
X115009908Y-95739390D01*
X115009908Y-95739390D02*
X114933717Y-95701295D01*
X114933717Y-95701295D02*
X114781336Y-95701295D01*
X114781336Y-95701295D02*
X114705146Y-95739390D01*
X114705146Y-95739390D02*
X114667051Y-95777485D01*
X114667051Y-95777485D02*
X114628955Y-95853676D01*
X114628955Y-95853676D02*
X114628955Y-96044152D01*
X114628955Y-96044152D02*
X114667051Y-96120342D01*
X114667051Y-96120342D02*
X114705146Y-96158438D01*
X114705146Y-96158438D02*
X114781336Y-96196533D01*
X114781336Y-96196533D02*
X114933717Y-96196533D01*
X114933717Y-96196533D02*
X115009908Y-96158438D01*
X115009908Y-96158438D02*
X115048003Y-96120342D01*
X115048003Y-96120342D02*
X115086098Y-96044152D01*
X115543241Y-96044152D02*
X115467051Y-96006057D01*
X115467051Y-96006057D02*
X115428956Y-95967961D01*
X115428956Y-95967961D02*
X115390860Y-95891771D01*
X115390860Y-95891771D02*
X115390860Y-95853676D01*
X115390860Y-95853676D02*
X115428956Y-95777485D01*
X115428956Y-95777485D02*
X115467051Y-95739390D01*
X115467051Y-95739390D02*
X115543241Y-95701295D01*
X115543241Y-95701295D02*
X115695622Y-95701295D01*
X115695622Y-95701295D02*
X115771813Y-95739390D01*
X115771813Y-95739390D02*
X115809908Y-95777485D01*
X115809908Y-95777485D02*
X115848003Y-95853676D01*
X115848003Y-95853676D02*
X115848003Y-95891771D01*
X115848003Y-95891771D02*
X115809908Y-95967961D01*
X115809908Y-95967961D02*
X115771813Y-96006057D01*
X115771813Y-96006057D02*
X115695622Y-96044152D01*
X115695622Y-96044152D02*
X115543241Y-96044152D01*
X115543241Y-96044152D02*
X115467051Y-96082247D01*
X115467051Y-96082247D02*
X115428956Y-96120342D01*
X115428956Y-96120342D02*
X115390860Y-96196533D01*
X115390860Y-96196533D02*
X115390860Y-96348914D01*
X115390860Y-96348914D02*
X115428956Y-96425104D01*
X115428956Y-96425104D02*
X115467051Y-96463200D01*
X115467051Y-96463200D02*
X115543241Y-96501295D01*
X115543241Y-96501295D02*
X115695622Y-96501295D01*
X115695622Y-96501295D02*
X115771813Y-96463200D01*
X115771813Y-96463200D02*
X115809908Y-96425104D01*
X115809908Y-96425104D02*
X115848003Y-96348914D01*
X115848003Y-96348914D02*
X115848003Y-96196533D01*
X115848003Y-96196533D02*
X115809908Y-96120342D01*
X115809908Y-96120342D02*
X115771813Y-96082247D01*
X115771813Y-96082247D02*
X115695622Y-96044152D01*
X103304762Y-106586104D02*
X103266666Y-106624200D01*
X103266666Y-106624200D02*
X103152381Y-106662295D01*
X103152381Y-106662295D02*
X103076190Y-106662295D01*
X103076190Y-106662295D02*
X102961904Y-106624200D01*
X102961904Y-106624200D02*
X102885714Y-106548009D01*
X102885714Y-106548009D02*
X102847619Y-106471819D01*
X102847619Y-106471819D02*
X102809523Y-106319438D01*
X102809523Y-106319438D02*
X102809523Y-106205152D01*
X102809523Y-106205152D02*
X102847619Y-106052771D01*
X102847619Y-106052771D02*
X102885714Y-105976580D01*
X102885714Y-105976580D02*
X102961904Y-105900390D01*
X102961904Y-105900390D02*
X103076190Y-105862295D01*
X103076190Y-105862295D02*
X103152381Y-105862295D01*
X103152381Y-105862295D02*
X103266666Y-105900390D01*
X103266666Y-105900390D02*
X103304762Y-105938485D01*
X104066666Y-106662295D02*
X103609523Y-106662295D01*
X103838095Y-106662295D02*
X103838095Y-105862295D01*
X103838095Y-105862295D02*
X103761904Y-105976580D01*
X103761904Y-105976580D02*
X103685714Y-106052771D01*
X103685714Y-106052771D02*
X103609523Y-106090866D01*
X104561905Y-105862295D02*
X104638095Y-105862295D01*
X104638095Y-105862295D02*
X104714286Y-105900390D01*
X104714286Y-105900390D02*
X104752381Y-105938485D01*
X104752381Y-105938485D02*
X104790476Y-106014676D01*
X104790476Y-106014676D02*
X104828571Y-106167057D01*
X104828571Y-106167057D02*
X104828571Y-106357533D01*
X104828571Y-106357533D02*
X104790476Y-106509914D01*
X104790476Y-106509914D02*
X104752381Y-106586104D01*
X104752381Y-106586104D02*
X104714286Y-106624200D01*
X104714286Y-106624200D02*
X104638095Y-106662295D01*
X104638095Y-106662295D02*
X104561905Y-106662295D01*
X104561905Y-106662295D02*
X104485714Y-106624200D01*
X104485714Y-106624200D02*
X104447619Y-106586104D01*
X104447619Y-106586104D02*
X104409524Y-106509914D01*
X104409524Y-106509914D02*
X104371428Y-106357533D01*
X104371428Y-106357533D02*
X104371428Y-106167057D01*
X104371428Y-106167057D02*
X104409524Y-106014676D01*
X104409524Y-106014676D02*
X104447619Y-105938485D01*
X104447619Y-105938485D02*
X104485714Y-105900390D01*
X104485714Y-105900390D02*
X104561905Y-105862295D01*
X105323810Y-105862295D02*
X105400000Y-105862295D01*
X105400000Y-105862295D02*
X105476191Y-105900390D01*
X105476191Y-105900390D02*
X105514286Y-105938485D01*
X105514286Y-105938485D02*
X105552381Y-106014676D01*
X105552381Y-106014676D02*
X105590476Y-106167057D01*
X105590476Y-106167057D02*
X105590476Y-106357533D01*
X105590476Y-106357533D02*
X105552381Y-106509914D01*
X105552381Y-106509914D02*
X105514286Y-106586104D01*
X105514286Y-106586104D02*
X105476191Y-106624200D01*
X105476191Y-106624200D02*
X105400000Y-106662295D01*
X105400000Y-106662295D02*
X105323810Y-106662295D01*
X105323810Y-106662295D02*
X105247619Y-106624200D01*
X105247619Y-106624200D02*
X105209524Y-106586104D01*
X105209524Y-106586104D02*
X105171429Y-106509914D01*
X105171429Y-106509914D02*
X105133333Y-106357533D01*
X105133333Y-106357533D02*
X105133333Y-106167057D01*
X105133333Y-106167057D02*
X105171429Y-106014676D01*
X105171429Y-106014676D02*
X105209524Y-105938485D01*
X105209524Y-105938485D02*
X105247619Y-105900390D01*
X105247619Y-105900390D02*
X105323810Y-105862295D01*
X105149762Y-116237104D02*
X105111666Y-116275200D01*
X105111666Y-116275200D02*
X104997381Y-116313295D01*
X104997381Y-116313295D02*
X104921190Y-116313295D01*
X104921190Y-116313295D02*
X104806904Y-116275200D01*
X104806904Y-116275200D02*
X104730714Y-116199009D01*
X104730714Y-116199009D02*
X104692619Y-116122819D01*
X104692619Y-116122819D02*
X104654523Y-115970438D01*
X104654523Y-115970438D02*
X104654523Y-115856152D01*
X104654523Y-115856152D02*
X104692619Y-115703771D01*
X104692619Y-115703771D02*
X104730714Y-115627580D01*
X104730714Y-115627580D02*
X104806904Y-115551390D01*
X104806904Y-115551390D02*
X104921190Y-115513295D01*
X104921190Y-115513295D02*
X104997381Y-115513295D01*
X104997381Y-115513295D02*
X105111666Y-115551390D01*
X105111666Y-115551390D02*
X105149762Y-115589485D01*
X105911666Y-116313295D02*
X105454523Y-116313295D01*
X105683095Y-116313295D02*
X105683095Y-115513295D01*
X105683095Y-115513295D02*
X105606904Y-115627580D01*
X105606904Y-115627580D02*
X105530714Y-115703771D01*
X105530714Y-115703771D02*
X105454523Y-115741866D01*
X106406905Y-115513295D02*
X106483095Y-115513295D01*
X106483095Y-115513295D02*
X106559286Y-115551390D01*
X106559286Y-115551390D02*
X106597381Y-115589485D01*
X106597381Y-115589485D02*
X106635476Y-115665676D01*
X106635476Y-115665676D02*
X106673571Y-115818057D01*
X106673571Y-115818057D02*
X106673571Y-116008533D01*
X106673571Y-116008533D02*
X106635476Y-116160914D01*
X106635476Y-116160914D02*
X106597381Y-116237104D01*
X106597381Y-116237104D02*
X106559286Y-116275200D01*
X106559286Y-116275200D02*
X106483095Y-116313295D01*
X106483095Y-116313295D02*
X106406905Y-116313295D01*
X106406905Y-116313295D02*
X106330714Y-116275200D01*
X106330714Y-116275200D02*
X106292619Y-116237104D01*
X106292619Y-116237104D02*
X106254524Y-116160914D01*
X106254524Y-116160914D02*
X106216428Y-116008533D01*
X106216428Y-116008533D02*
X106216428Y-115818057D01*
X106216428Y-115818057D02*
X106254524Y-115665676D01*
X106254524Y-115665676D02*
X106292619Y-115589485D01*
X106292619Y-115589485D02*
X106330714Y-115551390D01*
X106330714Y-115551390D02*
X106406905Y-115513295D01*
X107435476Y-116313295D02*
X106978333Y-116313295D01*
X107206905Y-116313295D02*
X107206905Y-115513295D01*
X107206905Y-115513295D02*
X107130714Y-115627580D01*
X107130714Y-115627580D02*
X107054524Y-115703771D01*
X107054524Y-115703771D02*
X106978333Y-115741866D01*
X105149762Y-115221104D02*
X105111666Y-115259200D01*
X105111666Y-115259200D02*
X104997381Y-115297295D01*
X104997381Y-115297295D02*
X104921190Y-115297295D01*
X104921190Y-115297295D02*
X104806904Y-115259200D01*
X104806904Y-115259200D02*
X104730714Y-115183009D01*
X104730714Y-115183009D02*
X104692619Y-115106819D01*
X104692619Y-115106819D02*
X104654523Y-114954438D01*
X104654523Y-114954438D02*
X104654523Y-114840152D01*
X104654523Y-114840152D02*
X104692619Y-114687771D01*
X104692619Y-114687771D02*
X104730714Y-114611580D01*
X104730714Y-114611580D02*
X104806904Y-114535390D01*
X104806904Y-114535390D02*
X104921190Y-114497295D01*
X104921190Y-114497295D02*
X104997381Y-114497295D01*
X104997381Y-114497295D02*
X105111666Y-114535390D01*
X105111666Y-114535390D02*
X105149762Y-114573485D01*
X105911666Y-115297295D02*
X105454523Y-115297295D01*
X105683095Y-115297295D02*
X105683095Y-114497295D01*
X105683095Y-114497295D02*
X105606904Y-114611580D01*
X105606904Y-114611580D02*
X105530714Y-114687771D01*
X105530714Y-114687771D02*
X105454523Y-114725866D01*
X106406905Y-114497295D02*
X106483095Y-114497295D01*
X106483095Y-114497295D02*
X106559286Y-114535390D01*
X106559286Y-114535390D02*
X106597381Y-114573485D01*
X106597381Y-114573485D02*
X106635476Y-114649676D01*
X106635476Y-114649676D02*
X106673571Y-114802057D01*
X106673571Y-114802057D02*
X106673571Y-114992533D01*
X106673571Y-114992533D02*
X106635476Y-115144914D01*
X106635476Y-115144914D02*
X106597381Y-115221104D01*
X106597381Y-115221104D02*
X106559286Y-115259200D01*
X106559286Y-115259200D02*
X106483095Y-115297295D01*
X106483095Y-115297295D02*
X106406905Y-115297295D01*
X106406905Y-115297295D02*
X106330714Y-115259200D01*
X106330714Y-115259200D02*
X106292619Y-115221104D01*
X106292619Y-115221104D02*
X106254524Y-115144914D01*
X106254524Y-115144914D02*
X106216428Y-114992533D01*
X106216428Y-114992533D02*
X106216428Y-114802057D01*
X106216428Y-114802057D02*
X106254524Y-114649676D01*
X106254524Y-114649676D02*
X106292619Y-114573485D01*
X106292619Y-114573485D02*
X106330714Y-114535390D01*
X106330714Y-114535390D02*
X106406905Y-114497295D01*
X106940238Y-114497295D02*
X107435476Y-114497295D01*
X107435476Y-114497295D02*
X107168810Y-114802057D01*
X107168810Y-114802057D02*
X107283095Y-114802057D01*
X107283095Y-114802057D02*
X107359286Y-114840152D01*
X107359286Y-114840152D02*
X107397381Y-114878247D01*
X107397381Y-114878247D02*
X107435476Y-114954438D01*
X107435476Y-114954438D02*
X107435476Y-115144914D01*
X107435476Y-115144914D02*
X107397381Y-115221104D01*
X107397381Y-115221104D02*
X107359286Y-115259200D01*
X107359286Y-115259200D02*
X107283095Y-115297295D01*
X107283095Y-115297295D02*
X107054524Y-115297295D01*
X107054524Y-115297295D02*
X106978333Y-115259200D01*
X106978333Y-115259200D02*
X106940238Y-115221104D01*
X105149762Y-114205104D02*
X105111666Y-114243200D01*
X105111666Y-114243200D02*
X104997381Y-114281295D01*
X104997381Y-114281295D02*
X104921190Y-114281295D01*
X104921190Y-114281295D02*
X104806904Y-114243200D01*
X104806904Y-114243200D02*
X104730714Y-114167009D01*
X104730714Y-114167009D02*
X104692619Y-114090819D01*
X104692619Y-114090819D02*
X104654523Y-113938438D01*
X104654523Y-113938438D02*
X104654523Y-113824152D01*
X104654523Y-113824152D02*
X104692619Y-113671771D01*
X104692619Y-113671771D02*
X104730714Y-113595580D01*
X104730714Y-113595580D02*
X104806904Y-113519390D01*
X104806904Y-113519390D02*
X104921190Y-113481295D01*
X104921190Y-113481295D02*
X104997381Y-113481295D01*
X104997381Y-113481295D02*
X105111666Y-113519390D01*
X105111666Y-113519390D02*
X105149762Y-113557485D01*
X105911666Y-114281295D02*
X105454523Y-114281295D01*
X105683095Y-114281295D02*
X105683095Y-113481295D01*
X105683095Y-113481295D02*
X105606904Y-113595580D01*
X105606904Y-113595580D02*
X105530714Y-113671771D01*
X105530714Y-113671771D02*
X105454523Y-113709866D01*
X106406905Y-113481295D02*
X106483095Y-113481295D01*
X106483095Y-113481295D02*
X106559286Y-113519390D01*
X106559286Y-113519390D02*
X106597381Y-113557485D01*
X106597381Y-113557485D02*
X106635476Y-113633676D01*
X106635476Y-113633676D02*
X106673571Y-113786057D01*
X106673571Y-113786057D02*
X106673571Y-113976533D01*
X106673571Y-113976533D02*
X106635476Y-114128914D01*
X106635476Y-114128914D02*
X106597381Y-114205104D01*
X106597381Y-114205104D02*
X106559286Y-114243200D01*
X106559286Y-114243200D02*
X106483095Y-114281295D01*
X106483095Y-114281295D02*
X106406905Y-114281295D01*
X106406905Y-114281295D02*
X106330714Y-114243200D01*
X106330714Y-114243200D02*
X106292619Y-114205104D01*
X106292619Y-114205104D02*
X106254524Y-114128914D01*
X106254524Y-114128914D02*
X106216428Y-113976533D01*
X106216428Y-113976533D02*
X106216428Y-113786057D01*
X106216428Y-113786057D02*
X106254524Y-113633676D01*
X106254524Y-113633676D02*
X106292619Y-113557485D01*
X106292619Y-113557485D02*
X106330714Y-113519390D01*
X106330714Y-113519390D02*
X106406905Y-113481295D01*
X107359286Y-113747961D02*
X107359286Y-114281295D01*
X107168810Y-113443200D02*
X106978333Y-114014628D01*
X106978333Y-114014628D02*
X107473572Y-114014628D01*
X107423295Y-101606285D02*
X107042342Y-101872952D01*
X107423295Y-102063428D02*
X106623295Y-102063428D01*
X106623295Y-102063428D02*
X106623295Y-101758666D01*
X106623295Y-101758666D02*
X106661390Y-101682476D01*
X106661390Y-101682476D02*
X106699485Y-101644381D01*
X106699485Y-101644381D02*
X106775676Y-101606285D01*
X106775676Y-101606285D02*
X106889961Y-101606285D01*
X106889961Y-101606285D02*
X106966152Y-101644381D01*
X106966152Y-101644381D02*
X107004247Y-101682476D01*
X107004247Y-101682476D02*
X107042342Y-101758666D01*
X107042342Y-101758666D02*
X107042342Y-102063428D01*
X106699485Y-101301524D02*
X106661390Y-101263428D01*
X106661390Y-101263428D02*
X106623295Y-101187238D01*
X106623295Y-101187238D02*
X106623295Y-100996762D01*
X106623295Y-100996762D02*
X106661390Y-100920571D01*
X106661390Y-100920571D02*
X106699485Y-100882476D01*
X106699485Y-100882476D02*
X106775676Y-100844381D01*
X106775676Y-100844381D02*
X106851866Y-100844381D01*
X106851866Y-100844381D02*
X106966152Y-100882476D01*
X106966152Y-100882476D02*
X107423295Y-101339619D01*
X107423295Y-101339619D02*
X107423295Y-100844381D01*
X107423295Y-100463428D02*
X107423295Y-100311047D01*
X107423295Y-100311047D02*
X107385200Y-100234857D01*
X107385200Y-100234857D02*
X107347104Y-100196761D01*
X107347104Y-100196761D02*
X107232819Y-100120571D01*
X107232819Y-100120571D02*
X107080438Y-100082476D01*
X107080438Y-100082476D02*
X106775676Y-100082476D01*
X106775676Y-100082476D02*
X106699485Y-100120571D01*
X106699485Y-100120571D02*
X106661390Y-100158666D01*
X106661390Y-100158666D02*
X106623295Y-100234857D01*
X106623295Y-100234857D02*
X106623295Y-100387238D01*
X106623295Y-100387238D02*
X106661390Y-100463428D01*
X106661390Y-100463428D02*
X106699485Y-100501523D01*
X106699485Y-100501523D02*
X106775676Y-100539619D01*
X106775676Y-100539619D02*
X106966152Y-100539619D01*
X106966152Y-100539619D02*
X107042342Y-100501523D01*
X107042342Y-100501523D02*
X107080438Y-100463428D01*
X107080438Y-100463428D02*
X107118533Y-100387238D01*
X107118533Y-100387238D02*
X107118533Y-100234857D01*
X107118533Y-100234857D02*
X107080438Y-100158666D01*
X107080438Y-100158666D02*
X107042342Y-100120571D01*
X107042342Y-100120571D02*
X106966152Y-100082476D01*
X105899342Y-101793458D02*
X106280295Y-101793458D01*
X105480295Y-102060125D02*
X105899342Y-101793458D01*
X105899342Y-101793458D02*
X105480295Y-101526792D01*
X105556485Y-101298221D02*
X105518390Y-101260125D01*
X105518390Y-101260125D02*
X105480295Y-101183935D01*
X105480295Y-101183935D02*
X105480295Y-100993459D01*
X105480295Y-100993459D02*
X105518390Y-100917268D01*
X105518390Y-100917268D02*
X105556485Y-100879173D01*
X105556485Y-100879173D02*
X105632676Y-100841078D01*
X105632676Y-100841078D02*
X105708866Y-100841078D01*
X105708866Y-100841078D02*
X105823152Y-100879173D01*
X105823152Y-100879173D02*
X106280295Y-101336316D01*
X106280295Y-101336316D02*
X106280295Y-100841078D01*
X146272935Y-126507826D02*
X146844363Y-126507826D01*
X146844363Y-126507826D02*
X146958649Y-126545921D01*
X146958649Y-126545921D02*
X147034840Y-126622112D01*
X147034840Y-126622112D02*
X147072935Y-126736397D01*
X147072935Y-126736397D02*
X147072935Y-126812588D01*
X146349125Y-126164969D02*
X146311030Y-126126873D01*
X146311030Y-126126873D02*
X146272935Y-126050683D01*
X146272935Y-126050683D02*
X146272935Y-125860207D01*
X146272935Y-125860207D02*
X146311030Y-125784016D01*
X146311030Y-125784016D02*
X146349125Y-125745921D01*
X146349125Y-125745921D02*
X146425316Y-125707826D01*
X146425316Y-125707826D02*
X146501506Y-125707826D01*
X146501506Y-125707826D02*
X146615792Y-125745921D01*
X146615792Y-125745921D02*
X147072935Y-126203064D01*
X147072935Y-126203064D02*
X147072935Y-125707826D01*
X122675714Y-107994795D02*
X122409047Y-107613842D01*
X122218571Y-107994795D02*
X122218571Y-107194795D01*
X122218571Y-107194795D02*
X122523333Y-107194795D01*
X122523333Y-107194795D02*
X122599523Y-107232890D01*
X122599523Y-107232890D02*
X122637618Y-107270985D01*
X122637618Y-107270985D02*
X122675714Y-107347176D01*
X122675714Y-107347176D02*
X122675714Y-107461461D01*
X122675714Y-107461461D02*
X122637618Y-107537652D01*
X122637618Y-107537652D02*
X122599523Y-107575747D01*
X122599523Y-107575747D02*
X122523333Y-107613842D01*
X122523333Y-107613842D02*
X122218571Y-107613842D01*
X122980475Y-107270985D02*
X123018571Y-107232890D01*
X123018571Y-107232890D02*
X123094761Y-107194795D01*
X123094761Y-107194795D02*
X123285237Y-107194795D01*
X123285237Y-107194795D02*
X123361428Y-107232890D01*
X123361428Y-107232890D02*
X123399523Y-107270985D01*
X123399523Y-107270985D02*
X123437618Y-107347176D01*
X123437618Y-107347176D02*
X123437618Y-107423366D01*
X123437618Y-107423366D02*
X123399523Y-107537652D01*
X123399523Y-107537652D02*
X122942380Y-107994795D01*
X122942380Y-107994795D02*
X123437618Y-107994795D01*
X123704285Y-107194795D02*
X124237619Y-107194795D01*
X124237619Y-107194795D02*
X123894761Y-107994795D01*
X122675714Y-109074295D02*
X122409047Y-108693342D01*
X122218571Y-109074295D02*
X122218571Y-108274295D01*
X122218571Y-108274295D02*
X122523333Y-108274295D01*
X122523333Y-108274295D02*
X122599523Y-108312390D01*
X122599523Y-108312390D02*
X122637618Y-108350485D01*
X122637618Y-108350485D02*
X122675714Y-108426676D01*
X122675714Y-108426676D02*
X122675714Y-108540961D01*
X122675714Y-108540961D02*
X122637618Y-108617152D01*
X122637618Y-108617152D02*
X122599523Y-108655247D01*
X122599523Y-108655247D02*
X122523333Y-108693342D01*
X122523333Y-108693342D02*
X122218571Y-108693342D01*
X122980475Y-108350485D02*
X123018571Y-108312390D01*
X123018571Y-108312390D02*
X123094761Y-108274295D01*
X123094761Y-108274295D02*
X123285237Y-108274295D01*
X123285237Y-108274295D02*
X123361428Y-108312390D01*
X123361428Y-108312390D02*
X123399523Y-108350485D01*
X123399523Y-108350485D02*
X123437618Y-108426676D01*
X123437618Y-108426676D02*
X123437618Y-108502866D01*
X123437618Y-108502866D02*
X123399523Y-108617152D01*
X123399523Y-108617152D02*
X122942380Y-109074295D01*
X122942380Y-109074295D02*
X123437618Y-109074295D01*
X123894761Y-108617152D02*
X123818571Y-108579057D01*
X123818571Y-108579057D02*
X123780476Y-108540961D01*
X123780476Y-108540961D02*
X123742380Y-108464771D01*
X123742380Y-108464771D02*
X123742380Y-108426676D01*
X123742380Y-108426676D02*
X123780476Y-108350485D01*
X123780476Y-108350485D02*
X123818571Y-108312390D01*
X123818571Y-108312390D02*
X123894761Y-108274295D01*
X123894761Y-108274295D02*
X124047142Y-108274295D01*
X124047142Y-108274295D02*
X124123333Y-108312390D01*
X124123333Y-108312390D02*
X124161428Y-108350485D01*
X124161428Y-108350485D02*
X124199523Y-108426676D01*
X124199523Y-108426676D02*
X124199523Y-108464771D01*
X124199523Y-108464771D02*
X124161428Y-108540961D01*
X124161428Y-108540961D02*
X124123333Y-108579057D01*
X124123333Y-108579057D02*
X124047142Y-108617152D01*
X124047142Y-108617152D02*
X123894761Y-108617152D01*
X123894761Y-108617152D02*
X123818571Y-108655247D01*
X123818571Y-108655247D02*
X123780476Y-108693342D01*
X123780476Y-108693342D02*
X123742380Y-108769533D01*
X123742380Y-108769533D02*
X123742380Y-108921914D01*
X123742380Y-108921914D02*
X123780476Y-108998104D01*
X123780476Y-108998104D02*
X123818571Y-109036200D01*
X123818571Y-109036200D02*
X123894761Y-109074295D01*
X123894761Y-109074295D02*
X124047142Y-109074295D01*
X124047142Y-109074295D02*
X124123333Y-109036200D01*
X124123333Y-109036200D02*
X124161428Y-108998104D01*
X124161428Y-108998104D02*
X124199523Y-108921914D01*
X124199523Y-108921914D02*
X124199523Y-108769533D01*
X124199523Y-108769533D02*
X124161428Y-108693342D01*
X124161428Y-108693342D02*
X124123333Y-108655247D01*
X124123333Y-108655247D02*
X124047142Y-108617152D01*
X136811104Y-94875332D02*
X136849200Y-94913428D01*
X136849200Y-94913428D02*
X136887295Y-95027713D01*
X136887295Y-95027713D02*
X136887295Y-95103904D01*
X136887295Y-95103904D02*
X136849200Y-95218190D01*
X136849200Y-95218190D02*
X136773009Y-95294380D01*
X136773009Y-95294380D02*
X136696819Y-95332475D01*
X136696819Y-95332475D02*
X136544438Y-95370571D01*
X136544438Y-95370571D02*
X136430152Y-95370571D01*
X136430152Y-95370571D02*
X136277771Y-95332475D01*
X136277771Y-95332475D02*
X136201580Y-95294380D01*
X136201580Y-95294380D02*
X136125390Y-95218190D01*
X136125390Y-95218190D02*
X136087295Y-95103904D01*
X136087295Y-95103904D02*
X136087295Y-95027713D01*
X136087295Y-95027713D02*
X136125390Y-94913428D01*
X136125390Y-94913428D02*
X136163485Y-94875332D01*
X136087295Y-94608666D02*
X136087295Y-94113428D01*
X136087295Y-94113428D02*
X136392057Y-94380094D01*
X136392057Y-94380094D02*
X136392057Y-94265809D01*
X136392057Y-94265809D02*
X136430152Y-94189618D01*
X136430152Y-94189618D02*
X136468247Y-94151523D01*
X136468247Y-94151523D02*
X136544438Y-94113428D01*
X136544438Y-94113428D02*
X136734914Y-94113428D01*
X136734914Y-94113428D02*
X136811104Y-94151523D01*
X136811104Y-94151523D02*
X136849200Y-94189618D01*
X136849200Y-94189618D02*
X136887295Y-94265809D01*
X136887295Y-94265809D02*
X136887295Y-94494380D01*
X136887295Y-94494380D02*
X136849200Y-94570571D01*
X136849200Y-94570571D02*
X136811104Y-94608666D01*
X135871295Y-94875332D02*
X135490342Y-95141999D01*
X135871295Y-95332475D02*
X135071295Y-95332475D01*
X135071295Y-95332475D02*
X135071295Y-95027713D01*
X135071295Y-95027713D02*
X135109390Y-94951523D01*
X135109390Y-94951523D02*
X135147485Y-94913428D01*
X135147485Y-94913428D02*
X135223676Y-94875332D01*
X135223676Y-94875332D02*
X135337961Y-94875332D01*
X135337961Y-94875332D02*
X135414152Y-94913428D01*
X135414152Y-94913428D02*
X135452247Y-94951523D01*
X135452247Y-94951523D02*
X135490342Y-95027713D01*
X135490342Y-95027713D02*
X135490342Y-95332475D01*
X135071295Y-94608666D02*
X135071295Y-94113428D01*
X135071295Y-94113428D02*
X135376057Y-94380094D01*
X135376057Y-94380094D02*
X135376057Y-94265809D01*
X135376057Y-94265809D02*
X135414152Y-94189618D01*
X135414152Y-94189618D02*
X135452247Y-94151523D01*
X135452247Y-94151523D02*
X135528438Y-94113428D01*
X135528438Y-94113428D02*
X135718914Y-94113428D01*
X135718914Y-94113428D02*
X135795104Y-94151523D01*
X135795104Y-94151523D02*
X135833200Y-94189618D01*
X135833200Y-94189618D02*
X135871295Y-94265809D01*
X135871295Y-94265809D02*
X135871295Y-94494380D01*
X135871295Y-94494380D02*
X135833200Y-94570571D01*
X135833200Y-94570571D02*
X135795104Y-94608666D01*
X126840495Y-107171407D02*
X127488114Y-107171407D01*
X127488114Y-107171407D02*
X127564304Y-107133312D01*
X127564304Y-107133312D02*
X127602400Y-107095217D01*
X127602400Y-107095217D02*
X127640495Y-107019026D01*
X127640495Y-107019026D02*
X127640495Y-106866645D01*
X127640495Y-106866645D02*
X127602400Y-106790455D01*
X127602400Y-106790455D02*
X127564304Y-106752360D01*
X127564304Y-106752360D02*
X127488114Y-106714264D01*
X127488114Y-106714264D02*
X126840495Y-106714264D01*
X127640495Y-105914265D02*
X127640495Y-106371408D01*
X127640495Y-106142836D02*
X126840495Y-106142836D01*
X126840495Y-106142836D02*
X126954780Y-106219027D01*
X126954780Y-106219027D02*
X127030971Y-106295217D01*
X127030971Y-106295217D02*
X127069066Y-106371408D01*
X146098095Y-95057026D02*
X146669523Y-95057026D01*
X146669523Y-95057026D02*
X146783809Y-95095121D01*
X146783809Y-95095121D02*
X146860000Y-95171312D01*
X146860000Y-95171312D02*
X146898095Y-95285597D01*
X146898095Y-95285597D02*
X146898095Y-95361788D01*
X146098095Y-94752264D02*
X146098095Y-94257026D01*
X146098095Y-94257026D02*
X146402857Y-94523692D01*
X146402857Y-94523692D02*
X146402857Y-94409407D01*
X146402857Y-94409407D02*
X146440952Y-94333216D01*
X146440952Y-94333216D02*
X146479047Y-94295121D01*
X146479047Y-94295121D02*
X146555238Y-94257026D01*
X146555238Y-94257026D02*
X146745714Y-94257026D01*
X146745714Y-94257026D02*
X146821904Y-94295121D01*
X146821904Y-94295121D02*
X146860000Y-94333216D01*
X146860000Y-94333216D02*
X146898095Y-94409407D01*
X146898095Y-94409407D02*
X146898095Y-94637978D01*
X146898095Y-94637978D02*
X146860000Y-94714169D01*
X146860000Y-94714169D02*
X146821904Y-94752264D01*
X126062295Y-127233332D02*
X125681342Y-127499999D01*
X126062295Y-127690475D02*
X125262295Y-127690475D01*
X125262295Y-127690475D02*
X125262295Y-127385713D01*
X125262295Y-127385713D02*
X125300390Y-127309523D01*
X125300390Y-127309523D02*
X125338485Y-127271428D01*
X125338485Y-127271428D02*
X125414676Y-127233332D01*
X125414676Y-127233332D02*
X125528961Y-127233332D01*
X125528961Y-127233332D02*
X125605152Y-127271428D01*
X125605152Y-127271428D02*
X125643247Y-127309523D01*
X125643247Y-127309523D02*
X125681342Y-127385713D01*
X125681342Y-127385713D02*
X125681342Y-127690475D01*
X126062295Y-126852380D02*
X126062295Y-126699999D01*
X126062295Y-126699999D02*
X126024200Y-126623809D01*
X126024200Y-126623809D02*
X125986104Y-126585713D01*
X125986104Y-126585713D02*
X125871819Y-126509523D01*
X125871819Y-126509523D02*
X125719438Y-126471428D01*
X125719438Y-126471428D02*
X125414676Y-126471428D01*
X125414676Y-126471428D02*
X125338485Y-126509523D01*
X125338485Y-126509523D02*
X125300390Y-126547618D01*
X125300390Y-126547618D02*
X125262295Y-126623809D01*
X125262295Y-126623809D02*
X125262295Y-126776190D01*
X125262295Y-126776190D02*
X125300390Y-126852380D01*
X125300390Y-126852380D02*
X125338485Y-126890475D01*
X125338485Y-126890475D02*
X125414676Y-126928571D01*
X125414676Y-126928571D02*
X125605152Y-126928571D01*
X125605152Y-126928571D02*
X125681342Y-126890475D01*
X125681342Y-126890475D02*
X125719438Y-126852380D01*
X125719438Y-126852380D02*
X125757533Y-126776190D01*
X125757533Y-126776190D02*
X125757533Y-126623809D01*
X125757533Y-126623809D02*
X125719438Y-126547618D01*
X125719438Y-126547618D02*
X125681342Y-126509523D01*
X125681342Y-126509523D02*
X125605152Y-126471428D01*
X127162295Y-127314285D02*
X126781342Y-127580952D01*
X127162295Y-127771428D02*
X126362295Y-127771428D01*
X126362295Y-127771428D02*
X126362295Y-127466666D01*
X126362295Y-127466666D02*
X126400390Y-127390476D01*
X126400390Y-127390476D02*
X126438485Y-127352381D01*
X126438485Y-127352381D02*
X126514676Y-127314285D01*
X126514676Y-127314285D02*
X126628961Y-127314285D01*
X126628961Y-127314285D02*
X126705152Y-127352381D01*
X126705152Y-127352381D02*
X126743247Y-127390476D01*
X126743247Y-127390476D02*
X126781342Y-127466666D01*
X126781342Y-127466666D02*
X126781342Y-127771428D01*
X127162295Y-126552381D02*
X127162295Y-127009524D01*
X127162295Y-126780952D02*
X126362295Y-126780952D01*
X126362295Y-126780952D02*
X126476580Y-126857143D01*
X126476580Y-126857143D02*
X126552771Y-126933333D01*
X126552771Y-126933333D02*
X126590866Y-127009524D01*
X126362295Y-126057142D02*
X126362295Y-125980952D01*
X126362295Y-125980952D02*
X126400390Y-125904761D01*
X126400390Y-125904761D02*
X126438485Y-125866666D01*
X126438485Y-125866666D02*
X126514676Y-125828571D01*
X126514676Y-125828571D02*
X126667057Y-125790476D01*
X126667057Y-125790476D02*
X126857533Y-125790476D01*
X126857533Y-125790476D02*
X127009914Y-125828571D01*
X127009914Y-125828571D02*
X127086104Y-125866666D01*
X127086104Y-125866666D02*
X127124200Y-125904761D01*
X127124200Y-125904761D02*
X127162295Y-125980952D01*
X127162295Y-125980952D02*
X127162295Y-126057142D01*
X127162295Y-126057142D02*
X127124200Y-126133333D01*
X127124200Y-126133333D02*
X127086104Y-126171428D01*
X127086104Y-126171428D02*
X127009914Y-126209523D01*
X127009914Y-126209523D02*
X126857533Y-126247619D01*
X126857533Y-126247619D02*
X126667057Y-126247619D01*
X126667057Y-126247619D02*
X126514676Y-126209523D01*
X126514676Y-126209523D02*
X126438485Y-126171428D01*
X126438485Y-126171428D02*
X126400390Y-126133333D01*
X126400390Y-126133333D02*
X126362295Y-126057142D01*
X103985714Y-105562295D02*
X103719047Y-105181342D01*
X103528571Y-105562295D02*
X103528571Y-104762295D01*
X103528571Y-104762295D02*
X103833333Y-104762295D01*
X103833333Y-104762295D02*
X103909523Y-104800390D01*
X103909523Y-104800390D02*
X103947618Y-104838485D01*
X103947618Y-104838485D02*
X103985714Y-104914676D01*
X103985714Y-104914676D02*
X103985714Y-105028961D01*
X103985714Y-105028961D02*
X103947618Y-105105152D01*
X103947618Y-105105152D02*
X103909523Y-105143247D01*
X103909523Y-105143247D02*
X103833333Y-105181342D01*
X103833333Y-105181342D02*
X103528571Y-105181342D01*
X104252380Y-104762295D02*
X104747618Y-104762295D01*
X104747618Y-104762295D02*
X104480952Y-105067057D01*
X104480952Y-105067057D02*
X104595237Y-105067057D01*
X104595237Y-105067057D02*
X104671428Y-105105152D01*
X104671428Y-105105152D02*
X104709523Y-105143247D01*
X104709523Y-105143247D02*
X104747618Y-105219438D01*
X104747618Y-105219438D02*
X104747618Y-105409914D01*
X104747618Y-105409914D02*
X104709523Y-105486104D01*
X104709523Y-105486104D02*
X104671428Y-105524200D01*
X104671428Y-105524200D02*
X104595237Y-105562295D01*
X104595237Y-105562295D02*
X104366666Y-105562295D01*
X104366666Y-105562295D02*
X104290475Y-105524200D01*
X104290475Y-105524200D02*
X104252380Y-105486104D01*
X105509523Y-105562295D02*
X105052380Y-105562295D01*
X105280952Y-105562295D02*
X105280952Y-104762295D01*
X105280952Y-104762295D02*
X105204761Y-104876580D01*
X105204761Y-104876580D02*
X105128571Y-104952771D01*
X105128571Y-104952771D02*
X105052380Y-104990866D01*
X111685714Y-116886104D02*
X111647618Y-116924200D01*
X111647618Y-116924200D02*
X111533333Y-116962295D01*
X111533333Y-116962295D02*
X111457142Y-116962295D01*
X111457142Y-116962295D02*
X111342856Y-116924200D01*
X111342856Y-116924200D02*
X111266666Y-116848009D01*
X111266666Y-116848009D02*
X111228571Y-116771819D01*
X111228571Y-116771819D02*
X111190475Y-116619438D01*
X111190475Y-116619438D02*
X111190475Y-116505152D01*
X111190475Y-116505152D02*
X111228571Y-116352771D01*
X111228571Y-116352771D02*
X111266666Y-116276580D01*
X111266666Y-116276580D02*
X111342856Y-116200390D01*
X111342856Y-116200390D02*
X111457142Y-116162295D01*
X111457142Y-116162295D02*
X111533333Y-116162295D01*
X111533333Y-116162295D02*
X111647618Y-116200390D01*
X111647618Y-116200390D02*
X111685714Y-116238485D01*
X112066666Y-116962295D02*
X112219047Y-116962295D01*
X112219047Y-116962295D02*
X112295237Y-116924200D01*
X112295237Y-116924200D02*
X112333333Y-116886104D01*
X112333333Y-116886104D02*
X112409523Y-116771819D01*
X112409523Y-116771819D02*
X112447618Y-116619438D01*
X112447618Y-116619438D02*
X112447618Y-116314676D01*
X112447618Y-116314676D02*
X112409523Y-116238485D01*
X112409523Y-116238485D02*
X112371428Y-116200390D01*
X112371428Y-116200390D02*
X112295237Y-116162295D01*
X112295237Y-116162295D02*
X112142856Y-116162295D01*
X112142856Y-116162295D02*
X112066666Y-116200390D01*
X112066666Y-116200390D02*
X112028571Y-116238485D01*
X112028571Y-116238485D02*
X111990475Y-116314676D01*
X111990475Y-116314676D02*
X111990475Y-116505152D01*
X111990475Y-116505152D02*
X112028571Y-116581342D01*
X112028571Y-116581342D02*
X112066666Y-116619438D01*
X112066666Y-116619438D02*
X112142856Y-116657533D01*
X112142856Y-116657533D02*
X112295237Y-116657533D01*
X112295237Y-116657533D02*
X112371428Y-116619438D01*
X112371428Y-116619438D02*
X112409523Y-116581342D01*
X112409523Y-116581342D02*
X112447618Y-116505152D01*
X113133333Y-116428961D02*
X113133333Y-116962295D01*
X112942857Y-116124200D02*
X112752380Y-116695628D01*
X112752380Y-116695628D02*
X113247619Y-116695628D01*
X104571833Y-119132795D02*
X104571833Y-119704223D01*
X104571833Y-119704223D02*
X104533738Y-119818509D01*
X104533738Y-119818509D02*
X104457547Y-119894700D01*
X104457547Y-119894700D02*
X104343262Y-119932795D01*
X104343262Y-119932795D02*
X104267071Y-119932795D01*
X105371833Y-119932795D02*
X104914690Y-119932795D01*
X105143262Y-119932795D02*
X105143262Y-119132795D01*
X105143262Y-119132795D02*
X105067071Y-119247080D01*
X105067071Y-119247080D02*
X104990881Y-119323271D01*
X104990881Y-119323271D02*
X104914690Y-119361366D01*
X146297667Y-119412104D02*
X146259571Y-119450200D01*
X146259571Y-119450200D02*
X146145286Y-119488295D01*
X146145286Y-119488295D02*
X146069095Y-119488295D01*
X146069095Y-119488295D02*
X145954809Y-119450200D01*
X145954809Y-119450200D02*
X145878619Y-119374009D01*
X145878619Y-119374009D02*
X145840524Y-119297819D01*
X145840524Y-119297819D02*
X145802428Y-119145438D01*
X145802428Y-119145438D02*
X145802428Y-119031152D01*
X145802428Y-119031152D02*
X145840524Y-118878771D01*
X145840524Y-118878771D02*
X145878619Y-118802580D01*
X145878619Y-118802580D02*
X145954809Y-118726390D01*
X145954809Y-118726390D02*
X146069095Y-118688295D01*
X146069095Y-118688295D02*
X146145286Y-118688295D01*
X146145286Y-118688295D02*
X146259571Y-118726390D01*
X146259571Y-118726390D02*
X146297667Y-118764485D01*
X146678619Y-119488295D02*
X146831000Y-119488295D01*
X146831000Y-119488295D02*
X146907190Y-119450200D01*
X146907190Y-119450200D02*
X146945286Y-119412104D01*
X146945286Y-119412104D02*
X147021476Y-119297819D01*
X147021476Y-119297819D02*
X147059571Y-119145438D01*
X147059571Y-119145438D02*
X147059571Y-118840676D01*
X147059571Y-118840676D02*
X147021476Y-118764485D01*
X147021476Y-118764485D02*
X146983381Y-118726390D01*
X146983381Y-118726390D02*
X146907190Y-118688295D01*
X146907190Y-118688295D02*
X146754809Y-118688295D01*
X146754809Y-118688295D02*
X146678619Y-118726390D01*
X146678619Y-118726390D02*
X146640524Y-118764485D01*
X146640524Y-118764485D02*
X146602428Y-118840676D01*
X146602428Y-118840676D02*
X146602428Y-119031152D01*
X146602428Y-119031152D02*
X146640524Y-119107342D01*
X146640524Y-119107342D02*
X146678619Y-119145438D01*
X146678619Y-119145438D02*
X146754809Y-119183533D01*
X146754809Y-119183533D02*
X146907190Y-119183533D01*
X146907190Y-119183533D02*
X146983381Y-119145438D01*
X146983381Y-119145438D02*
X147021476Y-119107342D01*
X147021476Y-119107342D02*
X147059571Y-119031152D01*
X147821667Y-106978795D02*
X147555000Y-106597842D01*
X147364524Y-106978795D02*
X147364524Y-106178795D01*
X147364524Y-106178795D02*
X147669286Y-106178795D01*
X147669286Y-106178795D02*
X147745476Y-106216890D01*
X147745476Y-106216890D02*
X147783571Y-106254985D01*
X147783571Y-106254985D02*
X147821667Y-106331176D01*
X147821667Y-106331176D02*
X147821667Y-106445461D01*
X147821667Y-106445461D02*
X147783571Y-106521652D01*
X147783571Y-106521652D02*
X147745476Y-106559747D01*
X147745476Y-106559747D02*
X147669286Y-106597842D01*
X147669286Y-106597842D02*
X147364524Y-106597842D01*
X148088333Y-106178795D02*
X148621667Y-106178795D01*
X148621667Y-106178795D02*
X148278809Y-106978795D01*
X147821667Y-108058295D02*
X147555000Y-107677342D01*
X147364524Y-108058295D02*
X147364524Y-107258295D01*
X147364524Y-107258295D02*
X147669286Y-107258295D01*
X147669286Y-107258295D02*
X147745476Y-107296390D01*
X147745476Y-107296390D02*
X147783571Y-107334485D01*
X147783571Y-107334485D02*
X147821667Y-107410676D01*
X147821667Y-107410676D02*
X147821667Y-107524961D01*
X147821667Y-107524961D02*
X147783571Y-107601152D01*
X147783571Y-107601152D02*
X147745476Y-107639247D01*
X147745476Y-107639247D02*
X147669286Y-107677342D01*
X147669286Y-107677342D02*
X147364524Y-107677342D01*
X148278809Y-107601152D02*
X148202619Y-107563057D01*
X148202619Y-107563057D02*
X148164524Y-107524961D01*
X148164524Y-107524961D02*
X148126428Y-107448771D01*
X148126428Y-107448771D02*
X148126428Y-107410676D01*
X148126428Y-107410676D02*
X148164524Y-107334485D01*
X148164524Y-107334485D02*
X148202619Y-107296390D01*
X148202619Y-107296390D02*
X148278809Y-107258295D01*
X148278809Y-107258295D02*
X148431190Y-107258295D01*
X148431190Y-107258295D02*
X148507381Y-107296390D01*
X148507381Y-107296390D02*
X148545476Y-107334485D01*
X148545476Y-107334485D02*
X148583571Y-107410676D01*
X148583571Y-107410676D02*
X148583571Y-107448771D01*
X148583571Y-107448771D02*
X148545476Y-107524961D01*
X148545476Y-107524961D02*
X148507381Y-107563057D01*
X148507381Y-107563057D02*
X148431190Y-107601152D01*
X148431190Y-107601152D02*
X148278809Y-107601152D01*
X148278809Y-107601152D02*
X148202619Y-107639247D01*
X148202619Y-107639247D02*
X148164524Y-107677342D01*
X148164524Y-107677342D02*
X148126428Y-107753533D01*
X148126428Y-107753533D02*
X148126428Y-107905914D01*
X148126428Y-107905914D02*
X148164524Y-107982104D01*
X148164524Y-107982104D02*
X148202619Y-108020200D01*
X148202619Y-108020200D02*
X148278809Y-108058295D01*
X148278809Y-108058295D02*
X148431190Y-108058295D01*
X148431190Y-108058295D02*
X148507381Y-108020200D01*
X148507381Y-108020200D02*
X148545476Y-107982104D01*
X148545476Y-107982104D02*
X148583571Y-107905914D01*
X148583571Y-107905914D02*
X148583571Y-107753533D01*
X148583571Y-107753533D02*
X148545476Y-107677342D01*
X148545476Y-107677342D02*
X148507381Y-107639247D01*
X148507381Y-107639247D02*
X148431190Y-107601152D01*
X151109523Y-119062295D02*
X151566666Y-119062295D01*
X151338094Y-119862295D02*
X151338094Y-119062295D01*
X151833333Y-119862295D02*
X151833333Y-119062295D01*
X151833333Y-119062295D02*
X152138095Y-119062295D01*
X152138095Y-119062295D02*
X152214285Y-119100390D01*
X152214285Y-119100390D02*
X152252380Y-119138485D01*
X152252380Y-119138485D02*
X152290476Y-119214676D01*
X152290476Y-119214676D02*
X152290476Y-119328961D01*
X152290476Y-119328961D02*
X152252380Y-119405152D01*
X152252380Y-119405152D02*
X152214285Y-119443247D01*
X152214285Y-119443247D02*
X152138095Y-119481342D01*
X152138095Y-119481342D02*
X151833333Y-119481342D01*
X153052380Y-119862295D02*
X152595237Y-119862295D01*
X152823809Y-119862295D02*
X152823809Y-119062295D01*
X152823809Y-119062295D02*
X152747618Y-119176580D01*
X152747618Y-119176580D02*
X152671428Y-119252771D01*
X152671428Y-119252771D02*
X152595237Y-119290866D01*
X153738095Y-119328961D02*
X153738095Y-119862295D01*
X153547619Y-119024200D02*
X153357142Y-119595628D01*
X153357142Y-119595628D02*
X153852381Y-119595628D01*
X145662714Y-120491604D02*
X145624618Y-120529700D01*
X145624618Y-120529700D02*
X145510333Y-120567795D01*
X145510333Y-120567795D02*
X145434142Y-120567795D01*
X145434142Y-120567795D02*
X145319856Y-120529700D01*
X145319856Y-120529700D02*
X145243666Y-120453509D01*
X145243666Y-120453509D02*
X145205571Y-120377319D01*
X145205571Y-120377319D02*
X145167475Y-120224938D01*
X145167475Y-120224938D02*
X145167475Y-120110652D01*
X145167475Y-120110652D02*
X145205571Y-119958271D01*
X145205571Y-119958271D02*
X145243666Y-119882080D01*
X145243666Y-119882080D02*
X145319856Y-119805890D01*
X145319856Y-119805890D02*
X145434142Y-119767795D01*
X145434142Y-119767795D02*
X145510333Y-119767795D01*
X145510333Y-119767795D02*
X145624618Y-119805890D01*
X145624618Y-119805890D02*
X145662714Y-119843985D01*
X146424618Y-120567795D02*
X145967475Y-120567795D01*
X146196047Y-120567795D02*
X146196047Y-119767795D01*
X146196047Y-119767795D02*
X146119856Y-119882080D01*
X146119856Y-119882080D02*
X146043666Y-119958271D01*
X146043666Y-119958271D02*
X145967475Y-119996366D01*
X146919857Y-119767795D02*
X146996047Y-119767795D01*
X146996047Y-119767795D02*
X147072238Y-119805890D01*
X147072238Y-119805890D02*
X147110333Y-119843985D01*
X147110333Y-119843985D02*
X147148428Y-119920176D01*
X147148428Y-119920176D02*
X147186523Y-120072557D01*
X147186523Y-120072557D02*
X147186523Y-120263033D01*
X147186523Y-120263033D02*
X147148428Y-120415414D01*
X147148428Y-120415414D02*
X147110333Y-120491604D01*
X147110333Y-120491604D02*
X147072238Y-120529700D01*
X147072238Y-120529700D02*
X146996047Y-120567795D01*
X146996047Y-120567795D02*
X146919857Y-120567795D01*
X146919857Y-120567795D02*
X146843666Y-120529700D01*
X146843666Y-120529700D02*
X146805571Y-120491604D01*
X146805571Y-120491604D02*
X146767476Y-120415414D01*
X146767476Y-120415414D02*
X146729380Y-120263033D01*
X146729380Y-120263033D02*
X146729380Y-120072557D01*
X146729380Y-120072557D02*
X146767476Y-119920176D01*
X146767476Y-119920176D02*
X146805571Y-119843985D01*
X146805571Y-119843985D02*
X146843666Y-119805890D01*
X146843666Y-119805890D02*
X146919857Y-119767795D01*
X141954604Y-114052332D02*
X141992700Y-114090428D01*
X141992700Y-114090428D02*
X142030795Y-114204713D01*
X142030795Y-114204713D02*
X142030795Y-114280904D01*
X142030795Y-114280904D02*
X141992700Y-114395190D01*
X141992700Y-114395190D02*
X141916509Y-114471380D01*
X141916509Y-114471380D02*
X141840319Y-114509475D01*
X141840319Y-114509475D02*
X141687938Y-114547571D01*
X141687938Y-114547571D02*
X141573652Y-114547571D01*
X141573652Y-114547571D02*
X141421271Y-114509475D01*
X141421271Y-114509475D02*
X141345080Y-114471380D01*
X141345080Y-114471380D02*
X141268890Y-114395190D01*
X141268890Y-114395190D02*
X141230795Y-114280904D01*
X141230795Y-114280904D02*
X141230795Y-114204713D01*
X141230795Y-114204713D02*
X141268890Y-114090428D01*
X141268890Y-114090428D02*
X141306985Y-114052332D01*
X141230795Y-113366618D02*
X141230795Y-113518999D01*
X141230795Y-113518999D02*
X141268890Y-113595190D01*
X141268890Y-113595190D02*
X141306985Y-113633285D01*
X141306985Y-113633285D02*
X141421271Y-113709475D01*
X141421271Y-113709475D02*
X141573652Y-113747571D01*
X141573652Y-113747571D02*
X141878414Y-113747571D01*
X141878414Y-113747571D02*
X141954604Y-113709475D01*
X141954604Y-113709475D02*
X141992700Y-113671380D01*
X141992700Y-113671380D02*
X142030795Y-113595190D01*
X142030795Y-113595190D02*
X142030795Y-113442809D01*
X142030795Y-113442809D02*
X141992700Y-113366618D01*
X141992700Y-113366618D02*
X141954604Y-113328523D01*
X141954604Y-113328523D02*
X141878414Y-113290428D01*
X141878414Y-113290428D02*
X141687938Y-113290428D01*
X141687938Y-113290428D02*
X141611747Y-113328523D01*
X141611747Y-113328523D02*
X141573652Y-113366618D01*
X141573652Y-113366618D02*
X141535557Y-113442809D01*
X141535557Y-113442809D02*
X141535557Y-113595190D01*
X141535557Y-113595190D02*
X141573652Y-113671380D01*
X141573652Y-113671380D02*
X141611747Y-113709475D01*
X141611747Y-113709475D02*
X141687938Y-113747571D01*
X145840467Y-108871104D02*
X145802371Y-108909200D01*
X145802371Y-108909200D02*
X145688086Y-108947295D01*
X145688086Y-108947295D02*
X145611895Y-108947295D01*
X145611895Y-108947295D02*
X145497609Y-108909200D01*
X145497609Y-108909200D02*
X145421419Y-108833009D01*
X145421419Y-108833009D02*
X145383324Y-108756819D01*
X145383324Y-108756819D02*
X145345228Y-108604438D01*
X145345228Y-108604438D02*
X145345228Y-108490152D01*
X145345228Y-108490152D02*
X145383324Y-108337771D01*
X145383324Y-108337771D02*
X145421419Y-108261580D01*
X145421419Y-108261580D02*
X145497609Y-108185390D01*
X145497609Y-108185390D02*
X145611895Y-108147295D01*
X145611895Y-108147295D02*
X145688086Y-108147295D01*
X145688086Y-108147295D02*
X145802371Y-108185390D01*
X145802371Y-108185390D02*
X145840467Y-108223485D01*
X146107133Y-108147295D02*
X146640467Y-108147295D01*
X146640467Y-108147295D02*
X146297609Y-108947295D01*
X143017104Y-111182132D02*
X143055200Y-111220228D01*
X143055200Y-111220228D02*
X143093295Y-111334513D01*
X143093295Y-111334513D02*
X143093295Y-111410704D01*
X143093295Y-111410704D02*
X143055200Y-111524990D01*
X143055200Y-111524990D02*
X142979009Y-111601180D01*
X142979009Y-111601180D02*
X142902819Y-111639275D01*
X142902819Y-111639275D02*
X142750438Y-111677371D01*
X142750438Y-111677371D02*
X142636152Y-111677371D01*
X142636152Y-111677371D02*
X142483771Y-111639275D01*
X142483771Y-111639275D02*
X142407580Y-111601180D01*
X142407580Y-111601180D02*
X142331390Y-111524990D01*
X142331390Y-111524990D02*
X142293295Y-111410704D01*
X142293295Y-111410704D02*
X142293295Y-111334513D01*
X142293295Y-111334513D02*
X142331390Y-111220228D01*
X142331390Y-111220228D02*
X142369485Y-111182132D01*
X142636152Y-110724990D02*
X142598057Y-110801180D01*
X142598057Y-110801180D02*
X142559961Y-110839275D01*
X142559961Y-110839275D02*
X142483771Y-110877371D01*
X142483771Y-110877371D02*
X142445676Y-110877371D01*
X142445676Y-110877371D02*
X142369485Y-110839275D01*
X142369485Y-110839275D02*
X142331390Y-110801180D01*
X142331390Y-110801180D02*
X142293295Y-110724990D01*
X142293295Y-110724990D02*
X142293295Y-110572609D01*
X142293295Y-110572609D02*
X142331390Y-110496418D01*
X142331390Y-110496418D02*
X142369485Y-110458323D01*
X142369485Y-110458323D02*
X142445676Y-110420228D01*
X142445676Y-110420228D02*
X142483771Y-110420228D01*
X142483771Y-110420228D02*
X142559961Y-110458323D01*
X142559961Y-110458323D02*
X142598057Y-110496418D01*
X142598057Y-110496418D02*
X142636152Y-110572609D01*
X142636152Y-110572609D02*
X142636152Y-110724990D01*
X142636152Y-110724990D02*
X142674247Y-110801180D01*
X142674247Y-110801180D02*
X142712342Y-110839275D01*
X142712342Y-110839275D02*
X142788533Y-110877371D01*
X142788533Y-110877371D02*
X142940914Y-110877371D01*
X142940914Y-110877371D02*
X143017104Y-110839275D01*
X143017104Y-110839275D02*
X143055200Y-110801180D01*
X143055200Y-110801180D02*
X143093295Y-110724990D01*
X143093295Y-110724990D02*
X143093295Y-110572609D01*
X143093295Y-110572609D02*
X143055200Y-110496418D01*
X143055200Y-110496418D02*
X143017104Y-110458323D01*
X143017104Y-110458323D02*
X142940914Y-110420228D01*
X142940914Y-110420228D02*
X142788533Y-110420228D01*
X142788533Y-110420228D02*
X142712342Y-110458323D01*
X142712342Y-110458323D02*
X142674247Y-110496418D01*
X142674247Y-110496418D02*
X142636152Y-110572609D01*
X140138167Y-95599604D02*
X140100071Y-95637700D01*
X140100071Y-95637700D02*
X139985786Y-95675795D01*
X139985786Y-95675795D02*
X139909595Y-95675795D01*
X139909595Y-95675795D02*
X139795309Y-95637700D01*
X139795309Y-95637700D02*
X139719119Y-95561509D01*
X139719119Y-95561509D02*
X139681024Y-95485319D01*
X139681024Y-95485319D02*
X139642928Y-95332938D01*
X139642928Y-95332938D02*
X139642928Y-95218652D01*
X139642928Y-95218652D02*
X139681024Y-95066271D01*
X139681024Y-95066271D02*
X139719119Y-94990080D01*
X139719119Y-94990080D02*
X139795309Y-94913890D01*
X139795309Y-94913890D02*
X139909595Y-94875795D01*
X139909595Y-94875795D02*
X139985786Y-94875795D01*
X139985786Y-94875795D02*
X140100071Y-94913890D01*
X140100071Y-94913890D02*
X140138167Y-94951985D01*
X140900071Y-95675795D02*
X140442928Y-95675795D01*
X140671500Y-95675795D02*
X140671500Y-94875795D01*
X140671500Y-94875795D02*
X140595309Y-94990080D01*
X140595309Y-94990080D02*
X140519119Y-95066271D01*
X140519119Y-95066271D02*
X140442928Y-95104366D01*
X125820234Y-136531695D02*
X125553567Y-136150742D01*
X125363091Y-136531695D02*
X125363091Y-135731695D01*
X125363091Y-135731695D02*
X125667853Y-135731695D01*
X125667853Y-135731695D02*
X125744043Y-135769790D01*
X125744043Y-135769790D02*
X125782138Y-135807885D01*
X125782138Y-135807885D02*
X125820234Y-135884076D01*
X125820234Y-135884076D02*
X125820234Y-135998361D01*
X125820234Y-135998361D02*
X125782138Y-136074552D01*
X125782138Y-136074552D02*
X125744043Y-136112647D01*
X125744043Y-136112647D02*
X125667853Y-136150742D01*
X125667853Y-136150742D02*
X125363091Y-136150742D01*
X126582138Y-136531695D02*
X126124995Y-136531695D01*
X126353567Y-136531695D02*
X126353567Y-135731695D01*
X126353567Y-135731695D02*
X126277376Y-135845980D01*
X126277376Y-135845980D02*
X126201186Y-135922171D01*
X126201186Y-135922171D02*
X126124995Y-135960266D01*
X127267853Y-135998361D02*
X127267853Y-136531695D01*
X127077377Y-135693600D02*
X126886900Y-136265028D01*
X126886900Y-136265028D02*
X127382139Y-136265028D01*
X116685714Y-118962295D02*
X116419047Y-118581342D01*
X116228571Y-118962295D02*
X116228571Y-118162295D01*
X116228571Y-118162295D02*
X116533333Y-118162295D01*
X116533333Y-118162295D02*
X116609523Y-118200390D01*
X116609523Y-118200390D02*
X116647618Y-118238485D01*
X116647618Y-118238485D02*
X116685714Y-118314676D01*
X116685714Y-118314676D02*
X116685714Y-118428961D01*
X116685714Y-118428961D02*
X116647618Y-118505152D01*
X116647618Y-118505152D02*
X116609523Y-118543247D01*
X116609523Y-118543247D02*
X116533333Y-118581342D01*
X116533333Y-118581342D02*
X116228571Y-118581342D01*
X116990475Y-118238485D02*
X117028571Y-118200390D01*
X117028571Y-118200390D02*
X117104761Y-118162295D01*
X117104761Y-118162295D02*
X117295237Y-118162295D01*
X117295237Y-118162295D02*
X117371428Y-118200390D01*
X117371428Y-118200390D02*
X117409523Y-118238485D01*
X117409523Y-118238485D02*
X117447618Y-118314676D01*
X117447618Y-118314676D02*
X117447618Y-118390866D01*
X117447618Y-118390866D02*
X117409523Y-118505152D01*
X117409523Y-118505152D02*
X116952380Y-118962295D01*
X116952380Y-118962295D02*
X117447618Y-118962295D01*
X118171428Y-118162295D02*
X117790476Y-118162295D01*
X117790476Y-118162295D02*
X117752380Y-118543247D01*
X117752380Y-118543247D02*
X117790476Y-118505152D01*
X117790476Y-118505152D02*
X117866666Y-118467057D01*
X117866666Y-118467057D02*
X118057142Y-118467057D01*
X118057142Y-118467057D02*
X118133333Y-118505152D01*
X118133333Y-118505152D02*
X118171428Y-118543247D01*
X118171428Y-118543247D02*
X118209523Y-118619438D01*
X118209523Y-118619438D02*
X118209523Y-118809914D01*
X118209523Y-118809914D02*
X118171428Y-118886104D01*
X118171428Y-118886104D02*
X118133333Y-118924200D01*
X118133333Y-118924200D02*
X118057142Y-118962295D01*
X118057142Y-118962295D02*
X117866666Y-118962295D01*
X117866666Y-118962295D02*
X117790476Y-118924200D01*
X117790476Y-118924200D02*
X117752380Y-118886104D01*
X93962295Y-92033333D02*
X93962295Y-92414285D01*
X93962295Y-92414285D02*
X93162295Y-92414285D01*
X93162295Y-91423809D02*
X93162295Y-91576190D01*
X93162295Y-91576190D02*
X93200390Y-91652381D01*
X93200390Y-91652381D02*
X93238485Y-91690476D01*
X93238485Y-91690476D02*
X93352771Y-91766666D01*
X93352771Y-91766666D02*
X93505152Y-91804762D01*
X93505152Y-91804762D02*
X93809914Y-91804762D01*
X93809914Y-91804762D02*
X93886104Y-91766666D01*
X93886104Y-91766666D02*
X93924200Y-91728571D01*
X93924200Y-91728571D02*
X93962295Y-91652381D01*
X93962295Y-91652381D02*
X93962295Y-91500000D01*
X93962295Y-91500000D02*
X93924200Y-91423809D01*
X93924200Y-91423809D02*
X93886104Y-91385714D01*
X93886104Y-91385714D02*
X93809914Y-91347619D01*
X93809914Y-91347619D02*
X93619438Y-91347619D01*
X93619438Y-91347619D02*
X93543247Y-91385714D01*
X93543247Y-91385714D02*
X93505152Y-91423809D01*
X93505152Y-91423809D02*
X93467057Y-91500000D01*
X93467057Y-91500000D02*
X93467057Y-91652381D01*
X93467057Y-91652381D02*
X93505152Y-91728571D01*
X93505152Y-91728571D02*
X93543247Y-91766666D01*
X93543247Y-91766666D02*
X93619438Y-91804762D01*
X117885714Y-117862295D02*
X117619047Y-117481342D01*
X117428571Y-117862295D02*
X117428571Y-117062295D01*
X117428571Y-117062295D02*
X117733333Y-117062295D01*
X117733333Y-117062295D02*
X117809523Y-117100390D01*
X117809523Y-117100390D02*
X117847618Y-117138485D01*
X117847618Y-117138485D02*
X117885714Y-117214676D01*
X117885714Y-117214676D02*
X117885714Y-117328961D01*
X117885714Y-117328961D02*
X117847618Y-117405152D01*
X117847618Y-117405152D02*
X117809523Y-117443247D01*
X117809523Y-117443247D02*
X117733333Y-117481342D01*
X117733333Y-117481342D02*
X117428571Y-117481342D01*
X118190475Y-117138485D02*
X118228571Y-117100390D01*
X118228571Y-117100390D02*
X118304761Y-117062295D01*
X118304761Y-117062295D02*
X118495237Y-117062295D01*
X118495237Y-117062295D02*
X118571428Y-117100390D01*
X118571428Y-117100390D02*
X118609523Y-117138485D01*
X118609523Y-117138485D02*
X118647618Y-117214676D01*
X118647618Y-117214676D02*
X118647618Y-117290866D01*
X118647618Y-117290866D02*
X118609523Y-117405152D01*
X118609523Y-117405152D02*
X118152380Y-117862295D01*
X118152380Y-117862295D02*
X118647618Y-117862295D01*
X119333333Y-117328961D02*
X119333333Y-117862295D01*
X119142857Y-117024200D02*
X118952380Y-117595628D01*
X118952380Y-117595628D02*
X119447619Y-117595628D01*
X163685714Y-98206104D02*
X163647618Y-98244200D01*
X163647618Y-98244200D02*
X163533333Y-98282295D01*
X163533333Y-98282295D02*
X163457142Y-98282295D01*
X163457142Y-98282295D02*
X163342856Y-98244200D01*
X163342856Y-98244200D02*
X163266666Y-98168009D01*
X163266666Y-98168009D02*
X163228571Y-98091819D01*
X163228571Y-98091819D02*
X163190475Y-97939438D01*
X163190475Y-97939438D02*
X163190475Y-97825152D01*
X163190475Y-97825152D02*
X163228571Y-97672771D01*
X163228571Y-97672771D02*
X163266666Y-97596580D01*
X163266666Y-97596580D02*
X163342856Y-97520390D01*
X163342856Y-97520390D02*
X163457142Y-97482295D01*
X163457142Y-97482295D02*
X163533333Y-97482295D01*
X163533333Y-97482295D02*
X163647618Y-97520390D01*
X163647618Y-97520390D02*
X163685714Y-97558485D01*
X164409523Y-97482295D02*
X164028571Y-97482295D01*
X164028571Y-97482295D02*
X163990475Y-97863247D01*
X163990475Y-97863247D02*
X164028571Y-97825152D01*
X164028571Y-97825152D02*
X164104761Y-97787057D01*
X164104761Y-97787057D02*
X164295237Y-97787057D01*
X164295237Y-97787057D02*
X164371428Y-97825152D01*
X164371428Y-97825152D02*
X164409523Y-97863247D01*
X164409523Y-97863247D02*
X164447618Y-97939438D01*
X164447618Y-97939438D02*
X164447618Y-98129914D01*
X164447618Y-98129914D02*
X164409523Y-98206104D01*
X164409523Y-98206104D02*
X164371428Y-98244200D01*
X164371428Y-98244200D02*
X164295237Y-98282295D01*
X164295237Y-98282295D02*
X164104761Y-98282295D01*
X164104761Y-98282295D02*
X164028571Y-98244200D01*
X164028571Y-98244200D02*
X163990475Y-98206104D01*
X164714285Y-97482295D02*
X165247619Y-97482295D01*
X165247619Y-97482295D02*
X164904761Y-98282295D01*
X158609524Y-98862295D02*
X158609524Y-99509914D01*
X158609524Y-99509914D02*
X158647619Y-99586104D01*
X158647619Y-99586104D02*
X158685714Y-99624200D01*
X158685714Y-99624200D02*
X158761905Y-99662295D01*
X158761905Y-99662295D02*
X158914286Y-99662295D01*
X158914286Y-99662295D02*
X158990476Y-99624200D01*
X158990476Y-99624200D02*
X159028571Y-99586104D01*
X159028571Y-99586104D02*
X159066667Y-99509914D01*
X159066667Y-99509914D02*
X159066667Y-98862295D01*
X159866666Y-99662295D02*
X159409523Y-99662295D01*
X159638095Y-99662295D02*
X159638095Y-98862295D01*
X159638095Y-98862295D02*
X159561904Y-98976580D01*
X159561904Y-98976580D02*
X159485714Y-99052771D01*
X159485714Y-99052771D02*
X159409523Y-99090866D01*
X160628571Y-99662295D02*
X160171428Y-99662295D01*
X160400000Y-99662295D02*
X160400000Y-98862295D01*
X160400000Y-98862295D02*
X160323809Y-98976580D01*
X160323809Y-98976580D02*
X160247619Y-99052771D01*
X160247619Y-99052771D02*
X160171428Y-99090866D01*
X165033333Y-85562295D02*
X165033333Y-86133723D01*
X165033333Y-86133723D02*
X164995238Y-86248009D01*
X164995238Y-86248009D02*
X164919047Y-86324200D01*
X164919047Y-86324200D02*
X164804762Y-86362295D01*
X164804762Y-86362295D02*
X164728571Y-86362295D01*
X165795238Y-85562295D02*
X165414286Y-85562295D01*
X165414286Y-85562295D02*
X165376190Y-85943247D01*
X165376190Y-85943247D02*
X165414286Y-85905152D01*
X165414286Y-85905152D02*
X165490476Y-85867057D01*
X165490476Y-85867057D02*
X165680952Y-85867057D01*
X165680952Y-85867057D02*
X165757143Y-85905152D01*
X165757143Y-85905152D02*
X165795238Y-85943247D01*
X165795238Y-85943247D02*
X165833333Y-86019438D01*
X165833333Y-86019438D02*
X165833333Y-86209914D01*
X165833333Y-86209914D02*
X165795238Y-86286104D01*
X165795238Y-86286104D02*
X165757143Y-86324200D01*
X165757143Y-86324200D02*
X165680952Y-86362295D01*
X165680952Y-86362295D02*
X165490476Y-86362295D01*
X165490476Y-86362295D02*
X165414286Y-86324200D01*
X165414286Y-86324200D02*
X165376190Y-86286104D01*
X143509524Y-89262295D02*
X143509524Y-89909914D01*
X143509524Y-89909914D02*
X143547619Y-89986104D01*
X143547619Y-89986104D02*
X143585714Y-90024200D01*
X143585714Y-90024200D02*
X143661905Y-90062295D01*
X143661905Y-90062295D02*
X143814286Y-90062295D01*
X143814286Y-90062295D02*
X143890476Y-90024200D01*
X143890476Y-90024200D02*
X143928571Y-89986104D01*
X143928571Y-89986104D02*
X143966667Y-89909914D01*
X143966667Y-89909914D02*
X143966667Y-89262295D01*
X144766666Y-90062295D02*
X144309523Y-90062295D01*
X144538095Y-90062295D02*
X144538095Y-89262295D01*
X144538095Y-89262295D02*
X144461904Y-89376580D01*
X144461904Y-89376580D02*
X144385714Y-89452771D01*
X144385714Y-89452771D02*
X144309523Y-89490866D01*
X145490476Y-89262295D02*
X145109524Y-89262295D01*
X145109524Y-89262295D02*
X145071428Y-89643247D01*
X145071428Y-89643247D02*
X145109524Y-89605152D01*
X145109524Y-89605152D02*
X145185714Y-89567057D01*
X145185714Y-89567057D02*
X145376190Y-89567057D01*
X145376190Y-89567057D02*
X145452381Y-89605152D01*
X145452381Y-89605152D02*
X145490476Y-89643247D01*
X145490476Y-89643247D02*
X145528571Y-89719438D01*
X145528571Y-89719438D02*
X145528571Y-89909914D01*
X145528571Y-89909914D02*
X145490476Y-89986104D01*
X145490476Y-89986104D02*
X145452381Y-90024200D01*
X145452381Y-90024200D02*
X145376190Y-90062295D01*
X145376190Y-90062295D02*
X145185714Y-90062295D01*
X145185714Y-90062295D02*
X145109524Y-90024200D01*
X145109524Y-90024200D02*
X145071428Y-89986104D01*
X112662295Y-92890475D02*
X111862295Y-92890475D01*
X111862295Y-92890475D02*
X111862295Y-92699999D01*
X111862295Y-92699999D02*
X111900390Y-92585713D01*
X111900390Y-92585713D02*
X111976580Y-92509523D01*
X111976580Y-92509523D02*
X112052771Y-92471428D01*
X112052771Y-92471428D02*
X112205152Y-92433332D01*
X112205152Y-92433332D02*
X112319438Y-92433332D01*
X112319438Y-92433332D02*
X112471819Y-92471428D01*
X112471819Y-92471428D02*
X112548009Y-92509523D01*
X112548009Y-92509523D02*
X112624200Y-92585713D01*
X112624200Y-92585713D02*
X112662295Y-92699999D01*
X112662295Y-92699999D02*
X112662295Y-92890475D01*
X112662295Y-91671428D02*
X112662295Y-92128571D01*
X112662295Y-91899999D02*
X111862295Y-91899999D01*
X111862295Y-91899999D02*
X111976580Y-91976190D01*
X111976580Y-91976190D02*
X112052771Y-92052380D01*
X112052771Y-92052380D02*
X112090866Y-92128571D01*
X95762295Y-117966666D02*
X96333723Y-117966666D01*
X96333723Y-117966666D02*
X96448009Y-118004761D01*
X96448009Y-118004761D02*
X96524200Y-118080952D01*
X96524200Y-118080952D02*
X96562295Y-118195237D01*
X96562295Y-118195237D02*
X96562295Y-118271428D01*
X96105152Y-117471428D02*
X96067057Y-117547618D01*
X96067057Y-117547618D02*
X96028961Y-117585713D01*
X96028961Y-117585713D02*
X95952771Y-117623809D01*
X95952771Y-117623809D02*
X95914676Y-117623809D01*
X95914676Y-117623809D02*
X95838485Y-117585713D01*
X95838485Y-117585713D02*
X95800390Y-117547618D01*
X95800390Y-117547618D02*
X95762295Y-117471428D01*
X95762295Y-117471428D02*
X95762295Y-117319047D01*
X95762295Y-117319047D02*
X95800390Y-117242856D01*
X95800390Y-117242856D02*
X95838485Y-117204761D01*
X95838485Y-117204761D02*
X95914676Y-117166666D01*
X95914676Y-117166666D02*
X95952771Y-117166666D01*
X95952771Y-117166666D02*
X96028961Y-117204761D01*
X96028961Y-117204761D02*
X96067057Y-117242856D01*
X96067057Y-117242856D02*
X96105152Y-117319047D01*
X96105152Y-117319047D02*
X96105152Y-117471428D01*
X96105152Y-117471428D02*
X96143247Y-117547618D01*
X96143247Y-117547618D02*
X96181342Y-117585713D01*
X96181342Y-117585713D02*
X96257533Y-117623809D01*
X96257533Y-117623809D02*
X96409914Y-117623809D01*
X96409914Y-117623809D02*
X96486104Y-117585713D01*
X96486104Y-117585713D02*
X96524200Y-117547618D01*
X96524200Y-117547618D02*
X96562295Y-117471428D01*
X96562295Y-117471428D02*
X96562295Y-117319047D01*
X96562295Y-117319047D02*
X96524200Y-117242856D01*
X96524200Y-117242856D02*
X96486104Y-117204761D01*
X96486104Y-117204761D02*
X96409914Y-117166666D01*
X96409914Y-117166666D02*
X96257533Y-117166666D01*
X96257533Y-117166666D02*
X96181342Y-117204761D01*
X96181342Y-117204761D02*
X96143247Y-117242856D01*
X96143247Y-117242856D02*
X96105152Y-117319047D01*
X80374200Y-95746667D02*
X80412295Y-95632381D01*
X80412295Y-95632381D02*
X80412295Y-95441905D01*
X80412295Y-95441905D02*
X80374200Y-95365714D01*
X80374200Y-95365714D02*
X80336104Y-95327619D01*
X80336104Y-95327619D02*
X80259914Y-95289524D01*
X80259914Y-95289524D02*
X80183723Y-95289524D01*
X80183723Y-95289524D02*
X80107533Y-95327619D01*
X80107533Y-95327619D02*
X80069438Y-95365714D01*
X80069438Y-95365714D02*
X80031342Y-95441905D01*
X80031342Y-95441905D02*
X79993247Y-95594286D01*
X79993247Y-95594286D02*
X79955152Y-95670476D01*
X79955152Y-95670476D02*
X79917057Y-95708571D01*
X79917057Y-95708571D02*
X79840866Y-95746667D01*
X79840866Y-95746667D02*
X79764676Y-95746667D01*
X79764676Y-95746667D02*
X79688485Y-95708571D01*
X79688485Y-95708571D02*
X79650390Y-95670476D01*
X79650390Y-95670476D02*
X79612295Y-95594286D01*
X79612295Y-95594286D02*
X79612295Y-95403809D01*
X79612295Y-95403809D02*
X79650390Y-95289524D01*
X79612295Y-95022857D02*
X80412295Y-94832381D01*
X80412295Y-94832381D02*
X79840866Y-94680000D01*
X79840866Y-94680000D02*
X80412295Y-94527619D01*
X80412295Y-94527619D02*
X79612295Y-94337143D01*
X80412295Y-93613333D02*
X80412295Y-94070476D01*
X80412295Y-93841904D02*
X79612295Y-93841904D01*
X79612295Y-93841904D02*
X79726580Y-93918095D01*
X79726580Y-93918095D02*
X79802771Y-93994285D01*
X79802771Y-93994285D02*
X79840866Y-94070476D01*
X159685714Y-92562295D02*
X159419047Y-92181342D01*
X159228571Y-92562295D02*
X159228571Y-91762295D01*
X159228571Y-91762295D02*
X159533333Y-91762295D01*
X159533333Y-91762295D02*
X159609523Y-91800390D01*
X159609523Y-91800390D02*
X159647618Y-91838485D01*
X159647618Y-91838485D02*
X159685714Y-91914676D01*
X159685714Y-91914676D02*
X159685714Y-92028961D01*
X159685714Y-92028961D02*
X159647618Y-92105152D01*
X159647618Y-92105152D02*
X159609523Y-92143247D01*
X159609523Y-92143247D02*
X159533333Y-92181342D01*
X159533333Y-92181342D02*
X159228571Y-92181342D01*
X160371428Y-92028961D02*
X160371428Y-92562295D01*
X160180952Y-91724200D02*
X159990475Y-92295628D01*
X159990475Y-92295628D02*
X160485714Y-92295628D01*
X160714285Y-91762295D02*
X161209523Y-91762295D01*
X161209523Y-91762295D02*
X160942857Y-92067057D01*
X160942857Y-92067057D02*
X161057142Y-92067057D01*
X161057142Y-92067057D02*
X161133333Y-92105152D01*
X161133333Y-92105152D02*
X161171428Y-92143247D01*
X161171428Y-92143247D02*
X161209523Y-92219438D01*
X161209523Y-92219438D02*
X161209523Y-92409914D01*
X161209523Y-92409914D02*
X161171428Y-92486104D01*
X161171428Y-92486104D02*
X161133333Y-92524200D01*
X161133333Y-92524200D02*
X161057142Y-92562295D01*
X161057142Y-92562295D02*
X160828571Y-92562295D01*
X160828571Y-92562295D02*
X160752380Y-92524200D01*
X160752380Y-92524200D02*
X160714285Y-92486104D01*
X108985714Y-97462295D02*
X108719047Y-97081342D01*
X108528571Y-97462295D02*
X108528571Y-96662295D01*
X108528571Y-96662295D02*
X108833333Y-96662295D01*
X108833333Y-96662295D02*
X108909523Y-96700390D01*
X108909523Y-96700390D02*
X108947618Y-96738485D01*
X108947618Y-96738485D02*
X108985714Y-96814676D01*
X108985714Y-96814676D02*
X108985714Y-96928961D01*
X108985714Y-96928961D02*
X108947618Y-97005152D01*
X108947618Y-97005152D02*
X108909523Y-97043247D01*
X108909523Y-97043247D02*
X108833333Y-97081342D01*
X108833333Y-97081342D02*
X108528571Y-97081342D01*
X109671428Y-96928961D02*
X109671428Y-97462295D01*
X109480952Y-96624200D02*
X109290475Y-97195628D01*
X109290475Y-97195628D02*
X109785714Y-97195628D01*
X110471428Y-96662295D02*
X110090476Y-96662295D01*
X110090476Y-96662295D02*
X110052380Y-97043247D01*
X110052380Y-97043247D02*
X110090476Y-97005152D01*
X110090476Y-97005152D02*
X110166666Y-96967057D01*
X110166666Y-96967057D02*
X110357142Y-96967057D01*
X110357142Y-96967057D02*
X110433333Y-97005152D01*
X110433333Y-97005152D02*
X110471428Y-97043247D01*
X110471428Y-97043247D02*
X110509523Y-97119438D01*
X110509523Y-97119438D02*
X110509523Y-97309914D01*
X110509523Y-97309914D02*
X110471428Y-97386104D01*
X110471428Y-97386104D02*
X110433333Y-97424200D01*
X110433333Y-97424200D02*
X110357142Y-97462295D01*
X110357142Y-97462295D02*
X110166666Y-97462295D01*
X110166666Y-97462295D02*
X110090476Y-97424200D01*
X110090476Y-97424200D02*
X110052380Y-97386104D01*
X89185714Y-91567295D02*
X88919047Y-91186342D01*
X88728571Y-91567295D02*
X88728571Y-90767295D01*
X88728571Y-90767295D02*
X89033333Y-90767295D01*
X89033333Y-90767295D02*
X89109523Y-90805390D01*
X89109523Y-90805390D02*
X89147618Y-90843485D01*
X89147618Y-90843485D02*
X89185714Y-90919676D01*
X89185714Y-90919676D02*
X89185714Y-91033961D01*
X89185714Y-91033961D02*
X89147618Y-91110152D01*
X89147618Y-91110152D02*
X89109523Y-91148247D01*
X89109523Y-91148247D02*
X89033333Y-91186342D01*
X89033333Y-91186342D02*
X88728571Y-91186342D01*
X89490475Y-90843485D02*
X89528571Y-90805390D01*
X89528571Y-90805390D02*
X89604761Y-90767295D01*
X89604761Y-90767295D02*
X89795237Y-90767295D01*
X89795237Y-90767295D02*
X89871428Y-90805390D01*
X89871428Y-90805390D02*
X89909523Y-90843485D01*
X89909523Y-90843485D02*
X89947618Y-90919676D01*
X89947618Y-90919676D02*
X89947618Y-90995866D01*
X89947618Y-90995866D02*
X89909523Y-91110152D01*
X89909523Y-91110152D02*
X89452380Y-91567295D01*
X89452380Y-91567295D02*
X89947618Y-91567295D01*
X90442857Y-90767295D02*
X90519047Y-90767295D01*
X90519047Y-90767295D02*
X90595238Y-90805390D01*
X90595238Y-90805390D02*
X90633333Y-90843485D01*
X90633333Y-90843485D02*
X90671428Y-90919676D01*
X90671428Y-90919676D02*
X90709523Y-91072057D01*
X90709523Y-91072057D02*
X90709523Y-91262533D01*
X90709523Y-91262533D02*
X90671428Y-91414914D01*
X90671428Y-91414914D02*
X90633333Y-91491104D01*
X90633333Y-91491104D02*
X90595238Y-91529200D01*
X90595238Y-91529200D02*
X90519047Y-91567295D01*
X90519047Y-91567295D02*
X90442857Y-91567295D01*
X90442857Y-91567295D02*
X90366666Y-91529200D01*
X90366666Y-91529200D02*
X90328571Y-91491104D01*
X90328571Y-91491104D02*
X90290476Y-91414914D01*
X90290476Y-91414914D02*
X90252380Y-91262533D01*
X90252380Y-91262533D02*
X90252380Y-91072057D01*
X90252380Y-91072057D02*
X90290476Y-90919676D01*
X90290476Y-90919676D02*
X90328571Y-90843485D01*
X90328571Y-90843485D02*
X90366666Y-90805390D01*
X90366666Y-90805390D02*
X90442857Y-90767295D01*
X155452380Y-98162295D02*
X155452380Y-98733723D01*
X155452380Y-98733723D02*
X155414285Y-98848009D01*
X155414285Y-98848009D02*
X155338094Y-98924200D01*
X155338094Y-98924200D02*
X155223809Y-98962295D01*
X155223809Y-98962295D02*
X155147618Y-98962295D01*
X156252380Y-98962295D02*
X155795237Y-98962295D01*
X156023809Y-98962295D02*
X156023809Y-98162295D01*
X156023809Y-98162295D02*
X155947618Y-98276580D01*
X155947618Y-98276580D02*
X155871428Y-98352771D01*
X155871428Y-98352771D02*
X155795237Y-98390866D01*
X156747619Y-98162295D02*
X156823809Y-98162295D01*
X156823809Y-98162295D02*
X156900000Y-98200390D01*
X156900000Y-98200390D02*
X156938095Y-98238485D01*
X156938095Y-98238485D02*
X156976190Y-98314676D01*
X156976190Y-98314676D02*
X157014285Y-98467057D01*
X157014285Y-98467057D02*
X157014285Y-98657533D01*
X157014285Y-98657533D02*
X156976190Y-98809914D01*
X156976190Y-98809914D02*
X156938095Y-98886104D01*
X156938095Y-98886104D02*
X156900000Y-98924200D01*
X156900000Y-98924200D02*
X156823809Y-98962295D01*
X156823809Y-98962295D02*
X156747619Y-98962295D01*
X156747619Y-98962295D02*
X156671428Y-98924200D01*
X156671428Y-98924200D02*
X156633333Y-98886104D01*
X156633333Y-98886104D02*
X156595238Y-98809914D01*
X156595238Y-98809914D02*
X156557142Y-98657533D01*
X156557142Y-98657533D02*
X156557142Y-98467057D01*
X156557142Y-98467057D02*
X156595238Y-98314676D01*
X156595238Y-98314676D02*
X156633333Y-98238485D01*
X156633333Y-98238485D02*
X156671428Y-98200390D01*
X156671428Y-98200390D02*
X156747619Y-98162295D01*
X89185714Y-99232295D02*
X88919047Y-98851342D01*
X88728571Y-99232295D02*
X88728571Y-98432295D01*
X88728571Y-98432295D02*
X89033333Y-98432295D01*
X89033333Y-98432295D02*
X89109523Y-98470390D01*
X89109523Y-98470390D02*
X89147618Y-98508485D01*
X89147618Y-98508485D02*
X89185714Y-98584676D01*
X89185714Y-98584676D02*
X89185714Y-98698961D01*
X89185714Y-98698961D02*
X89147618Y-98775152D01*
X89147618Y-98775152D02*
X89109523Y-98813247D01*
X89109523Y-98813247D02*
X89033333Y-98851342D01*
X89033333Y-98851342D02*
X88728571Y-98851342D01*
X89490475Y-98508485D02*
X89528571Y-98470390D01*
X89528571Y-98470390D02*
X89604761Y-98432295D01*
X89604761Y-98432295D02*
X89795237Y-98432295D01*
X89795237Y-98432295D02*
X89871428Y-98470390D01*
X89871428Y-98470390D02*
X89909523Y-98508485D01*
X89909523Y-98508485D02*
X89947618Y-98584676D01*
X89947618Y-98584676D02*
X89947618Y-98660866D01*
X89947618Y-98660866D02*
X89909523Y-98775152D01*
X89909523Y-98775152D02*
X89452380Y-99232295D01*
X89452380Y-99232295D02*
X89947618Y-99232295D01*
X90709523Y-99232295D02*
X90252380Y-99232295D01*
X90480952Y-99232295D02*
X90480952Y-98432295D01*
X90480952Y-98432295D02*
X90404761Y-98546580D01*
X90404761Y-98546580D02*
X90328571Y-98622771D01*
X90328571Y-98622771D02*
X90252380Y-98660866D01*
X161262295Y-87914285D02*
X160881342Y-88180952D01*
X161262295Y-88371428D02*
X160462295Y-88371428D01*
X160462295Y-88371428D02*
X160462295Y-88066666D01*
X160462295Y-88066666D02*
X160500390Y-87990476D01*
X160500390Y-87990476D02*
X160538485Y-87952381D01*
X160538485Y-87952381D02*
X160614676Y-87914285D01*
X160614676Y-87914285D02*
X160728961Y-87914285D01*
X160728961Y-87914285D02*
X160805152Y-87952381D01*
X160805152Y-87952381D02*
X160843247Y-87990476D01*
X160843247Y-87990476D02*
X160881342Y-88066666D01*
X160881342Y-88066666D02*
X160881342Y-88371428D01*
X160728961Y-87228571D02*
X161262295Y-87228571D01*
X160424200Y-87419047D02*
X160995628Y-87609524D01*
X160995628Y-87609524D02*
X160995628Y-87114285D01*
X160728961Y-86466666D02*
X161262295Y-86466666D01*
X160424200Y-86657142D02*
X160995628Y-86847619D01*
X160995628Y-86847619D02*
X160995628Y-86352380D01*
X114085714Y-116962295D02*
X113819047Y-116581342D01*
X113628571Y-116962295D02*
X113628571Y-116162295D01*
X113628571Y-116162295D02*
X113933333Y-116162295D01*
X113933333Y-116162295D02*
X114009523Y-116200390D01*
X114009523Y-116200390D02*
X114047618Y-116238485D01*
X114047618Y-116238485D02*
X114085714Y-116314676D01*
X114085714Y-116314676D02*
X114085714Y-116428961D01*
X114085714Y-116428961D02*
X114047618Y-116505152D01*
X114047618Y-116505152D02*
X114009523Y-116543247D01*
X114009523Y-116543247D02*
X113933333Y-116581342D01*
X113933333Y-116581342D02*
X113628571Y-116581342D01*
X114390475Y-116238485D02*
X114428571Y-116200390D01*
X114428571Y-116200390D02*
X114504761Y-116162295D01*
X114504761Y-116162295D02*
X114695237Y-116162295D01*
X114695237Y-116162295D02*
X114771428Y-116200390D01*
X114771428Y-116200390D02*
X114809523Y-116238485D01*
X114809523Y-116238485D02*
X114847618Y-116314676D01*
X114847618Y-116314676D02*
X114847618Y-116390866D01*
X114847618Y-116390866D02*
X114809523Y-116505152D01*
X114809523Y-116505152D02*
X114352380Y-116962295D01*
X114352380Y-116962295D02*
X114847618Y-116962295D01*
X115152380Y-116238485D02*
X115190476Y-116200390D01*
X115190476Y-116200390D02*
X115266666Y-116162295D01*
X115266666Y-116162295D02*
X115457142Y-116162295D01*
X115457142Y-116162295D02*
X115533333Y-116200390D01*
X115533333Y-116200390D02*
X115571428Y-116238485D01*
X115571428Y-116238485D02*
X115609523Y-116314676D01*
X115609523Y-116314676D02*
X115609523Y-116390866D01*
X115609523Y-116390866D02*
X115571428Y-116505152D01*
X115571428Y-116505152D02*
X115114285Y-116962295D01*
X115114285Y-116962295D02*
X115609523Y-116962295D01*
X156162295Y-87930475D02*
X156809914Y-87930475D01*
X156809914Y-87930475D02*
X156886104Y-87892380D01*
X156886104Y-87892380D02*
X156924200Y-87854285D01*
X156924200Y-87854285D02*
X156962295Y-87778094D01*
X156962295Y-87778094D02*
X156962295Y-87625713D01*
X156962295Y-87625713D02*
X156924200Y-87549523D01*
X156924200Y-87549523D02*
X156886104Y-87511428D01*
X156886104Y-87511428D02*
X156809914Y-87473332D01*
X156809914Y-87473332D02*
X156162295Y-87473332D01*
X156962295Y-86673333D02*
X156962295Y-87130476D01*
X156962295Y-86901904D02*
X156162295Y-86901904D01*
X156162295Y-86901904D02*
X156276580Y-86978095D01*
X156276580Y-86978095D02*
X156352771Y-87054285D01*
X156352771Y-87054285D02*
X156390866Y-87130476D01*
X156238485Y-86368571D02*
X156200390Y-86330475D01*
X156200390Y-86330475D02*
X156162295Y-86254285D01*
X156162295Y-86254285D02*
X156162295Y-86063809D01*
X156162295Y-86063809D02*
X156200390Y-85987618D01*
X156200390Y-85987618D02*
X156238485Y-85949523D01*
X156238485Y-85949523D02*
X156314676Y-85911428D01*
X156314676Y-85911428D02*
X156390866Y-85911428D01*
X156390866Y-85911428D02*
X156505152Y-85949523D01*
X156505152Y-85949523D02*
X156962295Y-86406666D01*
X156962295Y-86406666D02*
X156962295Y-85911428D01*
X97160714Y-96486104D02*
X97122618Y-96524200D01*
X97122618Y-96524200D02*
X97008333Y-96562295D01*
X97008333Y-96562295D02*
X96932142Y-96562295D01*
X96932142Y-96562295D02*
X96817856Y-96524200D01*
X96817856Y-96524200D02*
X96741666Y-96448009D01*
X96741666Y-96448009D02*
X96703571Y-96371819D01*
X96703571Y-96371819D02*
X96665475Y-96219438D01*
X96665475Y-96219438D02*
X96665475Y-96105152D01*
X96665475Y-96105152D02*
X96703571Y-95952771D01*
X96703571Y-95952771D02*
X96741666Y-95876580D01*
X96741666Y-95876580D02*
X96817856Y-95800390D01*
X96817856Y-95800390D02*
X96932142Y-95762295D01*
X96932142Y-95762295D02*
X97008333Y-95762295D01*
X97008333Y-95762295D02*
X97122618Y-95800390D01*
X97122618Y-95800390D02*
X97160714Y-95838485D01*
X97427380Y-95762295D02*
X97922618Y-95762295D01*
X97922618Y-95762295D02*
X97655952Y-96067057D01*
X97655952Y-96067057D02*
X97770237Y-96067057D01*
X97770237Y-96067057D02*
X97846428Y-96105152D01*
X97846428Y-96105152D02*
X97884523Y-96143247D01*
X97884523Y-96143247D02*
X97922618Y-96219438D01*
X97922618Y-96219438D02*
X97922618Y-96409914D01*
X97922618Y-96409914D02*
X97884523Y-96486104D01*
X97884523Y-96486104D02*
X97846428Y-96524200D01*
X97846428Y-96524200D02*
X97770237Y-96562295D01*
X97770237Y-96562295D02*
X97541666Y-96562295D01*
X97541666Y-96562295D02*
X97465475Y-96524200D01*
X97465475Y-96524200D02*
X97427380Y-96486104D01*
X98608333Y-96028961D02*
X98608333Y-96562295D01*
X98417857Y-95724200D02*
X98227380Y-96295628D01*
X98227380Y-96295628D02*
X98722619Y-96295628D01*
X158585714Y-90486104D02*
X158547618Y-90524200D01*
X158547618Y-90524200D02*
X158433333Y-90562295D01*
X158433333Y-90562295D02*
X158357142Y-90562295D01*
X158357142Y-90562295D02*
X158242856Y-90524200D01*
X158242856Y-90524200D02*
X158166666Y-90448009D01*
X158166666Y-90448009D02*
X158128571Y-90371819D01*
X158128571Y-90371819D02*
X158090475Y-90219438D01*
X158090475Y-90219438D02*
X158090475Y-90105152D01*
X158090475Y-90105152D02*
X158128571Y-89952771D01*
X158128571Y-89952771D02*
X158166666Y-89876580D01*
X158166666Y-89876580D02*
X158242856Y-89800390D01*
X158242856Y-89800390D02*
X158357142Y-89762295D01*
X158357142Y-89762295D02*
X158433333Y-89762295D01*
X158433333Y-89762295D02*
X158547618Y-89800390D01*
X158547618Y-89800390D02*
X158585714Y-89838485D01*
X159309523Y-89762295D02*
X158928571Y-89762295D01*
X158928571Y-89762295D02*
X158890475Y-90143247D01*
X158890475Y-90143247D02*
X158928571Y-90105152D01*
X158928571Y-90105152D02*
X159004761Y-90067057D01*
X159004761Y-90067057D02*
X159195237Y-90067057D01*
X159195237Y-90067057D02*
X159271428Y-90105152D01*
X159271428Y-90105152D02*
X159309523Y-90143247D01*
X159309523Y-90143247D02*
X159347618Y-90219438D01*
X159347618Y-90219438D02*
X159347618Y-90409914D01*
X159347618Y-90409914D02*
X159309523Y-90486104D01*
X159309523Y-90486104D02*
X159271428Y-90524200D01*
X159271428Y-90524200D02*
X159195237Y-90562295D01*
X159195237Y-90562295D02*
X159004761Y-90562295D01*
X159004761Y-90562295D02*
X158928571Y-90524200D01*
X158928571Y-90524200D02*
X158890475Y-90486104D01*
X159652380Y-89838485D02*
X159690476Y-89800390D01*
X159690476Y-89800390D02*
X159766666Y-89762295D01*
X159766666Y-89762295D02*
X159957142Y-89762295D01*
X159957142Y-89762295D02*
X160033333Y-89800390D01*
X160033333Y-89800390D02*
X160071428Y-89838485D01*
X160071428Y-89838485D02*
X160109523Y-89914676D01*
X160109523Y-89914676D02*
X160109523Y-89990866D01*
X160109523Y-89990866D02*
X160071428Y-90105152D01*
X160071428Y-90105152D02*
X159614285Y-90562295D01*
X159614285Y-90562295D02*
X160109523Y-90562295D01*
X94585714Y-98486104D02*
X94547618Y-98524200D01*
X94547618Y-98524200D02*
X94433333Y-98562295D01*
X94433333Y-98562295D02*
X94357142Y-98562295D01*
X94357142Y-98562295D02*
X94242856Y-98524200D01*
X94242856Y-98524200D02*
X94166666Y-98448009D01*
X94166666Y-98448009D02*
X94128571Y-98371819D01*
X94128571Y-98371819D02*
X94090475Y-98219438D01*
X94090475Y-98219438D02*
X94090475Y-98105152D01*
X94090475Y-98105152D02*
X94128571Y-97952771D01*
X94128571Y-97952771D02*
X94166666Y-97876580D01*
X94166666Y-97876580D02*
X94242856Y-97800390D01*
X94242856Y-97800390D02*
X94357142Y-97762295D01*
X94357142Y-97762295D02*
X94433333Y-97762295D01*
X94433333Y-97762295D02*
X94547618Y-97800390D01*
X94547618Y-97800390D02*
X94585714Y-97838485D01*
X94852380Y-97762295D02*
X95347618Y-97762295D01*
X95347618Y-97762295D02*
X95080952Y-98067057D01*
X95080952Y-98067057D02*
X95195237Y-98067057D01*
X95195237Y-98067057D02*
X95271428Y-98105152D01*
X95271428Y-98105152D02*
X95309523Y-98143247D01*
X95309523Y-98143247D02*
X95347618Y-98219438D01*
X95347618Y-98219438D02*
X95347618Y-98409914D01*
X95347618Y-98409914D02*
X95309523Y-98486104D01*
X95309523Y-98486104D02*
X95271428Y-98524200D01*
X95271428Y-98524200D02*
X95195237Y-98562295D01*
X95195237Y-98562295D02*
X94966666Y-98562295D01*
X94966666Y-98562295D02*
X94890475Y-98524200D01*
X94890475Y-98524200D02*
X94852380Y-98486104D01*
X96071428Y-97762295D02*
X95690476Y-97762295D01*
X95690476Y-97762295D02*
X95652380Y-98143247D01*
X95652380Y-98143247D02*
X95690476Y-98105152D01*
X95690476Y-98105152D02*
X95766666Y-98067057D01*
X95766666Y-98067057D02*
X95957142Y-98067057D01*
X95957142Y-98067057D02*
X96033333Y-98105152D01*
X96033333Y-98105152D02*
X96071428Y-98143247D01*
X96071428Y-98143247D02*
X96109523Y-98219438D01*
X96109523Y-98219438D02*
X96109523Y-98409914D01*
X96109523Y-98409914D02*
X96071428Y-98486104D01*
X96071428Y-98486104D02*
X96033333Y-98524200D01*
X96033333Y-98524200D02*
X95957142Y-98562295D01*
X95957142Y-98562295D02*
X95766666Y-98562295D01*
X95766666Y-98562295D02*
X95690476Y-98524200D01*
X95690476Y-98524200D02*
X95652380Y-98486104D01*
X87362295Y-95584523D02*
X88009914Y-95584523D01*
X88009914Y-95584523D02*
X88086104Y-95546428D01*
X88086104Y-95546428D02*
X88124200Y-95508333D01*
X88124200Y-95508333D02*
X88162295Y-95432142D01*
X88162295Y-95432142D02*
X88162295Y-95279761D01*
X88162295Y-95279761D02*
X88124200Y-95203571D01*
X88124200Y-95203571D02*
X88086104Y-95165476D01*
X88086104Y-95165476D02*
X88009914Y-95127380D01*
X88009914Y-95127380D02*
X87362295Y-95127380D01*
X88162295Y-94708333D02*
X88162295Y-94555952D01*
X88162295Y-94555952D02*
X88124200Y-94479762D01*
X88124200Y-94479762D02*
X88086104Y-94441666D01*
X88086104Y-94441666D02*
X87971819Y-94365476D01*
X87971819Y-94365476D02*
X87819438Y-94327381D01*
X87819438Y-94327381D02*
X87514676Y-94327381D01*
X87514676Y-94327381D02*
X87438485Y-94365476D01*
X87438485Y-94365476D02*
X87400390Y-94403571D01*
X87400390Y-94403571D02*
X87362295Y-94479762D01*
X87362295Y-94479762D02*
X87362295Y-94632143D01*
X87362295Y-94632143D02*
X87400390Y-94708333D01*
X87400390Y-94708333D02*
X87438485Y-94746428D01*
X87438485Y-94746428D02*
X87514676Y-94784524D01*
X87514676Y-94784524D02*
X87705152Y-94784524D01*
X87705152Y-94784524D02*
X87781342Y-94746428D01*
X87781342Y-94746428D02*
X87819438Y-94708333D01*
X87819438Y-94708333D02*
X87857533Y-94632143D01*
X87857533Y-94632143D02*
X87857533Y-94479762D01*
X87857533Y-94479762D02*
X87819438Y-94403571D01*
X87819438Y-94403571D02*
X87781342Y-94365476D01*
X87781342Y-94365476D02*
X87705152Y-94327381D01*
X159255714Y-85086104D02*
X159217618Y-85124200D01*
X159217618Y-85124200D02*
X159103333Y-85162295D01*
X159103333Y-85162295D02*
X159027142Y-85162295D01*
X159027142Y-85162295D02*
X158912856Y-85124200D01*
X158912856Y-85124200D02*
X158836666Y-85048009D01*
X158836666Y-85048009D02*
X158798571Y-84971819D01*
X158798571Y-84971819D02*
X158760475Y-84819438D01*
X158760475Y-84819438D02*
X158760475Y-84705152D01*
X158760475Y-84705152D02*
X158798571Y-84552771D01*
X158798571Y-84552771D02*
X158836666Y-84476580D01*
X158836666Y-84476580D02*
X158912856Y-84400390D01*
X158912856Y-84400390D02*
X159027142Y-84362295D01*
X159027142Y-84362295D02*
X159103333Y-84362295D01*
X159103333Y-84362295D02*
X159217618Y-84400390D01*
X159217618Y-84400390D02*
X159255714Y-84438485D01*
X159979523Y-84362295D02*
X159598571Y-84362295D01*
X159598571Y-84362295D02*
X159560475Y-84743247D01*
X159560475Y-84743247D02*
X159598571Y-84705152D01*
X159598571Y-84705152D02*
X159674761Y-84667057D01*
X159674761Y-84667057D02*
X159865237Y-84667057D01*
X159865237Y-84667057D02*
X159941428Y-84705152D01*
X159941428Y-84705152D02*
X159979523Y-84743247D01*
X159979523Y-84743247D02*
X160017618Y-84819438D01*
X160017618Y-84819438D02*
X160017618Y-85009914D01*
X160017618Y-85009914D02*
X159979523Y-85086104D01*
X159979523Y-85086104D02*
X159941428Y-85124200D01*
X159941428Y-85124200D02*
X159865237Y-85162295D01*
X159865237Y-85162295D02*
X159674761Y-85162295D01*
X159674761Y-85162295D02*
X159598571Y-85124200D01*
X159598571Y-85124200D02*
X159560475Y-85086104D01*
X160474761Y-84705152D02*
X160398571Y-84667057D01*
X160398571Y-84667057D02*
X160360476Y-84628961D01*
X160360476Y-84628961D02*
X160322380Y-84552771D01*
X160322380Y-84552771D02*
X160322380Y-84514676D01*
X160322380Y-84514676D02*
X160360476Y-84438485D01*
X160360476Y-84438485D02*
X160398571Y-84400390D01*
X160398571Y-84400390D02*
X160474761Y-84362295D01*
X160474761Y-84362295D02*
X160627142Y-84362295D01*
X160627142Y-84362295D02*
X160703333Y-84400390D01*
X160703333Y-84400390D02*
X160741428Y-84438485D01*
X160741428Y-84438485D02*
X160779523Y-84514676D01*
X160779523Y-84514676D02*
X160779523Y-84552771D01*
X160779523Y-84552771D02*
X160741428Y-84628961D01*
X160741428Y-84628961D02*
X160703333Y-84667057D01*
X160703333Y-84667057D02*
X160627142Y-84705152D01*
X160627142Y-84705152D02*
X160474761Y-84705152D01*
X160474761Y-84705152D02*
X160398571Y-84743247D01*
X160398571Y-84743247D02*
X160360476Y-84781342D01*
X160360476Y-84781342D02*
X160322380Y-84857533D01*
X160322380Y-84857533D02*
X160322380Y-85009914D01*
X160322380Y-85009914D02*
X160360476Y-85086104D01*
X160360476Y-85086104D02*
X160398571Y-85124200D01*
X160398571Y-85124200D02*
X160474761Y-85162295D01*
X160474761Y-85162295D02*
X160627142Y-85162295D01*
X160627142Y-85162295D02*
X160703333Y-85124200D01*
X160703333Y-85124200D02*
X160741428Y-85086104D01*
X160741428Y-85086104D02*
X160779523Y-85009914D01*
X160779523Y-85009914D02*
X160779523Y-84857533D01*
X160779523Y-84857533D02*
X160741428Y-84781342D01*
X160741428Y-84781342D02*
X160703333Y-84743247D01*
X160703333Y-84743247D02*
X160627142Y-84705152D01*
D10*
%TO.C,L4*%
X131852000Y-125940000D02*
X131852000Y-126090000D01*
X131852000Y-125940000D02*
X136372000Y-125940000D01*
X131852000Y-130460000D02*
X131852000Y-130310000D01*
X131852000Y-130460000D02*
X136372000Y-130460000D01*
X136372000Y-125940000D02*
X136372000Y-126090000D01*
X136372000Y-130460000D02*
X136372000Y-130310000D01*
%TO.C,L3*%
X133858600Y-124510200D02*
X134008600Y-124510200D01*
X133858600Y-124510200D02*
X133858600Y-119990200D01*
X138378600Y-124510200D02*
X138228600Y-124510200D01*
X138378600Y-124510200D02*
X138378600Y-119990200D01*
X133858600Y-119990200D02*
X134008600Y-119990200D01*
X138378600Y-119990200D02*
X138228600Y-119990200D01*
%TO.C,L2*%
X122974700Y-124620600D02*
X123124700Y-124620600D01*
X122974700Y-124620600D02*
X122974700Y-120100600D01*
X127494700Y-124620600D02*
X127344700Y-124620600D01*
X127494700Y-124620600D02*
X127494700Y-120100600D01*
X122974700Y-120100600D02*
X123124700Y-120100600D01*
X127494700Y-120100600D02*
X127344700Y-120100600D01*
%TO.C,L1*%
X153390000Y-112167000D02*
X153240000Y-112167000D01*
X153390000Y-112167000D02*
X153390000Y-116687000D01*
X148870000Y-112167000D02*
X149020000Y-112167000D01*
X148870000Y-112167000D02*
X148870000Y-116687000D01*
X153390000Y-116687000D02*
X153240000Y-116687000D01*
X148870000Y-116687000D02*
X149020000Y-116687000D01*
D13*
%TO.C,U3*%
X148158000Y-113804700D02*
G75*
G02*
X147958000Y-113804700I-100000J0D01*
G01*
X147958000Y-113804700D02*
G75*
G02*
X148158000Y-113804700I100000J0D01*
G01*
%TO.C,U6*%
X133676060Y-131458840D02*
G75*
G02*
X133476060Y-131458840I-100000J0D01*
G01*
X133476060Y-131458840D02*
G75*
G02*
X133676060Y-131458840I100000J0D01*
G01*
%TO.C,U5*%
X139399820Y-122744420D02*
G75*
G02*
X139199820Y-122744420I-100000J0D01*
G01*
X139199820Y-122744420D02*
G75*
G02*
X139399820Y-122744420I100000J0D01*
G01*
%TO.C,U4*%
X128597200Y-122692160D02*
G75*
G02*
X128397200Y-122692160I-100000J0D01*
G01*
X128397200Y-122692160D02*
G75*
G02*
X128597200Y-122692160I100000J0D01*
G01*
D12*
%TO.C,U2*%
X107757200Y-101966000D02*
X121757200Y-101966000D01*
X107757200Y-115966000D02*
X107757200Y-101966000D01*
X121757200Y-101966000D02*
X121757200Y-115966000D01*
X121757200Y-115966000D02*
X107757200Y-115966000D01*
D14*
X122332200Y-115366000D02*
G75*
G02*
X122082200Y-115366000I-125000J0D01*
G01*
X122082200Y-115366000D02*
G75*
G02*
X122332200Y-115366000I125000J0D01*
G01*
D10*
%TO.C,R1*%
X139990859Y-92799900D02*
X140298141Y-92799900D01*
X139990859Y-93559900D02*
X140298141Y-93559900D01*
%TO.C,R2*%
X141935459Y-92796000D02*
X142242741Y-92796000D01*
X141935459Y-93556000D02*
X142242741Y-93556000D01*
%TO.C,C4*%
X112782464Y-100935200D02*
X112998136Y-100935200D01*
X112782464Y-101655200D02*
X112998136Y-101655200D01*
%TO.C,C5*%
X114725564Y-100935200D02*
X114941236Y-100935200D01*
X114725564Y-101655200D02*
X114941236Y-101655200D01*
%TO.C,R4*%
X112739839Y-99897840D02*
X113047121Y-99897840D01*
X112739839Y-100657840D02*
X113047121Y-100657840D01*
%TO.C,R5*%
X114679759Y-99899200D02*
X114987041Y-99899200D01*
X114679759Y-100659200D02*
X114987041Y-100659200D01*
%TO.C,C11*%
X131840300Y-121533552D02*
X131840300Y-121011048D01*
X133310300Y-121533552D02*
X133310300Y-121011048D01*
%TO.C,C12*%
X130371964Y-126411400D02*
X130587636Y-126411400D01*
X130371964Y-127131400D02*
X130587636Y-127131400D01*
%TO.C,C13*%
X132988164Y-124785800D02*
X133203836Y-124785800D01*
X132988164Y-125505800D02*
X133203836Y-125505800D01*
%TO.C,C14*%
X129431148Y-120283300D02*
X129953652Y-120283300D01*
X129431148Y-121753300D02*
X129953652Y-121753300D01*
%TO.C,C15*%
X129431148Y-118251300D02*
X129953652Y-118251300D01*
X129431148Y-119721300D02*
X129953652Y-119721300D01*
%TO.C,C16*%
X143105200Y-121343052D02*
X143105200Y-120820548D01*
X144575200Y-121343052D02*
X144575200Y-120820548D01*
%TO.C,C17*%
X134780348Y-135028000D02*
X135302852Y-135028000D01*
X134780348Y-136498000D02*
X135302852Y-136498000D01*
%TO.C,C18*%
X141192364Y-126589200D02*
X141408036Y-126589200D01*
X141192364Y-127309200D02*
X141408036Y-127309200D01*
%TO.C,C19*%
X142959500Y-125622164D02*
X142959500Y-125837836D01*
X143679500Y-125622164D02*
X143679500Y-125837836D01*
%TO.C,C20*%
X129103800Y-133597764D02*
X129103800Y-133813436D01*
X129823800Y-133597764D02*
X129823800Y-133813436D01*
%TO.C,C21*%
X130818836Y-135225200D02*
X130603164Y-135225200D01*
X130818836Y-135945200D02*
X130603164Y-135945200D01*
%TO.C,C22*%
X140297268Y-118137000D02*
X140819772Y-118137000D01*
X140297268Y-119607000D02*
X140819772Y-119607000D01*
%TO.C,C23*%
X134748600Y-132301348D02*
X134748600Y-132823852D01*
X136218600Y-132301348D02*
X136218600Y-132823852D01*
%TO.C,C24*%
X140302348Y-120169000D02*
X140824852Y-120169000D01*
X140302348Y-121639000D02*
X140824852Y-121639000D01*
%TO.C,C25*%
X136806000Y-132301348D02*
X136806000Y-132823852D01*
X138276000Y-132301348D02*
X138276000Y-132823852D01*
%TO.C,R11*%
X138354800Y-127534641D02*
X138354800Y-127227359D01*
X139114800Y-127534641D02*
X139114800Y-127227359D01*
%TO.C,R12*%
X139370800Y-127227359D02*
X139370800Y-127534641D01*
X140130800Y-127227359D02*
X140130800Y-127534641D01*
%TO.C,R13*%
X128852959Y-130658600D02*
X129160241Y-130658600D01*
X128852959Y-131418600D02*
X129160241Y-131418600D01*
%TO.C,TP13*%
X125600000Y-118100000D02*
X127000000Y-118100000D01*
X125600000Y-119500000D02*
X125600000Y-118100000D01*
X127000000Y-118100000D02*
X127000000Y-119500000D01*
X127000000Y-119500000D02*
X125600000Y-119500000D01*
%TO.C,TP15*%
X138300000Y-115600000D02*
X139700000Y-115600000D01*
X138300000Y-117000000D02*
X138300000Y-115600000D01*
X139700000Y-115600000D02*
X139700000Y-117000000D01*
X139700000Y-117000000D02*
X138300000Y-117000000D01*
%TO.C,TP16*%
X138949200Y-129043200D02*
X140349200Y-129043200D01*
X138949200Y-130443200D02*
X138949200Y-129043200D01*
X140349200Y-129043200D02*
X140349200Y-130443200D01*
X140349200Y-130443200D02*
X138949200Y-130443200D01*
%TO.C,C26*%
X125062348Y-132465000D02*
X125584852Y-132465000D01*
X125062348Y-133935000D02*
X125584852Y-133935000D01*
%TO.C,C27*%
X127325800Y-129355964D02*
X127325800Y-129571636D01*
X128045800Y-129355964D02*
X128045800Y-129571636D01*
%TO.C,C28*%
X121718400Y-129608948D02*
X121718400Y-130131452D01*
X123188400Y-129608948D02*
X123188400Y-130131452D01*
%TO.C,TP18*%
X121900000Y-126200000D02*
X123300000Y-126200000D01*
X121900000Y-127600000D02*
X121900000Y-126200000D01*
X123300000Y-126200000D02*
X123300000Y-127600000D01*
X123300000Y-127600000D02*
X121900000Y-127600000D01*
%TO.C,C29*%
X106737036Y-111273000D02*
X106521364Y-111273000D01*
X106737036Y-111993000D02*
X106521364Y-111993000D01*
%TO.C,C30*%
X106737036Y-112263600D02*
X106521364Y-112263600D01*
X106737036Y-112983600D02*
X106521364Y-112983600D01*
%TO.C,C33*%
X106686236Y-106940000D02*
X106470564Y-106940000D01*
X106686236Y-107660000D02*
X106470564Y-107660000D01*
%TO.C,Y1*%
X116033800Y-96749600D02*
X116033800Y-100049600D01*
X116033800Y-100049600D02*
X120033800Y-100049600D01*
%TO.C,C95*%
X103869604Y-103640000D02*
X104085276Y-103640000D01*
X103869604Y-104360000D02*
X104085276Y-104360000D01*
%TO.C,C96*%
X103869604Y-102601440D02*
X104085276Y-102601440D01*
X103869604Y-103321440D02*
X104085276Y-103321440D01*
%TO.C,C97*%
X121057844Y-97170920D02*
X121273516Y-97170920D01*
X121057844Y-97890920D02*
X121273516Y-97890920D01*
%TO.C,C98*%
X114946316Y-98887960D02*
X114730644Y-98887960D01*
X114946316Y-99607960D02*
X114730644Y-99607960D01*
%TO.C,C100*%
X106470564Y-105857720D02*
X106686236Y-105857720D01*
X106470564Y-106577720D02*
X106686236Y-106577720D01*
%TO.C,C101*%
X106737036Y-110180800D02*
X106521364Y-110180800D01*
X106737036Y-110900800D02*
X106521364Y-110900800D01*
%TO.C,C103*%
X106711636Y-109114000D02*
X106495964Y-109114000D01*
X106711636Y-109834000D02*
X106495964Y-109834000D01*
%TO.C,C104*%
X106711636Y-108123400D02*
X106495964Y-108123400D01*
X106711636Y-108843400D02*
X106495964Y-108843400D01*
%TO.C,R29*%
X106548920Y-103658641D02*
X106548920Y-103351359D01*
X107308920Y-103658641D02*
X107308920Y-103351359D01*
D12*
%TO.C,Y2*%
X104740840Y-104360160D02*
X104740840Y-102660160D01*
X106540840Y-104360160D02*
X106540840Y-102660160D01*
D10*
%TO.C,J2*%
X147485000Y-122000000D02*
X147485000Y-126950000D01*
X147485000Y-122000000D02*
X150085000Y-122000000D01*
X147485000Y-135400000D02*
X147485000Y-130450000D01*
X147485000Y-135400000D02*
X150085000Y-135400000D01*
X153485000Y-122000000D02*
X153485000Y-135400000D01*
%TO.C,R27*%
X123137959Y-110364000D02*
X123445241Y-110364000D01*
X123137959Y-111124000D02*
X123445241Y-111124000D01*
%TO.C,R28*%
X122985559Y-109348000D02*
X123292841Y-109348000D01*
X122985559Y-110108000D02*
X123292841Y-110108000D01*
%TO.C,C3*%
X138209700Y-94849836D02*
X138209700Y-94634164D01*
X138929700Y-94849836D02*
X138929700Y-94634164D01*
%TO.C,R3*%
X137186400Y-94588359D02*
X137186400Y-94895641D01*
X137946400Y-94588359D02*
X137946400Y-94895641D01*
D12*
%TO.C,U1*%
X128553200Y-96363200D02*
X142553200Y-96363200D01*
X128553200Y-105363200D02*
X128553200Y-96363200D01*
X142553200Y-96363200D02*
X142553200Y-105363200D01*
X142553200Y-105363200D02*
X128553200Y-105363200D01*
D14*
X129603200Y-106263200D02*
G75*
G02*
X129353200Y-106263200I-125000J0D01*
G01*
X129353200Y-106263200D02*
G75*
G02*
X129603200Y-106263200I125000J0D01*
G01*
D10*
%TO.C,J3*%
X147300000Y-90600000D02*
X147300000Y-95550000D01*
X147300000Y-90600000D02*
X149900000Y-90600000D01*
X147300000Y-104000000D02*
X147300000Y-99050000D01*
X147300000Y-104000000D02*
X149900000Y-104000000D01*
X153300000Y-90600000D02*
X153300000Y-104000000D01*
%TO.C,R9*%
X127534400Y-127433041D02*
X127534400Y-127125759D01*
X128294400Y-127433041D02*
X128294400Y-127125759D01*
%TO.C,R10*%
X128550400Y-127125759D02*
X128550400Y-127433041D01*
X129310400Y-127125759D02*
X129310400Y-127433041D01*
%TO.C,R31*%
X106744741Y-104763300D02*
X106437459Y-104763300D01*
X106744741Y-105523300D02*
X106437459Y-105523300D01*
%TO.C,C102*%
X104550096Y-107567140D02*
X104334424Y-107567140D01*
X104550096Y-108287140D02*
X104334424Y-108287140D01*
%TO.C,R32*%
X104265759Y-108535200D02*
X104573041Y-108535200D01*
X104265759Y-109295200D02*
X104573041Y-109295200D01*
%TO.C,C93*%
X112487836Y-118140000D02*
X112272164Y-118140000D01*
X112487836Y-118860000D02*
X112272164Y-118860000D01*
%TO.C,C94*%
X112487836Y-117140000D02*
X112272164Y-117140000D01*
X112487836Y-117860000D02*
X112272164Y-117860000D01*
%TO.C,J1*%
X106334400Y-120004000D02*
X106334400Y-123614000D01*
X106334400Y-125314000D02*
X106334400Y-130014000D01*
X106334400Y-131314000D02*
X106334400Y-133114000D01*
X106784400Y-120004000D02*
X106334400Y-120004000D01*
X107364400Y-136274000D02*
X107164400Y-136074000D01*
X107364400Y-136274000D02*
X109224400Y-136274000D01*
X109224400Y-136274000D02*
X109434400Y-136074000D01*
X109434400Y-135924000D02*
X109434400Y-136074000D01*
X109434400Y-135924000D02*
X115804400Y-135924000D01*
X116314400Y-136274000D02*
X115804400Y-135924000D01*
X118384400Y-120004000D02*
X120304400Y-120004000D01*
X118624400Y-136274000D02*
X116314400Y-136274000D01*
X118624400Y-136274000D02*
X118824400Y-136074000D01*
X118824400Y-136074000D02*
X119084400Y-136074000D01*
X120304400Y-120004000D02*
X120304400Y-134014000D01*
%TO.C,C9*%
X147073252Y-114809600D02*
X146550748Y-114809600D01*
X147073252Y-116279600D02*
X146550748Y-116279600D01*
%TO.C,R7*%
X148108641Y-108357400D02*
X147801359Y-108357400D01*
X148108641Y-109117400D02*
X147801359Y-109117400D01*
%TO.C,R8*%
X147801359Y-109348000D02*
X148108641Y-109348000D01*
X147801359Y-110108000D02*
X148108641Y-110108000D01*
%TO.C,TP14*%
X151300000Y-117100000D02*
X152700000Y-117100000D01*
X151300000Y-118500000D02*
X151300000Y-117100000D01*
X152700000Y-117100000D02*
X152700000Y-118500000D01*
X152700000Y-118500000D02*
X151300000Y-118500000D01*
%TO.C,C10*%
X147073252Y-116867000D02*
X146550748Y-116867000D01*
X147073252Y-118337000D02*
X146550748Y-118337000D01*
%TO.C,C6*%
X142495600Y-114673748D02*
X142495600Y-115196252D01*
X143965600Y-114673748D02*
X143965600Y-115196252D01*
%TO.C,C7*%
X146081636Y-109266400D02*
X145865964Y-109266400D01*
X146081636Y-109986400D02*
X145865964Y-109986400D01*
%TO.C,C8*%
X143531000Y-111156636D02*
X143531000Y-110940964D01*
X144251000Y-111156636D02*
X144251000Y-110940964D01*
%TO.C,C1*%
X140036664Y-93823200D02*
X140252336Y-93823200D01*
X140036664Y-94543200D02*
X140252336Y-94543200D01*
%TO.C,U7*%
X123773760Y-130012440D02*
X123773760Y-129212440D01*
X123773760Y-130012440D02*
X123773760Y-130812440D01*
X126893760Y-130012440D02*
X126893760Y-129212440D01*
X126893760Y-130012440D02*
X126893760Y-130812440D01*
X123823760Y-131312440D02*
X123493760Y-131552440D01*
X123493760Y-131072440D01*
X123823760Y-131312440D01*
G36*
X123823760Y-131312440D02*
G01*
X123493760Y-131552440D01*
X123493760Y-131072440D01*
X123823760Y-131312440D01*
G37*
%TO.C,R14*%
X129160241Y-131674600D02*
X128852959Y-131674600D01*
X129160241Y-132434600D02*
X128852959Y-132434600D01*
%TO.C,R41*%
X108020000Y-118153641D02*
X108020000Y-117846359D01*
X108780000Y-118153641D02*
X108780000Y-117846359D01*
%TO.C,R25*%
X115253641Y-118120000D02*
X114946359Y-118120000D01*
X115253641Y-118880000D02*
X114946359Y-118880000D01*
%TO.C,L6*%
X92240000Y-95577064D02*
X92240000Y-94372936D01*
X94960000Y-95577064D02*
X94960000Y-94372936D01*
%TO.C,R42*%
X109220000Y-118153641D02*
X109220000Y-117846359D01*
X109980000Y-118153641D02*
X109980000Y-117846359D01*
%TO.C,R24*%
X116453641Y-117120000D02*
X116146359Y-117120000D01*
X116453641Y-117880000D02*
X116146359Y-117880000D01*
%TO.C,C57*%
X161892164Y-97640000D02*
X162107836Y-97640000D01*
X161892164Y-98360000D02*
X162107836Y-98360000D01*
%TO.C,U11*%
X158422500Y-96340000D02*
X158422500Y-97740000D01*
X160742500Y-96330000D02*
X160742500Y-97740000D01*
X161022500Y-96200000D02*
X160692500Y-95960000D01*
X161022500Y-95720000D01*
X161022500Y-96200000D01*
G36*
X161022500Y-96200000D02*
G01*
X160692500Y-95960000D01*
X161022500Y-95720000D01*
X161022500Y-96200000D01*
G37*
%TO.C,J5*%
X166225000Y-87250000D02*
X164525000Y-87250000D01*
X166225000Y-96590000D02*
X164525000Y-96590000D01*
%TO.C,U15*%
X143290000Y-91300000D02*
X143290000Y-92700000D01*
X145610000Y-91290000D02*
X145610000Y-92700000D01*
X145890000Y-91160000D02*
X145560000Y-90920000D01*
X145890000Y-90680000D01*
X145890000Y-91160000D01*
G36*
X145890000Y-91160000D02*
G01*
X145560000Y-90920000D01*
X145890000Y-90680000D01*
X145890000Y-91160000D01*
G37*
%TO.C,D1*%
X111465000Y-93415000D02*
X111465000Y-95700000D01*
X112935000Y-93415000D02*
X111465000Y-93415000D01*
X112935000Y-95700000D02*
X112935000Y-93415000D01*
%TO.C,J8*%
X95500000Y-103350000D02*
X95500000Y-116650000D01*
X95500000Y-116650000D02*
X97240000Y-116650000D01*
X97240000Y-103350000D02*
X95500000Y-103350000D01*
X101300000Y-103350000D02*
X99960000Y-103350000D01*
X101300000Y-104840000D02*
X101300000Y-103350000D01*
X101300000Y-104840000D02*
X102500000Y-104840000D01*
X101300000Y-115160000D02*
X101300000Y-116650000D01*
X101300000Y-116650000D02*
X99960000Y-116650000D01*
%TO.C,SW1*%
X80880000Y-92310000D02*
X81280000Y-92310000D01*
X80880000Y-97050000D02*
X80880000Y-92310000D01*
X80880000Y-97050000D02*
X81280000Y-97050000D01*
X84280000Y-92310000D02*
X82220000Y-92310000D01*
X84280000Y-97050000D02*
X82220000Y-97050000D01*
X85620000Y-92310000D02*
X85220000Y-92310000D01*
X85620000Y-97050000D02*
X85220000Y-97050000D01*
X85620000Y-97050000D02*
X85620000Y-92310000D01*
%TO.C,R43*%
X160306359Y-92890000D02*
X160613641Y-92890000D01*
X160306359Y-93650000D02*
X160613641Y-93650000D01*
%TO.C,R45*%
X111546359Y-96620000D02*
X111853641Y-96620000D01*
X111546359Y-97380000D02*
X111853641Y-97380000D01*
%TO.C,R20*%
X89546359Y-91995000D02*
X89853641Y-91995000D01*
X89546359Y-92755000D02*
X89853641Y-92755000D01*
%TO.C,J10*%
X154770000Y-94930000D02*
X154770000Y-89790000D01*
X157430000Y-89790000D02*
X154770000Y-89790000D01*
X157430000Y-94930000D02*
X154770000Y-94930000D01*
X157430000Y-94930000D02*
X157430000Y-89790000D01*
X157430000Y-96200000D02*
X157430000Y-97530000D01*
X157430000Y-97530000D02*
X156100000Y-97530000D01*
%TO.C,R21*%
X89853641Y-97320000D02*
X89546359Y-97320000D01*
X89853641Y-98080000D02*
X89546359Y-98080000D01*
%TO.C,R44*%
X160520000Y-89346359D02*
X160520000Y-89653641D01*
X161280000Y-89346359D02*
X161280000Y-89653641D01*
%TO.C,R22*%
X114453641Y-117120000D02*
X114146359Y-117120000D01*
X114453641Y-117880000D02*
X114146359Y-117880000D01*
%TO.C,U12*%
X157690000Y-87650000D02*
X157690000Y-86240000D01*
X160010000Y-87640000D02*
X160010000Y-86240000D01*
X157740000Y-88020000D02*
X157410000Y-88260000D01*
X157410000Y-87780000D01*
X157740000Y-88020000D01*
G36*
X157740000Y-88020000D02*
G01*
X157410000Y-88260000D01*
X157410000Y-87780000D01*
X157740000Y-88020000D01*
G37*
%TO.C,C34*%
X97492164Y-94540000D02*
X97707836Y-94540000D01*
X97492164Y-95260000D02*
X97707836Y-95260000D01*
%TO.C,C52*%
X158782164Y-88730000D02*
X158997836Y-88730000D01*
X158782164Y-89450000D02*
X158997836Y-89450000D01*
%TO.C,C35*%
X92059420Y-97665000D02*
X92340580Y-97665000D01*
X92059420Y-98685000D02*
X92340580Y-98685000D01*
%TO.C,U9*%
X88640000Y-94975000D02*
X88640000Y-94175000D01*
X88640000Y-94975000D02*
X88640000Y-95775000D01*
X91760000Y-94975000D02*
X91760000Y-94175000D01*
X91760000Y-94975000D02*
X91760000Y-95775000D01*
X88690000Y-96275000D02*
X88360000Y-96515000D01*
X88360000Y-96035000D01*
X88690000Y-96275000D01*
G36*
X88690000Y-96275000D02*
G01*
X88360000Y-96515000D01*
X88360000Y-96035000D01*
X88690000Y-96275000D01*
G37*
%TO.C,C58*%
X157807836Y-84430000D02*
X157592164Y-84430000D01*
X157807836Y-85150000D02*
X157592164Y-85150000D01*
%TO.C,C51*%
X160307836Y-94540000D02*
X160092164Y-94540000D01*
X160307836Y-95260000D02*
X160092164Y-95260000D01*
%TD*%
M02*
