%TF.GenerationSoftware,KiCad,Pcbnew,8.0.6*%
%TF.CreationDate,2024-12-25T08:51:51-08:00*%
%TF.ProjectId,hardware,68617264-7761-4726-952e-6b696361645f,rev?*%
%TF.SameCoordinates,Original*%
%TF.FileFunction,Drillmap*%
%TF.FilePolarity,Positive*%
%FSLAX45Y45*%
G04 Gerber Fmt 4.5, Leading zero omitted, Abs format (unit mm)*
G04 Created by KiCad (PCBNEW 8.0.6) date 2024-12-25 08:51:51*
%MOMM*%
%LPD*%
G01*
G04 APERTURE LIST*
%ADD10C,0.100000*%
%ADD11C,0.200000*%
G04 APERTURE END LIST*
D10*
X7900000Y-9800000D02*
X7900000Y-8600000D01*
X17000000Y-9800000D02*
X17000000Y-8600000D01*
X7900000Y-8600000D02*
G75*
G02*
X8141421Y-8396473I241420J-41420D01*
G01*
X8100000Y-10000000D02*
G75*
G02*
X7900000Y-9800000I0J200000D01*
G01*
X17000000Y-9800000D02*
G75*
G02*
X16800000Y-10000000I-200000J0D01*
G01*
X8100000Y-10000000D02*
X9300000Y-10000000D01*
X9500000Y-13704000D02*
X9500000Y-13190000D01*
X15400000Y-10200000D02*
G75*
G02*
X15600000Y-10000000I200000J0D01*
G01*
X9300000Y-10000000D02*
G75*
G02*
X9500000Y-10200000I0J-200000D01*
G01*
X15400000Y-13704000D02*
X9500000Y-13704000D01*
X9500000Y-10200000D02*
X9500000Y-12330000D01*
X15600000Y-10000000D02*
X16800000Y-10000000D01*
X15400000Y-13704000D02*
X15400000Y-10200000D01*
X16800000Y-8400000D02*
G75*
G02*
X17000000Y-8600000I0J-200000D01*
G01*
X16800000Y-8400000D02*
X8141421Y-8396472D01*
X9500000Y-12330000D02*
X9500000Y-13190000D01*
D11*
D10*
X16339500Y-8870500D02*
X16404500Y-8935500D01*
X16404500Y-8870500D02*
X16339500Y-8935500D01*
X16339500Y-9448500D02*
X16404500Y-9513500D01*
X16404500Y-9448500D02*
X16339500Y-9513500D01*
D11*
X8155777Y-14020484D02*
X8155777Y-13820484D01*
X8155777Y-13820484D02*
X8203396Y-13820484D01*
X8203396Y-13820484D02*
X8231967Y-13830008D01*
X8231967Y-13830008D02*
X8251015Y-13849055D01*
X8251015Y-13849055D02*
X8260539Y-13868103D01*
X8260539Y-13868103D02*
X8270062Y-13906198D01*
X8270062Y-13906198D02*
X8270062Y-13934769D01*
X8270062Y-13934769D02*
X8260539Y-13972865D01*
X8260539Y-13972865D02*
X8251015Y-13991912D01*
X8251015Y-13991912D02*
X8231967Y-14010960D01*
X8231967Y-14010960D02*
X8203396Y-14020484D01*
X8203396Y-14020484D02*
X8155777Y-14020484D01*
X8355777Y-14020484D02*
X8355777Y-13887150D01*
X8355777Y-13925246D02*
X8365301Y-13906198D01*
X8365301Y-13906198D02*
X8374824Y-13896674D01*
X8374824Y-13896674D02*
X8393872Y-13887150D01*
X8393872Y-13887150D02*
X8412920Y-13887150D01*
X8479586Y-14020484D02*
X8479586Y-13887150D01*
X8479586Y-13820484D02*
X8470063Y-13830008D01*
X8470063Y-13830008D02*
X8479586Y-13839531D01*
X8479586Y-13839531D02*
X8489110Y-13830008D01*
X8489110Y-13830008D02*
X8479586Y-13820484D01*
X8479586Y-13820484D02*
X8479586Y-13839531D01*
X8603396Y-14020484D02*
X8584348Y-14010960D01*
X8584348Y-14010960D02*
X8574824Y-13991912D01*
X8574824Y-13991912D02*
X8574824Y-13820484D01*
X8708158Y-14020484D02*
X8689110Y-14010960D01*
X8689110Y-14010960D02*
X8679586Y-13991912D01*
X8679586Y-13991912D02*
X8679586Y-13820484D01*
X8936729Y-14020484D02*
X8936729Y-13820484D01*
X8936729Y-13820484D02*
X9003396Y-13963341D01*
X9003396Y-13963341D02*
X9070063Y-13820484D01*
X9070063Y-13820484D02*
X9070063Y-14020484D01*
X9251015Y-14020484D02*
X9251015Y-13915722D01*
X9251015Y-13915722D02*
X9241491Y-13896674D01*
X9241491Y-13896674D02*
X9222444Y-13887150D01*
X9222444Y-13887150D02*
X9184348Y-13887150D01*
X9184348Y-13887150D02*
X9165301Y-13896674D01*
X9251015Y-14010960D02*
X9231967Y-14020484D01*
X9231967Y-14020484D02*
X9184348Y-14020484D01*
X9184348Y-14020484D02*
X9165301Y-14010960D01*
X9165301Y-14010960D02*
X9155777Y-13991912D01*
X9155777Y-13991912D02*
X9155777Y-13972865D01*
X9155777Y-13972865D02*
X9165301Y-13953817D01*
X9165301Y-13953817D02*
X9184348Y-13944293D01*
X9184348Y-13944293D02*
X9231967Y-13944293D01*
X9231967Y-13944293D02*
X9251015Y-13934769D01*
X9346253Y-13887150D02*
X9346253Y-14087150D01*
X9346253Y-13896674D02*
X9365301Y-13887150D01*
X9365301Y-13887150D02*
X9403396Y-13887150D01*
X9403396Y-13887150D02*
X9422444Y-13896674D01*
X9422444Y-13896674D02*
X9431967Y-13906198D01*
X9431967Y-13906198D02*
X9441491Y-13925246D01*
X9441491Y-13925246D02*
X9441491Y-13982388D01*
X9441491Y-13982388D02*
X9431967Y-14001436D01*
X9431967Y-14001436D02*
X9422444Y-14010960D01*
X9422444Y-14010960D02*
X9403396Y-14020484D01*
X9403396Y-14020484D02*
X9365301Y-14020484D01*
X9365301Y-14020484D02*
X9346253Y-14010960D01*
X9527205Y-14001436D02*
X9536729Y-14010960D01*
X9536729Y-14010960D02*
X9527205Y-14020484D01*
X9527205Y-14020484D02*
X9517682Y-14010960D01*
X9517682Y-14010960D02*
X9527205Y-14001436D01*
X9527205Y-14001436D02*
X9527205Y-14020484D01*
X9527205Y-13896674D02*
X9536729Y-13906198D01*
X9536729Y-13906198D02*
X9527205Y-13915722D01*
X9527205Y-13915722D02*
X9517682Y-13906198D01*
X9517682Y-13906198D02*
X9527205Y-13896674D01*
X9527205Y-13896674D02*
X9527205Y-13915722D01*
D10*
X7830000Y-14316500D02*
X7895000Y-14381500D01*
X7895000Y-14316500D02*
X7830000Y-14381500D01*
D11*
X8193872Y-14240484D02*
X8212920Y-14240484D01*
X8212920Y-14240484D02*
X8231967Y-14250008D01*
X8231967Y-14250008D02*
X8241491Y-14259531D01*
X8241491Y-14259531D02*
X8251015Y-14278579D01*
X8251015Y-14278579D02*
X8260539Y-14316674D01*
X8260539Y-14316674D02*
X8260539Y-14364293D01*
X8260539Y-14364293D02*
X8251015Y-14402388D01*
X8251015Y-14402388D02*
X8241491Y-14421436D01*
X8241491Y-14421436D02*
X8231967Y-14430960D01*
X8231967Y-14430960D02*
X8212920Y-14440484D01*
X8212920Y-14440484D02*
X8193872Y-14440484D01*
X8193872Y-14440484D02*
X8174824Y-14430960D01*
X8174824Y-14430960D02*
X8165301Y-14421436D01*
X8165301Y-14421436D02*
X8155777Y-14402388D01*
X8155777Y-14402388D02*
X8146253Y-14364293D01*
X8146253Y-14364293D02*
X8146253Y-14316674D01*
X8146253Y-14316674D02*
X8155777Y-14278579D01*
X8155777Y-14278579D02*
X8165301Y-14259531D01*
X8165301Y-14259531D02*
X8174824Y-14250008D01*
X8174824Y-14250008D02*
X8193872Y-14240484D01*
X8346253Y-14421436D02*
X8355777Y-14430960D01*
X8355777Y-14430960D02*
X8346253Y-14440484D01*
X8346253Y-14440484D02*
X8336729Y-14430960D01*
X8336729Y-14430960D02*
X8346253Y-14421436D01*
X8346253Y-14421436D02*
X8346253Y-14440484D01*
X8527205Y-14240484D02*
X8489110Y-14240484D01*
X8489110Y-14240484D02*
X8470063Y-14250008D01*
X8470063Y-14250008D02*
X8460539Y-14259531D01*
X8460539Y-14259531D02*
X8441491Y-14288103D01*
X8441491Y-14288103D02*
X8431967Y-14326198D01*
X8431967Y-14326198D02*
X8431967Y-14402388D01*
X8431967Y-14402388D02*
X8441491Y-14421436D01*
X8441491Y-14421436D02*
X8451015Y-14430960D01*
X8451015Y-14430960D02*
X8470063Y-14440484D01*
X8470063Y-14440484D02*
X8508158Y-14440484D01*
X8508158Y-14440484D02*
X8527205Y-14430960D01*
X8527205Y-14430960D02*
X8536729Y-14421436D01*
X8536729Y-14421436D02*
X8546253Y-14402388D01*
X8546253Y-14402388D02*
X8546253Y-14354769D01*
X8546253Y-14354769D02*
X8536729Y-14335722D01*
X8536729Y-14335722D02*
X8527205Y-14326198D01*
X8527205Y-14326198D02*
X8508158Y-14316674D01*
X8508158Y-14316674D02*
X8470063Y-14316674D01*
X8470063Y-14316674D02*
X8451015Y-14326198D01*
X8451015Y-14326198D02*
X8441491Y-14335722D01*
X8441491Y-14335722D02*
X8431967Y-14354769D01*
X8727205Y-14240484D02*
X8631967Y-14240484D01*
X8631967Y-14240484D02*
X8622444Y-14335722D01*
X8622444Y-14335722D02*
X8631967Y-14326198D01*
X8631967Y-14326198D02*
X8651015Y-14316674D01*
X8651015Y-14316674D02*
X8698634Y-14316674D01*
X8698634Y-14316674D02*
X8717682Y-14326198D01*
X8717682Y-14326198D02*
X8727205Y-14335722D01*
X8727205Y-14335722D02*
X8736729Y-14354769D01*
X8736729Y-14354769D02*
X8736729Y-14402388D01*
X8736729Y-14402388D02*
X8727205Y-14421436D01*
X8727205Y-14421436D02*
X8717682Y-14430960D01*
X8717682Y-14430960D02*
X8698634Y-14440484D01*
X8698634Y-14440484D02*
X8651015Y-14440484D01*
X8651015Y-14440484D02*
X8631967Y-14430960D01*
X8631967Y-14430960D02*
X8622444Y-14421436D01*
X8860539Y-14240484D02*
X8879586Y-14240484D01*
X8879586Y-14240484D02*
X8898634Y-14250008D01*
X8898634Y-14250008D02*
X8908158Y-14259531D01*
X8908158Y-14259531D02*
X8917682Y-14278579D01*
X8917682Y-14278579D02*
X8927205Y-14316674D01*
X8927205Y-14316674D02*
X8927205Y-14364293D01*
X8927205Y-14364293D02*
X8917682Y-14402388D01*
X8917682Y-14402388D02*
X8908158Y-14421436D01*
X8908158Y-14421436D02*
X8898634Y-14430960D01*
X8898634Y-14430960D02*
X8879586Y-14440484D01*
X8879586Y-14440484D02*
X8860539Y-14440484D01*
X8860539Y-14440484D02*
X8841491Y-14430960D01*
X8841491Y-14430960D02*
X8831967Y-14421436D01*
X8831967Y-14421436D02*
X8822444Y-14402388D01*
X8822444Y-14402388D02*
X8812920Y-14364293D01*
X8812920Y-14364293D02*
X8812920Y-14316674D01*
X8812920Y-14316674D02*
X8822444Y-14278579D01*
X8822444Y-14278579D02*
X8831967Y-14259531D01*
X8831967Y-14259531D02*
X8841491Y-14250008D01*
X8841491Y-14250008D02*
X8860539Y-14240484D01*
X9012920Y-14440484D02*
X9012920Y-14307150D01*
X9012920Y-14326198D02*
X9022444Y-14316674D01*
X9022444Y-14316674D02*
X9041491Y-14307150D01*
X9041491Y-14307150D02*
X9070063Y-14307150D01*
X9070063Y-14307150D02*
X9089110Y-14316674D01*
X9089110Y-14316674D02*
X9098634Y-14335722D01*
X9098634Y-14335722D02*
X9098634Y-14440484D01*
X9098634Y-14335722D02*
X9108158Y-14316674D01*
X9108158Y-14316674D02*
X9127205Y-14307150D01*
X9127205Y-14307150D02*
X9155777Y-14307150D01*
X9155777Y-14307150D02*
X9174825Y-14316674D01*
X9174825Y-14316674D02*
X9184348Y-14335722D01*
X9184348Y-14335722D02*
X9184348Y-14440484D01*
X9279586Y-14440484D02*
X9279586Y-14307150D01*
X9279586Y-14326198D02*
X9289110Y-14316674D01*
X9289110Y-14316674D02*
X9308158Y-14307150D01*
X9308158Y-14307150D02*
X9336729Y-14307150D01*
X9336729Y-14307150D02*
X9355777Y-14316674D01*
X9355777Y-14316674D02*
X9365301Y-14335722D01*
X9365301Y-14335722D02*
X9365301Y-14440484D01*
X9365301Y-14335722D02*
X9374825Y-14316674D01*
X9374825Y-14316674D02*
X9393872Y-14307150D01*
X9393872Y-14307150D02*
X9422444Y-14307150D01*
X9422444Y-14307150D02*
X9441491Y-14316674D01*
X9441491Y-14316674D02*
X9451015Y-14335722D01*
X9451015Y-14335722D02*
X9451015Y-14440484D01*
X9841491Y-14230960D02*
X9670063Y-14488103D01*
X10098634Y-14240484D02*
X10117682Y-14240484D01*
X10117682Y-14240484D02*
X10136729Y-14250008D01*
X10136729Y-14250008D02*
X10146253Y-14259531D01*
X10146253Y-14259531D02*
X10155777Y-14278579D01*
X10155777Y-14278579D02*
X10165301Y-14316674D01*
X10165301Y-14316674D02*
X10165301Y-14364293D01*
X10165301Y-14364293D02*
X10155777Y-14402388D01*
X10155777Y-14402388D02*
X10146253Y-14421436D01*
X10146253Y-14421436D02*
X10136729Y-14430960D01*
X10136729Y-14430960D02*
X10117682Y-14440484D01*
X10117682Y-14440484D02*
X10098634Y-14440484D01*
X10098634Y-14440484D02*
X10079587Y-14430960D01*
X10079587Y-14430960D02*
X10070063Y-14421436D01*
X10070063Y-14421436D02*
X10060539Y-14402388D01*
X10060539Y-14402388D02*
X10051015Y-14364293D01*
X10051015Y-14364293D02*
X10051015Y-14316674D01*
X10051015Y-14316674D02*
X10060539Y-14278579D01*
X10060539Y-14278579D02*
X10070063Y-14259531D01*
X10070063Y-14259531D02*
X10079587Y-14250008D01*
X10079587Y-14250008D02*
X10098634Y-14240484D01*
X10251015Y-14421436D02*
X10260539Y-14430960D01*
X10260539Y-14430960D02*
X10251015Y-14440484D01*
X10251015Y-14440484D02*
X10241491Y-14430960D01*
X10241491Y-14430960D02*
X10251015Y-14421436D01*
X10251015Y-14421436D02*
X10251015Y-14440484D01*
X10384348Y-14240484D02*
X10403396Y-14240484D01*
X10403396Y-14240484D02*
X10422444Y-14250008D01*
X10422444Y-14250008D02*
X10431968Y-14259531D01*
X10431968Y-14259531D02*
X10441491Y-14278579D01*
X10441491Y-14278579D02*
X10451015Y-14316674D01*
X10451015Y-14316674D02*
X10451015Y-14364293D01*
X10451015Y-14364293D02*
X10441491Y-14402388D01*
X10441491Y-14402388D02*
X10431968Y-14421436D01*
X10431968Y-14421436D02*
X10422444Y-14430960D01*
X10422444Y-14430960D02*
X10403396Y-14440484D01*
X10403396Y-14440484D02*
X10384348Y-14440484D01*
X10384348Y-14440484D02*
X10365301Y-14430960D01*
X10365301Y-14430960D02*
X10355777Y-14421436D01*
X10355777Y-14421436D02*
X10346253Y-14402388D01*
X10346253Y-14402388D02*
X10336729Y-14364293D01*
X10336729Y-14364293D02*
X10336729Y-14316674D01*
X10336729Y-14316674D02*
X10346253Y-14278579D01*
X10346253Y-14278579D02*
X10355777Y-14259531D01*
X10355777Y-14259531D02*
X10365301Y-14250008D01*
X10365301Y-14250008D02*
X10384348Y-14240484D01*
X10527206Y-14259531D02*
X10536729Y-14250008D01*
X10536729Y-14250008D02*
X10555777Y-14240484D01*
X10555777Y-14240484D02*
X10603396Y-14240484D01*
X10603396Y-14240484D02*
X10622444Y-14250008D01*
X10622444Y-14250008D02*
X10631968Y-14259531D01*
X10631968Y-14259531D02*
X10641491Y-14278579D01*
X10641491Y-14278579D02*
X10641491Y-14297627D01*
X10641491Y-14297627D02*
X10631968Y-14326198D01*
X10631968Y-14326198D02*
X10517682Y-14440484D01*
X10517682Y-14440484D02*
X10641491Y-14440484D01*
X10822444Y-14240484D02*
X10727206Y-14240484D01*
X10727206Y-14240484D02*
X10717682Y-14335722D01*
X10717682Y-14335722D02*
X10727206Y-14326198D01*
X10727206Y-14326198D02*
X10746253Y-14316674D01*
X10746253Y-14316674D02*
X10793872Y-14316674D01*
X10793872Y-14316674D02*
X10812920Y-14326198D01*
X10812920Y-14326198D02*
X10822444Y-14335722D01*
X10822444Y-14335722D02*
X10831968Y-14354769D01*
X10831968Y-14354769D02*
X10831968Y-14402388D01*
X10831968Y-14402388D02*
X10822444Y-14421436D01*
X10822444Y-14421436D02*
X10812920Y-14430960D01*
X10812920Y-14430960D02*
X10793872Y-14440484D01*
X10793872Y-14440484D02*
X10746253Y-14440484D01*
X10746253Y-14440484D02*
X10727206Y-14430960D01*
X10727206Y-14430960D02*
X10717682Y-14421436D01*
X11003396Y-14240484D02*
X10965301Y-14240484D01*
X10965301Y-14240484D02*
X10946253Y-14250008D01*
X10946253Y-14250008D02*
X10936729Y-14259531D01*
X10936729Y-14259531D02*
X10917682Y-14288103D01*
X10917682Y-14288103D02*
X10908158Y-14326198D01*
X10908158Y-14326198D02*
X10908158Y-14402388D01*
X10908158Y-14402388D02*
X10917682Y-14421436D01*
X10917682Y-14421436D02*
X10927206Y-14430960D01*
X10927206Y-14430960D02*
X10946253Y-14440484D01*
X10946253Y-14440484D02*
X10984349Y-14440484D01*
X10984349Y-14440484D02*
X11003396Y-14430960D01*
X11003396Y-14430960D02*
X11012920Y-14421436D01*
X11012920Y-14421436D02*
X11022444Y-14402388D01*
X11022444Y-14402388D02*
X11022444Y-14354769D01*
X11022444Y-14354769D02*
X11012920Y-14335722D01*
X11012920Y-14335722D02*
X11003396Y-14326198D01*
X11003396Y-14326198D02*
X10984349Y-14316674D01*
X10984349Y-14316674D02*
X10946253Y-14316674D01*
X10946253Y-14316674D02*
X10927206Y-14326198D01*
X10927206Y-14326198D02*
X10917682Y-14335722D01*
X10917682Y-14335722D02*
X10908158Y-14354769D01*
X11098634Y-14240484D02*
X11098634Y-14278579D01*
X11174825Y-14240484D02*
X11174825Y-14278579D01*
X11470063Y-14516674D02*
X11460539Y-14507150D01*
X11460539Y-14507150D02*
X11441491Y-14478579D01*
X11441491Y-14478579D02*
X11431968Y-14459531D01*
X11431968Y-14459531D02*
X11422444Y-14430960D01*
X11422444Y-14430960D02*
X11412920Y-14383341D01*
X11412920Y-14383341D02*
X11412920Y-14345246D01*
X11412920Y-14345246D02*
X11422444Y-14297627D01*
X11422444Y-14297627D02*
X11431968Y-14269055D01*
X11431968Y-14269055D02*
X11441491Y-14250008D01*
X11441491Y-14250008D02*
X11460539Y-14221436D01*
X11460539Y-14221436D02*
X11470063Y-14211912D01*
X11536729Y-14259531D02*
X11546253Y-14250008D01*
X11546253Y-14250008D02*
X11565301Y-14240484D01*
X11565301Y-14240484D02*
X11612920Y-14240484D01*
X11612920Y-14240484D02*
X11631968Y-14250008D01*
X11631968Y-14250008D02*
X11641491Y-14259531D01*
X11641491Y-14259531D02*
X11651015Y-14278579D01*
X11651015Y-14278579D02*
X11651015Y-14297627D01*
X11651015Y-14297627D02*
X11641491Y-14326198D01*
X11641491Y-14326198D02*
X11527206Y-14440484D01*
X11527206Y-14440484D02*
X11651015Y-14440484D01*
X11889110Y-14440484D02*
X11889110Y-14240484D01*
X11974825Y-14440484D02*
X11974825Y-14335722D01*
X11974825Y-14335722D02*
X11965301Y-14316674D01*
X11965301Y-14316674D02*
X11946253Y-14307150D01*
X11946253Y-14307150D02*
X11917682Y-14307150D01*
X11917682Y-14307150D02*
X11898634Y-14316674D01*
X11898634Y-14316674D02*
X11889110Y-14326198D01*
X12098634Y-14440484D02*
X12079587Y-14430960D01*
X12079587Y-14430960D02*
X12070063Y-14421436D01*
X12070063Y-14421436D02*
X12060539Y-14402388D01*
X12060539Y-14402388D02*
X12060539Y-14345246D01*
X12060539Y-14345246D02*
X12070063Y-14326198D01*
X12070063Y-14326198D02*
X12079587Y-14316674D01*
X12079587Y-14316674D02*
X12098634Y-14307150D01*
X12098634Y-14307150D02*
X12127206Y-14307150D01*
X12127206Y-14307150D02*
X12146253Y-14316674D01*
X12146253Y-14316674D02*
X12155777Y-14326198D01*
X12155777Y-14326198D02*
X12165301Y-14345246D01*
X12165301Y-14345246D02*
X12165301Y-14402388D01*
X12165301Y-14402388D02*
X12155777Y-14421436D01*
X12155777Y-14421436D02*
X12146253Y-14430960D01*
X12146253Y-14430960D02*
X12127206Y-14440484D01*
X12127206Y-14440484D02*
X12098634Y-14440484D01*
X12279587Y-14440484D02*
X12260539Y-14430960D01*
X12260539Y-14430960D02*
X12251015Y-14411912D01*
X12251015Y-14411912D02*
X12251015Y-14240484D01*
X12431968Y-14430960D02*
X12412920Y-14440484D01*
X12412920Y-14440484D02*
X12374825Y-14440484D01*
X12374825Y-14440484D02*
X12355777Y-14430960D01*
X12355777Y-14430960D02*
X12346253Y-14411912D01*
X12346253Y-14411912D02*
X12346253Y-14335722D01*
X12346253Y-14335722D02*
X12355777Y-14316674D01*
X12355777Y-14316674D02*
X12374825Y-14307150D01*
X12374825Y-14307150D02*
X12412920Y-14307150D01*
X12412920Y-14307150D02*
X12431968Y-14316674D01*
X12431968Y-14316674D02*
X12441491Y-14335722D01*
X12441491Y-14335722D02*
X12441491Y-14354769D01*
X12441491Y-14354769D02*
X12346253Y-14373817D01*
X12517682Y-14430960D02*
X12536730Y-14440484D01*
X12536730Y-14440484D02*
X12574825Y-14440484D01*
X12574825Y-14440484D02*
X12593872Y-14430960D01*
X12593872Y-14430960D02*
X12603396Y-14411912D01*
X12603396Y-14411912D02*
X12603396Y-14402388D01*
X12603396Y-14402388D02*
X12593872Y-14383341D01*
X12593872Y-14383341D02*
X12574825Y-14373817D01*
X12574825Y-14373817D02*
X12546253Y-14373817D01*
X12546253Y-14373817D02*
X12527206Y-14364293D01*
X12527206Y-14364293D02*
X12517682Y-14345246D01*
X12517682Y-14345246D02*
X12517682Y-14335722D01*
X12517682Y-14335722D02*
X12527206Y-14316674D01*
X12527206Y-14316674D02*
X12546253Y-14307150D01*
X12546253Y-14307150D02*
X12574825Y-14307150D01*
X12574825Y-14307150D02*
X12593872Y-14316674D01*
X12670063Y-14516674D02*
X12679587Y-14507150D01*
X12679587Y-14507150D02*
X12698634Y-14478579D01*
X12698634Y-14478579D02*
X12708158Y-14459531D01*
X12708158Y-14459531D02*
X12717682Y-14430960D01*
X12717682Y-14430960D02*
X12727206Y-14383341D01*
X12727206Y-14383341D02*
X12727206Y-14345246D01*
X12727206Y-14345246D02*
X12717682Y-14297627D01*
X12717682Y-14297627D02*
X12708158Y-14269055D01*
X12708158Y-14269055D02*
X12698634Y-14250008D01*
X12698634Y-14250008D02*
X12679587Y-14221436D01*
X12679587Y-14221436D02*
X12670063Y-14211912D01*
X13031968Y-14516674D02*
X13022444Y-14507150D01*
X13022444Y-14507150D02*
X13003396Y-14478579D01*
X13003396Y-14478579D02*
X12993872Y-14459531D01*
X12993872Y-14459531D02*
X12984349Y-14430960D01*
X12984349Y-14430960D02*
X12974825Y-14383341D01*
X12974825Y-14383341D02*
X12974825Y-14345246D01*
X12974825Y-14345246D02*
X12984349Y-14297627D01*
X12984349Y-14297627D02*
X12993872Y-14269055D01*
X12993872Y-14269055D02*
X13003396Y-14250008D01*
X13003396Y-14250008D02*
X13022444Y-14221436D01*
X13022444Y-14221436D02*
X13031968Y-14211912D01*
X13108158Y-14307150D02*
X13108158Y-14440484D01*
X13108158Y-14326198D02*
X13117682Y-14316674D01*
X13117682Y-14316674D02*
X13136730Y-14307150D01*
X13136730Y-14307150D02*
X13165301Y-14307150D01*
X13165301Y-14307150D02*
X13184349Y-14316674D01*
X13184349Y-14316674D02*
X13193872Y-14335722D01*
X13193872Y-14335722D02*
X13193872Y-14440484D01*
X13317682Y-14440484D02*
X13298634Y-14430960D01*
X13298634Y-14430960D02*
X13289111Y-14421436D01*
X13289111Y-14421436D02*
X13279587Y-14402388D01*
X13279587Y-14402388D02*
X13279587Y-14345246D01*
X13279587Y-14345246D02*
X13289111Y-14326198D01*
X13289111Y-14326198D02*
X13298634Y-14316674D01*
X13298634Y-14316674D02*
X13317682Y-14307150D01*
X13317682Y-14307150D02*
X13346253Y-14307150D01*
X13346253Y-14307150D02*
X13365301Y-14316674D01*
X13365301Y-14316674D02*
X13374825Y-14326198D01*
X13374825Y-14326198D02*
X13384349Y-14345246D01*
X13384349Y-14345246D02*
X13384349Y-14402388D01*
X13384349Y-14402388D02*
X13374825Y-14421436D01*
X13374825Y-14421436D02*
X13365301Y-14430960D01*
X13365301Y-14430960D02*
X13346253Y-14440484D01*
X13346253Y-14440484D02*
X13317682Y-14440484D01*
X13441492Y-14307150D02*
X13517682Y-14307150D01*
X13470063Y-14240484D02*
X13470063Y-14411912D01*
X13470063Y-14411912D02*
X13479587Y-14430960D01*
X13479587Y-14430960D02*
X13498634Y-14440484D01*
X13498634Y-14440484D02*
X13517682Y-14440484D01*
X13736730Y-14307150D02*
X13736730Y-14507150D01*
X13736730Y-14316674D02*
X13755777Y-14307150D01*
X13755777Y-14307150D02*
X13793873Y-14307150D01*
X13793873Y-14307150D02*
X13812920Y-14316674D01*
X13812920Y-14316674D02*
X13822444Y-14326198D01*
X13822444Y-14326198D02*
X13831968Y-14345246D01*
X13831968Y-14345246D02*
X13831968Y-14402388D01*
X13831968Y-14402388D02*
X13822444Y-14421436D01*
X13822444Y-14421436D02*
X13812920Y-14430960D01*
X13812920Y-14430960D02*
X13793873Y-14440484D01*
X13793873Y-14440484D02*
X13755777Y-14440484D01*
X13755777Y-14440484D02*
X13736730Y-14430960D01*
X13946253Y-14440484D02*
X13927206Y-14430960D01*
X13927206Y-14430960D02*
X13917682Y-14411912D01*
X13917682Y-14411912D02*
X13917682Y-14240484D01*
X14108158Y-14440484D02*
X14108158Y-14335722D01*
X14108158Y-14335722D02*
X14098634Y-14316674D01*
X14098634Y-14316674D02*
X14079587Y-14307150D01*
X14079587Y-14307150D02*
X14041492Y-14307150D01*
X14041492Y-14307150D02*
X14022444Y-14316674D01*
X14108158Y-14430960D02*
X14089111Y-14440484D01*
X14089111Y-14440484D02*
X14041492Y-14440484D01*
X14041492Y-14440484D02*
X14022444Y-14430960D01*
X14022444Y-14430960D02*
X14012920Y-14411912D01*
X14012920Y-14411912D02*
X14012920Y-14392865D01*
X14012920Y-14392865D02*
X14022444Y-14373817D01*
X14022444Y-14373817D02*
X14041492Y-14364293D01*
X14041492Y-14364293D02*
X14089111Y-14364293D01*
X14089111Y-14364293D02*
X14108158Y-14354769D01*
X14174825Y-14307150D02*
X14251015Y-14307150D01*
X14203396Y-14240484D02*
X14203396Y-14411912D01*
X14203396Y-14411912D02*
X14212920Y-14430960D01*
X14212920Y-14430960D02*
X14231968Y-14440484D01*
X14231968Y-14440484D02*
X14251015Y-14440484D01*
X14393873Y-14430960D02*
X14374825Y-14440484D01*
X14374825Y-14440484D02*
X14336730Y-14440484D01*
X14336730Y-14440484D02*
X14317682Y-14430960D01*
X14317682Y-14430960D02*
X14308158Y-14411912D01*
X14308158Y-14411912D02*
X14308158Y-14335722D01*
X14308158Y-14335722D02*
X14317682Y-14316674D01*
X14317682Y-14316674D02*
X14336730Y-14307150D01*
X14336730Y-14307150D02*
X14374825Y-14307150D01*
X14374825Y-14307150D02*
X14393873Y-14316674D01*
X14393873Y-14316674D02*
X14403396Y-14335722D01*
X14403396Y-14335722D02*
X14403396Y-14354769D01*
X14403396Y-14354769D02*
X14308158Y-14373817D01*
X14574825Y-14440484D02*
X14574825Y-14240484D01*
X14574825Y-14430960D02*
X14555777Y-14440484D01*
X14555777Y-14440484D02*
X14517682Y-14440484D01*
X14517682Y-14440484D02*
X14498634Y-14430960D01*
X14498634Y-14430960D02*
X14489111Y-14421436D01*
X14489111Y-14421436D02*
X14479587Y-14402388D01*
X14479587Y-14402388D02*
X14479587Y-14345246D01*
X14479587Y-14345246D02*
X14489111Y-14326198D01*
X14489111Y-14326198D02*
X14498634Y-14316674D01*
X14498634Y-14316674D02*
X14517682Y-14307150D01*
X14517682Y-14307150D02*
X14555777Y-14307150D01*
X14555777Y-14307150D02*
X14574825Y-14316674D01*
X14651015Y-14516674D02*
X14660539Y-14507150D01*
X14660539Y-14507150D02*
X14679587Y-14478579D01*
X14679587Y-14478579D02*
X14689111Y-14459531D01*
X14689111Y-14459531D02*
X14698634Y-14430960D01*
X14698634Y-14430960D02*
X14708158Y-14383341D01*
X14708158Y-14383341D02*
X14708158Y-14345246D01*
X14708158Y-14345246D02*
X14698634Y-14297627D01*
X14698634Y-14297627D02*
X14689111Y-14269055D01*
X14689111Y-14269055D02*
X14679587Y-14250008D01*
X14679587Y-14250008D02*
X14660539Y-14221436D01*
X14660539Y-14221436D02*
X14651015Y-14211912D01*
M02*
