%TF.GenerationSoftware,KiCad,Pcbnew,8.0.6*%
%TF.CreationDate,2024-12-25T08:51:45-08:00*%
%TF.ProjectId,hardware,68617264-7761-4726-952e-6b696361645f,rev?*%
%TF.SameCoordinates,Original*%
%TF.FileFunction,Paste,Top*%
%TF.FilePolarity,Positive*%
%FSLAX46Y46*%
G04 Gerber Fmt 4.6, Leading zero omitted, Abs format (unit mm)*
G04 Created by KiCad (PCBNEW 8.0.6) date 2024-12-25 08:51:45*
%MOMM*%
%LPD*%
G01*
G04 APERTURE LIST*
G04 Aperture macros list*
%AMRoundRect*
0 Rectangle with rounded corners*
0 $1 Rounding radius*
0 $2 $3 $4 $5 $6 $7 $8 $9 X,Y pos of 4 corners*
0 Add a 4 corners polygon primitive as box body*
4,1,4,$2,$3,$4,$5,$6,$7,$8,$9,$2,$3,0*
0 Add four circle primitives for the rounded corners*
1,1,$1+$1,$2,$3*
1,1,$1+$1,$4,$5*
1,1,$1+$1,$6,$7*
1,1,$1+$1,$8,$9*
0 Add four rect primitives between the rounded corners*
20,1,$1+$1,$2,$3,$4,$5,0*
20,1,$1+$1,$4,$5,$6,$7,0*
20,1,$1+$1,$6,$7,$8,$9,0*
20,1,$1+$1,$8,$9,$2,$3,0*%
G04 Aperture macros list end*
%ADD10R,1.300000X3.700000*%
%ADD11R,3.700000X1.300000*%
%ADD12O,0.850000X0.280000*%
%ADD13O,0.280000X0.850000*%
%ADD14R,1.700000X1.700000*%
%ADD15C,0.340000*%
%ADD16RoundRect,0.135000X-0.135000X-0.185000X0.135000X-0.185000X0.135000X0.185000X-0.135000X0.185000X0*%
%ADD17RoundRect,0.140000X-0.140000X-0.170000X0.140000X-0.170000X0.140000X0.170000X-0.140000X0.170000X0*%
%ADD18RoundRect,0.250000X0.475000X-0.250000X0.475000X0.250000X-0.475000X0.250000X-0.475000X-0.250000X0*%
%ADD19RoundRect,0.250000X-0.250000X-0.475000X0.250000X-0.475000X0.250000X0.475000X-0.250000X0.475000X0*%
%ADD20RoundRect,0.140000X-0.170000X0.140000X-0.170000X-0.140000X0.170000X-0.140000X0.170000X0.140000X0*%
%ADD21RoundRect,0.140000X0.140000X0.170000X-0.140000X0.170000X-0.140000X-0.170000X0.140000X-0.170000X0*%
%ADD22RoundRect,0.250000X-0.475000X0.250000X-0.475000X-0.250000X0.475000X-0.250000X0.475000X0.250000X0*%
%ADD23RoundRect,0.135000X0.185000X-0.135000X0.185000X0.135000X-0.185000X0.135000X-0.185000X-0.135000X0*%
%ADD24RoundRect,0.135000X-0.185000X0.135000X-0.185000X-0.135000X0.185000X-0.135000X0.185000X0.135000X0*%
%ADD25R,1.400000X1.200000*%
%ADD26R,1.000000X0.500000*%
%ADD27RoundRect,0.140000X0.170000X-0.140000X0.170000X0.140000X-0.170000X0.140000X-0.170000X-0.140000X0*%
%ADD28C,0.399500*%
%ADD29RoundRect,0.135000X0.135000X0.185000X-0.135000X0.185000X-0.135000X-0.185000X0.135000X-0.185000X0*%
%ADD30R,0.700000X1.200000*%
%ADD31R,1.000000X0.800000*%
%ADD32R,1.000000X1.200000*%
%ADD33R,1.000000X2.800000*%
%ADD34R,1.300000X1.900000*%
%ADD35RoundRect,0.250000X0.250000X0.475000X-0.250000X0.475000X-0.250000X-0.475000X0.250000X-0.475000X0*%
%ADD36RoundRect,0.150000X0.150000X-0.512500X0.150000X0.512500X-0.150000X0.512500X-0.150000X-0.512500X0*%
%ADD37RoundRect,0.250000X1.075000X-0.375000X1.075000X0.375000X-1.075000X0.375000X-1.075000X-0.375000X0*%
%ADD38RoundRect,0.100000X-0.100000X0.225000X-0.100000X-0.225000X0.100000X-0.225000X0.100000X0.225000X0*%
%ADD39RoundRect,0.150000X0.425000X-0.150000X0.425000X0.150000X-0.425000X0.150000X-0.425000X-0.150000X0*%
%ADD40RoundRect,0.075000X0.500000X-0.075000X0.500000X0.075000X-0.500000X0.075000X-0.500000X-0.075000X0*%
%ADD41O,2.100000X1.000000*%
%ADD42O,1.800000X1.000000*%
%ADD43RoundRect,0.218750X-0.256250X0.218750X-0.256250X-0.218750X0.256250X-0.218750X0.256250X0.218750X0*%
%ADD44R,1.300000X0.300000*%
%ADD45R,2.200000X1.800000*%
%ADD46R,1.400000X1.600000*%
%ADD47RoundRect,0.100000X0.100000X-0.225000X0.100000X0.225000X-0.100000X0.225000X-0.100000X-0.225000X0*%
%ADD48RoundRect,0.225000X-0.225000X-0.250000X0.225000X-0.250000X0.225000X0.250000X-0.225000X0.250000X0*%
G04 APERTURE END LIST*
D10*
%TO.C,L4*%
X132662000Y-128200000D03*
X135562000Y-128200000D03*
%TD*%
D11*
%TO.C,L3*%
X136118600Y-123700200D03*
X136118600Y-120800200D03*
%TD*%
%TO.C,L2*%
X125234700Y-123810600D03*
X125234700Y-120910600D03*
%TD*%
%TO.C,L1*%
X151130000Y-112977000D03*
X151130000Y-115877000D03*
%TD*%
D12*
%TO.C,U3*%
X148033740Y-113078960D03*
X148033740Y-112578960D03*
X148033740Y-112078960D03*
X148033740Y-111578960D03*
D13*
X147308000Y-110853220D03*
X146808000Y-110853220D03*
X146308000Y-110853220D03*
X145808000Y-110853220D03*
D12*
X145082260Y-111578960D03*
X145082260Y-112078960D03*
X145082260Y-112578960D03*
X145082260Y-113078960D03*
D13*
X145808000Y-113804700D03*
X146308000Y-113804700D03*
X146808000Y-113804700D03*
X147308000Y-113804700D03*
D14*
X146558000Y-112328960D03*
%TD*%
D13*
%TO.C,U6*%
X132850320Y-131483100D03*
X132350320Y-131483100D03*
X131850320Y-131483100D03*
X131350320Y-131483100D03*
D12*
X130624580Y-132208840D03*
X130624580Y-132708840D03*
X130624580Y-133208840D03*
X130624580Y-133708840D03*
D13*
X131350320Y-134434580D03*
X131850320Y-134434580D03*
X132350320Y-134434580D03*
X132850320Y-134434580D03*
D12*
X133576060Y-133708840D03*
X133576060Y-133208840D03*
X133576060Y-132708840D03*
X133576060Y-132208840D03*
D14*
X132100320Y-132958840D03*
%TD*%
D12*
%TO.C,U5*%
X139324080Y-123470160D03*
X139324080Y-123970160D03*
X139324080Y-124470160D03*
X139324080Y-124970160D03*
D13*
X140049820Y-125695900D03*
X140549820Y-125695900D03*
X141049820Y-125695900D03*
X141549820Y-125695900D03*
D12*
X142275560Y-124970160D03*
X142275560Y-124470160D03*
X142275560Y-123970160D03*
X142275560Y-123470160D03*
D13*
X141549820Y-122744420D03*
X141049820Y-122744420D03*
X140549820Y-122744420D03*
X140049820Y-122744420D03*
D14*
X140799820Y-124220160D03*
%TD*%
D12*
%TO.C,U4*%
X128521460Y-123417900D03*
X128521460Y-123917900D03*
X128521460Y-124417900D03*
X128521460Y-124917900D03*
D13*
X129247200Y-125643640D03*
X129747200Y-125643640D03*
X130247200Y-125643640D03*
X130747200Y-125643640D03*
D12*
X131472940Y-124917900D03*
X131472940Y-124417900D03*
X131472940Y-123917900D03*
X131472940Y-123417900D03*
D13*
X130747200Y-122692160D03*
X130247200Y-122692160D03*
X129747200Y-122692160D03*
X129247200Y-122692160D03*
D14*
X129997200Y-124167900D03*
%TD*%
D15*
%TO.C,U2*%
X121157200Y-115366000D03*
X120357200Y-115366000D03*
X119557200Y-115366000D03*
X118757200Y-115366000D03*
X117957200Y-115366000D03*
X117157200Y-115366000D03*
X116357200Y-115366000D03*
X115557200Y-115366000D03*
X114757200Y-115366000D03*
X113957200Y-115366000D03*
X113157200Y-115366000D03*
X112357200Y-115366000D03*
X111557200Y-115366000D03*
X110757200Y-115366000D03*
X109957200Y-115366000D03*
X109157200Y-115366000D03*
X108357200Y-115366000D03*
X121157200Y-114566000D03*
X120357200Y-114566000D03*
X119557200Y-114566000D03*
X118757200Y-114566000D03*
X117957200Y-114566000D03*
X117157200Y-114566000D03*
X116357200Y-114566000D03*
X115557200Y-114566000D03*
X114757200Y-114566000D03*
X113957200Y-114566000D03*
X113157200Y-114566000D03*
X111557200Y-114566000D03*
X110757200Y-114566000D03*
X109957200Y-114566000D03*
X109157200Y-114566000D03*
X108357200Y-114566000D03*
X121157200Y-113766000D03*
X120357200Y-113766000D03*
X119557200Y-113766000D03*
X118757200Y-113766000D03*
X117957200Y-113766000D03*
X117157200Y-113766000D03*
X116357200Y-113766000D03*
X115557200Y-113766000D03*
X114757200Y-113766000D03*
X113957200Y-113766000D03*
X113157200Y-113766000D03*
X112357200Y-113766000D03*
X111557200Y-113766000D03*
X110757200Y-113766000D03*
X109957200Y-113766000D03*
X109157200Y-113766000D03*
X108357200Y-113766000D03*
X121157200Y-112966000D03*
X120357200Y-112966000D03*
X119557200Y-112966000D03*
X118757200Y-112966000D03*
X117957200Y-112966000D03*
X117157200Y-112966000D03*
X116357200Y-112966000D03*
X115557200Y-112966000D03*
X114757200Y-112966000D03*
X113957200Y-112966000D03*
X113157200Y-112966000D03*
X112357200Y-112966000D03*
X111557200Y-112966000D03*
X110757200Y-112966000D03*
X109957200Y-112966000D03*
X109157200Y-112966000D03*
X108357200Y-112966000D03*
X121157200Y-112166000D03*
X120357200Y-112166000D03*
X119557200Y-112166000D03*
X118757200Y-112166000D03*
X117957200Y-112166000D03*
X117157200Y-112166000D03*
X116357200Y-112166000D03*
X115557200Y-112166000D03*
X114757200Y-112166000D03*
X113957200Y-112166000D03*
X113157200Y-112166000D03*
X112357200Y-112166000D03*
X110757200Y-112166000D03*
X109957200Y-112166000D03*
X109157200Y-112166000D03*
X108357200Y-112166000D03*
X121157200Y-111366000D03*
X120357200Y-111366000D03*
X119557200Y-111366000D03*
X118757200Y-111366000D03*
X117957200Y-111366000D03*
X117157200Y-111366000D03*
X116357200Y-111366000D03*
X115557200Y-111366000D03*
X114757200Y-111366000D03*
X113957200Y-111366000D03*
X113157200Y-111366000D03*
X112357200Y-111366000D03*
X110757200Y-111366000D03*
X109957200Y-111366000D03*
X109157200Y-111366000D03*
X108357200Y-111366000D03*
X121157200Y-110566000D03*
X120357200Y-110566000D03*
X119557200Y-110566000D03*
X118757200Y-110566000D03*
X117957200Y-110566000D03*
X117157200Y-110566000D03*
X116357200Y-110566000D03*
X115557200Y-110566000D03*
X114757200Y-110566000D03*
X113957200Y-110566000D03*
X113157200Y-110566000D03*
X112357200Y-110566000D03*
X110757200Y-110566000D03*
X109957200Y-110566000D03*
X109157200Y-110566000D03*
X108357200Y-110566000D03*
X121157200Y-109766000D03*
X120357200Y-109766000D03*
X119557200Y-109766000D03*
X118757200Y-109766000D03*
X117957200Y-109766000D03*
X117157200Y-109766000D03*
X116357200Y-109766000D03*
X115557200Y-109766000D03*
X114757200Y-109766000D03*
X113957200Y-109766000D03*
X113157200Y-109766000D03*
X112357200Y-109766000D03*
X111557200Y-109766000D03*
X110757200Y-109766000D03*
X109957200Y-109766000D03*
X109157200Y-109766000D03*
X108357200Y-109766000D03*
X121157200Y-108966000D03*
X120357200Y-108966000D03*
X119557200Y-108966000D03*
X118757200Y-108966000D03*
X117957200Y-108966000D03*
X117157200Y-108966000D03*
X116357200Y-108966000D03*
X115557200Y-108966000D03*
X114757200Y-108966000D03*
X113957200Y-108966000D03*
X113157200Y-108966000D03*
X112357200Y-108966000D03*
X110757200Y-108966000D03*
X109957200Y-108966000D03*
X109157200Y-108966000D03*
X108357200Y-108966000D03*
X121157200Y-108166000D03*
X120357200Y-108166000D03*
X119557200Y-108166000D03*
X118757200Y-108166000D03*
X117957200Y-108166000D03*
X117157200Y-108166000D03*
X116357200Y-108166000D03*
X115557200Y-108166000D03*
X114757200Y-108166000D03*
X113957200Y-108166000D03*
X113157200Y-108166000D03*
X112357200Y-108166000D03*
X111557200Y-108166000D03*
X110757200Y-108166000D03*
X109957200Y-108166000D03*
X109157200Y-108166000D03*
X108357200Y-108166000D03*
X121157200Y-107366000D03*
X120357200Y-107366000D03*
X119557200Y-107366000D03*
X118757200Y-107366000D03*
X117957200Y-107366000D03*
X117157200Y-107366000D03*
X116357200Y-107366000D03*
X115557200Y-107366000D03*
X114757200Y-107366000D03*
X113957200Y-107366000D03*
X113157200Y-107366000D03*
X112357200Y-107366000D03*
X110757200Y-107366000D03*
X109957200Y-107366000D03*
X109157200Y-107366000D03*
X108357200Y-107366000D03*
X121157200Y-106566000D03*
X120357200Y-106566000D03*
X119557200Y-106566000D03*
X118757200Y-106566000D03*
X117957200Y-106566000D03*
X117157200Y-106566000D03*
X116357200Y-106566000D03*
X115557200Y-106566000D03*
X114757200Y-106566000D03*
X113957200Y-106566000D03*
X113157200Y-106566000D03*
X112357200Y-106566000D03*
X111557200Y-106566000D03*
X110757200Y-106566000D03*
X109957200Y-106566000D03*
X109157200Y-106566000D03*
X108357200Y-106566000D03*
X121157200Y-105766000D03*
X120357200Y-105766000D03*
X119557200Y-105766000D03*
X118757200Y-105766000D03*
X117957200Y-105766000D03*
X117157200Y-105766000D03*
X116357200Y-105766000D03*
X115557200Y-105766000D03*
X114757200Y-105766000D03*
X113957200Y-105766000D03*
X113157200Y-105766000D03*
X112357200Y-105766000D03*
X110757200Y-105766000D03*
X109957200Y-105766000D03*
X109157200Y-105766000D03*
X108357200Y-105766000D03*
X121157200Y-104966000D03*
X120357200Y-104966000D03*
X119557200Y-104966000D03*
X118757200Y-104966000D03*
X117957200Y-104966000D03*
X117157200Y-104966000D03*
X116357200Y-104966000D03*
X115557200Y-104966000D03*
X114757200Y-104966000D03*
X113957200Y-104966000D03*
X113157200Y-104966000D03*
X112357200Y-104966000D03*
X111557200Y-104966000D03*
X110757200Y-104966000D03*
X109957200Y-104966000D03*
X109157200Y-104966000D03*
X108357200Y-104966000D03*
X121157200Y-104166000D03*
X120357200Y-104166000D03*
X119557200Y-104166000D03*
X118757200Y-104166000D03*
X117957200Y-104166000D03*
X117157200Y-104166000D03*
X116357200Y-104166000D03*
X115557200Y-104166000D03*
X114757200Y-104166000D03*
X113957200Y-104166000D03*
X113157200Y-104166000D03*
X112357200Y-104166000D03*
X111557200Y-104166000D03*
X110757200Y-104166000D03*
X109957200Y-104166000D03*
X109157200Y-104166000D03*
X108357200Y-104166000D03*
X121157200Y-103366000D03*
X120357200Y-103366000D03*
X119557200Y-103366000D03*
X118757200Y-103366000D03*
X117957200Y-103366000D03*
X117157200Y-103366000D03*
X116357200Y-103366000D03*
X115557200Y-103366000D03*
X114757200Y-103366000D03*
X113957200Y-103366000D03*
X113157200Y-103366000D03*
X112357200Y-103366000D03*
X111557200Y-103366000D03*
X110757200Y-103366000D03*
X109957200Y-103366000D03*
X109157200Y-103366000D03*
X108357200Y-103366000D03*
X121157200Y-102566000D03*
X120357200Y-102566000D03*
X119557200Y-102566000D03*
X118757200Y-102566000D03*
X117957200Y-102566000D03*
X117157200Y-102566000D03*
X116357200Y-102566000D03*
X115557200Y-102566000D03*
X114757200Y-102566000D03*
X113957200Y-102566000D03*
X113157200Y-102566000D03*
X112357200Y-102566000D03*
X111557200Y-102566000D03*
X110757200Y-102566000D03*
X109957200Y-102566000D03*
X109157200Y-102566000D03*
X108357200Y-102566000D03*
%TD*%
D16*
%TO.C,R1*%
X139634500Y-93179900D03*
X140654500Y-93179900D03*
%TD*%
%TO.C,R2*%
X141579100Y-93176000D03*
X142599100Y-93176000D03*
%TD*%
D17*
%TO.C,C4*%
X112410300Y-101295200D03*
X113370300Y-101295200D03*
%TD*%
%TO.C,C5*%
X114353400Y-101295200D03*
X115313400Y-101295200D03*
%TD*%
D16*
%TO.C,R4*%
X112383480Y-100277840D03*
X113403480Y-100277840D03*
%TD*%
%TO.C,R5*%
X114323400Y-100279200D03*
X115343400Y-100279200D03*
%TD*%
D18*
%TO.C,C11*%
X132575300Y-122222300D03*
X132575300Y-120322300D03*
%TD*%
D17*
%TO.C,C12*%
X129999800Y-126771400D03*
X130959800Y-126771400D03*
%TD*%
%TO.C,C13*%
X132616000Y-125145800D03*
X133576000Y-125145800D03*
%TD*%
D19*
%TO.C,C14*%
X128742400Y-121018300D03*
X130642400Y-121018300D03*
%TD*%
%TO.C,C15*%
X128742400Y-118986300D03*
X130642400Y-118986300D03*
%TD*%
D18*
%TO.C,C16*%
X143840200Y-122031800D03*
X143840200Y-120131800D03*
%TD*%
D19*
%TO.C,C17*%
X134091600Y-135763000D03*
X135991600Y-135763000D03*
%TD*%
D17*
%TO.C,C18*%
X140820200Y-126949200D03*
X141780200Y-126949200D03*
%TD*%
D20*
%TO.C,C19*%
X143319500Y-125250000D03*
X143319500Y-126210000D03*
%TD*%
%TO.C,C20*%
X129463800Y-133225600D03*
X129463800Y-134185600D03*
%TD*%
D21*
%TO.C,C21*%
X131191000Y-135585200D03*
X130231000Y-135585200D03*
%TD*%
D19*
%TO.C,C22*%
X139608520Y-118872000D03*
X141508520Y-118872000D03*
%TD*%
D22*
%TO.C,C23*%
X135483600Y-131612600D03*
X135483600Y-133512600D03*
%TD*%
D19*
%TO.C,C24*%
X139613600Y-120904000D03*
X141513600Y-120904000D03*
%TD*%
D22*
%TO.C,C25*%
X137541000Y-131612600D03*
X137541000Y-133512600D03*
%TD*%
D23*
%TO.C,R11*%
X138734800Y-127891000D03*
X138734800Y-126871000D03*
%TD*%
D24*
%TO.C,R12*%
X139750800Y-126871000D03*
X139750800Y-127891000D03*
%TD*%
D16*
%TO.C,R13*%
X128496600Y-131038600D03*
X129516600Y-131038600D03*
%TD*%
D19*
%TO.C,C26*%
X124373600Y-133200000D03*
X126273600Y-133200000D03*
%TD*%
D20*
%TO.C,C27*%
X127685800Y-128983800D03*
X127685800Y-129943800D03*
%TD*%
D22*
%TO.C,C28*%
X122453400Y-128920200D03*
X122453400Y-130820200D03*
%TD*%
D21*
%TO.C,C29*%
X107109200Y-111633000D03*
X106149200Y-111633000D03*
%TD*%
%TO.C,C30*%
X107109200Y-112623600D03*
X106149200Y-112623600D03*
%TD*%
%TO.C,C33*%
X107058400Y-107300000D03*
X106098400Y-107300000D03*
%TD*%
D25*
%TO.C,Y1*%
X116933800Y-99249600D03*
X119133800Y-99249600D03*
X119133800Y-97549600D03*
X116933800Y-97549600D03*
%TD*%
D17*
%TO.C,C95*%
X103497440Y-104000000D03*
X104457440Y-104000000D03*
%TD*%
%TO.C,C96*%
X103497440Y-102961440D03*
X104457440Y-102961440D03*
%TD*%
%TO.C,C97*%
X120685680Y-97530920D03*
X121645680Y-97530920D03*
%TD*%
D21*
%TO.C,C98*%
X115318480Y-99247960D03*
X114358480Y-99247960D03*
%TD*%
D17*
%TO.C,C100*%
X106098400Y-106217720D03*
X107058400Y-106217720D03*
%TD*%
D21*
%TO.C,C101*%
X107109200Y-110540800D03*
X106149200Y-110540800D03*
%TD*%
%TO.C,C103*%
X107083800Y-109474000D03*
X106123800Y-109474000D03*
%TD*%
%TO.C,C104*%
X107083800Y-108483400D03*
X106123800Y-108483400D03*
%TD*%
D23*
%TO.C,R29*%
X106928920Y-104015000D03*
X106928920Y-102995000D03*
%TD*%
D26*
%TO.C,Y2*%
X105640840Y-104060160D03*
X105640840Y-102960160D03*
%TD*%
D16*
%TO.C,R27*%
X122781600Y-110744000D03*
X123801600Y-110744000D03*
%TD*%
%TO.C,R28*%
X122629200Y-109728000D03*
X123649200Y-109728000D03*
%TD*%
D27*
%TO.C,C3*%
X138569700Y-95222000D03*
X138569700Y-94262000D03*
%TD*%
D24*
%TO.C,R3*%
X137566400Y-94232000D03*
X137566400Y-95252000D03*
%TD*%
D28*
%TO.C,U1*%
X129553200Y-104063200D03*
X129553200Y-103263200D03*
X129553200Y-102463200D03*
X129553200Y-99263200D03*
X129553200Y-98463200D03*
X129553200Y-97663200D03*
X130353200Y-104063200D03*
X130353200Y-103263200D03*
X130353200Y-102463200D03*
X130353200Y-99263200D03*
X130353200Y-98463200D03*
X130353200Y-97663200D03*
X131153200Y-104063200D03*
X131153200Y-103263200D03*
X131153200Y-102463200D03*
X131153200Y-99263200D03*
X131153200Y-98463200D03*
X131153200Y-97663200D03*
X131953200Y-104063200D03*
X131953200Y-103263200D03*
X131953200Y-102463200D03*
X131953200Y-99263200D03*
X131953200Y-98463200D03*
X131953200Y-97663200D03*
X132753200Y-104063200D03*
X132753200Y-103263200D03*
X132753200Y-102463200D03*
X132753200Y-99263200D03*
X132753200Y-98463200D03*
X132753200Y-97663200D03*
X133553200Y-104063200D03*
X133553200Y-103263200D03*
X133553200Y-102463200D03*
X133553200Y-99263200D03*
X133553200Y-98463200D03*
X133553200Y-97663200D03*
X134353200Y-104063200D03*
X134353200Y-103263200D03*
X134353200Y-102463200D03*
X134353200Y-99263200D03*
X134353200Y-98463200D03*
X134353200Y-97663200D03*
X135153200Y-104063200D03*
X135153200Y-103263200D03*
X135153200Y-102463200D03*
X135153200Y-99263200D03*
X135153200Y-98463200D03*
X135153200Y-97663200D03*
X135953200Y-104063200D03*
X135953200Y-103263200D03*
X135953200Y-102463200D03*
X135953200Y-99263200D03*
X135953200Y-98463200D03*
X135953200Y-97663200D03*
X136753200Y-104063200D03*
X136753200Y-103263200D03*
X136753200Y-102463200D03*
X136753200Y-99263200D03*
X136753200Y-98463200D03*
X136753200Y-97663200D03*
X137553200Y-104063200D03*
X137553200Y-103263200D03*
X137553200Y-102463200D03*
X137553200Y-99263200D03*
X137553200Y-98463200D03*
X137553200Y-97663200D03*
X138353200Y-104063200D03*
X138353200Y-103263200D03*
X138353200Y-102463200D03*
X138353200Y-99263200D03*
X138353200Y-98463200D03*
X138353200Y-97663200D03*
X139153200Y-104063200D03*
X139153200Y-103263200D03*
X139153200Y-102463200D03*
X139153200Y-99263200D03*
X139153200Y-98463200D03*
X139153200Y-97663200D03*
X139953200Y-104063200D03*
X139953200Y-103263200D03*
X139953200Y-102463200D03*
X139953200Y-99263200D03*
X139953200Y-98463200D03*
X139953200Y-97663200D03*
X140753200Y-104063200D03*
X140753200Y-103263200D03*
X140753200Y-102463200D03*
X140753200Y-99263200D03*
X140753200Y-98463200D03*
X140753200Y-97663200D03*
X141553200Y-104063200D03*
X141553200Y-103263200D03*
X141553200Y-102463200D03*
X141553200Y-99263200D03*
X141553200Y-98463200D03*
X141553200Y-97663200D03*
%TD*%
D23*
%TO.C,R9*%
X127914400Y-127789400D03*
X127914400Y-126769400D03*
%TD*%
D24*
%TO.C,R10*%
X128930400Y-126769400D03*
X128930400Y-127789400D03*
%TD*%
D29*
%TO.C,R31*%
X107101100Y-105143300D03*
X106081100Y-105143300D03*
%TD*%
D21*
%TO.C,C102*%
X104922260Y-107927140D03*
X103962260Y-107927140D03*
%TD*%
D16*
%TO.C,R32*%
X103909400Y-108915200D03*
X104929400Y-108915200D03*
%TD*%
D21*
%TO.C,C93*%
X112860000Y-118500000D03*
X111900000Y-118500000D03*
%TD*%
%TO.C,C94*%
X112860000Y-117500000D03*
X111900000Y-117500000D03*
%TD*%
D30*
%TO.C,J1*%
X116084400Y-120164000D03*
X114984400Y-120164000D03*
X113884400Y-120164000D03*
X112784400Y-120164000D03*
X111684400Y-120164000D03*
X110584400Y-120164000D03*
X109484400Y-120164000D03*
X108384400Y-120164000D03*
X107434400Y-120164000D03*
D31*
X106484400Y-130664000D03*
D32*
X106484400Y-124464000D03*
D33*
X106484400Y-134814000D03*
D32*
X117634400Y-120164000D03*
D34*
X119984400Y-135264000D03*
%TD*%
D35*
%TO.C,C9*%
X147762000Y-115544600D03*
X145862000Y-115544600D03*
%TD*%
D29*
%TO.C,R7*%
X148465000Y-108737400D03*
X147445000Y-108737400D03*
%TD*%
D16*
%TO.C,R8*%
X147445000Y-109728000D03*
X148465000Y-109728000D03*
%TD*%
D35*
%TO.C,C10*%
X147762000Y-117602000D03*
X145862000Y-117602000D03*
%TD*%
D22*
%TO.C,C6*%
X143230600Y-113985000D03*
X143230600Y-115885000D03*
%TD*%
D21*
%TO.C,C7*%
X146453800Y-109626400D03*
X145493800Y-109626400D03*
%TD*%
D27*
%TO.C,C8*%
X143891000Y-111528800D03*
X143891000Y-110568800D03*
%TD*%
D17*
%TO.C,C1*%
X139664500Y-94183200D03*
X140624500Y-94183200D03*
%TD*%
D36*
%TO.C,U7*%
X124383760Y-131149940D03*
X125333760Y-131149940D03*
X126283760Y-131149940D03*
X126283760Y-128874940D03*
X124383760Y-128874940D03*
%TD*%
D29*
%TO.C,R14*%
X129516600Y-132054600D03*
X128496600Y-132054600D03*
%TD*%
D23*
%TO.C,R41*%
X108400000Y-118510000D03*
X108400000Y-117490000D03*
%TD*%
D29*
%TO.C,R25*%
X115610000Y-118500000D03*
X114590000Y-118500000D03*
%TD*%
D37*
%TO.C,L6*%
X93600000Y-96375000D03*
X93600000Y-93575000D03*
%TD*%
D23*
%TO.C,R42*%
X109600000Y-118510000D03*
X109600000Y-117490000D03*
%TD*%
D29*
%TO.C,R24*%
X116810000Y-117500000D03*
X115790000Y-117500000D03*
%TD*%
D17*
%TO.C,C57*%
X161520000Y-98000000D03*
X162480000Y-98000000D03*
%TD*%
D38*
%TO.C,U11*%
X160232500Y-96090000D03*
X159582500Y-96090000D03*
X158932500Y-96090000D03*
X158932500Y-97990000D03*
X159582500Y-97990000D03*
X160232500Y-97990000D03*
%TD*%
D39*
%TO.C,J5*%
X162645000Y-95120000D03*
X162645000Y-94320000D03*
D40*
X162645000Y-93170000D03*
X162645000Y-92170000D03*
X162645000Y-91670000D03*
X162645000Y-90670000D03*
D39*
X162645000Y-89520000D03*
X162645000Y-88720000D03*
X162645000Y-88720000D03*
X162645000Y-89520000D03*
D40*
X162645000Y-90170000D03*
X162645000Y-91170000D03*
X162645000Y-92670000D03*
X162645000Y-93670000D03*
D39*
X162645000Y-94320000D03*
X162645000Y-95120000D03*
D41*
X163220000Y-96240000D03*
D42*
X167400000Y-96240000D03*
D41*
X163220000Y-87600000D03*
D42*
X167400000Y-87600000D03*
%TD*%
D38*
%TO.C,U15*%
X145100000Y-91050000D03*
X144450000Y-91050000D03*
X143800000Y-91050000D03*
X143800000Y-92950000D03*
X144450000Y-92950000D03*
X145100000Y-92950000D03*
%TD*%
D43*
%TO.C,D1*%
X112200000Y-94112500D03*
X112200000Y-95687500D03*
%TD*%
D44*
%TO.C,J8*%
X101850000Y-105250000D03*
X101850000Y-105750000D03*
X101850000Y-106250000D03*
X101850000Y-106750000D03*
X101850000Y-107250000D03*
X101850000Y-107750000D03*
X101850000Y-108250000D03*
X101850000Y-108750000D03*
X101850000Y-109250000D03*
X101850000Y-109750000D03*
X101850000Y-110250000D03*
X101850000Y-110750000D03*
X101850000Y-111250000D03*
X101850000Y-111750000D03*
X101850000Y-112250000D03*
X101850000Y-112750000D03*
X101850000Y-113250000D03*
X101850000Y-113750000D03*
X101850000Y-114250000D03*
X101850000Y-114750000D03*
D45*
X98600000Y-103350000D03*
X98600000Y-116650000D03*
%TD*%
D46*
%TO.C,SW1*%
X81750000Y-98280000D03*
X81750000Y-91080000D03*
X84750000Y-98280000D03*
X84750000Y-91080000D03*
%TD*%
D16*
%TO.C,R43*%
X159950000Y-93270000D03*
X160970000Y-93270000D03*
%TD*%
%TO.C,R45*%
X111190000Y-97000000D03*
X112210000Y-97000000D03*
%TD*%
%TO.C,R20*%
X89190000Y-92375000D03*
X90210000Y-92375000D03*
%TD*%
D29*
%TO.C,R21*%
X90210000Y-97700000D03*
X89190000Y-97700000D03*
%TD*%
D24*
%TO.C,R44*%
X160900000Y-88990000D03*
X160900000Y-90010000D03*
%TD*%
D29*
%TO.C,R22*%
X114810000Y-117500000D03*
X113790000Y-117500000D03*
%TD*%
D47*
%TO.C,U12*%
X158200000Y-87890000D03*
X158850000Y-87890000D03*
X159500000Y-87890000D03*
X159500000Y-85990000D03*
X158850000Y-85990000D03*
X158200000Y-85990000D03*
%TD*%
D17*
%TO.C,C34*%
X97120000Y-94900000D03*
X98080000Y-94900000D03*
%TD*%
%TO.C,C52*%
X158410000Y-89090000D03*
X159370000Y-89090000D03*
%TD*%
D48*
%TO.C,C35*%
X91425000Y-98175000D03*
X92975000Y-98175000D03*
%TD*%
D36*
%TO.C,U9*%
X89250000Y-96112500D03*
X90200000Y-96112500D03*
X91150000Y-96112500D03*
X91150000Y-93837500D03*
X90200000Y-93837500D03*
X89250000Y-93837500D03*
%TD*%
D21*
%TO.C,C58*%
X158180000Y-84790000D03*
X157220000Y-84790000D03*
%TD*%
%TO.C,C51*%
X160680000Y-94900000D03*
X159720000Y-94900000D03*
%TD*%
M02*
