%TF.GenerationSoftware,KiCad,Pcbnew,8.0.6*%
%TF.CreationDate,2024-12-25T08:51:45-08:00*%
%TF.ProjectId,hardware,68617264-7761-4726-952e-6b696361645f,rev?*%
%TF.SameCoordinates,Original*%
%TF.FileFunction,Paste,Bot*%
%TF.FilePolarity,Positive*%
%FSLAX46Y46*%
G04 Gerber Fmt 4.6, Leading zero omitted, Abs format (unit mm)*
G04 Created by KiCad (PCBNEW 8.0.6) date 2024-12-25 08:51:45*
%MOMM*%
%LPD*%
G01*
G04 APERTURE LIST*
G04 Aperture macros list*
%AMRoundRect*
0 Rectangle with rounded corners*
0 $1 Rounding radius*
0 $2 $3 $4 $5 $6 $7 $8 $9 X,Y pos of 4 corners*
0 Add a 4 corners polygon primitive as box body*
4,1,4,$2,$3,$4,$5,$6,$7,$8,$9,$2,$3,0*
0 Add four circle primitives for the rounded corners*
1,1,$1+$1,$2,$3*
1,1,$1+$1,$4,$5*
1,1,$1+$1,$6,$7*
1,1,$1+$1,$8,$9*
0 Add four rect primitives between the rounded corners*
20,1,$1+$1,$2,$3,$4,$5,0*
20,1,$1+$1,$4,$5,$6,$7,0*
20,1,$1+$1,$6,$7,$8,$9,0*
20,1,$1+$1,$8,$9,$2,$3,0*%
G04 Aperture macros list end*
%ADD10RoundRect,0.140000X-0.170000X0.140000X-0.170000X-0.140000X0.170000X-0.140000X0.170000X0.140000X0*%
%ADD11RoundRect,0.140000X0.140000X0.170000X-0.140000X0.170000X-0.140000X-0.170000X0.140000X-0.170000X0*%
%ADD12RoundRect,0.140000X0.170000X-0.140000X0.170000X0.140000X-0.170000X0.140000X-0.170000X-0.140000X0*%
%ADD13RoundRect,0.140000X-0.140000X-0.170000X0.140000X-0.170000X0.140000X0.170000X-0.140000X0.170000X0*%
%ADD14RoundRect,0.135000X0.135000X0.185000X-0.135000X0.185000X-0.135000X-0.185000X0.135000X-0.185000X0*%
%ADD15RoundRect,0.135000X-0.135000X-0.185000X0.135000X-0.185000X0.135000X0.185000X-0.135000X0.185000X0*%
%ADD16RoundRect,0.225000X-0.225000X-0.250000X0.225000X-0.250000X0.225000X0.250000X-0.225000X0.250000X0*%
%ADD17RoundRect,0.218750X0.256250X-0.218750X0.256250X0.218750X-0.256250X0.218750X-0.256250X-0.218750X0*%
%ADD18R,1.300000X0.500000*%
%ADD19R,0.500000X1.300000*%
%ADD20R,0.400000X0.500000*%
%ADD21R,0.300000X0.500000*%
%ADD22RoundRect,0.135000X-0.185000X0.135000X-0.185000X-0.135000X0.185000X-0.135000X0.185000X0.135000X0*%
%ADD23RoundRect,0.225000X0.225000X0.250000X-0.225000X0.250000X-0.225000X-0.250000X0.225000X-0.250000X0*%
%ADD24RoundRect,0.100000X0.225000X0.100000X-0.225000X0.100000X-0.225000X-0.100000X0.225000X-0.100000X0*%
%ADD25RoundRect,0.100000X-0.100000X0.225000X-0.100000X-0.225000X0.100000X-0.225000X0.100000X0.225000X0*%
%ADD26RoundRect,0.150000X-0.150000X0.825000X-0.150000X-0.825000X0.150000X-0.825000X0.150000X0.825000X0*%
%ADD27RoundRect,0.225000X0.250000X-0.225000X0.250000X0.225000X-0.250000X0.225000X-0.250000X-0.225000X0*%
%ADD28RoundRect,0.135000X0.185000X-0.135000X0.185000X0.135000X-0.185000X0.135000X-0.185000X-0.135000X0*%
G04 APERTURE END LIST*
D10*
%TO.C,C2*%
X137579100Y-98135500D03*
X137579100Y-99095500D03*
%TD*%
%TO.C,C31*%
X113157000Y-106568300D03*
X113157000Y-107528300D03*
%TD*%
D11*
%TO.C,C38*%
X116253200Y-110693200D03*
X115293200Y-110693200D03*
%TD*%
%TO.C,C42*%
X116265900Y-108775500D03*
X115305900Y-108775500D03*
%TD*%
D12*
%TO.C,C43*%
X115303300Y-112575280D03*
X115303300Y-111615280D03*
%TD*%
D11*
%TO.C,C48*%
X118117560Y-110637320D03*
X117157560Y-110637320D03*
%TD*%
D13*
%TO.C,C53*%
X112219800Y-108483400D03*
X113179800Y-108483400D03*
%TD*%
D11*
%TO.C,C54*%
X116253200Y-109753400D03*
X115293200Y-109753400D03*
%TD*%
%TO.C,C55*%
X114767300Y-103517700D03*
X113807300Y-103517700D03*
%TD*%
D13*
%TO.C,C59*%
X111902300Y-104927400D03*
X112862300Y-104927400D03*
%TD*%
D12*
%TO.C,C64*%
X116560600Y-104747000D03*
X116560600Y-103787000D03*
%TD*%
D11*
%TO.C,C66*%
X110970000Y-107721400D03*
X110010000Y-107721400D03*
%TD*%
%TO.C,C67*%
X116265900Y-107784900D03*
X115305900Y-107784900D03*
%TD*%
D12*
%TO.C,C68*%
X111467900Y-112176500D03*
X111467900Y-111216500D03*
%TD*%
D11*
%TO.C,C69*%
X110970000Y-105740200D03*
X110010000Y-105740200D03*
%TD*%
D12*
%TO.C,C70*%
X110490000Y-112176500D03*
X110490000Y-111216500D03*
%TD*%
D13*
%TO.C,C75*%
X141544100Y-96405700D03*
X142504100Y-96405700D03*
%TD*%
%TO.C,C76*%
X139613700Y-96405700D03*
X140573700Y-96405700D03*
%TD*%
%TO.C,C77*%
X137391200Y-97180400D03*
X138351200Y-97180400D03*
%TD*%
%TO.C,C78*%
X141544100Y-95351600D03*
X142504100Y-95351600D03*
%TD*%
D11*
%TO.C,C79*%
X134782500Y-99402900D03*
X133822500Y-99402900D03*
%TD*%
%TO.C,C80*%
X134211000Y-97447100D03*
X133251000Y-97447100D03*
%TD*%
D13*
%TO.C,C82*%
X138458000Y-100888800D03*
X139418000Y-100888800D03*
%TD*%
D11*
%TO.C,C85*%
X132306000Y-102882700D03*
X131346000Y-102882700D03*
%TD*%
%TO.C,C86*%
X131122360Y-104653080D03*
X130162360Y-104653080D03*
%TD*%
D12*
%TO.C,C87*%
X128562100Y-104073900D03*
X128562100Y-103113900D03*
%TD*%
D13*
%TO.C,C89*%
X140931960Y-105628440D03*
X141891960Y-105628440D03*
%TD*%
%TO.C,C90*%
X129695000Y-101942900D03*
X130655000Y-101942900D03*
%TD*%
%TO.C,C91*%
X138839000Y-105613200D03*
X139799000Y-105613200D03*
%TD*%
D12*
%TO.C,C92*%
X128130300Y-98559500D03*
X128130300Y-97599500D03*
%TD*%
D11*
%TO.C,C99*%
X110462000Y-106730800D03*
X109502000Y-106730800D03*
%TD*%
D14*
%TO.C,R30*%
X110593600Y-104470200D03*
X109573600Y-104470200D03*
%TD*%
D11*
%TO.C,C74*%
X131340800Y-98501200D03*
X130380800Y-98501200D03*
%TD*%
D12*
%TO.C,C40*%
X116248180Y-112575280D03*
X116248180Y-111615280D03*
%TD*%
%TO.C,C56*%
X113576100Y-112567600D03*
X113576100Y-111607600D03*
%TD*%
D11*
%TO.C,C73*%
X119380000Y-104500000D03*
X118420000Y-104500000D03*
%TD*%
%TO.C,C65*%
X114767300Y-104533700D03*
X113807300Y-104533700D03*
%TD*%
D14*
%TO.C,R26*%
X114810000Y-105524300D03*
X113790000Y-105524300D03*
%TD*%
D10*
%TO.C,C32*%
X135128000Y-106111100D03*
X135128000Y-107071100D03*
%TD*%
%TO.C,C37*%
X117200000Y-107620000D03*
X117200000Y-108580000D03*
%TD*%
D15*
%TO.C,R6*%
X120429560Y-102280720D03*
X121449560Y-102280720D03*
%TD*%
D16*
%TO.C,C46*%
X121825000Y-134400000D03*
X123375000Y-134400000D03*
%TD*%
D13*
%TO.C,C49*%
X125920000Y-85000000D03*
X126880000Y-85000000D03*
%TD*%
D17*
%TO.C,L5*%
X120200000Y-134387500D03*
X120200000Y-132812500D03*
%TD*%
D18*
%TO.C,U8*%
X106925000Y-133325000D03*
X106925000Y-132425000D03*
X106925000Y-131525000D03*
X106925000Y-130625000D03*
X106925000Y-129725000D03*
X106925000Y-128825000D03*
X106925000Y-127925000D03*
X106925000Y-127025000D03*
X106925000Y-126125000D03*
X106925000Y-125225000D03*
X106925000Y-124325000D03*
D19*
X108200000Y-123050000D03*
X109100000Y-123050000D03*
X110000000Y-123050000D03*
X110900000Y-123050000D03*
X111800000Y-123050000D03*
X112700000Y-123050000D03*
X113600000Y-123050000D03*
X114500000Y-123050000D03*
X115400000Y-123050000D03*
X116300000Y-123050000D03*
X117200000Y-123050000D03*
D18*
X118475000Y-124325000D03*
X118475000Y-125225000D03*
X118475000Y-126125000D03*
X118475000Y-127025000D03*
X118475000Y-127925000D03*
X118475000Y-128825000D03*
X118475000Y-129725000D03*
X118475000Y-130625000D03*
X118475000Y-131525000D03*
X118475000Y-132425000D03*
X118475000Y-133325000D03*
D19*
X117200000Y-134600000D03*
X116300000Y-134600000D03*
X115400000Y-134600000D03*
X114500000Y-134600000D03*
X113600000Y-134600000D03*
X112700000Y-134600000D03*
X111800000Y-134600000D03*
X110900000Y-134600000D03*
X110000000Y-134600000D03*
X109100000Y-134600000D03*
X108200000Y-134600000D03*
%TD*%
D10*
%TO.C,C60*%
X106662500Y-93940000D03*
X106662500Y-94900000D03*
%TD*%
D11*
%TO.C,C44*%
X116480000Y-136000000D03*
X115520000Y-136000000D03*
%TD*%
D14*
%TO.C,R33*%
X111110000Y-136000000D03*
X110090000Y-136000000D03*
%TD*%
D20*
%TO.C,RN1*%
X114425000Y-121525000D03*
D21*
X113925000Y-121525000D03*
X113425000Y-121525000D03*
D20*
X112925000Y-121525000D03*
X112925000Y-120525000D03*
D21*
X113425000Y-120525000D03*
X113925000Y-120525000D03*
D20*
X114425000Y-120525000D03*
%TD*%
D22*
%TO.C,R38*%
X119765000Y-124115000D03*
X119765000Y-125135000D03*
%TD*%
D23*
%TO.C,C45*%
X117372756Y-121425000D03*
X115822756Y-121425000D03*
%TD*%
D24*
%TO.C,U14*%
X150650000Y-124950000D03*
X150650000Y-125600000D03*
X150650000Y-126250000D03*
X148750000Y-126250000D03*
X148750000Y-125600000D03*
X148750000Y-124950000D03*
%TD*%
D12*
%TO.C,C61*%
X150650000Y-99820000D03*
X150650000Y-98860000D03*
%TD*%
D15*
%TO.C,R37*%
X117490000Y-136000000D03*
X118510000Y-136000000D03*
%TD*%
D25*
%TO.C,U13*%
X108007500Y-93460000D03*
X108657500Y-93460000D03*
X109307500Y-93460000D03*
X109307500Y-95360000D03*
X108007500Y-95360000D03*
%TD*%
D26*
%TO.C,U10*%
X123055000Y-86825000D03*
X124325000Y-86825000D03*
X125595000Y-86825000D03*
X126865000Y-86825000D03*
X128135000Y-86825000D03*
X129405000Y-86825000D03*
X130675000Y-86825000D03*
X131945000Y-86825000D03*
X131945000Y-91775000D03*
X130675000Y-91775000D03*
X129405000Y-91775000D03*
X128135000Y-91775000D03*
X126865000Y-91775000D03*
X125595000Y-91775000D03*
X124325000Y-91775000D03*
X123055000Y-91775000D03*
%TD*%
D22*
%TO.C,R39*%
X119757244Y-126022244D03*
X119757244Y-127042244D03*
%TD*%
D12*
%TO.C,C62*%
X150780000Y-131260000D03*
X150780000Y-130300000D03*
%TD*%
D10*
%TO.C,C39*%
X105300000Y-132440000D03*
X105300000Y-133400000D03*
%TD*%
D16*
%TO.C,C47*%
X121825000Y-132800000D03*
X123375000Y-132800000D03*
%TD*%
D27*
%TO.C,C41*%
X105275000Y-126050000D03*
X105275000Y-124500000D03*
%TD*%
D15*
%TO.C,R35*%
X103290000Y-132480000D03*
X104310000Y-132480000D03*
%TD*%
D13*
%TO.C,C50*%
X120720000Y-92500000D03*
X121680000Y-92500000D03*
%TD*%
D10*
%TO.C,C36*%
X102300000Y-132420000D03*
X102300000Y-133380000D03*
%TD*%
D15*
%TO.C,R40*%
X106790000Y-121600000D03*
X107810000Y-121600000D03*
%TD*%
%TO.C,R36*%
X107890000Y-136000000D03*
X108910000Y-136000000D03*
%TD*%
D14*
%TO.C,R23*%
X106510000Y-114000000D03*
X105490000Y-114000000D03*
%TD*%
D20*
%TO.C,RN2*%
X110375000Y-121625000D03*
D21*
X109875000Y-121625000D03*
X109375000Y-121625000D03*
D20*
X108875000Y-121625000D03*
X108875000Y-120625000D03*
D21*
X109375000Y-120625000D03*
X109875000Y-120625000D03*
D20*
X110375000Y-120625000D03*
%TD*%
D28*
%TO.C,R34*%
X105565000Y-130025000D03*
X105565000Y-129005000D03*
%TD*%
M02*
